<?xml version="1.0" standalone="no"?>
<!DOCTYPE svg PUBLIC "-//W3C//DTD SVG 1.1//EN" "http://www.w3.org/Graphics/SVG/1.1/DTD/svg11.dtd" >
<svg>
<metadata>
Created by FontForge 20090622 at Tue Sep 15 13:52:30 2020
 By deploy user
Digitized data copyright &#194;&#169; 2006, Google Corporation.
</metadata>
<defs>
<font id="AcademiaLibera" horiz-adv-x="1628" >
  <font-face 
    font-family="Academia Libera"
    font-weight="500"
    font-stretch="normal"
    units-per-em="2048"
    panose-1="2 2 6 0 6 5 0 2 2 0"
    ascent="1638"
    descent="-410"
    x-height="923"
    cap-height="1467"
    bbox="-385 -589 2734 2166"
    underline-thickness="102"
    underline-position="-103"
    unicode-range="U+0020-U+FFFD"
  />
<missing-glyph horiz-adv-x="973" 
d="M97 -5v1472h789v-1472h-789zM201 103h581v1256h-581v-1256z" />
    <glyph glyph-name=".notdef" horiz-adv-x="973" 
d="M97 -5v1472h789v-1472h-789zM201 103h581v1256h-581v-1256z" />
    <glyph glyph-name=".null" horiz-adv-x="0" 
 />
    <glyph glyph-name="nonmarkingreturn" horiz-adv-x="992" 
 />
    <glyph glyph-name="space" unicode=" " horiz-adv-x="505" 
 />
    <glyph glyph-name="exclam" unicode="!" horiz-adv-x="584" 
d="M198 1500h249l-76 -1200h-99zM233 167q36 39 89 39q54 0 88 -39q39 -33 39 -85q0 -49 -39 -85q-34 -37 -88 -37q-53 0 -89 37q-39 36 -39 85q0 52 39 85z" />
    <glyph glyph-name="quotedbl" unicode="&#x22;" horiz-adv-x="704" 
d="M220 999h-89l-65 497h216zM594 999h-90l-65 497h217z" />
    <glyph glyph-name="numbersign" unicode="#" horiz-adv-x="1620" 
d="M809 -5l75 416h-395l-72 -416h-144l71 416h-344l24 112h342l83 471h-342l19 115h345l72 395h143l-71 -395h395l72 395h144l-72 -395h352l-23 -115h-350l-84 -471h350l-21 -112h-351l-74 -416h-144zM904 523l86 471h-397l-85 -471h396z" />
    <glyph glyph-name="dollar" unicode="$" horiz-adv-x="1167" 
d="M584 1379q136 -8 251 -72q135 -73 135 -179q0 -138 -137 -138q-129 0 -129 114q0 25 11 42q9 11 9 54q0 77 -140 77v-435q260 -107 319 -148q148 -101 148 -278q0 -132 -91 -249q-126 -152 -376 -179v-149h-111v148q-250 24 -374 118q-99 74 -99 180q0 60 47 96
q48 40 116 40q62 0 96 -43q35 -32 35 -79q0 -30 -19 -64q-18 -33 -18 -49q0 -31 49 -61q65 -34 167 -36v575q-215 75 -310 151q-115 89 -115 225q0 139 122 236q126 101 303 103v131h111v-131zM473 1277q-115 -8 -179 -67q-54 -51 -54 -125q0 -123 233 -204v396zM584 90
q117 11 206 92q84 80 84 176q0 193 -290 268v-536z" />
    <glyph glyph-name="percent" unicode="%" horiz-adv-x="1784" 
d="M653 1377q83 -108 83 -259q0 -128 -59 -228q-98 -160 -308 -160q-212 0 -311 160q-58 100 -58 228q0 151 83 259q99 129 286 129q184 0 284 -129zM203 1206v-174q0 -210 166 -210q164 0 164 210v174q0 210 -164 210q-166 0 -166 -210zM1160 1511l96 -34l-748 -1500
l-98 39zM1585 626q83 -109 83 -259q0 -128 -61 -229q-98 -159 -308 -159t-309 159q-60 101 -60 229q0 150 83 259q99 129 286 129q184 0 286 -129zM1133 453v-170q0 -215 166 -215q164 0 164 215v170q0 212 -164 212q-166 0 -166 -212z" />
    <glyph glyph-name="ampersand" unicode="&#x26;" horiz-adv-x="1725" 
d="M1508 931v-87q-126 -27 -219 -149q-9 -8 -105 -157q-76 -117 -154 -204q152 -186 325 -186q64 0 116 38q51 42 67 112h73q-72 -319 -334 -319q-198 0 -387 207q-220 -207 -494 -207q-198 0 -303 110q-93 97 -93 239q0 289 457 510q-78 167 -78 295q0 164 104 257
q94 88 244 88q135 0 224 -75q86 -73 86 -182q0 -227 -351 -377q106 -229 284 -437q180 220 180 365q0 60 -109 72v87h467zM496 749q-254 -121 -254 -325q0 -139 78 -224q75 -78 189 -78q167 0 317 134q-203 237 -330 493zM889 1221q0 82 -44 130q-39 33 -103 33
q-71 0 -117 -40q-54 -44 -54 -132q0 -109 77 -285q241 89 241 294z" />
    <glyph glyph-name="quotesingle" unicode="'" horiz-adv-x="238" 
d="M154 1003h-89l-65 497h216z" />
    <glyph glyph-name="parenleft" unicode="(" horiz-adv-x="713" 
d="M554 1478q-62 -68 -121 -156q-195 -295 -195 -691q0 -401 195 -694q59 -90 121 -152q43 -43 43 -57q0 -40 -41 -40q-32 0 -93 48q-463 357 -463 895q0 535 463 891q61 48 93 48q41 0 41 -38q0 -17 -43 -54z" />
    <glyph glyph-name="parenright" unicode=")" horiz-adv-x="713" 
d="M42 1586q32 0 92 -48q463 -366 463 -913q0 -548 -463 -916q-60 -48 -92 -48q-42 0 -42 44q0 10 43 54q63 64 121 156q196 303 196 710q0 404 -196 707q-58 92 -121 156q-43 44 -43 56q0 42 42 42z" />
    <glyph glyph-name="asterisk" unicode="*" horiz-adv-x="1083" 
d="M484 1373q110 0 131 -119q-103 -117 -97 -339q5 -2 17 -10q178 43 277 202h14q70 0 111 -49q31 -41 31 -83q0 -83 -73 -137q-61 27 -164 27t-175 -30q0 -17 -3 -22q11 -22 41 -55q131 -138 227 -158q36 -78 -8 -146q-43 -62 -117 -62q-49 0 -91 42q17 179 -110 335
q-11 -2 -23 0q-126 -156 -110 -335q-41 -42 -88 -42q-76 0 -119 62q-45 68 -7 146q96 20 225 159q32 32 41 54q-4 4 -4 22q-70 30 -173 30q-105 0 -165 -27q-72 54 -72 137q0 42 30 83q41 49 111 49h14q100 -159 277 -202q13 8 17 10q6 222 -97 339q19 119 132 119z" />
    <glyph glyph-name="plus" unicode="+" horiz-adv-x="1402" 
d="M581 67v637h-581v135h581v636h123v-636h582v-135h-582v-637h-123z" />
    <glyph glyph-name="comma" unicode="," horiz-adv-x="396" 
d="M69 -232q137 120 154 216q-17 1 -38 3q-113 13 -131 120q18 144 152 158q147 -14 147 -187q0 -218 -232 -368z" />
    <glyph glyph-name="hyphen" unicode="-" horiz-adv-x="778" 
d="M143 269l50 273h303q52 0 76 17t36 60h65l-43 -274h-310q-46 0 -62.5 -4.5t-24.5 -15.5q-2 -2 -5 -5.5t-28 -50.5h-57z" />
    <glyph glyph-name="period" unicode="." horiz-adv-x="371" 
d="M102 205q36 41 89 41q54 0 88 -41q39 -36 39 -93q0 -55 -39 -93q-34 -41 -88 -41q-53 0 -89 41q-39 38 -39 93q0 57 39 93z" />
    <glyph glyph-name="slash" unicode="/" horiz-adv-x="1048" 
d="M0 -206l792 1745h146l-797 -1745h-141z" />
    <glyph glyph-name="zero" unicode="0" horiz-adv-x="1140" 
d="M159 169q-159 209 -159 572q0 304 124 517q144 240 389 240q246 0 388 -240q123 -213 123 -517q0 -363 -157 -572q-142 -190 -354 -190q-213 0 -354 190zM739 302q37 148 37 439q0 286 -37 434q-61 233 -226 233q-166 0 -227 -233q-38 -148 -38 -434q0 -291 38 -439
q61 -229 227 -229q165 0 226 229z" />
    <glyph glyph-name="one" unicode="1" horiz-adv-x="782" 
d="M666 -5h-495v82q141 12 141 167v980h-9q-157 -151 -303 -224v103q243 144 398 393h128v-1252q0 -152 140 -168v-81z" />
    <glyph glyph-name="two" unicode="2" horiz-adv-x="1151" 
d="M945 -5h-945v87q720 706 720 1036q0 105 -59 167q-66 68 -179 68q-189 0 -335 -184l-81 43q195 284 496 284q193 0 304 -97q102 -91 102 -223q0 -323 -737 -989v0h428q219 0 286 144h92z" />
    <glyph glyph-name="three" unicode="3" horiz-adv-x="1075" 
d="M39 1208q194 302 507 302q156 0 242 -83q78 -68 78 -170q0 -199 -264 -340v-1h14q139 0 235 -76q108 -89 108 -246q0 -251 -255 -424q-260 -179 -645 -191h-59v79q331 21 531 169q193 143 193 336q0 106 -76 168q-68 57 -174 57q-82 0 -189 -50l-47 69q427 226 427 420
q0 64 -46 106q-53 48 -147 48q-179 0 -355 -219z" />
    <glyph glyph-name="four" unicode="4" horiz-adv-x="1181" 
d="M833 1496v-897h18q104 0 140 136l75 -16l-86 -290h-147v-434h-215v434h-618v104l731 963h102zM618 1193h-6l-439 -580v-14h445v594z" />
    <glyph glyph-name="five" unicode="5" horiz-adv-x="986" 
d="M720 1287h-401l-101 -345l2 -2q108 56 231 56q156 0 275 -85q144 -105 144 -301q0 -219 -162 -402q-199 -229 -510 -229q-122 0 -198 23v89q64 -18 165 -18q208 0 345 163q123 153 123 352q0 158 -76 238q-66 66 -159 66q-97 0 -234 -60l-46 34l167 616h335q49 0 159 17z
" />
    <glyph glyph-name="six" unicode="6" horiz-adv-x="1133" 
d="M85 194q-85 135 -85 293q0 231 43 360q62 184 204 344q215 240 551 320v-93q-469 -223 -546 -622h-2q117 122 297 122q209 0 343 -135q128 -124 128 -316q0 -211 -138 -348q-141 -140 -371 -140q-287 0 -424 215zM238 444q0 -216 108 -309q70 -62 167 -62q267 0 267 371
q0 211 -93 311q-69 69 -172 69q-277 0 -277 -380z" />
    <glyph glyph-name="seven" unicode="7" horiz-adv-x="999" 
d="M31 1496h853v-90l-455 -1411h-271l592 1305h-543q-63 0 -88 -33q-29 -41 -31 -162h-88z" />
    <glyph glyph-name="eight" unicode="8" horiz-adv-x="1111" 
d="M260 826q-174 121 -174 319q0 137 107 236q122 117 320 117q170 0 283 -91q111 -91 111 -223q0 -206 -199 -313v-4q286 -153 286 -416q0 -185 -124 -319q-139 -153 -382 -153q-220 0 -356 128q-132 119 -132 301q0 291 260 416v2zM733 1182q0 90 -57 154q-68 72 -185 72
q-105 0 -171 -68q-61 -60 -61 -136q0 -199 323 -286q151 86 151 264zM189 432q0 -180 101 -279q87 -80 220 -80q117 0 192 73q78 77 78 194q0 243 -259 367l-192 80q-140 -124 -140 -355z" />
    <glyph glyph-name="nine" unicode="9" horiz-adv-x="1130" 
d="M814 1403q200 -140 200 -412q0 -218 -46 -355q-69 -209 -242 -385q-211 -208 -507 -273v93q466 225 546 614h1q-107 -123 -296 -123q-160 0 -293 93q-177 122 -177 357q0 180 108 314q136 172 399 172q173 0 307 -95zM776 1032q0 214 -100 308q-70 68 -175 68
q-263 0 -263 -376t263 -376q275 0 275 376z" />
    <glyph glyph-name="colon" unicode=":" horiz-adv-x="438" 
d="M183 890q36 37 89 37q54 0 88 -37q39 -36 39 -91q0 -49 -39 -87q-34 -39 -88 -39q-53 0 -89 39q-39 38 -39 87q0 55 39 91zM179 204q36 39 89 39q54 0 88 -39q39 -33 39 -87q0 -53 -39 -89q-34 -39 -88 -39q-53 0 -89 39q-39 36 -39 89q0 54 39 87z" />
    <glyph glyph-name="semicolon" unicode=";" horiz-adv-x="482" 
d="M173 891q39 39 92 39q52 0 89 -39q39 -37 39 -95q0 -53 -39 -93q-37 -41 -89 -41q-53 0 -92 41q-36 40 -36 93q0 58 36 95zM133 -231q137 120 154 216q-17 1 -38 3q-113 13 -131 120q18 144 152 158q147 -14 147 -187q0 -218 -232 -368z" />
    <glyph glyph-name="less" unicode="&#x3c;" horiz-adv-x="1301" 
d="M1304 15l-36 -104l-1158 505l1158 504l36 -101l-920 -403z" />
    <glyph glyph-name="equal" unicode="=" horiz-adv-x="1377" 
d="M0 365h1261v-108h-1261v108zM0 679h1261v-102h-1261v102z" />
    <glyph glyph-name="greater" unicode="&#x3e;" horiz-adv-x="1260" 
d="M110 900l34 102l1119 -504l-1119 -505l-34 104l889 401z" />
    <glyph glyph-name="question" unicode="?" horiz-adv-x="889" 
d="M194 713l86 13q46 -51 123 -51q212 0 212 263q0 163 -80 329q-70 149 -125 149q-25 0 -32 -26q-19 -68 -101 -68q-94 0 -94 93q0 99 157 99q184 0 373 -243q141 -183 141 -437q0 -149 -95 -236q-92 -89 -226 -89q-114 0 -214 84h-11l23 -248h-96zM181 199q41 33 94 33
q54 0 93 -33q39 -34 39 -84t-39 -84q-38 -36 -93 -36q-53 0 -94 36q-41 34 -41 84t41 84z" />
    <glyph glyph-name="at" unicode="@" horiz-adv-x="1853" 
d="M1207 546q-35 -109 -35 -159q0 -114 86 -114q117 0 220 115q131 144 131 388q0 283 -192 474q-200 193 -499 193q-370 0 -593 -258q-192 -233 -192 -542q0 -313 215 -540q227 -235 574 -235q271 0 463 176l67 -104q-252 -189 -521 -189q-420 0 -684 271
q-247 255 -247 613q0 393 257 652q256 262 661 262q357 0 590 -231q230 -220 230 -542q0 -286 -172 -457q-144 -150 -330 -150q-154 0 -221 146q-127 -99 -261 -99q-127 0 -211 92q-96 100 -96 272q0 213 142 369q149 158 361 158q145 0 222 -117l28 80h164zM1127 860
q-18 77 -65 128q-51 47 -116 47q-85 0 -166 -90q-85 -98 -120 -264q-21 -87 -21 -224q0 -66 36 -112q43 -49 118 -49q125 0 204 113z" />
    <glyph glyph-name="A" unicode="A" horiz-adv-x="1708" 
d="M1438 229q66 -147 164 -149v-88h-446v86q54 10 67 24q8 12 8 50q0 15 -17 58l-84 183h-747l-85 -174q-23 -52 -23 -69q0 -56 85 -72v-86h-360v88q110 4 173 143l492 1016q18 36 18 47q0 23 -52 23v86q96 18 156 92h58zM772 1172h-10l-329 -681h657z" />
    <glyph glyph-name="B" unicode="B" horiz-adv-x="1377" 
d="M628 1467q445 0 545 -263q22 -56 22 -112q0 -47 -17 -103q-69 -183 -247 -222l-22 -6l30 -12q191 -28 282 -184q50 -85 50 -179q0 -216 -205 -319q-142 -75 -323 -75h-743v87q136 5 136 162v977q0 158 -136 160v89h628zM600 790q274 0 336 187q13 44 13 112q0 44 -19 94
q-68 186 -359 186h-218v-579h247zM648 90q132 0 231 47q144 73 144 249q0 149 -107 229q-103 77 -288 77h-275v-602h295z" />
    <glyph glyph-name="C" unicode="C" horiz-adv-x="1506" 
d="M1245 1110q-61 150 -203 227q-119 68 -263 68q-207 0 -361 -166q-170 -185 -170 -512q0 -310 160 -485q156 -166 415 -166q299 0 520 232l59 -60q-258 -272 -623 -272q-340 0 -557 200q-222 210 -222 553q0 335 213 553q214 219 548 219q150 0 321 -47q113 -29 157 -29
q23 0 50 27h51v-342h-95z" />
    <glyph glyph-name="D" unicode="D" horiz-adv-x="1655" 
d="M675 1459q496 0 731 -305q144 -188 144 -441q0 -287 -202 -499q-214 -222 -671 -222h-677v85q136 14 136 163v972q0 150 -136 163v84h675zM627 91q255 0 427 104q249 160 249 526q0 382 -284 547q-170 94 -392 94h-276v-1271h276z" />
    <glyph glyph-name="E" unicode="E" horiz-adv-x="1352" 
d="M1188 1467l9 -281h-94q-33 107 -127 147q-73 28 -219 28h-406v-578h274q155 0 179 115h92v-325h-92q-28 83 -68 104q-22 8 -111 8h-274v-595h455q406 0 425 227h98l-25 -325h-1304v84q136 16 136 162v973q0 156 -136 158l2 98h1186z" />
    <glyph glyph-name="F" unicode="F" horiz-adv-x="1348" 
d="M1242 1469v-287h-96q-32 107 -127 147q-73 29 -220 29h-448v-548h318q156 0 179 116h96v-327h-96q-18 79 -55 98q-34 17 -109 17h-333v-476q0 -144 134 -162v-84h-485v86q136 12 136 160v970q0 150 -136 157l3 104h1239z" />
    <glyph glyph-name="G" unicode="G" horiz-adv-x="1582" 
d="M1372 1106h-93q-128 299 -497 299q-221 0 -366 -145q-168 -176 -168 -494q0 -506 335 -645q101 -45 283 -45q166 0 271 75q108 78 122 211q17 162 -132 169v87h348v-526q-370 -116 -617 -116q-425 0 -636 200q-222 208 -222 596q0 263 182 471q222 258 597 258
q196 0 349 -57q67 -23 120 -23q9 0 21 6q10 11 19 17h84v-338z" />
    <glyph glyph-name="H" unicode="H" horiz-adv-x="1526" 
d="M444 1381q-123 -12 -123 -163v-424h819v424q0 149 -121 165v84h447v-86q-126 -12 -126 -163v-979q0 -149 126 -163v-84h-447v84q121 16 121 163v455h-819v-455q0 -149 123 -161v-86h-444v86q124 12 124 161v979q0 151 -124 163v86h444v-86z" />
    <glyph glyph-name="I" unicode="I" horiz-adv-x="589" 
d="M483 1383q-134 -12 -134 -163v-981q0 -147 134 -163v-84h-483v84q134 16 134 163v981q0 151 -134 163v86h483v-86z" />
    <glyph glyph-name="J" unicode="J" horiz-adv-x="573" 
d="M526 1473v-81q-144 -17 -144 -156v-980q0 -255 -149 -396q-125 -118 -293 -118q-98 0 -161 44q-59 42 -59 96q0 41 32 74q33 25 79 25q111 0 111 -77q0 -14 -2 -26q-5 -6 -5 -10q0 -28 57 -28q162 0 162 336v1060q0 143 -144 154v83h516z" />
    <glyph glyph-name="K" unicode="K" horiz-adv-x="1482" 
d="M440 1469v-86q-121 -12 -121 -163v-440v0l551 461q66 57 66 96q0 46 -54 46h-24v86h452v-84q-149 -39 -296 -163l-420 -347l596 -649q125 -130 245 -150v-84h-548v86h26q64 0 64 56q0 33 -44 84l-491 531l-123 -102v-408q0 -149 121 -163v-84h-440v84q123 16 123 163v981
q0 151 -123 163v86h440z" />
    <glyph glyph-name="L" unicode="L" horiz-adv-x="1263" 
d="M452 1384q-126 -14 -126 -166v-1127h443q121 0 205 79q71 72 92 183h90v-361h-1156v86q124 13 124 164v976q0 152 -124 166v83h452v-83z" />
    <glyph glyph-name="M" unicode="M" horiz-adv-x="1914" 
d="M899 283l503 1186h406v-86q-128 -12 -128 -161v-984q0 -150 128 -158v-88h-464v88q129 8 129 158v1143l-592 -1405h-86l-561 1405v-1144q0 -149 128 -157v-88h-362v88q130 12 130 157v1027q0 115 -130 119v86h412z" />
    <glyph glyph-name="N" unicode="N" horiz-adv-x="1519" 
d="M0 77q61 12 97 44q27 43 27 101v992q0 165 -124 169v86h312l857 -1089l19 -23v867q0 145 -122 161v84h347v-84q-76 -18 -102 -56q-21 -32 -21 -105v-1232h-77l-992 1260h5v-1030q0 -144 123 -144v-86h-349v85z" />
    <glyph glyph-name="O" unicode="O" 
d="M1328 1243q194 -217 194 -503q0 -289 -194 -505q-218 -243 -567 -243t-565 243q-196 216 -196 505q0 286 196 503q216 245 565 245t567 -245zM389 1215q-159 -180 -159 -481q0 -308 159 -485q148 -169 372 -169t372 169q159 177 159 485q0 301 -159 481
q-148 170 -372 170t-372 -170z" />
    <glyph glyph-name="P" unicode="P" horiz-adv-x="1363" 
d="M0 79q132 8 132 175v773q0 269 233 388q146 70 339 70q188 0 346 -106q208 -142 208 -416q0 -203 -146 -351q-165 -168 -448 -168q-198 0 -326 116l1 -11v-289q0 -97 27 -137q28 -44 113 -44v-87h-479v87zM339 696q114 -157 323 -157q219 0 301 143q54 93 54 281
q0 180 -50 270q-81 157 -303 157q-143 0 -235 -81q-90 -78 -90 -193v-420z" />
    <glyph glyph-name="Q" unicode="Q" horiz-adv-x="1564" 
d="M1445 -66q-75 -309 -258 -309q-225 0 -338 360q-35 -5 -82 -5q-351 0 -569 252q-194 216 -194 499q0 289 196 506q216 245 567 245t569 -245q194 -217 194 -506q0 -235 -135 -434q-139 -198 -349 -269q98 -217 190 -217q77 0 118 140zM814 77q-53 137 -171 137
q-100 0 -132 -72q105 -58 256 -65h47zM697 327q196 0 298 -200q303 139 303 600q0 246 -100 409q-150 249 -431 249t-431 -249q-100 -163 -100 -409q0 -359 200 -528q87 128 261 128z" />
    <glyph glyph-name="R" unicode="R" horiz-adv-x="1461" 
d="M572 1469q442 0 555 -216q39 -75 39 -159q0 -310 -301 -386l301 -487q87 -139 189 -143v-86h-286l-424 684h-315v-436q0 -150 126 -164v-84h-456v84q126 14 126 164v981q0 150 -126 167v81h572zM539 770q393 0 393 306q0 190 -138 257q-83 38 -255 38h-209v-601h209z" />
    <glyph glyph-name="S" unicode="S" horiz-adv-x="1177" 
d="M879 1074q-127 317 -383 317q-125 0 -201 -64q-75 -61 -75 -165q0 -177 316 -262q147 -40 231 -72q304 -129 304 -400q0 -185 -144 -317q-143 -135 -343 -135q-130 0 -240 31q-136 38 -161 38q-72 0 -89 -53h-94v467h96q50 -162 190 -269q145 -115 316 -115q118 0 203 77
q84 83 84 197q0 185 -242 282q-50 22 -139 40q-94 24 -133 39q-330 112 -330 393q0 172 135 279q133 106 335 106q145 0 286 -78q40 -22 63 -22q17 0 49 30h72v-344h-106z" />
    <glyph glyph-name="T" unicode="T" horiz-adv-x="1556" 
d="M0 1467h1505v-293h-98q-2 70 -46 117q-64 62 -191 62h-309v-1114q0 -147 132 -159v-88h-485v86q136 16 136 161v1114h-311q-196 0 -237 -179h-96v293z" />
    <glyph glyph-name="U" unicode="U" horiz-adv-x="1640" 
d="M460 1469v-85q-126 -14 -126 -164v-572q0 -378 245 -495q94 -45 239 -45q148 0 273 72q136 80 185 238q27 89 27 278v541q0 135 -128 145v87h358v-87q-126 -10 -126 -145v-639q0 -622 -625 -622q-355 0 -510 181q-146 162 -146 499v564q0 150 -126 162v87h460z" />
    <glyph glyph-name="V" unicode="V" horiz-adv-x="1747" 
d="M485 1469v-86q-111 0 -111 -73q0 -18 37 -100l460 -958h-1l467 953q31 68 31 96q0 87 -119 82v86h392v-84q-111 -16 -191 -182l-614 -1227h-68l-610 1292q-50 107 -158 115v86h485z" />
    <glyph glyph-name="W" unicode="W" horiz-adv-x="2241" 
d="M2135 1383q-93 -6 -169 -180l-544 -1227h-73l-268 664l-288 -664h-79l-531 1266q-56 139 -183 141v86h493v-86q-103 0 -103 -75q0 -26 29 -99l391 -934l211 494l-212 494q-47 112 -150 120v86h842v-84q-108 -16 -176 -181l-136 -315l258 -616l389 910q34 78 34 114
q0 46 -33 70q-40 11 -77 14v88h375v-86zM1235 1263q18 40 18 70q0 50 -74 50h-48q-66 0 -91 -8q-28 -12 -28 -50q0 -12 27 -81l93 -220z" />
    <glyph glyph-name="X" unicode="X" horiz-adv-x="1556" 
d="M1401 1383q-118 -12 -216 -137l-368 -451l373 -538q111 -157 254 -181v-84h-473v86h27q35 0 35 39q0 33 -35 84l-311 442l-357 -452q-32 -39 -32 -71q0 -42 48 -42h25v-86h-371v86q116 12 201 121l429 529l-314 450q-140 205 -226 205h-36v86h458v-86q-50 0 -50 -27
q0 -53 18 -75l279 -405l302 386q34 45 34 73q0 48 -58 48v86h364v-86z" />
    <glyph glyph-name="Y" unicode="Y" horiz-adv-x="1541" 
d="M501 1469v-81q-74 -15 -74 -60q0 -30 24 -61l346 -473h4l292 454q43 65 43 89q0 49 -78 49v83h377v-83q-139 2 -251 -178l-345 -540v-428q0 -150 122 -164v-84h-445v84q124 16 124 164v439l-394 534q-117 158 -246 175v81h501z" />
    <glyph glyph-name="Z" unicode="Z" horiz-adv-x="1511" 
d="M80 1469h1260v-78l-1060 -1301h783q218 0 250 181h92v-279h-1405v89l1057 1290h-609q-241 0 -276 -186h-92v284z" />
    <glyph glyph-name="bracketleft" unicode="[" horiz-adv-x="613" 
d="M496 1492h-291v-1702h291v-86h-496v1874h496v-86z" />
    <glyph glyph-name="backslash" unicode="\" horiz-adv-x="1048" 
d="M0 1566h145l793 -1852h-141z" />
    <glyph glyph-name="bracketright" unicode="]" horiz-adv-x="613" 
d="M496 1568v-1864h-496v86h290v1690h-290v88h496z" />
    <glyph glyph-name="asciicircum" unicode="^" horiz-adv-x="1007" 
d="M191 1029h-191l451 477l454 -477h-191l-263 275z" />
    <glyph glyph-name="underscore" unicode="_" horiz-adv-x="1358" 
d="M0 -355h1241v-127h-1241v127z" />
    <glyph glyph-name="grave" unicode="`" horiz-adv-x="539" 
d="M389 1023l-279 185q-52 31 -71 50q-39 33 -39 79q0 95 89 95q54 0 95 -51l239 -312z" />
    <glyph glyph-name="a" unicode="a" horiz-adv-x="998" 
d="M541 489q-344 -19 -344 -241q0 -67 47 -109q44 -38 113 -38q114 0 157 99q27 67 27 212v77zM566 120q-123 -125 -283 -125q-134 0 -209 73q-74 66 -74 176q0 298 541 330q0 136 -31 195q-35 78 -139 78q-86 0 -114 -72q-23 -65 -25 -69q-21 -31 -69 -31q-81 0 -81 73
q0 66 80 118q89 63 229 63q215 0 289 -140q44 -86 44 -261v-288q0 -139 94 -139q15 0 45 15l20 -34q-61 -87 -158 -87q-122 0 -159 125z" />
    <glyph glyph-name="b" unicode="b" horiz-adv-x="1148" 
d="M288 862q115 85 291 85q202 0 328 -129q124 -128 124 -335q0 -217 -126 -361q-131 -145 -326 -145q-31 0 -44 2q-145 14 -284 104l-108 -102h-38l-1 1175q0 108 -105 118v78h288zM288 356q0 -288 233 -288q300 0 300 415q0 380 -289 380q-148 0 -244 -97v-410z" />
    <glyph glyph-name="c" unicode="c" horiz-adv-x="949" 
d="M835 180q-169 -185 -388 -185q-181 0 -309 114q-138 124 -138 333q0 207 132 343q127 140 328 140q145 0 227 -57q76 -50 76 -118q0 -85 -93 -85q-96 0 -100 93v4q-8 81 -104 81q-108 0 -173 -88q-83 -104 -83 -313q0 -191 115 -274q74 -57 174 -57q178 0 288 117z" />
    <glyph glyph-name="d" unicode="d" horiz-adv-x="1157" 
d="M934 197q0 -112 107 -120v-80h-290v80h-10q-122 -98 -267 -98q-186 0 -318 105q-156 126 -156 365t138 375q121 123 299 123q175 0 298 -82h16v283q0 96 -94 125v79h277v-1155zM751 728q-56 135 -230 135q-123 0 -201 -75q-110 -104 -110 -327q0 -194 77 -298
q73 -101 197 -101q92 0 170 55q79 54 97 127v484z" />
    <glyph glyph-name="e" unicode="e" horiz-adv-x="922" 
d="M808 190q-168 -199 -376 -199q-157 0 -276 83q-156 113 -156 352q0 221 123 361q116 138 302 138q172 0 271 -125q86 -108 86 -255v-24h-570q-2 -25 -2 -91q0 -335 254 -335q152 0 294 143zM583 620q0 207 -169 207q-188 0 -198 -222h367v15z" />
    <glyph glyph-name="f" unicode="f" horiz-adv-x="712" 
d="M117 925v42q10 160 100 261q114 127 239 127q62 0 99 -32q36 -30 36 -74q0 -87 -80 -87q-45 0 -81 43q-23 23 -52 23q-82 0 -82 -151l4 -152h254v-84h-254v-597q0 -181 122 -168v-81h-422v79q78 12 97 56q20 31 20 114v597h-115v84h115z" />
    <glyph glyph-name="g" unicode="g" horiz-adv-x="1070" 
d="M0 84l185 293q-145 79 -145 244q0 146 108 231q103 85 265 85q187 0 297 -98q31 94 122 94q122 0 122 -114q0 -85 -79 -85q-61 0 -61 59q0 11 4 25q7 20 19 32l6 10l-21 2q-47 -3 -67 -60l11 -26q13 -21 18 -48q16 -45 16 -101q0 -151 -121 -236q-108 -74 -253 -74
q-83 0 -156 25l-106 -162l3 -4l112 40q99 37 204 37q161 0 281 -79q142 -89 142 -240q0 -132 -121 -212q-119 -85 -302 -85q-166 0 -278 60q-115 64 -115 166q0 111 109 111q96 0 96 -83q0 -23 -12 -44q-35 -55 -35 -56q0 -73 204 -73q321 0 321 188q0 173 -318 173
q-198 0 -415 -80zM245 616q0 -228 171 -228q168 0 168 230q0 227 -168 227q-171 0 -171 -229z" />
    <glyph glyph-name="h" unicode="h" horiz-adv-x="1077" 
d="M295 822h6q135 121 302 121q253 0 253 -306v-397q0 -154 105 -166v-79h-393v79q70 10 91 58q13 29 13 108v405q0 188 -138 188q-157 0 -239 -162v-429q4 -153 103 -168v-79h-398v79q107 14 107 168v869q0 65 -13 117q-21 36 -89 47v79h290v-532z" />
    <glyph glyph-name="i" unicode="i" horiz-adv-x="544" 
d="M288 925v-683q0 -161 108 -167v-80h-396v79q105 12 105 168v434q0 83 -14 114q-21 42 -91 56v79h288zM84 1306q32 41 88 41q51 0 83 -34q37 -36 37 -85q0 -57 -41 -90q-39 -32 -79 -32q-46 0 -85 37q-37 38 -37 85q0 43 34 78z" />
    <glyph glyph-name="j" unicode="j" horiz-adv-x="572" 
d="M374 927v-872q0 -234 -70 -355q-84 -147 -254 -147q-65 0 -108 33q-41 36 -41 80q0 79 87 79q41 0 71 -39q42 -45 79 -45q51 0 51 67v948q0 169 -125 169h-42v82h352zM150 1306q32 41 88 41q51 0 83 -34q37 -36 37 -85q0 -57 -41 -90q-39 -32 -79 -32q-46 0 -85 37
q-37 38 -37 85q0 43 34 78z" />
    <glyph glyph-name="k" unicode="k" horiz-adv-x="1052" 
d="M291 561l221 187q52 44 52 62q0 35 -68 35v80h381v-80q-115 -8 -247 -121l-132 -114l315 -402q95 -126 160 -128v-80h-442v81q42 2 59 10t23 23l2 8l1 11l-3 9l-5 13l-253 325l-64 -55v-183q4 -153 103 -168v-79h-398v79q107 14 107 168v869q0 65 -13 117q-21 36 -89 47
v79h290v-793z" />
    <glyph glyph-name="l" unicode="l" horiz-adv-x="513" 
d="M295 1354v-1112q4 -153 103 -168v-79h-398v79q107 14 107 168v869q0 65 -13 117q-21 36 -89 47v79h290z" />
    <glyph glyph-name="m" unicode="m" horiz-adv-x="1644" 
d="M0 74q107 14 107 170v486q0 96 -105 120v78h290l-1 -118q130 137 315 137q171 0 225 -137q141 137 320 137q173 0 235 -107q37 -63 37 -192v-404q0 -163 104 -169v-80h-396v79q107 14 107 170v404q0 187 -138 187q-155 0 -244 -154v-437q0 -163 108 -169v-80h-400v79
q108 14 108 170v404q0 187 -136 187q-143 0 -244 -156v-435q0 -158 106 -170v-79h-398v79z" />
    <glyph glyph-name="n" unicode="n" horiz-adv-x="1079" 
d="M0 73q107 15 107 170v484q0 96 -105 119v78h290l-1 -118q130 137 304 137h11q165 -2 221 -111q29 -60 29 -195v-394q0 -162 108 -168v-80h-400v78q108 15 108 170v402q0 187 -136 187q-143 0 -244 -156v-433q0 -157 106 -170v-78h-398v78z" />
    <glyph glyph-name="o" unicode="o" horiz-adv-x="1031" 
d="M902 597q15 -61 15 -138q0 -49 -15 -114q-52 -204 -227 -290q-101 -51 -214 -51q-115 0 -212 51q-178 85 -231 290q-15 65 -15 114q0 77 15 138q91 345 443 345q353 0 441 -345zM285 777q-75 -87 -75 -311q0 -153 32 -230q53 -149 216 -149q248 0 248 379q0 224 -75 311
q-56 72 -173 72q-115 0 -173 -72z" />
    <glyph glyph-name="p" unicode="p" horiz-adv-x="1118" 
d="M7 -326q105 10 105 161v660q0 154 29 217q102 224 406 224q179 0 309 -108q153 -128 153 -357q0 -226 -157 -367q-119 -103 -289 -103q-174 0 -267 96h-1v-260q0 -163 121 -163v-78h-409v78zM295 344q0 -246 250 -246q254 0 254 373q0 371 -252 371q-126 0 -198 -93
q-54 -69 -54 -146v-259z" />
    <glyph glyph-name="q" unicode="q" horiz-adv-x="1170" 
d="M640 -369q123 21 123 166v292h-3q-122 -121 -290 -121q-231 0 -361 154q-109 128 -109 312q0 171 98 304q137 185 403 185q160 0 282 -76h10l94 76h61v-1124q0 -165 107 -167v-77h-415v76zM763 708q-86 133 -242 133q-123 0 -201 -74q-110 -103 -110 -323q0 -191 77 -291
q73 -103 197 -103q201 0 279 180v478z" />
    <glyph glyph-name="r" unicode="r" horiz-adv-x="766" 
d="M292 925v-148h1q109 166 235 166q122 0 122 -109q0 -91 -86 -91q-53 0 -82 34q-18 31 -45 31q-52 0 -96 -84q-49 -92 -49 -222v-260q0 -161 106 -167v-80h-398v79q107 12 107 168v485q0 98 -105 119v79h290z" />
    <glyph glyph-name="s" unicode="s" horiz-adv-x="813" 
d="M563 868q73 -50 73 -120q0 -75 -76 -75q-82 0 -101 101q0 69 -116 69q-173 0 -173 -132q0 -65 54 -103q32 -23 143 -50q145 -41 208 -77q122 -72 122 -205q0 -123 -104 -202t-257 -79q-161 0 -256 73q-80 60 -80 137q0 101 100 101q97 0 97 -81q0 -9 -6 -31
q-4 -22 -4 -32q0 -32 29 -54q41 -31 118 -31q92 0 145 48q43 40 43 96q0 90 -147 141q-193 62 -237 93q-107 70 -107 196q0 124 88 201q85 73 219 73q142 0 225 -57z" />
    <glyph glyph-name="t" unicode="t" horiz-adv-x="691" 
d="M105 927v206l183 103v-309h199v-84h-199v-610q0 -128 110 -128q67 0 131 54l46 -57q-109 -123 -255 -123q-215 0 -215 248v616h-105v84h105z" />
    <glyph glyph-name="u" unicode="u" horiz-adv-x="1075" 
d="M853 246q0 -81 15 -112q18 -44 91 -58v-79h-292v119h-1q-130 -137 -297 -137q-264 0 -264 269v477q0 122 -105 122v78h288v-649q0 -187 137 -187q140 0 242 156v482q0 109 -105 121v77h291v-679z" />
    <glyph glyph-name="v" unicode="v" horiz-adv-x="1093" 
d="M977 848q-107 -13 -150 -118l-303 -731h-53l-311 700q-54 126 -160 149v75h407v-76q-78 -4 -78 -56q0 -14 19 -57l191 -426h4l170 424q15 49 15 65q0 44 -88 50v76h337v-75z" />
    <glyph glyph-name="w" unicode="w" horiz-adv-x="1502" 
d="M1386 847q-73 -4 -117 -107l-335 -761h-74l-164 391h-5l-181 -391h-70l-327 790q-58 70 -113 78v78h341v-79q-33 -1 -53 -27q0 -21 10 -40l228 -561h3l121 253l-128 295q-34 81 -90 81v78h549v-78q-70 -6 -117 -117l-82 -171l149 -351h1l230 532q23 41 23 65
q-35 40 -76 42v78h277v-78zM804 804q17 41 17 48q0 11 -16 11h-104q-37 0 -37 -16l16 -45l57 -140z" />
    <glyph glyph-name="x" unicode="x" horiz-adv-x="1070" 
d="M897 845q-88 0 -195 -139l-140 -184l227 -318q90 -128 164 -129v-80h-426v80h27q59 0 59 52q0 37 -35 71l-135 171l-98 -143q-34 -53 -44 -85l-6 -24q4 -25 15.5 -31.5t63.5 -10.5v-80h-374v80h33q77 0 204 170l153 204l-170 234q-113 158 -194 162v80h412v-80
q-76 -4 -76 -26q0 -23 65 -109l80 -110l92 132q39 57 39 81q-21 27 -60 32v80h319v-80z" />
    <glyph glyph-name="y" unicode="y" horiz-adv-x="1136" 
d="M1020 846q-86 -19 -143 -140l-375 -822q-74 -163 -130 -227q-81 -88 -194 -88q-170 0 -170 132q0 105 92 105q40 0 79 -27q37 -32 73 -32q79 0 127 113l70 150l-278 696q-61 124 -171 139v80h448v-80h-29q-65 0 -65 -54q0 -24 24 -73l181 -455h3l189 416q29 84 29 99
q-32 66 -93 67v80h333v-79z" />
    <glyph glyph-name="z" unicode="z" horiz-adv-x="949" 
d="M45 925h741v-52l-529 -778l3 -10h291q179 12 205 131h77v-221h-833v72l537 774h-207q-190 0 -207 -123h-78v207z" />
    <glyph glyph-name="braceleft" unicode="{" horiz-adv-x="645" 
d="M376 352q4 -63 0 -131q-10 -186 -10 -227q0 -189 164 -217l-13 -90q-212 45 -281 193q-43 90 -43 278l4 168q0 370 -197 405v102q197 39 197 404l-4 170q0 187 43 279q69 147 281 192l13 -88q-164 -31 -164 -219q0 -39 10 -230q4 -63 0 -127q-15 -304 -253 -432
q238 -126 253 -430z" />
    <glyph glyph-name="bar" unicode="|" horiz-adv-x="238" 
d="M0 2166h123v-2630h-123v2630z" />
    <glyph glyph-name="braceright" unicode="}" horiz-adv-x="645" 
d="M0 -223q163 28 163 217q0 41 -9 227q-4 68 0 131q17 304 253 430q-236 128 -253 432q-4 64 0 127q9 191 9 230q0 188 -163 219l13 88q212 -45 281 -192q43 -92 43 -279l-4 -170q0 -365 197 -404v-102q-197 -35 -197 -405l4 -168q0 -188 -43 -278q-69 -148 -281 -193z" />
    <glyph glyph-name="asciitilde" unicode="~" horiz-adv-x="1453" 
d="M0 513q144 354 447 354q138 0 367 -103q112 -50 193 -50q164 0 221 182h113q-43 -178 -167 -282q-119 -101 -276 -101q-102 0 -263 68q-235 94 -296 94q-139 0 -224 -162h-115z" />
    <glyph glyph-name="nonbreakingspace" unicode="&#xa0;" horiz-adv-x="505" 
 />
    <glyph glyph-name="exclamdown" unicode="&#xa1;" horiz-adv-x="387" 
d="M177 1000l93 -1382h-266l74 1382h99zM39 1334q36 43 89 43q54 0 88 -43q39 -38 39 -97q0 -57 -39 -95q-34 -43 -88 -43q-53 0 -89 43q-39 38 -39 95q0 59 39 97z" />
    <glyph glyph-name="cent" unicode="&#xa2;" horiz-adv-x="949" 
d="M835 193q-158 -184 -358 -194v-143h-86v146q-170 20 -280 147q-111 128 -111 316q0 203 119 345q114 135 272 151v158h86v-151q120 4 205 -55q81 -54 81 -129q0 -87 -93 -87q-96 0 -98 98q-8 89 -95 89v-763q8 -1 30 -1q173 0 280 123zM391 872q-184 -53 -184 -407
q0 -258 184 -323v730z" />
    <glyph glyph-name="sterling" unicode="&#xa3;" horiz-adv-x="1313" 
d="M929 740h-358q26 -100 26 -197q0 -102 -40 -256q279 -194 384 -194q49 0 49 59q0 23 -15 46q-15 30 -15 52q0 43 28 77q32 32 85 32q49 0 83 -32q41 -40 41 -104q0 -105 -84 -174q-88 -70 -223 -70q-182 0 -392 149q-110 -149 -272 -149q-118 0 -179 65q-47 48 -47 116
q0 83 72 137q78 58 200 58q74 0 152 -24q-6 145 -96 409h-311v92h278q-28 111 -28 235q0 186 121 308q117 121 310 121q139 0 233 -62q100 -63 100 -168q0 -64 -39 -104q-34 -34 -83 -34q-115 0 -115 109q0 30 17 66q16 27 16 32q0 24 -36 47q-39 24 -82 24q-110 0 -177 -84
q-67 -77 -67 -198q0 -128 67 -292h397v-92zM226 85q121 0 184 101q-98 71 -184 71q-105 0 -105 -97q0 -75 105 -75z" />
    <glyph glyph-name="currency" unicode="&#xa4;" horiz-adv-x="1473" 
d="M1360 1382l-216 -223q134 -175 134 -397q0 -220 -134 -395l216 -224l-95 -97l-210 228q-164 -142 -376 -142q-211 0 -377 143l-211 -229l-91 97l214 224q-134 175 -134 395q0 222 134 397l-214 223l91 98l211 -229q166 143 377 143q212 0 376 -142l210 228zM347 402
q137 -147 332 -147t332 147q137 151 137 360q0 211 -137 361q-137 148 -332 148t-332 -147q-138 -151 -138 -362q0 -209 138 -360z" />
    <glyph glyph-name="yen" unicode="&#xa5;" horiz-adv-x="1508" 
d="M810 654h360v-94h-360v-314q0 -156 121 -170v-81h-427v81q120 16 120 170v314h-357v94h357v39l-68 99h-289v96h221l-250 356q-111 164 -238 179v81h479v-81q-74 -14 -74 -63q0 -30 24 -63l343 -485h7l288 467q44 68 44 93q0 50 -80 50v82h360v-82q-133 0 -243 -182
l-214 -352h236v-96h-294l-66 -109v-29z" />
    <glyph glyph-name="brokenbar" unicode="&#xa6;" horiz-adv-x="238" 
d="M0 1518h123v-548h-123v548zM123 519v-547h-123v547h123z" />
    <glyph glyph-name="section" unicode="&#xa7;" horiz-adv-x="931" 
d="M115 1268q0 103 80 168q85 68 224 68q133 0 226 -64q85 -59 85 -148q0 -99 -99 -99q-98 0 -98 81q0 15 8 42q8 24 8 36q0 27 -41 51q-42 26 -102 26q-67 0 -112 -32q-48 -32 -48 -76q0 -85 132 -176l210 -148q228 -160 228 -297q0 -160 -209 -266q86 -77 86 -184
q0 -108 -87 -182q-92 -77 -224 -77q-126 0 -214 54q-92 58 -92 154q0 121 108 121q106 0 106 -87q0 -21 -11 -48q-14 -41 -14 -44q0 -32 32 -51q37 -24 99 -24q58 0 105 28q60 38 60 105q0 74 -162 196l-249 185q-150 107 -150 241q0 155 201 256q-86 88 -86 191zM261 1024
q-127 -62 -127 -139q0 -79 139 -185l282 -213q126 71 126 156q0 77 -159 193z" />
    <glyph glyph-name="dieresis" unicode="&#xa8;" horiz-adv-x="696" 
d="M33 1230q35 35 81 35q47 0 81 -35q33 -36 33 -85t-33 -85q-34 -35 -81 -35q-46 0 -81 35q-33 36 -33 85t33 85zM385 1230q32 35 81 35q46 0 80 -36q34 -35 34 -84t-34 -84q-34 -36 -80 -36q-49 0 -81 35q-33 36 -33 85t33 85z" />
    <glyph glyph-name="copyright" unicode="&#xa9;" horiz-adv-x="1751" 
d="M239 1508q241 262 579 262q339 0 577 -262q240 -263 240 -634q0 -370 -240 -633q-238 -262 -577 -262q-338 0 -579 262q-239 263 -239 633q0 371 239 634zM311 318q212 -225 507 -225q294 0 505 225q207 233 207 556q0 324 -207 555q-211 227 -505 227q-295 0 -507 -227
q-206 -231 -206 -555q0 -323 206 -556zM1176 569l-76 -76q-107 -101 -299 -101q-180 0 -294 133q-69 78 -95 170q-21 68 -21 175q0 178 73 296q131 207 350 207q110 0 164 -26q53 -23 95 -23q12 0 25 14h35v-219h-64q-47 174 -245 174q-89 0 -164 -84q-106 -115 -106 -335
q0 -394 305 -394q179 0 275 138z" />
    <glyph glyph-name="ordfeminine" unicode="&#xaa;" horiz-adv-x="723" 
d="M607 954q-39 -66 -110 -66q-84 0 -105 92h1q-87 -92 -195 -92q-23 0 -50 4q-135 32 -135 179q0 224 360 239q-3 104 -17 141q-23 55 -94 55q-56 0 -75 -51l-6 -25q-4 -16 -8 -22q-13 -27 -49 -27q-52 0 -56 42v15q16 130 208 130q142 0 195 -103q29 -61 29 -189v-209
q0 -97 62 -97q12 0 28 8zM373 1246q-80 0 -146 -38q-79 -50 -79 -135q0 -103 106 -103q119 0 119 224v52zM0 828h608v-65h-608v65z" />
    <glyph glyph-name="guillemotleft" unicode="&#xab;" horiz-adv-x="994" 
d="M663 142l-75 -44l-410 355l403 349l71 -41l-222 -308l233 -308v-3zM826 240l-59 -34l-255 247l243 253l76 -39l-137 -214l132 -210v-3z" />
    <glyph glyph-name="logicalnot" unicode="&#xac;" horiz-adv-x="1377" 
d="M0 486h1261v-374h-121v248h-1140v126z" />
    <glyph glyph-name="uni00AD" unicode="&#xad;" horiz-adv-x="603" 
d="M48 269l50 273h303q52 0 76 17t36 60h65l-43 -274h-310q-46 0 -62.5 -4.5t-24.5 -15.5q-2 -2 -5 -5.5t-28 -50.5h-57z" />
    <glyph glyph-name="registered" unicode="&#xae;" horiz-adv-x="1751" 
d="M239 1506q241 262 579 262q339 0 577 -262q240 -263 240 -634q0 -370 -240 -633q-238 -262 -577 -262q-338 0 -579 262q-239 263 -239 633q0 371 239 634zM311 316q212 -225 507 -225q294 0 505 225q207 233 207 556q0 324 -207 555q-211 227 -505 227q-295 0 -507 -227
q-206 -231 -206 -555q0 -323 206 -556zM906 1340q260 0 260 -232q0 -174 -167 -233l167 -280q36 -65 103 -91v-65h-172l-221 404h-175v-263q0 -56 62 -76v-65h-258v65q71 18 71 100v584q0 50 -13 71q-12 15 -58 29v52h401zM811 916q214 0 214 186q0 163 -214 163h-110v-349
h110z" />
    <glyph glyph-name="overscore" unicode="&#xaf;" horiz-adv-x="756" 
d="M641 1162v-137h-641v137h641z" />
    <glyph glyph-name="degree" unicode="&#xb0;" horiz-adv-x="580" 
d="M70 1451q67 72 163 72q93 0 161 -72q69 -73 69 -173t-69 -169q-68 -72 -161 -72q-96 0 -163 72q-70 69 -70 169t70 173zM133 1179q41 -46 100 -46q54 0 96 44q41 44 41 101q0 55 -36 97q-41 50 -101 50q-66 0 -105 -52q-34 -42 -34 -95t39 -99z" />
    <glyph glyph-name="plusminus" unicode="&#xb1;" horiz-adv-x="1257" 
d="M518 370v334h-518v110h518v432h105v-432h518v-110h-518v-334h-105zM0 214h1141v-113h-1141v113z" />
    <glyph glyph-name="twosuperior" unicode="&#xb2;" horiz-adv-x="808" 
d="M631 425h-631v73q479 585 479 821q0 88 -45 140q-45 45 -112 45q-113 0 -223 -147l-56 36q126 228 332 228q117 0 192 -67q81 -70 81 -190q0 -242 -490 -784v-2h281q147 0 191 117h65z" />
    <glyph glyph-name="threesuperior" unicode="&#xb3;" horiz-adv-x="756" 
d="M26 1387q122 240 339 240q103 0 163 -65q52 -57 52 -137q0 -154 -175 -269v2h9q95 0 156 -61q71 -71 71 -196q0 -206 -170 -332q-181 -142 -429 -152h-42v67q227 8 366 142q117 115 117 255q0 73 -43 124q-46 49 -121 49q-63 0 -129 -39l-32 56q284 185 284 332
q0 120 -125 120q-117 0 -234 -172z" />
    <glyph glyph-name="acute" unicode="&#xb4;" horiz-adv-x="539" 
d="M240 1381q40 51 95 51q88 0 88 -95q0 -46 -37 -79q-21 -19 -71 -50l-281 -185l-34 46z" />
    <glyph glyph-name="mu" unicode="&#xb5;" horiz-adv-x="1050" 
d="M784 317q0 -165 85 -165q23 0 46 13l20 -34q-68 -87 -152 -87q-157 0 -157 218v-12q-83 -208 -238 -208q-170 0 -226 137q0 -62 15 -141l55 -249q10 -191 -120 -191q-112 0 -112 148q0 45 8 91q5 45 27 139q15 68 28 186q9 127 9 229v603h176v-507q0 -296 171 -296
q12 0 49 20q141 97 141 391v392h175v-677z" />
    <glyph glyph-name="paragraph" unicode="&#xb6;" horiz-adv-x="856" 
d="M273 1037q-99 -2 -169 38q-104 57 -104 189q0 222 254 222h486v-74h-86v-1403h-105v1403h-171v-1403h-105v1028z" />
    <glyph glyph-name="periodcentered" unicode="&#xb7;" horiz-adv-x="371" 
d="M39 777q36 41 89 41q54 0 88 -41q39 -36 39 -93q0 -55 -39 -93q-34 -41 -88 -41q-53 0 -89 41q-39 38 -39 93q0 57 39 93z" />
    <glyph glyph-name="cedilla" unicode="&#xb8;" horiz-adv-x="527" 
d="M128 3h64l-14 -60v-6q56 22 123 22q77 0 130 -24q57 -24 57 -67q0 -70 -81 -119q-110 -66 -216 -66q-93 0 -93 32q0 29 57 29q52 0 61 -20q3 -5 15 -5q29 0 69 39q42 41 42 83q0 65 -113 65q-44 0 -71 -14l-56 4z" />
    <glyph glyph-name="onesuperior" unicode="&#xb9;" horiz-adv-x="563" 
d="M448 425h-335v67q93 2 93 131v767h-2q-83 -100 -204 -179v84q165 109 264 312h88v-984q0 -122 96 -131v-67z" />
    <glyph glyph-name="ordmasculine" unicode="&#xba;" horiz-adv-x="730" 
d="M17 828h578v-65h-578v65zM552 1443q61 -96 61 -214q0 -185 -126 -279q-86 -62 -181 -62q-94 0 -180 62q-126 94 -126 279q0 118 66 214q83 125 240 125q160 0 246 -125zM144 1227v-8q0 -270 162 -270q163 0 163 278q0 169 -48 230q-37 49 -115 49q-162 0 -162 -279z" />
    <glyph glyph-name="guillemotright" unicode="&#xbb;" horiz-adv-x="994" 
d="M346 145l233 308l-222 308l71 41l403 -349l-410 -355l-75 44v3zM183 243l132 210l-137 214l76 39l243 -253l-255 -247l-59 34v3z" />
    <glyph glyph-name="onequarter" unicode="&#xbc;" horiz-adv-x="1545" 
d="M448 595h-335v69q93 5 93 139v800h-2q-83 -106 -204 -188v87q165 113 264 324h88v-1023q0 -130 96 -139v-69zM269 -382l790 2210h102l-794 -2210h-98zM1274 849v-738h10q57 0 91 114l54 -14l-58 -236h-97v-357h-147v357h-414v83l491 791h70zM1127 599h-3l-291 -473v-15
h294v488z" />
    <glyph glyph-name="onehalf" unicode="&#xbd;" horiz-adv-x="1677" 
d="M448 595h-335v69q93 5 93 139v800h-2q-83 -106 -204 -188v87q165 113 264 324h88v-1023q0 -130 96 -139v-69zM269 -382l790 2210h102l-794 -2210h-98zM1498 -382h-631v74q479 610 479 857q0 92 -46 146q-44 48 -110 48q-115 0 -223 -154l-56 36q126 238 332 238
q115 0 191 -68q80 -76 80 -199q0 -252 -490 -817v-1h281q150 0 192 121h65z" />
    <glyph glyph-name="threequarters" unicode="&#xbe;" horiz-adv-x="1558" 
d="M27 1597q121 251 338 251q103 0 163 -67q52 -59 52 -143q0 -160 -175 -279v2h9q95 0 156 -66q71 -72 71 -201q0 -251 -251 -402q-169 -103 -381 -103h-9v69q227 6 366 148q117 120 117 265q0 78 -43 130q-46 51 -121 51q-63 0 -129 -41l-32 59q284 193 284 346
q0 124 -125 124q-117 0 -234 -178zM282 -382l791 2210h103l-796 -2210h-98zM1289 849v-738h8q58 0 91 114l55 -14l-58 -236h-96v-357h-149v357h-414v83l491 791h72zM1140 599h-2l-291 -473v-15h293v488z" />
    <glyph glyph-name="questiondown" unicode="&#xbf;" horiz-adv-x="830" 
d="M660 563l-87 -16q-47 62 -126 62q-207 0 -207 -312q0 -194 76 -386q73 -176 127 -176q25 0 34 33q14 75 100 75q92 0 92 -107q0 -118 -156 -118q-183 0 -374 291q-139 213 -139 511q0 174 95 279q91 105 225 105q116 0 216 -99h8l-22 293h97zM485 1369q40 41 94 41
q57 0 94 -41q41 -40 41 -99q0 -55 -41 -97q-37 -43 -94 -43q-54 0 -94 43q-39 42 -39 97q0 59 39 99z" />
    <glyph glyph-name="Agrave" unicode="&#xc0;" horiz-adv-x="1708" 
d="M1428 228q67 -149 164 -151v-82h-436v81q52 9 67 25q8 13 8 51q0 15 -17 59l-85 185h-755l-86 -176q-23 -53 -23 -70q0 -58 85 -74v-81h-350v82q109 4 173 145l492 1016q18 37 18 48q0 26 -52 26v81q94 18 154 91h51zM771 1175h-18l-332 -687h671zM531 1903q4 6 9 10
q6 7 13 11q18 13 48 18q36 0 62 -22t32 -60q4 -31 12.5 -56t42.5 -56t146 -87l-1 -69q-152 12 -262 77q-45 30 -62 46t-31 35.5t-21 40.5l-7 22l-1 8q-1 14 -1 28l1 10q3 26 20 44z" />
    <glyph glyph-name="Aacute" unicode="&#xc1;" horiz-adv-x="1708" 
d="M1428 228q67 -149 164 -151v-82h-436v81q52 9 67 25q8 13 8 51q0 15 -17 59l-85 185h-755l-86 -176q-23 -53 -23 -70q0 -58 85 -74v-81h-350v82q109 4 173 145l492 1016q18 37 18 48q0 26 -52 26v81q94 18 154 91h51zM771 1175h-18l-332 -687h671zM998 1859l2 -10
q0 -14 -1 -28l-2 -8l-7 -22q-7 -21 -21 -40.5t-30.5 -35.5t-62.5 -46q-110 -65 -262 -77v69q112 56 145.5 87t42.5 56t13 56q5 38 31.5 60t62.5 22q30 -5 48 -18q6 -4 12 -11q5 -4 9 -10q17 -18 20 -44z" />
    <glyph glyph-name="Acircumflex" unicode="&#xc2;" horiz-adv-x="1708" 
d="M1428 232q67 -151 164 -153v-84h-436v83q52 11 67 25q8 13 8 51q0 17 -17 64l-85 185h-755l-86 -179q-23 -53 -23 -72q0 -58 85 -74v-83h-350v84q109 6 173 147l492 1032q18 39 18 53q0 25 -52 25v81q94 21 154 93h51zM771 1175h-18l-332 -687h671zM793 1714
q-11 -11 -20 -21q-89 -62 -241 -101l1 43q152 105 209 240q4 15 12 27q17 23 42 23q24 0 41 -23q12 -16 15 -36q56 -132 207 -236l1 -43q-152 39 -244 101q-16 13 -23 26z" />
    <glyph glyph-name="Atilde" unicode="&#xc3;" horiz-adv-x="1708" 
d="M1428 228q67 -149 164 -151v-82h-436v81q52 9 67 25q8 13 8 51q0 15 -17 59l-85 185h-755l-86 -176q-23 -53 -23 -70q0 -58 85 -74v-81h-350v82q109 4 173 145l492 1016q18 37 18 48q0 26 -52 26v81q94 18 154 91h51zM771 1175h-18l-332 -687h671zM1066 1828
q-57 -228 -199 -228q-49 0 -132 32l-15 6q-64 23 -91 23q-54 0 -97 -61h-55q68 214 195 214q41 0 130 -30q89 -32 113 -32q71 0 92 76h59z" />
    <glyph glyph-name="Adieresis" unicode="&#xc4;" horiz-adv-x="1708" 
d="M1428 228q67 -149 164 -151v-82h-436v81q52 9 67 25q8 13 8 51q0 15 -17 59l-85 185h-755l-86 -176q-23 -53 -23 -70q0 -58 85 -74v-81h-350v82q109 4 173 145l492 1016q18 37 18 48q0 26 -52 26v81q94 18 154 91h51zM771 1175h-18l-332 -687h671zM495 1793q33 43 89 43
q52 0 83 -35q37 -38 37 -89q0 -58 -41 -94q-39 -32 -79 -32q-46 0 -84 37q-36 40 -36 89q0 45 31 81zM885 1793q33 43 89 43q50 0 84 -36q36 -37 36 -88q0 -58 -41 -94q-39 -32 -79 -32q-47 0 -85 37q-37 40 -37 89q0 45 33 81z" />
    <glyph glyph-name="Aring" unicode="&#xc5;" horiz-adv-x="1708" 
d="M1428 228q67 -149 164 -151v-82h-436v81q52 9 67 25q8 13 8 51q0 15 -17 59l-85 185h-755l-86 -176q-23 -53 -23 -70q0 -58 85 -74v-81h-350v82q109 4 173 145l492 1016q18 37 18 48q0 26 -52 26v81q94 18 154 91h51zM771 1175h-18l-332 -687h671zM675 1851q48 42 110 42
q58 0 109 -42q53 -50 53 -133q0 -76 -46 -126t-116 -50q-71 0 -117 50q-49 50 -49 126q0 83 56 133zM716 1641q30 -30 69 -30t69 31q30 33 30 76q0 40 -29 74q-29 32 -70 32q-40 0 -71 -31q-29 -31 -29 -75q0 -45 31 -77z" />
    <glyph glyph-name="AE" unicode="&#xc6;" horiz-adv-x="2349" 
d="M553 432l-174 -216q-70 -88 -70 -101q0 -32 87 -40v-80h-396v82q137 -2 318 229l697 871q77 95 77 139q0 52 -75 52h-19v98h1053v-287h-79q-32 110 -118 150q-68 29 -209 29h-337v-583h219q67 0 99 16q51 21 68 103h78v-325h-78q-17 83 -59 103q-28 14 -108 14h-219v-599
h446q202 0 290 51q76 49 111 176h79l-22 -319h-1220v80q127 12 127 162v195h-566zM1119 520v621h-5l-487 -614v-7h492z" />
    <glyph glyph-name="Ccedilla" unicode="&#xc7;" horiz-adv-x="1356" 
d="M1108 1138q-54 147 -181 222q-107 65 -237 65q-187 0 -324 -162q-154 -186 -154 -505q0 -307 145 -479q138 -165 374 -165q269 0 462 225l47 -54q-227 -263 -550 -263q-37 0 -54 2l-86 6q-218 37 -369 207q-181 199 -181 523q0 329 189 541q191 215 486 215
q123 0 270 -38q147 -37 157 -37q22 0 47 26h38v-329h-79zM524 39h64l-24 -95v-7q56 24 123 24q77 0 137 -18q50 -34 50 -80q0 -76 -81 -130q-110 -71 -216 -71q-93 0 -93 34q0 32 57 32q52 0 61 -21q3 -6 15 -6q29 0 69 42q42 45 42 90q0 70 -113 70q-44 0 -71 -15l-56 4z
" />
    <glyph glyph-name="Egrave" unicode="&#xc8;" horiz-adv-x="1435" 
d="M1188 1467l9 -281h-94q-33 107 -127 147q-73 28 -219 28h-406v-578h274q155 0 179 115h92v-325h-92q-28 83 -68 104q-22 8 -111 8h-274v-595h455q406 0 425 227h98l-25 -325h-1304v84q136 16 136 162v973q0 156 -136 158l2 98h1186zM419 1884q4 6 9 10q6 7 13 11
q18 13 48 18q36 0 62 -22t32 -60q4 -31 12.5 -56t42.5 -56t146 -87l-1 -69q-152 12 -262 77q-45 30 -62 46t-31 35.5t-21 40.5l-7 22l-1 8q-1 14 -1 28l1 10q3 26 20 44z" />
    <glyph glyph-name="Eacute" unicode="&#xc9;" horiz-adv-x="1435" 
d="M1188 1467l9 -281h-94q-33 107 -127 147q-73 28 -219 28h-406v-578h274q155 0 179 115h92v-325h-92q-28 83 -68 104q-22 8 -111 8h-274v-595h455q406 0 425 227h98l-25 -325h-1304v84q136 16 136 162v973q0 156 -136 158l2 98h1186zM894 1840l2 -10q0 -14 -1 -28l-2 -8
l-7 -22q-7 -21 -21 -40.5t-30.5 -35.5t-62.5 -46q-110 -65 -262 -77v69q112 56 145.5 87t42.5 56t13 56q5 38 31.5 60t62.5 22q30 -5 48 -18q6 -4 12 -11q5 -4 9 -10q17 -18 20 -44z" />
    <glyph glyph-name="Ecircumflex" unicode="&#xca;" horiz-adv-x="1435" 
d="M1188 1467l9 -281h-94q-33 107 -127 147q-73 28 -219 28h-406v-578h274q155 0 179 115h92v-325h-92q-28 83 -68 104q-22 8 -111 8h-274v-595h455q406 0 425 227h98l-25 -325h-1304v84q136 16 136 162v973q0 156 -136 158l2 98h1186zM680 1723q-11 -11 -20 -21
q-89 -62 -241 -101l1 43q152 105 209 240q4 15 12 27q17 23 42 23q24 0 41 -23q12 -16 15 -36q56 -132 207 -236l1 -43q-152 39 -244 101q-16 13 -23 26z" />
    <glyph glyph-name="Edieresis" unicode="&#xcb;" horiz-adv-x="1435" 
d="M1188 1467l9 -281h-94q-33 107 -127 147q-73 28 -219 28h-406v-578h274q155 0 179 115h92v-325h-92q-28 83 -68 104q-22 8 -111 8h-274v-595h455q406 0 425 227h98l-25 -325h-1304v84q136 16 136 162v973q0 156 -136 158l2 98h1186zM401 1793q33 43 89 43q52 0 83 -35
q37 -38 37 -89q0 -58 -41 -94q-39 -32 -79 -32q-46 0 -84 37q-36 40 -36 89q0 45 31 81zM791 1793q33 43 89 43q50 0 84 -36q36 -37 36 -88q0 -58 -41 -94q-39 -32 -79 -32q-47 0 -85 37q-37 40 -37 89q0 45 33 81z" />
    <glyph glyph-name="Igrave" unicode="&#xcc;" horiz-adv-x="617" 
d="M478 1383q-134 -12 -134 -163v-981q0 -147 134 -163v-84h-483v84q134 16 134 163v981q0 151 -134 163v86h483v-86zM63 1884q4 6 9 10q6 7 13 11q18 13 48 18q36 0 62 -22t32 -60q4 -31 12.5 -56t42.5 -56t146 -87l-1 -69q-152 12 -262 77q-45 30 -62 46t-31 35.5
t-21 40.5l-7 22l-1 8q-1 14 -1 28l1 10q3 26 20 44z" />
    <glyph glyph-name="Iacute" unicode="&#xcd;" horiz-adv-x="632" 
d="M478 1383q-134 -12 -134 -163v-981q0 -147 134 -163v-84h-483v84q134 16 134 163v981q0 151 -134 163v86h483v-86zM445 1840l2 -10q0 -14 -1 -28l-2 -8l-7 -22q-7 -21 -21 -40.5t-30.5 -35.5t-62.5 -46q-110 -65 -262 -77v69q112 56 145.5 87t42.5 56t13 56q5 38 31.5 60
t62.5 22q30 -5 48 -18q6 -4 12 -11q5 -4 9 -10q17 -18 20 -44z" />
    <glyph glyph-name="Icircumflex" unicode="&#xce;" horiz-adv-x="762" 
d="M562 1383q-134 -12 -134 -163v-981q0 -147 134 -163v-84h-483v84q134 16 134 163v981q0 151 -134 163v86h483v-86zM342 1723q-11 -11 -20 -21q-89 -62 -241 -101l1 43q152 105 209 240q4 15 12 27q17 23 42 23q24 0 41 -23q12 -16 15 -36q56 -132 207 -236l1 -43
q-152 39 -244 101q-16 13 -23 26z" />
    <glyph glyph-name="Idieresis" unicode="&#xcf;" horiz-adv-x="750" 
d="M77 1810q32 41 89 41q51 0 83 -35q36 -38 36 -89q0 -58 -41 -94q-38 -32 -78 -32q-47 0 -84 37q-38 40 -38 89q0 45 33 83zM466 1810q33 41 89 41q50 0 84 -36q36 -37 36 -88q0 -58 -41 -94q-39 -32 -79 -32q-47 0 -85 37q-37 40 -37 89q0 45 33 83zM581 1374
q-134 -12 -134 -163v-981q0 -147 134 -163v-84h-483v84q134 16 134 163v981q0 151 -134 163v86h483v-86z" />
    <glyph glyph-name="Eth" unicode="&#xd0;" horiz-adv-x="1657" 
d="M709 1466q471 0 695 -303q137 -190 137 -447q0 -289 -192 -500q-206 -221 -638 -221h-644v79q128 14 128 166v464h-195v91h195v426q0 154 -128 169v76h642zM662 89q245 0 412 105q239 162 239 530q0 389 -273 556q-165 94 -378 94h-269v-579h228v-91h-228v-615h269z" />
    <glyph glyph-name="Ntilde" unicode="&#xd1;" horiz-adv-x="1519" 
d="M1038 1838q-57 -228 -199 -228q-49 0 -132 32l-15 6q-64 23 -91 23q-54 0 -97 -61h-55q68 214 195 214q41 0 130 -30q89 -32 113 -32q71 0 92 76h59zM-5 77q61 12 97 44q27 43 27 101v992q0 165 -124 169v86h312l857 -1089l19 -23v867q0 145 -122 161v84h347v-84
q-76 -18 -102 -56q-21 -32 -21 -105v-1232h-77l-992 1260h5v-1030q0 -144 123 -144v-86h-349v85z" />
    <glyph glyph-name="Ograve" unicode="&#xd2;" 
d="M1323 1243q194 -217 194 -503q0 -289 -194 -505q-218 -243 -567 -243t-565 243q-196 216 -196 505q0 286 196 503q216 245 565 245t567 -245zM384 1215q-159 -180 -159 -481q0 -308 159 -485q148 -169 372 -169t372 169q159 177 159 485q0 301 -159 481
q-148 170 -372 170t-372 -170zM523 1884q4 6 9 10q6 7 13 11q18 13 48 18q36 0 62 -22t32 -60q4 -31 12.5 -56t42.5 -56t146 -87l-1 -69q-152 12 -262 77q-45 30 -62 46t-31 35.5t-21 40.5l-7 22l-1 8q-1 14 -1 28l1 10q3 26 20 44z" />
    <glyph glyph-name="Oacute" unicode="&#xd3;" 
d="M1323 1243q194 -217 194 -503q0 -289 -194 -505q-218 -243 -567 -243t-565 243q-196 216 -196 505q0 286 196 503q216 245 565 245t567 -245zM384 1215q-159 -180 -159 -481q0 -308 159 -485q148 -169 372 -169t372 169q159 177 159 485q0 301 -159 481
q-148 170 -372 170t-372 -170zM998 1840l2 -10q0 -14 -1 -28l-2 -8l-7 -22q-7 -21 -21 -40.5t-30.5 -35.5t-62.5 -46q-110 -65 -262 -77v69q112 56 145.5 87t42.5 56t13 56q5 38 31.5 60t62.5 22q30 -5 48 -18q6 -4 12 -11q5 -4 9 -10q17 -18 20 -44z" />
    <glyph glyph-name="Ocircumflex" unicode="&#xd4;" 
d="M1323 1243q194 -217 194 -503q0 -289 -194 -505q-218 -243 -567 -243t-565 243q-196 216 -196 505q0 286 196 503q216 245 565 245t567 -245zM384 1215q-159 -180 -159 -481q0 -308 159 -485q148 -169 372 -169t372 169q159 177 159 485q0 301 -159 481
q-148 170 -372 170t-372 -170zM755 1723q-11 -11 -20 -21q-89 -62 -241 -101l1 43q152 105 209 240q4 15 12 27q17 23 42 23q24 0 41 -23q12 -16 15 -36q56 -132 207 -236l1 -43q-152 39 -244 101q-16 13 -23 26z" />
    <glyph glyph-name="Otilde" unicode="&#xd5;" 
d="M1066 1828q-57 -228 -199 -228q-49 0 -132 32l-15 6q-64 23 -91 23q-54 0 -97 -61h-55q68 214 195 214q41 0 130 -30q89 -32 113 -32q71 0 92 76h59zM1323 1243q194 -217 194 -503q0 -289 -194 -505q-218 -243 -567 -243t-565 243q-196 216 -196 505q0 286 196 503
q216 245 565 245t567 -245zM384 1215q-159 -180 -159 -481q0 -308 159 -485q148 -169 372 -169t372 169q159 177 159 485q0 301 -159 481q-148 170 -372 170t-372 -170z" />
    <glyph glyph-name="Odieresis" unicode="&#xd6;" 
d="M495 1793q33 43 89 43q52 0 83 -35q37 -38 37 -89q0 -58 -41 -94q-39 -32 -79 -32q-46 0 -84 37q-36 40 -36 89q0 45 31 81zM885 1793q33 43 89 43q50 0 84 -36q36 -37 36 -88q0 -58 -41 -94q-39 -32 -79 -32q-47 0 -85 37q-37 40 -37 89q0 45 33 81zM1323 1243
q194 -217 194 -503q0 -289 -194 -505q-218 -243 -567 -243t-565 243q-196 216 -196 505q0 286 196 503q216 245 565 245t567 -245zM384 1215q-159 -180 -159 -481q0 -308 159 -485q148 -169 372 -169t372 169q159 177 159 485q0 301 -159 481q-148 170 -372 170t-372 -170z
" />
    <glyph glyph-name="multiply" unicode="&#xd7;" horiz-adv-x="1107" 
d="M89 198l-89 93l409 430l-409 430l89 93l408 -430l409 430l88 -93l-408 -430l408 -430l-88 -93l-409 430z" />
    <glyph glyph-name="Oslash" unicode="&#xd8;" horiz-adv-x="1653" 
d="M1271 1277l171 162l74 -87l-173 -164q130 -204 130 -438q0 -291 -180 -507q-203 -248 -533 -248q-286 0 -489 201l-200 -189l-71 83l200 186q-148 208 -148 474q0 284 183 506q200 246 525 246q322 0 511 -225zM353 1158q-94 -162 -94 -413q0 -185 63 -351l834 783
q-142 233 -394 233q-269 0 -409 -252zM376 293q144 -206 384 -206q267 0 410 250q93 162 93 408q0 190 -53 320z" />
    <glyph glyph-name="Ugrave" unicode="&#xd9;" horiz-adv-x="1620" 
d="M455 1469v-85q-126 -14 -126 -164v-572q0 -378 245 -495q94 -45 239 -45q148 0 273 72q136 80 185 238q27 89 27 278v541q0 135 -128 145v87h358v-87q-126 -10 -126 -145v-639q0 -622 -625 -622q-355 0 -510 181q-146 162 -146 499v564q0 150 -126 162v87h460zM635 1875
q4 6 9 10q6 7 13 11q18 13 48 18q36 0 62 -22t32 -60q4 -31 12.5 -56t42.5 -56t146 -87l-1 -69q-152 12 -262 77q-45 30 -62 46t-31 35.5t-21 40.5l-7 22l-1 8q-1 14 -1 28l1 10q3 26 20 44z" />
    <glyph glyph-name="Uacute" unicode="&#xda;" horiz-adv-x="1620" 
d="M455 1469v-85q-126 -14 -126 -164v-572q0 -378 245 -495q94 -45 239 -45q148 0 273 72q136 80 185 238q27 89 27 278v541q0 135 -128 145v87h358v-87q-126 -10 -126 -145v-639q0 -622 -625 -622q-355 0 -510 181q-146 162 -146 499v564q0 150 -126 162v87h460zM1101 1858
l2 -10q0 -14 -1 -28l-2 -8l-7 -22q-7 -21 -21 -40.5t-30.5 -35.5t-62.5 -46q-110 -65 -262 -77v69q112 56 145.5 87t42.5 56t13 56q5 38 31.5 60t62.5 22q30 -5 48 -18q6 -4 12 -11q5 -4 9 -10q17 -18 20 -44z" />
    <glyph glyph-name="Ucircumflex" unicode="&#xdb;" 
d="M455 1469v-85q-126 -14 -126 -164v-572q0 -378 245 -495q94 -45 239 -45q148 0 273 72q136 80 185 238q27 89 27 278v541q0 135 -128 145v87h358v-87q-126 -10 -126 -145v-639q0 -622 -625 -622q-355 0 -510 181q-146 162 -146 499v564q0 150 -126 162v87h460zM783 1723
q-11 -11 -20 -21q-89 -62 -241 -101l1 43q152 105 209 240q4 15 12 27q17 23 42 23q24 0 41 -23q12 -16 15 -36q56 -132 207 -236l1 -43q-152 39 -244 101q-16 13 -23 26z" />
    <glyph glyph-name="Udieresis" unicode="&#xdc;" horiz-adv-x="1599" 
d="M455 1469v-85q-126 -14 -126 -164v-572q0 -378 245 -495q94 -45 239 -45q148 0 273 72q136 80 185 238q27 89 27 278v541q0 135 -128 145v87h358v-87q-126 -10 -126 -145v-639q0 -622 -625 -622q-355 0 -510 181q-146 162 -146 499v564q0 150 -126 162v87h460zM495 1793
q33 43 89 43q52 0 83 -35q37 -38 37 -89q0 -58 -41 -94q-39 -32 -79 -32q-46 0 -84 37q-36 40 -36 89q0 45 31 81zM885 1793q33 43 89 43q50 0 84 -36q36 -37 36 -88q0 -58 -41 -94q-39 -32 -79 -32q-47 0 -85 37q-37 40 -37 89q0 45 33 81z" />
    <glyph glyph-name="Yacute" unicode="&#xdd;" horiz-adv-x="1490" 
d="M496 1469v-81q-74 -15 -74 -60q0 -30 24 -61l346 -473h4l292 454q43 65 43 89q0 49 -78 49v83h377v-83q-139 2 -251 -178l-345 -540v-428q0 -150 122 -164v-84h-445v84q124 16 124 164v439l-394 534q-117 158 -246 175v81h501zM1045 1840l2 -10q0 -14 -1 -28l-2 -8
l-7 -22q-7 -21 -21 -40.5t-30.5 -35.5t-62.5 -46q-110 -65 -262 -77v69q112 56 145.5 87t42.5 56t13 56q5 38 31.5 60t62.5 22q30 -5 48 -18q6 -4 12 -11q5 -4 9 -10q17 -18 20 -44z" />
    <glyph glyph-name="Thorn" unicode="&#xde;" horiz-adv-x="1302" 
d="M0 75q124 8 124 178v968q0 154 -122 169v76h436v-76q-125 -15 -125 -169v-41q149 97 351 97q147 0 275 -73q246 -139 246 -446q0 -203 -136 -350q-155 -165 -422 -165q-187 0 -311 103h-3v-85q0 -98 26 -138q27 -48 107 -48v-80h-446v80zM313 492q108 -162 309 -162
q213 0 293 148q52 92 52 280q0 180 -48 273q-76 158 -292 158q-182 0 -274 -134q-40 -54 -40 -143v-420z" />
    <glyph glyph-name="germandbls" unicode="&#xdf;" horiz-adv-x="1066" 
d="M104 746v280q0 329 376 329q139 0 242 -74q118 -82 118 -221q0 -108 -69 -196q-68 -86 -185 -122v-1q147 -10 252 -118q112 -109 112 -265q0 -142 -79 -248q-92 -131 -249 -131q-98 0 -157 49q-51 44 -51 104q0 49 37 77q31 28 72 28q32 0 61 -19q31 -23 31 -53
q0 -31 -20 -51l-53 -60q10 -18 64 -18q63 0 90 47q43 66 43 255q0 161 -59 237q-85 104 -307 106v65q174 9 233 101q46 62 46 213q0 225 -172 225q-192 0 -192 -218v-844q0 -87 12 -113q20 -41 83 -52v-64h-383v64q74 11 91 54q13 23 13 111v334q0 104 -104 125v64h104z" />
    <glyph glyph-name="agrave" unicode="&#xe0;" horiz-adv-x="998" 
d="M541 489q-344 -19 -344 -241q0 -67 47 -109q44 -38 113 -38q114 0 157 99q27 67 27 212v77zM566 120q-123 -125 -283 -125q-134 0 -209 73q-74 66 -74 176q0 298 541 330q0 136 -31 195q-35 78 -139 78q-86 0 -114 -72q-23 -65 -25 -69q-21 -31 -69 -31q-81 0 -81 73
q0 66 80 118q89 63 229 63q215 0 289 -140q44 -86 44 -261v-288q0 -139 94 -139q15 0 45 15l20 -34q-61 -87 -158 -87q-122 0 -159 125zM194 1330q4 6 9 10q6 7 13 11q18 13 48 18q36 0 62 -22t32 -60q4 -31 12.5 -56t42.5 -56t146 -87l-1 -69q-152 12 -262 77
q-45 30 -62 46t-31 35.5t-21 40.5l-7 22l-1 8q-1 14 -1 28l1 10q3 26 20 44z" />
    <glyph glyph-name="aacute" unicode="&#xe1;" horiz-adv-x="998" 
d="M541 489q-344 -19 -344 -241q0 -67 47 -109q44 -38 113 -38q114 0 157 99q27 67 27 212v77zM566 120q-123 -125 -283 -125q-134 0 -209 73q-74 66 -74 176q0 298 541 330q0 136 -31 195q-35 78 -139 78q-86 0 -114 -72q-23 -65 -25 -69q-21 -31 -69 -31q-81 0 -81 73
q0 66 80 118q89 63 229 63q215 0 289 -140q44 -86 44 -261v-288q0 -139 94 -139q15 0 45 15l20 -34q-61 -87 -158 -87q-122 0 -159 125zM632 1268l2 -10q0 -14 -1 -28l-2 -8l-7 -22q-7 -21 -21 -40.5t-30.5 -35.5t-62.5 -46q-110 -65 -262 -77v69q112 56 145.5 87t42.5 56
t13 56q5 38 31.5 60t62.5 22q30 -5 48 -18q6 -4 12 -11q5 -4 9 -10q17 -18 20 -44z" />
    <glyph glyph-name="acircumflex" unicode="&#xe2;" horiz-adv-x="998" 
d="M399 1132q-11 -11 -20 -21q-89 -62 -241 -101l1 43q152 105 209 240q4 15 12 27q17 23 42 23q24 0 41 -23q12 -16 15 -36q56 -132 207 -236l1 -43q-152 39 -244 101q-16 13 -23 26zM541 489q-344 -19 -344 -241q0 -67 47 -109q44 -38 113 -38q114 0 157 99q27 67 27 212
v77zM566 120q-123 -125 -283 -125q-134 0 -209 73q-74 66 -74 176q0 298 541 330q0 136 -31 195q-35 78 -139 78q-86 0 -114 -72q-23 -65 -25 -69q-21 -31 -69 -31q-81 0 -81 73q0 66 80 118q89 63 229 63q215 0 289 -140q44 -86 44 -261v-288q0 -139 94 -139q15 0 45 15
l20 -34q-61 -87 -158 -87q-122 0 -159 125z" />
    <glyph glyph-name="atilde" unicode="&#xe3;" horiz-adv-x="998" 
d="M700 1341q-57 -228 -199 -228q-49 0 -132 32l-15 6q-64 23 -91 23q-54 0 -97 -61h-55q68 214 195 214q41 0 130 -30q89 -32 113 -32q71 0 92 76h59zM541 489q-344 -19 -344 -241q0 -67 47 -109q44 -38 113 -38q114 0 157 99q27 67 27 212v77zM566 120
q-123 -125 -283 -125q-134 0 -209 73q-74 66 -74 176q0 298 541 330q0 136 -31 195q-35 78 -139 78q-86 0 -114 -72q-23 -65 -25 -69q-21 -31 -69 -31q-81 0 -81 73q0 66 80 118q89 63 229 63q215 0 289 -140q44 -86 44 -261v-288q0 -139 94 -139q15 0 45 15l20 -34
q-61 -87 -158 -87q-122 0 -159 125z" />
    <glyph glyph-name="adieresis" unicode="&#xe4;" horiz-adv-x="998" 
d="M135 1313q31 41 89 41q50 0 82 -35q38 -36 38 -85q0 -56 -41 -90q-39 -32 -79 -32q-47 0 -85 37q-37 38 -37 85q0 43 33 79zM524 1313q32 41 88 41q52 0 83 -35q37 -36 37 -85q0 -56 -41 -90q-39 -32 -79 -32q-47 0 -85 37q-37 38 -37 85q0 43 34 79zM541 489
q-344 -19 -344 -241q0 -67 47 -109q44 -38 113 -38q114 0 157 99q27 67 27 212v77zM566 120q-123 -125 -283 -125q-134 0 -209 73q-74 66 -74 176q0 298 541 330q0 136 -31 195q-35 78 -139 78q-86 0 -114 -72q-23 -65 -25 -69q-21 -31 -69 -31q-81 0 -81 73q0 66 80 118
q89 63 229 63q215 0 289 -140q44 -86 44 -261v-288q0 -139 94 -139q15 0 45 15l20 -34q-61 -87 -158 -87q-122 0 -159 125z" />
    <glyph glyph-name="aring" unicode="&#xe5;" horiz-adv-x="998" 
d="M541 489q-344 -19 -344 -241q0 -67 47 -109q44 -38 113 -38q114 0 157 99q27 67 27 212v77zM566 120q-123 -125 -283 -125q-134 0 -209 73q-74 66 -74 176q0 298 541 330q0 136 -31 195q-35 78 -139 78q-86 0 -114 -72q-23 -65 -25 -69q-21 -31 -69 -31q-81 0 -81 73
q0 66 80 118q89 63 229 63q215 0 289 -140q44 -86 44 -261v-288q0 -139 94 -139q15 0 45 15l20 -34q-61 -87 -158 -87q-122 0 -159 125zM272 1307q48 42 110 42q58 0 109 -42q53 -50 53 -133q0 -76 -46 -126t-116 -50q-71 0 -117 50q-49 50 -49 126q0 83 56 133zM313 1097
q30 -30 69 -30t69 31q30 33 30 76q0 40 -29 74q-29 32 -70 32q-40 0 -71 -31q-29 -31 -29 -75q0 -45 31 -77z" />
    <glyph glyph-name="ae" unicode="&#xe6;" horiz-adv-x="1430" 
d="M723 530v-129q11 -314 247 -314q150 0 292 146l54 -47q-186 -207 -379 -207q-214 0 -325 131h-5q-133 -131 -333 -131q-135 0 -209 84q-65 70 -65 175q0 306 537 340v57q0 228 -166 228q-87 0 -114 -76q-17 -104 -92 -104q-81 0 -81 87q0 75 92 125q85 52 217 52
q169 0 260 -102h2q99 102 272 102q170 0 272 -129q94 -116 92 -288h-568zM537 491q-338 -21 -338 -249q0 -140 134 -155q98 -14 151 59q53 70 53 212v133zM1090 615q3 76 -24 142q-40 106 -148 106q-180 0 -195 -248h367z" />
    <glyph glyph-name="ccedilla" unicode="&#xe7;" horiz-adv-x="949" 
d="M835 156q-165 -192 -394 -192q-26 0 -38 2l-85 16q-318 82 -318 442q0 213 132 351q127 143 328 143q137 0 221 -52q80 -50 80 -127q0 -87 -91 -87q-96 0 -100 98q-8 85 -104 85q-108 0 -173 -88q-83 -107 -83 -323q0 -198 115 -285q74 -58 174 -58q178 0 288 123z
M310 -18h64l-24 -95v-7q56 24 123 24q77 0 137 -18q50 -34 50 -80q0 -76 -81 -130q-110 -71 -216 -71q-93 0 -93 34q0 32 57 32q52 0 61 -21q3 -6 15 -6q29 0 69 42q42 45 42 90q0 70 -113 70q-44 0 -71 -15l-56 4z" />
    <glyph glyph-name="egrave" unicode="&#xe8;" horiz-adv-x="922" 
d="M808 190q-168 -199 -376 -199q-157 0 -276 83q-156 113 -156 352q0 221 123 361q116 138 302 138q172 0 271 -125q86 -108 86 -255v-24h-570q-2 -25 -2 -91q0 -335 254 -335q152 0 294 143zM583 621q0 222 -169 222q-188 0 -198 -238h367v16zM212 1312q4 6 9 10
q6 7 13 11q18 13 48 18q36 0 62 -22t32 -60q4 -31 12.5 -56t42.5 -56t146 -87l-1 -69q-152 12 -262 77q-45 30 -62 46t-31 35.5t-21 40.5l-7 22l-1 8q-1 14 -1 28l1 10q3 26 20 44z" />
    <glyph glyph-name="eacute" unicode="&#xe9;" horiz-adv-x="922" 
d="M808 190q-168 -199 -376 -199q-157 0 -276 83q-156 113 -156 352q0 221 123 361q116 138 302 138q172 0 271 -125q86 -108 86 -255v-24h-570q-2 -25 -2 -91q0 -335 254 -335q152 0 294 143zM583 621q0 222 -169 222q-188 0 -198 -238h367v16zM632 1268l2 -10
q0 -14 -1 -28l-2 -8l-7 -22q-7 -21 -21 -40.5t-30.5 -35.5t-62.5 -46q-110 -65 -262 -77v69q112 56 145.5 87t42.5 56t13 56q5 38 31.5 60t62.5 22q30 -5 48 -18q6 -4 12 -11q5 -4 9 -10q17 -18 20 -44z" />
    <glyph glyph-name="ecircumflex" unicode="&#xea;" horiz-adv-x="922" 
d="M808 190q-168 -199 -376 -199q-157 0 -276 83q-156 113 -156 352q0 221 123 361q116 138 302 138q172 0 271 -125q86 -108 86 -255v-24h-570q-2 -25 -2 -91q0 -335 254 -335q152 0 294 143zM583 621q0 222 -169 222q-188 0 -198 -238h367v16zM399 1132q-11 -11 -20 -21
q-89 -62 -241 -101l1 43q152 105 209 240q4 15 12 27q17 23 42 23q24 0 41 -23q12 -16 15 -36q56 -132 207 -236l1 -43q-152 39 -244 101q-16 13 -23 26z" />
    <glyph glyph-name="edieresis" unicode="&#xeb;" horiz-adv-x="922" 
d="M808 190q-168 -199 -376 -199q-157 0 -276 83q-156 113 -156 352q0 221 123 361q116 138 302 138q172 0 271 -125q86 -108 86 -255v-24h-570q-2 -25 -2 -91q0 -335 254 -335q152 0 294 143zM583 621q0 222 -169 222q-188 0 -198 -238h367v16zM181 1313q31 41 89 41
q50 0 82 -35q38 -36 38 -85q0 -56 -41 -90q-39 -32 -79 -32q-47 0 -85 37q-37 38 -37 85q0 43 33 79zM570 1313q32 41 88 41q52 0 83 -35q37 -36 37 -85q0 -56 -41 -90q-39 -32 -79 -32q-47 0 -85 37q-37 38 -37 85q0 43 34 79z" />
    <glyph glyph-name="igrave" unicode="&#xec;" horiz-adv-x="613" 
d="M389 925v-683q0 -161 107 -167v-80h-399v79q107 12 107 168v434q0 83 -15 114q-20 42 -92 56v79h292zM52 1302q5 6 9 10q7 7 13 11q18 13 48 18q36 0 62.5 -22t31.5 -60q4 -31 12.5 -56t42.5 -56t146 -87v-69q-153 12 -262 77q-46 30 -63 46t-30.5 35.5t-20.5 40.5l-7 22
l-2 8q-1 14 -1 28l2 10q3 26 19 44z" />
    <glyph glyph-name="iacute" unicode="&#xed;" horiz-adv-x="469" 
d="M304 925v-683q0 -161 109 -167v-80h-400v79q106 12 106 168v434q0 83 -15 114q-19 42 -91 56v79h291zM397 1259l2 -10q0 -14 -1 -28l-1 -8l-7 -22q-8 -21 -21.5 -40.5t-30.5 -35.5t-62 -46q-110 -65 -262 -77l-1 69q112 56 146 87t42.5 56t12.5 56q5 38 31.5 60t62.5 22
q30 -5 48 -18q6 -4 13 -11q4 -4 9 -10q16 -18 19 -44z" />
    <glyph glyph-name="icircumflex" unicode="&#xee;" horiz-adv-x="762" 
d="M445 925v-683q0 -161 107 -167v-80h-399v79q104 12 104 168v434q0 83 -12 114q-22 42 -92 56v79h292zM324 1132q-11 -11 -20 -21q-89 -62 -241 -101l1 43q152 105 209 240q4 15 12 27q17 23 42 23q24 0 41 -23q12 -16 15 -36q56 -132 207 -236l1 -43q-152 39 -244 101
q-16 13 -23 26z" />
    <glyph glyph-name="idieresis" unicode="&#xef;" horiz-adv-x="600" 
d="M405 925v-683q0 -161 109 -167v-80h-397v79q104 12 104 168v434q0 83 -15 114q-17 42 -89 56v79h288zM40 1304q31 41 89 41q50 0 82 -35q38 -36 38 -85q0 -56 -41 -90q-39 -32 -79 -32q-47 0 -85 37q-37 38 -37 85q0 43 33 79zM354 1304q32 41 88 41q52 0 83 -35
q37 -36 37 -85q0 -56 -41 -90q-39 -32 -79 -32q-47 0 -85 37q-37 38 -37 85q0 43 34 79z" />
    <glyph glyph-name="eth" unicode="&#xf0;" horiz-adv-x="1031" 
d="M236 1064l200 96q-88 122 -144 183l44 46l74 -67q18 -17 29 -32l85 -85l209 102l24 -65l-189 -92q346 -294 346 -689q0 -253 -173 -385q-126 -97 -283 -97q-153 0 -279 97q-179 132 -179 387q0 169 94 304q125 180 364 180q64 0 122 -17q-25 43 -111 172l-201 -100z
M210 461v-12q0 -387 248 -387t248 387v12q0 235 -76 329q-55 73 -172 73q-248 0 -248 -402z" />
    <glyph glyph-name="ntilde" unicode="&#xf1;" horiz-adv-x="1079" 
d="M776 1331q-57 -228 -199 -228q-49 0 -132 32l-15 6q-64 23 -91 23q-54 0 -97 -61h-55q68 214 195 214q41 0 130 -30q89 -32 113 -32q71 0 92 76h59zM0 73q107 15 107 170v484q0 96 -105 119v78h290l-1 -118q130 137 304 137h11q165 -2 221 -111q29 -60 29 -195v-394
q0 -162 108 -168v-80h-400v78q108 15 108 170v402q0 187 -136 187q-143 0 -244 -156v-433q0 -157 106 -170v-78h-398v78z" />
    <glyph glyph-name="ograve" unicode="&#xf2;" horiz-adv-x="1031" 
d="M899 585q15 -60 15 -136q0 -48 -15 -112q-52 -202 -227 -286q-101 -50 -214 -50q-115 0 -212 50q-178 84 -231 286q-15 64 -15 112q0 76 15 136q91 340 443 340q353 0 441 -340zM285 773q-75 -87 -75 -312q0 -153 32 -231q53 -149 216 -149q248 0 248 380q0 225 -75 312
q-56 72 -173 72q-115 0 -173 -72zM260 1312q4 6 9 10q6 7 13 11q18 13 48 18q36 0 62 -22t32 -60q4 -31 12.5 -56t42.5 -56t146 -87l-1 -69q-152 12 -262 77q-45 30 -62 46t-31 35.5t-21 40.5l-7 22l-1 8q-1 14 -1 28l1 10q3 26 20 44z" />
    <glyph glyph-name="oacute" unicode="&#xf3;" horiz-adv-x="1031" 
d="M899 585q15 -60 15 -136q0 -48 -15 -112q-52 -202 -227 -286q-101 -50 -214 -50q-115 0 -212 50q-178 84 -231 286q-15 64 -15 112q0 76 15 136q91 340 443 340q353 0 441 -340zM285 773q-75 -87 -75 -312q0 -153 32 -231q53 -149 216 -149q248 0 248 380q0 225 -75 312
q-56 72 -173 72q-115 0 -173 -72zM697 1268l2 -10q0 -14 -1 -28l-2 -8l-7 -22q-7 -21 -21 -40.5t-30.5 -35.5t-62.5 -46q-110 -65 -262 -77v69q112 56 145.5 87t42.5 56t13 56q5 38 31.5 60t62.5 22q30 -5 48 -18q6 -4 12 -11q5 -4 9 -10q17 -18 20 -44z" />
    <glyph glyph-name="ocircumflex" unicode="&#xf4;" horiz-adv-x="1031" 
d="M899 585q15 -60 15 -136q0 -48 -15 -112q-52 -202 -227 -286q-101 -50 -214 -50q-115 0 -212 50q-178 84 -231 286q-15 64 -15 112q0 76 15 136q91 340 443 340q353 0 441 -340zM285 773q-75 -87 -75 -312q0 -153 32 -231q53 -149 216 -149q248 0 248 380q0 225 -75 312
q-56 72 -173 72q-115 0 -173 -72zM465 1132q-11 -11 -20 -21q-89 -62 -241 -101l1 43q152 105 209 240q4 15 12 27q17 23 42 23q24 0 41 -23q12 -16 15 -36q56 -132 207 -236l1 -43q-152 39 -244 101q-16 13 -23 26z" />
    <glyph glyph-name="otilde" unicode="&#xf5;" horiz-adv-x="1031" 
d="M899 585q15 -60 15 -136q0 -48 -15 -112q-52 -202 -227 -286q-101 -50 -214 -50q-115 0 -212 50q-178 84 -231 286q-15 64 -15 112q0 76 15 136q91 340 443 340q353 0 441 -340zM285 773q-75 -87 -75 -312q0 -153 32 -231q53 -149 216 -149q248 0 248 380q0 225 -75 312
q-56 72 -173 72q-115 0 -173 -72zM729 1322q-57 -228 -199 -228q-49 0 -132 32l-15 6q-64 23 -91 23q-54 0 -97 -61h-55q68 214 195 214q41 0 130 -30q89 -32 113 -32q71 0 92 76h59z" />
    <glyph glyph-name="odieresis" unicode="&#xf6;" horiz-adv-x="1031" 
d="M899 585q15 -60 15 -136q0 -48 -15 -112q-52 -202 -227 -286q-101 -50 -214 -50q-115 0 -212 50q-178 84 -231 286q-15 64 -15 112q0 76 15 136q91 340 443 340q353 0 441 -340zM285 773q-75 -87 -75 -312q0 -153 32 -231q53 -149 216 -149q248 0 248 380q0 225 -75 312
q-56 72 -173 72q-115 0 -173 -72zM181 1313q31 41 89 41q50 0 82 -35q38 -36 38 -85q0 -56 -41 -90q-39 -32 -79 -32q-47 0 -85 37q-37 38 -37 85q0 43 33 79zM570 1313q32 41 88 41q52 0 83 -35q37 -36 37 -85q0 -56 -41 -90q-39 -32 -79 -32q-47 0 -85 37q-37 38 -37 85
q0 43 34 79z" />
    <glyph glyph-name="divide" unicode="&#xf7;" horiz-adv-x="1257" 
d="M0 798h1141v-111h-1141v111zM475 1177q38 42 94 42q57 0 96 -42q41 -42 41 -102q0 -59 -40 -100q-40 -44 -97 -44q-56 0 -94 43q-41 42 -41 101q0 60 41 102zM475 511q38 43 94 43q57 0 96 -43q41 -40 41 -99q0 -60 -40 -101q-40 -44 -97 -44q-56 0 -94 43
q-41 42 -41 102q0 59 41 99z" />
    <glyph glyph-name="oslash" unicode="&#xf8;" horiz-adv-x="1124" 
d="M45 63l-45 65l113 83q-61 101 -61 252q0 194 111 328q128 156 347 156q253 0 372 -192l84 59l46 -61l-91 -69q47 -95 47 -221q0 -205 -116 -339q-129 -145 -342 -145q-235 0 -354 166zM742 655q-43 208 -232 208q-249 0 -249 -402q0 -92 6 -141zM287 236
q55 -174 223 -174q104 0 152 47q95 90 95 352q0 39 -4 104z" />
    <glyph glyph-name="ugrave" unicode="&#xf9;" horiz-adv-x="1075" 
d="M853 246q0 -81 15 -112q18 -44 91 -58v-79h-292v119h-1q-130 -137 -297 -137q-264 0 -264 269v479q0 122 -105 122v78h288v-651q0 -187 137 -187q140 0 242 156v484q0 109 -105 121v77h291v-681zM269 1312q4 6 9 10q6 7 13 11q18 13 48 18q36 0 62 -22t32 -60
q4 -31 12.5 -56t42.5 -56t146 -87l-1 -69q-152 12 -262 77q-45 30 -62 46t-31 35.5t-21 40.5l-7 22l-1 8q-1 14 -1 28l1 10q3 26 20 44z" />
    <glyph glyph-name="uacute" unicode="&#xfa;" horiz-adv-x="1075" 
d="M853 246q0 -81 15 -112q18 -44 91 -58v-79h-292v119h-1q-130 -137 -297 -137q-264 0 -264 269v479q0 122 -105 122v78h288v-651q0 -187 137 -187q140 0 242 156v484q0 109 -105 121v77h291v-681zM707 1268l2 -10q0 -14 -1 -28l-2 -8l-7 -22q-7 -21 -21 -40.5t-30.5 -35.5
t-62.5 -46q-110 -65 -262 -77v69q112 56 145.5 87t42.5 56t13 56q5 38 31.5 60t62.5 22q30 -5 48 -18q6 -4 12 -11q5 -4 9 -10q17 -18 20 -44z" />
    <glyph glyph-name="ucircumflex" unicode="&#xfb;" horiz-adv-x="1075" 
d="M853 246q0 -81 15 -112q18 -44 91 -58v-79h-292v119h-1q-130 -137 -297 -137q-264 0 -264 269v479q0 122 -105 122v78h288v-651q0 -187 137 -187q140 0 242 156v484q0 109 -105 121v77h291v-681zM474 1132q-11 -11 -20 -21q-89 -62 -241 -101l1 43q152 105 209 240
q4 15 12 27q17 23 42 23q24 0 41 -23q12 -16 15 -36q56 -132 207 -236l1 -43q-152 39 -244 101q-16 13 -23 26z" />
    <glyph glyph-name="udieresis" unicode="&#xfc;" horiz-adv-x="1075" 
d="M853 246q0 -81 15 -112q18 -44 91 -58v-79h-292v119h-1q-130 -137 -297 -137q-264 0 -264 269v479q0 122 -105 122v78h288v-651q0 -187 137 -187q140 0 242 156v484q0 109 -105 121v77h291v-681zM181 1313q31 41 89 41q50 0 82 -35q38 -36 38 -85q0 -56 -41 -90
q-39 -32 -79 -32q-47 0 -85 37q-37 38 -37 85q0 43 33 79zM570 1313q32 41 88 41q52 0 83 -35q37 -36 37 -85q0 -56 -41 -90q-39 -32 -79 -32q-47 0 -85 37q-37 38 -37 85q0 43 34 79z" />
    <glyph glyph-name="yacute" unicode="&#xfd;" horiz-adv-x="1136" 
d="M782 1268l2 -10q0 -14 -1 -28l-2 -8l-7 -22q-7 -21 -21 -40.5t-30.5 -35.5t-62.5 -46q-110 -65 -262 -77v69q112 56 145.5 87t42.5 56t13 56q5 38 31.5 60t62.5 22q30 -5 48 -18q6 -4 12 -11q5 -4 9 -10q17 -18 20 -44zM1020 846q-86 -19 -143 -140l-375 -822
q-74 -163 -130 -227q-81 -88 -194 -88q-170 0 -170 132q0 105 92 105q40 0 79 -27q37 -32 73 -32q79 0 127 113l70 150l-278 696q-61 124 -171 139v80h448v-80h-29q-65 0 -65 -54q0 -24 24 -73l181 -455h3l189 416q29 84 29 99q-32 66 -93 67v80h333v-79z" />
    <glyph glyph-name="thorn" unicode="&#xfe;" horiz-adv-x="1118" 
d="M0 -445v79q105 11 105 167v1304q0 89 -16 118q-21 39 -89 50v79h288v-509h1q93 98 267 98q170 0 289 -106q157 -142 157 -376q0 -237 -157 -377q-119 -107 -289 -107q-174 0 -267 98h-1v-270q0 -169 121 -169v-79h-409zM288 324q0 -266 250 -266q254 0 254 401
q0 400 -252 400q-126 0 -198 -100q-54 -76 -54 -157v-278z" />
    <glyph glyph-name="ydieresis" unicode="&#xff;" horiz-adv-x="1136" 
d="M282 1313q31 41 88 41q51 0 83 -35q37 -36 37 -85q0 -56 -41 -90q-39 -32 -79 -32q-46 0 -84 37q-38 38 -38 85q0 43 34 79zM670 1313q33 41 89 41q50 0 83 -35q37 -36 37 -85q0 -56 -41 -90q-39 -32 -79 -32q-47 0 -85 37q-37 38 -37 85q0 43 33 79zM1020 846
q-86 -19 -143 -140l-375 -822q-74 -163 -130 -227q-81 -88 -194 -88q-170 0 -170 132q0 105 92 105q40 0 79 -27q37 -32 73 -32q79 0 127 113l70 150l-278 696q-61 124 -171 139v80h448v-80h-29q-65 0 -65 -54q0 -24 24 -73l181 -455h3l189 416q29 84 29 99q-32 66 -93 67
v80h333v-79z" />
    <glyph glyph-name="Amacron" unicode="&#x100;" horiz-adv-x="1579" 
d="M543 1721h562v-110h-562v110zM1433 229q66 -147 164 -149v-88h-446v86q54 10 67 24q8 12 8 50q0 15 -17 58l-84 183h-747l-85 -174q-23 -52 -23 -69q0 -56 85 -72v-86h-360v88q110 4 173 143l492 1016q18 36 18 47q0 23 -52 23v86q96 18 156 92h58zM767 1172h-10
l-329 -681h657z" />
    <glyph glyph-name="amacron" unicode="&#x101;" horiz-adv-x="998" 
d="M883 70q-61 -91 -158 -91q-123 0 -160 131h3q-123 -131 -285 -131q-134 0 -209 75q-74 71 -74 184q0 308 541 340q0 142 -31 203q-35 82 -139 82q-86 0 -114 -76q-36 -100 -36 -88q-10 -16 -58 -16q-81 0 -81 77q0 68 80 123q89 64 229 64q215 0 289 -145q44 -88 44 -270
v-301q0 -142 94 -142q16 0 45 14zM541 491q-344 -19 -344 -249q0 -71 47 -113q44 -40 113 -40q114 0 157 102q27 70 27 221v79zM757 1336v-137h-673v137h673z" />
    <glyph glyph-name="Abreve" unicode="&#x102;" 
d="M1072 1887q-6 -141 -100 -220q-75 -60 -183 -60q-107 0 -185 60q-93 79 -99 220h81q11 -67 63 -111q57 -49 140 -49q84 0 141 49q52 44 65 111h77zM1433 229q66 -147 164 -149v-88h-446v86q54 10 67 24q8 12 8 50q0 15 -17 58l-84 183h-747l-85 -174q-23 -52 -23 -69
q0 -56 85 -72v-86h-360v88q110 4 173 143l492 1016q18 36 18 47q0 23 -52 23v86q96 18 156 92h58zM767 1172h-10l-329 -681h657z" />
    <glyph glyph-name="abreve" unicode="&#x103;" horiz-adv-x="998" 
d="M883 70q-61 -91 -158 -91q-123 0 -160 131h3q-123 -131 -285 -131q-134 0 -209 75q-74 71 -74 184q0 308 541 340q0 142 -31 203q-35 82 -139 82q-86 0 -114 -76q-36 -100 -36 -88q-10 -16 -58 -16q-81 0 -81 77q0 68 80 123q89 64 229 64q215 0 289 -145q44 -88 44 -270
v-301q0 -142 94 -142q16 0 45 14zM541 491q-344 -19 -344 -249q0 -71 47 -113q44 -40 113 -40q114 0 157 102q27 70 27 221v79zM199 1280q3 -62 59 -107q58 -45 129 -45q70 0 122 40q59 43 66 112h70q-6 -99 -57 -168q-71 -89 -196 -89q-135 0 -203 92q-54 67 -61 165h71z
" />
    <glyph glyph-name="Aogonek" unicode="&#x104;" horiz-adv-x="1615" 
d="M1489 -10q-89 -27 -144 -60q-105 -59 -105 -147q0 -85 98 -85q75 0 143 68l32 -44q-123 -129 -235 -129q-73 0 -118 45q-45 41 -45 104q0 69 42 125q44 61 186 122zM1433 229q66 -147 164 -149v-88h-446v86q54 10 67 24q8 12 8 50q0 15 -17 58l-84 183h-747l-85 -174
q-23 -52 -23 -69q0 -56 85 -72v-86h-360v88q110 4 173 143l492 1016q18 36 18 47q0 23 -52 23v86q96 18 156 92h58zM767 1172h-10l-329 -681h657z" />
    <glyph glyph-name="aogonek" unicode="&#x105;" horiz-adv-x="1044" 
d="M883 119q-30 -45 -76 -74q-164 -105 -159 -182q6 -79 98 -79q79 0 159 61l25 -38q-106 -119 -246 -119q-78 0 -122 47q-42 42 -42 103q0 108 164 195q-91 16 -119 126h3q-123 -131 -285 -131q-134 0 -209 75q-74 71 -74 182q0 308 541 343q0 141 -31 200q-35 82 -139 82
q-86 0 -114 -73q-36 -103 -36 -89q-10 -16 -58 -16q-81 0 -81 77q0 66 80 123q89 62 229 62q215 0 289 -145q44 -88 44 -267v-301q0 -143 94 -143q16 0 45 11zM541 538q-344 -17 -344 -247q0 -73 47 -115q44 -38 113 -38q114 0 157 103q27 69 27 218v79z" />
    <glyph glyph-name="Cacute" unicode="&#x106;" horiz-adv-x="1410" 
d="M1240 1110q-61 150 -203 227q-119 68 -263 68q-207 0 -361 -166q-170 -185 -170 -512q0 -310 160 -485q156 -166 415 -166q299 0 520 232l59 -60q-258 -272 -623 -272q-340 0 -557 200q-222 210 -222 553q0 335 213 553q214 219 548 219q150 0 321 -47q113 -29 157 -29
q23 0 50 27h51v-342h-95zM1054 1859l2 -10q0 -14 -1 -28l-2 -8l-7 -22q-7 -21 -21 -40.5t-30.5 -35.5t-62.5 -46q-110 -65 -262 -77v69q112 56 145.5 87t42.5 56t13 56q5 38 31.5 60t62.5 22q30 -5 48 -18q6 -4 12 -11q5 -4 9 -10q17 -18 20 -44z" />
    <glyph glyph-name="cacute" unicode="&#x107;" horiz-adv-x="949" 
d="M835 180q-169 -185 -388 -185q-181 0 -309 114q-138 124 -138 333q0 207 132 343q127 140 328 140q145 0 227 -57q76 -50 76 -118q0 -85 -93 -85q-96 0 -100 93v4q-8 81 -104 81q-108 0 -173 -88q-83 -104 -83 -313q0 -191 115 -274q74 -57 174 -57q178 0 288 117z
M651 1268l2 -10q0 -14 -1 -28l-2 -8l-7 -22q-7 -21 -21 -40.5t-30.5 -35.5t-62.5 -46q-110 -65 -262 -77v69q112 56 145.5 87t42.5 56t13 56q5 38 31.5 60t62.5 22q30 -5 48 -18q6 -4 12 -11q5 -4 9 -10q17 -18 20 -44z" />
    <glyph glyph-name="Ccircumflex" unicode="&#x108;" horiz-adv-x="1410" 
d="M1240 1110q-61 150 -203 227q-119 68 -263 68q-207 0 -361 -166q-170 -185 -170 -512q0 -310 160 -485q156 -166 415 -166q299 0 520 232l59 -60q-258 -272 -623 -272q-340 0 -557 200q-222 210 -222 553q0 335 213 553q214 219 548 219q150 0 321 -47q113 -29 157 -29
q23 0 50 27h51v-342h-95zM782 1723q-11 -11 -20 -21q-89 -62 -241 -101l1 43q152 105 209 240q4 15 12 27q17 23 42 23q24 0 41 -23q12 -16 15 -36q56 -132 207 -236l1 -43q-152 39 -244 101q-16 13 -23 26z" />
    <glyph glyph-name="ccircumflex" unicode="&#x109;" horiz-adv-x="949" 
d="M835 180q-169 -185 -388 -185q-181 0 -309 114q-138 124 -138 333q0 207 132 343q127 140 328 140q145 0 227 -57q76 -50 76 -118q0 -85 -93 -85q-96 0 -100 93v4q-8 81 -104 81q-108 0 -173 -88q-83 -104 -83 -313q0 -191 115 -274q74 -57 174 -57q178 0 288 117z
M456 1141q-11 -11 -20 -21q-89 -62 -241 -101l1 43q152 105 209 240q4 15 12 27q17 23 42 23q24 0 41 -23q12 -16 15 -36q56 -132 207 -236l1 -43q-152 39 -244 101q-16 13 -23 26z" />
    <glyph glyph-name="Cdot" unicode="&#x10a;" horiz-adv-x="1194" 
d="M1356 1110q-61 150 -203 227q-119 68 -263 68q-207 0 -361 -166q-170 -185 -170 -512q0 -310 160 -485q156 -166 415 -166q299 0 520 232l59 -60q-258 -272 -623 -272q-340 0 -557 200q-222 210 -222 553q0 335 213 553q214 219 548 219q150 0 321 -47q113 -29 157 -29
q23 0 50 27h51v-342h-95zM786 1712q-8 40 16 76q23 34 66 44q43 8 81 -16q35 -27 44 -71q9 -38 -15 -76q-24 -34 -67 -44q-45 -8 -80 18q-37 25 -45 69z" />
    <glyph glyph-name="cdot" unicode="&#x10b;" horiz-adv-x="957" 
d="M942 180q-169 -185 -388 -185q-181 0 -309 114q-138 124 -138 333q0 207 132 343q127 140 328 140q145 0 227 -57q76 -50 76 -118q0 -85 -93 -85q-96 0 -100 93v4q-8 81 -104 81q-108 0 -173 -88q-83 -104 -83 -313q0 -191 115 -274q74 -57 174 -57q178 0 288 117z
M482 1137q-8 40 16 76q23 34 66 44q43 8 81 -16q35 -27 44 -71q9 -38 -15 -76q-24 -34 -67 -44q-45 -8 -80 18q-37 25 -45 69z" />
    <glyph glyph-name="Ccaron" unicode="&#x10c;" horiz-adv-x="1402" 
d="M1240 1110q-61 150 -203 227q-119 68 -263 68q-207 0 -361 -166q-170 -185 -170 -512q0 -310 160 -485q156 -166 415 -166q299 0 520 232l59 -60q-258 -272 -623 -272q-340 0 -557 200q-222 210 -222 553q0 335 213 553q214 219 548 219q150 0 321 -47q113 -29 157 -29
q23 0 50 27h51v-342h-95zM834 1833q92 62 244 101l-1 -43q-151 -104 -207 -236q-3 -20 -15 -36q-17 -23 -41 -23q-25 0 -42 23q-8 12 -12 27q-57 135 -209 240l-1 43q152 -39 241 -101q9 -10 20 -21q7 13 23 26z" />
    <glyph glyph-name="ccaron" unicode="&#x10d;" horiz-adv-x="949" 
d="M835 180q-169 -185 -388 -185q-181 0 -309 114q-138 124 -138 333q0 207 132 343q127 140 328 140q145 0 227 -57q76 -50 76 -118q0 -85 -93 -85q-96 0 -100 93v4q-8 81 -104 81q-108 0 -173 -88q-83 -104 -83 -313q0 -191 115 -274q74 -57 174 -57q178 0 288 117z
M487 1242q92 62 244 101l-1 -43q-151 -104 -207 -236q-3 -20 -15 -36q-17 -23 -41 -23q-25 0 -42 23q-8 12 -12 27q-57 135 -209 240l-1 43q152 -39 241 -101q9 -10 20 -21q7 13 23 26z" />
    <glyph glyph-name="Dcaron" unicode="&#x10e;" horiz-adv-x="1597" 
d="M645 1500q473 0 699 -311q137 -193 137 -456q0 -295 -194 -512q-202 -226 -640 -226h-647v82q130 12 130 169v1003q0 159 -130 169v82h645zM590 89q246 0 414 110q240 164 240 542q0 397 -272 566q-167 101 -382 101h-268v-1319h268zM656 1833q92 62 244 101l-1 -43
q-151 -104 -207 -236q-3 -20 -15 -36q-17 -23 -41 -23q-25 0 -42 23q-8 12 -12 27q-57 135 -209 240l-1 43q152 -39 241 -101q9 -10 20 -21q7 13 23 26z" />
    <glyph glyph-name="dcaron" unicode="&#x10f;" horiz-adv-x="1322" 
d="M934 197q0 -112 107 -120v-80h-290v80h-10q-122 -98 -267 -98q-186 0 -318 105q-156 126 -156 365t138 375q121 123 299 123q175 0 298 -82h16v283q0 96 -94 125v79h277v-1155zM751 728q-56 135 -230 135q-123 0 -201 -75q-110 -104 -110 -327q0 -194 77 -298
q73 -101 197 -101q92 0 170 55q79 54 97 127v484zM1052 976q124 94 140 169l-2 3h-32q-103 11 -103 96v8q7 99 120 99q135 0 135 -132q0 -171 -211 -286z" />
    <glyph glyph-name="Dcroat" unicode="&#x110;" horiz-adv-x="1620" 
d="M690 1463q461 0 679 -303q135 -189 135 -445q0 -289 -189 -499q-199 -221 -623 -221h-627v79q126 14 126 165v463h-191v92h191v425q0 153 -126 168v76h625zM645 89q242 0 402 105q236 161 236 529q0 388 -268 554q-162 94 -370 94h-262v-577h225v-92h-225v-613h262z" />
    <glyph glyph-name="dcroat" unicode="&#x111;" horiz-adv-x="1243" 
d="M1105 1137v-84h-757v84h757zM934 197q0 -112 107 -120v-80h-290v80h-10q-122 -98 -267 -98q-186 0 -318 105q-156 126 -156 365t138 375q121 123 299 123q175 0 298 -82h16v283q0 96 -94 125v79h277v-1155zM751 728q-56 135 -230 135q-123 0 -201 -75
q-110 -104 -110 -327q0 -194 77 -298q73 -101 197 -101q92 0 170 55q79 54 97 127v484z" />
    <glyph glyph-name="Emacron" unicode="&#x112;" horiz-adv-x="1352" 
d="M314 1721h595v-110h-595v110zM1188 1467l9 -281h-94q-33 107 -127 147q-73 28 -219 28h-406v-578h274q155 0 179 115h92v-325h-92q-28 83 -68 104q-22 8 -111 8h-274v-595h455q406 0 425 227h98l-25 -325h-1304v84q136 16 136 162v973q0 156 -136 158l2 98h1186z" />
    <glyph glyph-name="emacron" unicode="&#x113;" horiz-adv-x="922" 
d="M788 1361v-137h-671v137h671zM808 190q-168 -199 -376 -199q-157 0 -276 83q-156 113 -156 352q0 221 123 361q116 138 302 138q172 0 271 -125q86 -108 86 -255v-24h-570q-2 -25 -2 -91q0 -335 254 -335q152 0 294 143zM583 621q0 222 -169 222q-188 0 -198 -238h367v16
z" />
    <glyph glyph-name="Ebreve" unicode="&#x114;" horiz-adv-x="1212" 
d="M1262 1467l9 -281h-94q-33 107 -127 147q-73 28 -219 28h-406v-578h274q155 0 179 115h92v-325h-92q-28 83 -68 104q-22 8 -111 8h-274v-595h455q406 0 425 227h98l-25 -325h-1304v84q136 16 136 162v973q0 156 -136 158l2 98h1186zM540 1835q3 -62 59 -107
q58 -45 129 -45q70 0 122 40q59 43 66 112h70q-6 -99 -57 -168q-71 -89 -196 -89q-135 0 -203 92q-54 67 -61 165h71z" />
    <glyph glyph-name="ebreve" unicode="&#x115;" horiz-adv-x="1041" 
d="M936 190q-168 -199 -376 -199q-157 0 -276 83q-156 113 -156 352q0 221 123 361q116 138 302 138q172 0 271 -125q86 -108 86 -255v-24h-570q-2 -25 -2 -91q0 -335 254 -335q152 0 294 143zM711 620q0 207 -169 207q-188 0 -198 -222h367v15zM365 1289q3 -62 59 -107
q58 -45 129 -45q70 0 122 40q59 43 66 112h70q-6 -99 -57 -168q-71 -89 -196 -89q-135 0 -203 92q-54 67 -61 165h71z" />
    <glyph glyph-name="Edotaccent" unicode="&#x116;" horiz-adv-x="1371" 
d="M557 1812q36 39 83 39q43 0 82 -34q38 -34 38 -94q0 -49 -35 -87q-35 -37 -85 -37q-54 0 -87 43q-35 38 -35 81q0 51 39 89zM1188 1467l9 -281h-94q-33 107 -127 147q-73 28 -219 28h-406v-578h274q155 0 179 115h92v-325h-92q-28 83 -68 104q-22 8 -111 8h-274v-595h455
q406 0 425 227h98l-25 -325h-1304v84q136 16 136 162v973q0 156 -136 158l2 98h1186z" />
    <glyph glyph-name="edotaccent" unicode="&#x117;" horiz-adv-x="922" 
d="M315 1299q37 37 83 37q42 0 81 -32q39 -34 39 -90q0 -49 -35 -85q-36 -35 -85 -35q-55 0 -86 41q-36 36 -36 79q0 49 39 85zM808 190q-168 -199 -376 -199q-157 0 -276 83q-156 113 -156 352q0 221 123 361q116 138 302 138q172 0 271 -125q86 -108 86 -255v-24h-570
q-2 -25 -2 -91q0 -335 254 -335q152 0 294 143zM583 621q0 222 -169 222q-188 0 -198 -238h367v16z" />
    <glyph glyph-name="Eogonek" unicode="&#x118;" horiz-adv-x="1352" 
d="M1060 -5q-42 -17 -74 -36q-118 -66 -118 -156q0 -89 108 -89q82 0 157 70l35 -44q-136 -136 -259 -136q-77 0 -129 46q-48 44 -48 110q0 74 45 130q38 54 147 105h-924v79q136 16 136 165v974q0 160 -136 162l2 91l1176 1l9 -276h-85q-33 107 -129 148q-74 28 -221 28
h-411v-585h279q159 0 183 115h83v-320h-83q-28 82 -69 103q-24 9 -114 9h-279v-602h460q411 0 430 228h88l-25 -320h-234z" />
    <glyph glyph-name="eogonek" unicode="&#x119;" horiz-adv-x="922" 
d="M808 236q-55 -72 -171 -150l-72 -70q-86 -77 -80 -153q6 -79 96 -79q80 0 158 61l27 -38q-105 -119 -245 -119q-80 0 -126 47q-41 42 -41 103q0 116 134 198l3 -3q-26 -5 -59 -5q-157 0 -276 87q-156 118 -156 364q0 230 123 374q116 141 302 141q180 0 279 -135
q84 -119 78 -280h-570q-2 -28 -2 -96q0 -349 254 -349q152 0 294 149zM583 662q4 123 -49 191q-45 57 -120 57q-188 0 -198 -248h367z" />
    <glyph glyph-name="Ecaron" unicode="&#x11a;" horiz-adv-x="1381" 
d="M1188 1467l9 -281h-94q-33 107 -127 147q-73 28 -219 28h-406v-578h274q155 0 179 115h92v-325h-92q-28 83 -68 104q-22 8 -111 8h-274v-595h455q406 0 425 227h98l-25 -325h-1304v84q136 16 136 162v973q0 156 -136 158l2 98h1186zM665 1833q92 62 244 101l-1 -43
q-151 -104 -207 -236q-3 -20 -15 -36q-17 -23 -41 -23q-25 0 -42 23q-8 12 -12 27q-57 135 -209 240l-1 43q152 -39 241 -101q9 -10 20 -21q7 13 23 26z" />
    <glyph glyph-name="ecaron" unicode="&#x11b;" horiz-adv-x="922" 
d="M808 190q-168 -199 -376 -199q-157 0 -276 83q-156 113 -156 352q0 221 123 361q116 138 302 138q172 0 271 -125q86 -108 86 -255v-24h-570q-2 -25 -2 -91q0 -335 254 -335q152 0 294 143zM583 621q0 222 -169 222q-188 0 -198 -238h367v16zM422 1242q92 62 244 101
l-1 -43q-151 -104 -207 -236q-3 -20 -15 -36q-17 -23 -41 -23q-25 0 -42 23q-8 12 -12 27q-57 135 -209 240l-1 43q152 -39 241 -101q9 -10 20 -21q7 13 23 26z" />
    <glyph glyph-name="Gcircumflex" unicode="&#x11c;" horiz-adv-x="1461" 
d="M1252 1105h-79q-118 299 -460 299q-204 0 -339 -147q-156 -174 -156 -491q0 -507 309 -647q97 -46 264 -46q154 0 252 76q101 79 113 211q15 167 -123 172v81h312v-519q-335 -115 -562 -115q-387 0 -579 198q-204 208 -204 593q0 261 164 470q205 256 547 256
q179 0 316 -57q65 -25 112 -25q10 0 25 9q7 7 10 16h78v-334zM698 1723q-11 -11 -20 -21q-89 -62 -241 -101l1 43q152 105 209 240q4 15 12 27q17 23 42 23q24 0 41 -23q12 -16 15 -36q56 -132 207 -236l1 -43q-152 39 -244 101q-16 13 -23 26z" />
    <glyph glyph-name="gcircumflex" unicode="&#x11d;" horiz-adv-x="1070" 
d="M456 1132q-11 -11 -20 -21q-89 -62 -241 -101l1 43q152 105 209 240q4 15 12 27q17 23 42 23q24 0 41 -23q12 -16 15 -36q56 -132 207 -236l1 -43q-152 39 -244 101q-16 13 -23 26zM0 84l185 293q-145 79 -145 244q0 146 108 231q103 85 265 85q187 0 297 -98
q31 94 122 94q122 0 122 -114q0 -85 -79 -85q-61 0 -61 59q0 11 4 25q7 20 19 32l6 10l-21 2q-47 -3 -67 -60l11 -26q13 -21 18 -48q16 -45 16 -101q0 -151 -121 -236q-108 -74 -253 -74q-83 0 -156 25l-106 -162l3 -4l112 40q99 37 204 37q161 0 281 -79q142 -89 142 -240
q0 -132 -121 -212q-119 -85 -302 -85q-166 0 -278 60q-115 64 -115 166q0 111 109 111q96 0 96 -83q0 -23 -12 -44q-35 -55 -35 -56q0 -73 204 -73q321 0 321 188q0 173 -318 173q-198 0 -415 -80zM245 616q0 -228 171 -228q168 0 168 230q0 227 -168 227q-171 0 -171 -229z
" />
    <glyph glyph-name="Gbreve" unicode="&#x11e;" horiz-adv-x="1439" 
d="M1232 1109h-77q-116 301 -454 301q-200 0 -333 -147q-154 -175 -154 -493q0 -511 307 -651q91 -46 258 -46q151 0 248 76q100 81 109 213q17 168 -119 172v81h306v-521q-331 -115 -551 -115q-381 0 -570 198q-202 208 -202 597q0 261 162 470q201 256 537 256
q176 0 315 -57q60 -23 108 -23q12 0 24 7q8 8 12 16h74v-334zM987 1824q-8 -137 -97 -214q-78 -56 -185 -56q-103 0 -181 56q-90 77 -97 214h76q12 -66 66 -106q56 -46 136 -46q81 0 140 46q52 40 64 106h78z" />
    <glyph glyph-name="gbreve" unicode="&#x11f;" horiz-adv-x="1070" 
d="M0 84l185 293q-145 79 -145 244q0 146 108 231q103 85 265 85q187 0 297 -98q31 94 122 94q122 0 122 -114q0 -85 -79 -85q-61 0 -61 59q0 11 4 25q7 20 19 32l6 10l-21 2q-47 -3 -67 -60l11 -26q13 -21 18 -48q16 -45 16 -101q0 -151 -121 -236q-108 -74 -253 -74
q-83 0 -156 25l-106 -162l3 -4l112 40q99 37 204 37q161 0 281 -79q142 -89 142 -240q0 -132 -121 -212q-119 -85 -302 -85q-166 0 -278 60q-115 64 -115 166q0 111 109 111q96 0 96 -83q0 -23 -12 -44q-35 -55 -35 -56q0 -73 204 -73q321 0 321 188q0 173 -318 173
q-198 0 -415 -80zM245 616q0 -228 171 -228q168 0 168 230q0 227 -168 227q-171 0 -171 -229zM274 1270q3 -62 59 -107q58 -45 129 -45q70 0 122 40q59 43 66 112h70q-6 -99 -57 -168q-71 -89 -196 -89q-135 0 -203 92q-54 67 -61 165h71z" />
    <glyph glyph-name="Gdot" unicode="&#x120;" horiz-adv-x="1389" 
d="M1483 1106h-93q-128 299 -497 299q-221 0 -366 -145q-168 -176 -168 -494q0 -506 335 -645q101 -45 283 -45q166 0 271 75q108 78 122 211q17 162 -132 169v87h348v-526q-370 -116 -617 -116q-425 0 -636 200q-222 208 -222 596q0 263 182 471q222 258 597 258
q196 0 349 -57q67 -23 120 -23q9 0 21 6q10 11 19 17h84v-338zM870 1732q-8 40 16 76q23 34 66 44q43 8 81 -16q35 -27 44 -71q9 -38 -15 -76q-24 -34 -67 -44q-45 -8 -80 18q-37 25 -45 69z" />
    <glyph glyph-name="gdot" unicode="&#x121;" horiz-adv-x="1041" 
d="M36 84l185 293q-145 79 -145 244q0 146 108 231q103 85 265 85q187 0 297 -98q31 94 122 94q122 0 122 -114q0 -85 -79 -85q-61 0 -61 59q0 11 4 25q7 20 19 32l6 10l-21 2q-47 -3 -67 -60l11 -26q13 -21 18 -48q16 -45 16 -101q0 -151 -121 -236q-108 -74 -253 -74
q-83 0 -156 25l-106 -162l3 -4l112 40q99 37 204 37q161 0 281 -79q142 -89 142 -240q0 -132 -121 -212q-119 -85 -302 -85q-166 0 -278 60q-115 64 -115 166q0 111 109 111q96 0 96 -83q0 -23 -12 -44q-35 -55 -35 -56q0 -73 204 -73q321 0 321 188q0 173 -318 173
q-198 0 -415 -80zM281 616q0 -228 171 -228q168 0 168 230q0 227 -168 227q-171 0 -171 -229zM360 1169q-8 40 16 76q23 34 66 44q43 8 81 -16q35 -27 44 -71q9 -38 -15 -76q-24 -34 -67 -44q-45 -8 -80 18q-37 25 -45 69z" />
    <glyph glyph-name="Gcommaaccent" unicode="&#x122;" horiz-adv-x="1541" 
d="M1323 1212h-81q-123 296 -488 296q-216 0 -358 -145q-167 -171 -167 -486q0 -503 329 -646q102 -44 277 -44q166 0 270 75q107 81 119 215q16 161 -131 167v80h332v-517q-357 -112 -597 -112q-407 0 -612 197q-216 204 -216 589q0 260 177 465q214 254 575 254
q190 0 336 -57q66 -25 120 -25q12 0 23 10q11 9 16 15h76v-331zM573 -432q133 105 151 189l-1 2q-18 -2 -38 0q-109 11 -109 110v8q9 114 127 114q144 0 144 -153q0 -191 -225 -322z" />
    <glyph glyph-name="gcommaaccent" unicode="&#x123;" horiz-adv-x="1070" 
d="M562 1494q-114 -100 -131 -180l1 -2q16 3 32 -1q96 -7 96 -112t-111 -105q-124 0 -124 141q0 182 193 307zM0 84l185 293q-145 79 -145 244q0 146 108 231q103 85 265 85q187 0 297 -98q31 94 122 94q122 0 122 -114q0 -85 -79 -85q-61 0 -61 59q0 11 4 25q7 20 19 32
l6 10l-21 2q-47 -3 -67 -60l11 -26q13 -21 18 -48q16 -45 16 -101q0 -151 -121 -236q-108 -74 -253 -74q-83 0 -156 25l-106 -162l3 -4l112 40q99 37 204 37q161 0 281 -79q142 -89 142 -240q0 -132 -121 -212q-119 -85 -302 -85q-166 0 -278 60q-115 64 -115 166
q0 111 109 111q96 0 96 -83q0 -23 -12 -44q-35 -55 -35 -56q0 -73 204 -73q321 0 321 188q0 173 -318 173q-198 0 -415 -80zM245 616q0 -228 171 -228q168 0 168 230q0 227 -168 227q-171 0 -171 -229z" />
    <glyph glyph-name="Hcircumflex" unicode="&#x124;" horiz-adv-x="1589" 
d="M434 1414q-123 -12 -123 -169v-437h829v437q0 154 -121 170v81h437v-82q-126 -12 -126 -169v-1001q0 -154 126 -168v-81h-437v81q121 16 121 168v468h-829v-468q0 -155 123 -167v-82h-434v82q124 12 124 167v1001q0 157 -124 169v82h434v-82zM717 1723q-11 -11 -20 -21
q-89 -62 -241 -101l1 43q152 105 209 240q4 15 12 27q17 23 42 23q24 0 41 -23q12 -16 15 -36q56 -132 207 -236l1 -43q-152 39 -244 101q-16 13 -23 26z" />
    <glyph glyph-name="hcircumflex" unicode="&#x125;" horiz-adv-x="1077" 
d="M577 1160q-11 -11 -20 -21q-89 -62 -241 -101l1 43q152 105 209 240q4 15 12 27q17 23 42 23q24 0 41 -23q12 -16 15 -36q56 -132 207 -236l1 -43q-152 39 -244 101q-16 13 -23 26zM295 822h6q135 121 302 121q253 0 253 -306v-397q0 -154 105 -166v-79h-393v79
q70 10 91 58q13 29 13 108v405q0 188 -138 188q-157 0 -239 -162v-429q4 -153 103 -168v-79h-398v79q107 14 107 168v869q0 65 -13 117q-21 36 -89 47v79h290v-532z" />
    <glyph glyph-name="Hbar" unicode="&#x126;" horiz-adv-x="1503" 
d="M311 1017v-225h829v225h-829zM124 1017h-85v80h85v123q0 154 -124 166v80h434v-80q-123 -12 -123 -166v-123h829v123q0 151 -121 167v79h437v-80q-126 -12 -126 -166v-123h88v-80h-88v-778q0 -151 126 -165v-79h-437v79q121 16 121 165v459h-829v-459q0 -152 123 -164
v-80h-434v80q124 12 124 164v778z" />
    <glyph glyph-name="hbar" unicode="&#x127;" horiz-adv-x="1003" 
d="M107 1049h-102v98h101q-3 44 -12 81q-21 36 -89 47v79h290v-207h413v-98h-413v-227h6q135 121 302 121q253 0 253 -306v-397q0 -154 105 -166v-79h-393v79q70 10 91 58q13 29 13 108v405q0 188 -138 188q-157 0 -239 -162v-429q4 -153 103 -168v-79h-398v79
q107 14 107 168v807z" />
    <glyph glyph-name="Itilde" unicode="&#x128;" horiz-adv-x="715" 
d="M654 1383q-134 -12 -134 -163v-981q0 -147 134 -163v-84h-483v84q134 16 134 163v981q0 151 -134 163v86h483v-86zM694 1839q-57 -228 -199 -228q-49 0 -132 32l-15 6q-64 23 -91 23q-54 0 -97 -61h-55q68 214 195 214q41 0 130 -30q89 -32 113 -32q71 0 92 76h59z" />
    <glyph glyph-name="itilde" unicode="&#x129;" horiz-adv-x="622" 
d="M469 925v-683q0 -161 106 -167v-80h-398v79q105 12 105 168v434q0 83 -14 114q-21 42 -91 56v79h292zM661 1335q-57 -228 -199 -228q-49 0 -132 32l-15 6q-64 23 -91 23q-54 0 -97 -61h-55q68 214 195 214q41 0 130 -30q89 -32 113 -32q71 0 92 76h59z" />
    <glyph glyph-name="Imacron" unicode="&#x12a;" horiz-adv-x="666" 
d="M0 1736h632v-111h-632v111zM563 1383q-134 -12 -134 -163v-981q0 -147 134 -163v-84h-483v84q134 16 134 163v981q0 151 -134 163v86h483v-86z" />
    <glyph glyph-name="imacron" unicode="&#x12b;" horiz-adv-x="789" 
d="M432 925v-683q0 -161 107 -167v-80h-399v79q105 12 105 168v434q0 83 -13 114q-22 42 -92 56v79h292zM673 1334v-137h-673v137h673z" />
    <glyph glyph-name="Ibreve" unicode="&#x12c;" horiz-adv-x="714" 
d="M683 1383q-134 -12 -134 -163v-981q0 -147 134 -163v-84h-483v84q134 16 134 163v981q0 151 -134 163v86h483v-86zM323 1775q3 -62 59 -107q58 -45 129 -45q70 0 122 40q59 43 66 112h70q-6 -99 -57 -168q-71 -89 -196 -89q-135 0 -203 92q-54 67 -61 165h71z" />
    <glyph glyph-name="ibreve" unicode="&#x12d;" horiz-adv-x="622" 
d="M286 925v-683q0 -161 106 -167v-80h-398v79q105 12 105 168v434q0 83 -14 114q-21 42 -91 56v79h292zM47 1296q3 -62 59 -107q58 -45 129 -45q70 0 122 40q59 43 66 112h70q-6 -99 -57 -168q-71 -89 -196 -89q-135 0 -203 92q-54 67 -61 165h71z" />
    <glyph glyph-name="Iogonek" unicode="&#x12e;" horiz-adv-x="577" 
d="M434 -8q-157 -88 -152 -159q6 -70 94 -70q75 0 152 55l23 -36q-101 -105 -236 -105q-73 0 -115 42q-41 36 -41 92q0 95 175 181h100zM523 1387q-134 -12 -134 -163v-981q0 -147 134 -163v-84h-483v84q134 16 134 163v981q0 151 -134 163v86h483v-86z" />
    <glyph glyph-name="iogonek" unicode="&#x12f;" horiz-adv-x="618" 
d="M288 976v-683q0 -161 108 -167v-78q-182 -82 -176 -185q8 -79 100 -79q79 0 160 61l23 -38q-105 -119 -247 -119q-76 0 -120 47q-43 42 -43 103q0 108 188 208h-281v79q105 12 105 168v434q0 83 -14 114q-21 42 -91 56v79h288zM84 1426q26 33 73 33q46 0 87 -32
q39 -29 48 -74q8 -49 -19 -80q-25 -33 -73 -33q-46 0 -87 32q-41 30 -48 79q-11 46 19 75z" />
    <glyph glyph-name="Idotaccent" unicode="&#x130;" horiz-adv-x="589" 
d="M132 1844q44 43 107 43q64 0 109 -43q45 -46 45 -105q0 -58 -45 -100q-45 -45 -109 -45q-63 0 -107 44q-48 42 -48 101t48 105zM478 1383q-134 -12 -134 -163v-981q0 -147 134 -163v-84h-483v84q134 16 134 163v981q0 151 -134 163v86h483v-86z" />
    <glyph glyph-name="dotlessi" unicode="&#x131;" horiz-adv-x="513" 
d="M292 925v-683q0 -161 106 -167v-80h-398v79q105 12 105 168v434q0 83 -14 114q-21 42 -91 56v79h292z" />
    <glyph glyph-name="IJ" unicode="&#x132;" horiz-adv-x="1374" 
d="M557 1383q-134 -12 -134 -163v-981q0 -147 134 -163v-84h-483v84q134 16 134 163v981q0 151 -134 163v86h483v-86zM1279 1473v-81q-144 -17 -144 -156v-980q0 -255 -149 -396q-125 -118 -293 -118q-98 0 -161 44q-59 42 -59 96q0 41 32 74q33 25 79 25q111 0 111 -77
q0 -14 -2 -26q-5 -6 -5 -10q0 -28 57 -28q162 0 162 336v1060q0 143 -144 154v83h516z" />
    <glyph glyph-name="ij" unicode="&#x133;" horiz-adv-x="1088" 
d="M333 925v-683q0 -161 108 -167v-80h-396v79q105 12 105 168v434q0 83 -14 114q-21 42 -91 56v79h288zM129 1306q32 41 88 41q51 0 83 -34q37 -36 37 -85q0 -57 -41 -90q-39 -32 -79 -32q-46 0 -85 37q-37 38 -37 85q0 43 34 78zM882 927v-872q0 -234 -70 -355
q-84 -147 -254 -147q-65 0 -108 33q-41 36 -41 80q0 79 87 79q41 0 71 -39q42 -45 79 -45q51 0 51 67v948q0 169 -125 169h-42v82h352zM658 1306q32 41 88 41q51 0 83 -34q37 -36 37 -85q0 -57 -41 -90q-39 -32 -79 -32q-46 0 -85 37q-37 38 -37 85q0 43 34 78z" />
    <glyph glyph-name="Jcircumflex" unicode="&#x134;" horiz-adv-x="675" 
d="M521 1473v-81q-144 -17 -144 -156v-980q0 -255 -149 -396q-125 -118 -293 -118q-98 0 -161 44q-59 42 -59 96q0 41 32 74q33 25 79 25q111 0 111 -77q0 -14 -2 -26q-5 -6 -5 -10q0 -28 57 -28q162 0 162 336v1060q0 143 -144 154v83h516zM277 1704q-11 -11 -20 -21
q-89 -62 -241 -101l1 43q152 105 209 240q4 15 12 27q17 23 42 23q24 0 41 -23q12 -16 15 -36q56 -132 207 -236l1 -43q-152 39 -244 101q-16 13 -23 26z" />
    <glyph glyph-name="jcircumflex" unicode="&#x135;" horiz-adv-x="628" 
d="M399 955v-867q0 -234 -70 -355q-82 -148 -254 -148q-65 0 -107 34t-42 80q0 79 87 79q43 0 72 -39q42 -45 78 -45q51 0 51 66v947q0 169 -125 169h-42v79h352zM267 1132q-11 -11 -20 -21q-89 -62 -241 -101l1 43q152 105 209 240q4 15 12 27q17 23 42 23q24 0 41 -23
q12 -16 15 -36q56 -132 207 -236l1 -43q-152 39 -244 101q-16 13 -23 26z" />
    <glyph glyph-name="Kcommaaccent" unicode="&#x136;" horiz-adv-x="1519" 
d="M424 1521v-82q-119 -10 -119 -171v-450h5l548 470q64 60 64 101q0 50 -57 50h-20v82h435v-81q-142 -39 -292 -164l-413 -356l591 -667q124 -137 237 -157v-81h-529v82h20q69 0 69 61q0 35 -44 89l-488 545l-126 -109v-417q0 -157 119 -169v-82h-424v81q121 14 121 170
v1002q0 161 -121 171v82h424zM521 -459q121 108 138 194l-1 2q-13 -2 -32 0q-103 10 -103 113v7q8 117 120 117q132 0 132 -154q0 -196 -207 -331z" />
    <glyph glyph-name="kcommaaccent" unicode="&#x137;" horiz-adv-x="1089" 
d="M287 -530q143 119 164 216l-2 2q-17 -2 -40 0q-119 12 -119 124v10q11 130 139 130q155 0 155 -173q0 -218 -244 -368zM295 561l221 187q52 44 52 62q0 35 -68 35v80h381v-80q-115 -8 -247 -121l-132 -114l315 -402q95 -126 160 -128v-80h-442v81q87 -9 87 40
q0 22 -25 52l-238 307l-64 -55v-183q4 -153 103 -168v-79h-398v79q107 14 107 168v869q0 65 -13 117q-21 36 -89 47v79h290v-793z" />
    <glyph glyph-name="kgreenlandic" unicode="&#x138;" horiz-adv-x="1089" 
d="M288 556l224 191q52 44 52 62q0 36 -68 36v80h381v-80q-115 -8 -247 -122l-132 -115l315 -404q95 -127 160 -129v-80h-442v81q87 -9 87 41q0 22 -25 52l-238 309l-67 -59v-177q0 -156 105 -168v-79h-393v79q105 12 105 168v441q0 156 -105 168v79h288v-374z" />
    <glyph glyph-name="Lacute" unicode="&#x139;" horiz-adv-x="1283" 
d="M447 1390q-126 -14 -126 -167v-1132h443q121 0 205 80q71 72 92 183h90v-362h-1156v86q124 13 124 165v980q0 153 -124 167v83h452v-83zM463 1831l2 -10q0 -14 -1 -28l-2 -8l-7 -22q-7 -21 -21 -40.5t-30.5 -35.5t-62.5 -46q-110 -65 -262 -77v69q112 56 145.5 87
t42.5 56t13 56q5 38 31.5 60t62.5 22q30 -5 48 -18q6 -4 12 -11q5 -4 9 -10q17 -18 20 -44z" />
    <glyph glyph-name="lacute" unicode="&#x13a;" horiz-adv-x="459" 
d="M397 1680l2 -10q0 -14 -1 -28l-2 -8l-7 -22q-7 -21 -21 -40.5t-30.5 -35.5t-62.5 -46q-110 -65 -262 -77v69q112 56 145.5 87t42.5 56t13 56q5 38 31.5 60t62.5 22q30 -5 48 -18q6 -4 12 -11q5 -4 9 -10q17 -18 20 -44zM295 1354v-1112q4 -153 103 -168v-79h-398v79
q107 14 107 168v869q0 65 -13 117q-21 36 -89 47v79h290z" />
    <glyph glyph-name="Lcommaaccent" unicode="&#x13b;" horiz-adv-x="1283" 
d="M390 -393q120 91 137 161l-2 2q-15 -2 -33 0q-99 8 -99 95v6q8 97 116 97q132 0 132 -130q0 -165 -203 -277zM447 1390q-126 -14 -126 -167v-1132h443q121 0 205 80q71 72 92 183h90v-362h-1156v86q124 13 124 165v980q0 153 -124 167v83h452v-83z" />
    <glyph glyph-name="lcommaaccent" unicode="&#x13c;" horiz-adv-x="513" 
d="M53 -530q144 119 165 216l-1 2q-19 -2 -40 0q-121 12 -121 124v10q12 130 140 130q154 0 154 -173q0 -218 -241 -368zM295 1354v-1112q4 -153 103 -168v-79h-398v79q107 14 107 168v869q0 65 -13 117q-21 36 -89 47v79h290z" />
    <glyph glyph-name="Lcaron" unicode="&#x13d;" horiz-adv-x="1243" 
d="M442 1392q-126 -14 -126 -169v-1135h448q124 0 209 82q72 72 92 181h81v-356h-1146v80q124 13 124 168v980q0 155 -124 169v78h442v-78zM724 995q124 94 140 169l-2 3h-32q-103 11 -103 96v8q7 99 120 99q135 0 135 -132q0 -171 -211 -286z" />
    <glyph glyph-name="lcaron" unicode="&#x13e;" horiz-adv-x="694" 
d="M295 1354v-1112q4 -153 103 -168v-79h-398v79q107 14 107 168v869q0 65 -13 117q-21 36 -89 47v79h290zM405 976q124 94 140 169l-2 3h-32q-103 11 -103 96v8q7 99 120 99q135 0 135 -132q0 -171 -211 -286z" />
    <glyph glyph-name="Ldot" unicode="&#x13f;" horiz-adv-x="1212" 
d="M526 1384q-126 -14 -126 -166v-1127h443q121 0 205 79q71 72 92 183h90v-361h-1156v86q124 13 124 164v976q0 152 -124 166v83h452v-83zM619 484q-8 40 16 76q23 34 66 44q43 8 81 -16q35 -27 44 -71q9 -38 -15 -76q-24 -34 -67 -44q-45 -8 -80 18q-37 25 -45 69z" />
    <glyph glyph-name="ldot" unicode="&#x140;" horiz-adv-x="738" 
d="M321 1354v-1112q4 -153 103 -168v-79h-398v79q107 14 107 168v869q0 65 -13 117q-21 36 -89 47v79h290zM377 371q-8 40 16 76q23 34 66 44q43 8 81 -16q35 -27 44 -71q9 -38 -15 -76q-24 -34 -67 -44q-45 -8 -80 18q-37 25 -45 69z" />
    <glyph glyph-name="Lslash" unicode="&#x141;" horiz-adv-x="1330" 
d="M393 843l217 192l63 -68l-280 -249v-627h448q124 0 209 82q72 72 92 181h81v-356h-1146v80q124 13 124 168v302l-138 -123l-63 71l201 178v552q0 155 -124 169v78h442v-78q-126 -14 -126 -169v-383z" />
    <glyph glyph-name="lslash" unicode="&#x142;" horiz-adv-x="754" 
d="M397 774l198 136l48 -63l-246 -170v-435q4 -153 103 -168v-79h-398v79q107 14 107 168v305l-162 -112l-47 65l209 144v467q0 65 -13 117q-21 36 -89 47v79h290v-580z" />
    <glyph glyph-name="Nacute" unicode="&#x143;" horiz-adv-x="1579" 
d="M-5 77q61 12 97 44q27 43 27 101v992q0 165 -124 169v86h312l857 -1089l19 -23v867q0 145 -122 161v84h347v-84q-76 -18 -102 -56q-21 -32 -21 -105v-1232h-77l-992 1260h5v-1030q0 -144 123 -144v-86h-349v85zM913 1840l2 -10q0 -14 -1 -28l-2 -8l-7 -22
q-7 -21 -21 -40.5t-30.5 -35.5t-62.5 -46q-110 -65 -262 -77v69q112 56 145.5 87t42.5 56t13 56q5 38 31.5 60t62.5 22q30 -5 48 -18q6 -4 12 -11q5 -4 9 -10q17 -18 20 -44z" />
    <glyph glyph-name="nacute" unicode="&#x144;" horiz-adv-x="1079" 
d="M688 1277l2 -10q0 -14 -1 -28l-2 -8l-7 -22q-7 -21 -21 -40.5t-30.5 -35.5t-62.5 -46q-110 -65 -262 -77v69q112 56 145.5 87t42.5 56t13 56q5 38 31.5 60t62.5 22q30 -5 48 -18q6 -4 12 -11q5 -4 9 -10q17 -18 20 -44zM0 73q107 15 107 170v484q0 96 -105 119v78h290
l-1 -118q130 137 304 137h11q165 -2 221 -111q29 -60 29 -195v-394q0 -162 108 -168v-80h-400v78q108 15 108 170v402q0 187 -136 187q-143 0 -244 -156v-433q0 -157 106 -170v-78h-398v78z" />
    <glyph glyph-name="Ncommaaccent" unicode="&#x145;" horiz-adv-x="1549" 
d="M580 -451q131 108 146 193v1q-15 -2 -37 0q-106 13 -106 112v8q9 115 126 115q138 0 138 -154q0 -192 -217 -327zM-5 77q61 12 97 44q27 43 27 101v992q0 165 -124 169v86h312l857 -1089l19 -23v867q0 145 -122 161v84h347v-84q-76 -18 -102 -56q-21 -32 -21 -105v-1232
h-77l-992 1260h5v-1030q0 -144 123 -144v-86h-349v85z" />
    <glyph glyph-name="ncommaaccent" unicode="&#x146;" horiz-adv-x="1079" 
d="M378 -469q121 104 139 188l-1 3q-16 -2 -35 0q-100 10 -100 108v9q6 113 117 113q131 0 131 -151q0 -190 -205 -321zM0 73q107 15 107 170v484q0 96 -105 119v78h290l-1 -118q130 137 304 137h11q165 -2 221 -111q29 -60 29 -195v-394q0 -162 108 -168v-80h-400v78
q108 15 108 170v402q0 187 -136 187q-143 0 -244 -156v-433q0 -157 106 -170v-78h-398v78z" />
    <glyph glyph-name="Ncaron" unicode="&#x147;" horiz-adv-x="1575" 
d="M-5 77q61 12 97 44q27 43 27 101v992q0 165 -124 169v86h312l857 -1089l19 -23v867q0 145 -122 161v84h347v-84q-76 -18 -102 -56q-21 -32 -21 -105v-1232h-77l-992 1260h5v-1030q0 -144 123 -144v-86h-349v85zM759 1823q92 62 244 101l-1 -43q-151 -104 -207 -236
q-3 -20 -15 -36q-17 -23 -41 -23q-25 0 -42 23q-8 12 -12 27q-57 135 -209 240l-1 43q152 -39 241 -101q9 -10 20 -21q7 13 23 26z" />
    <glyph glyph-name="ncaron" unicode="&#x148;" horiz-adv-x="1079" 
d="M516 1224q92 62 244 101l-1 -43q-151 -104 -207 -236q-3 -20 -15 -36q-17 -23 -41 -23q-25 0 -42 23q-8 12 -12 27q-57 135 -209 240l-1 43q152 -39 241 -101q9 -10 20 -21q7 13 23 26zM0 73q107 15 107 170v484q0 96 -105 119v78h290l-1 -118q130 137 304 137h11
q165 -2 221 -111q29 -60 29 -195v-394q0 -162 108 -168v-80h-400v78q108 15 108 170v402q0 187 -136 187q-143 0 -244 -156v-433q0 -157 106 -170v-78h-398v78z" />
    <glyph glyph-name="napostrophe" unicode="&#x149;" horiz-adv-x="1534" 
d="M221 64q107 15 107 170v484q0 96 -105 119v78h290l-1 -118q130 137 304 137h11q165 -2 221 -111q29 -60 29 -195v-394q0 -162 108 -168v-80h-400v78q108 15 108 170v402q0 187 -136 187q-143 0 -244 -156v-433q0 -157 106 -170v-78h-398v78zM1 882q135 117 152 219l-5 5
h-38q-108 12 -108 129q0 125 126 125q145 0 145 -168q0 -215 -226 -361z" />
    <glyph glyph-name="Eng" unicode="&#x14a;" horiz-adv-x="1460" 
d="M1179 29l-958 1217v-1024q0 -144 123 -144v-86h-349v85q61 12 97 44q27 43 27 101v992q0 165 -124 169v86h312l857 -1089l19 -23v867q0 145 -122 161v84h347v-84q-76 -18 -102 -56q-21 -32 -21 -105v-1232h-1q-1 -122 -15 -206q-15 -93 -46 -148.5t-77 -79t-107 -23.5
h-41v107h26q37 0 66 18t48.5 60t30 114t10.5 180v15z" />
    <glyph glyph-name="eng" unicode="&#x14b;" horiz-adv-x="1235" 
d="M637 63v-80h-555v80h22q33 0 63 4.5t51 16.5t34 35.5t13 62.5v533q0 36 -13 58.5t-34.5 34t-51.5 15.5t-62 4h-12v80h339l27 -138h1q30 46 66 76.5t76.5 48t84.5 24t93 6.5q81 0 145.5 -20t109 -61t68 -105t23.5 -153v-611q0 -116 -27.5 -193t-78.5 -123t-121 -65.5
t-153 -19.5h-37v89h18q47 0 84 15t62 50t38.5 95t13.5 150v605q0 56 -12 98t-37.5 71.5t-66.5 44.5t-102 15q-68 0 -114 -22t-74 -59t-40.5 -86.5t-12.5 -104.5v-361q0 -36 12.5 -58t34.5 -33t52 -15t63 -4h10z" />
    <glyph glyph-name="Omacron" unicode="&#x14c;" 
d="M390 1848h632v-124h-632v124zM1252 1256q182 -220 182 -506q0 -293 -182 -511q-206 -244 -534 -244q-329 0 -533 244q-185 218 -185 511q0 286 185 506q204 246 533 246q328 0 534 -246zM357 1238q-152 -181 -152 -486q0 -314 152 -493q140 -174 356 -174t357 174
q152 179 152 493q0 305 -152 486q-141 174 -357 174t-356 -174z" />
    <glyph glyph-name="omacron" unicode="&#x14d;" horiz-adv-x="1031" 
d="M792 1336v-137h-669v137h669zM899 585q15 -60 15 -136q0 -48 -15 -112q-52 -202 -227 -286q-101 -50 -214 -50q-115 0 -212 50q-178 84 -231 286q-15 64 -15 112q0 76 15 136q91 340 443 340q353 0 441 -340zM285 773q-75 -87 -75 -312q0 -153 32 -231q53 -149 216 -149
q248 0 248 380q0 225 -75 312q-56 72 -173 72q-115 0 -173 -72z" />
    <glyph glyph-name="Obreve" unicode="&#x14e;" 
d="M1252 1256q182 -220 182 -506q0 -293 -182 -511q-206 -244 -534 -244q-329 0 -533 244q-185 218 -185 511q0 286 185 506q204 246 533 246q328 0 534 -246zM357 1238q-152 -181 -152 -486q0 -314 152 -493q140 -174 356 -174t357 174q152 179 152 493q0 305 -152 486
q-141 174 -357 174t-356 -174zM1006 1887q-6 -141 -100 -220q-75 -60 -183 -60q-107 0 -185 60q-93 79 -99 220h81q11 -67 63 -111q57 -49 140 -49q84 0 141 49q52 44 65 111h77z" />
    <glyph glyph-name="obreve" unicode="&#x14f;" horiz-adv-x="1031" 
d="M899 585q15 -60 15 -136q0 -48 -15 -112q-52 -202 -227 -286q-101 -50 -214 -50q-115 0 -212 50q-178 84 -231 286q-15 64 -15 112q0 76 15 136q91 340 443 340q353 0 441 -340zM285 773q-75 -87 -75 -312q0 -153 32 -231q53 -149 216 -149q248 0 248 380q0 225 -75 312
q-56 72 -173 72q-115 0 -173 -72zM283 1280q3 -62 59 -107q58 -45 129 -45q70 0 122 40q59 43 66 112h70q-6 -99 -57 -168q-71 -89 -196 -89q-135 0 -203 92q-54 67 -61 165h71z" />
    <glyph glyph-name="Ohungarumlaut" unicode="&#x150;" 
d="M1253 1250q182 -220 182 -506q0 -293 -182 -511q-206 -244 -534 -244q-329 0 -533 244q-185 218 -185 511q0 286 185 506q204 246 533 246q328 0 534 -246zM358 1232q-152 -181 -152 -486q0 -314 152 -493q140 -174 356 -174t357 174q152 179 152 493q0 305 -152 486
q-141 174 -357 174t-356 -174zM782 1840l2 -10q0 -14 -1 -28l-2 -8l-7 -22q-7 -21 -21 -40.5t-30.5 -35.5t-62.5 -46q-110 -65 -262 -77v69q112 56 145.5 87t42.5 56t13 56q5 38 31.5 60t62.5 22q30 -5 48 -18q6 -4 12 -11q5 -4 9 -10q17 -18 20 -44zM1139 1850l2 -10
q0 -14 -1 -28l-2 -8l-7 -22q-7 -21 -21 -40.5t-30.5 -35.5t-62.5 -46q-110 -65 -262 -77v69q112 56 145.5 87t42.5 56t13 56q5 38 31.5 60t62.5 22q30 -5 48 -18q6 -4 12 -11q5 -4 9 -10q17 -18 20 -44z" />
    <glyph glyph-name="ohungarumlaut" unicode="&#x151;" horiz-adv-x="1099" 
d="M899 585q15 -60 15 -136q0 -48 -15 -112q-52 -202 -227 -286q-101 -50 -214 -50q-115 0 -212 50q-178 84 -231 286q-15 64 -15 112q0 76 15 136q91 340 443 340q353 0 441 -340zM285 773q-75 -87 -75 -312q0 -153 32 -231q53 -149 216 -149q248 0 248 380q0 225 -75 312
q-56 72 -173 72q-115 0 -173 -72zM604 1277l2 -10q0 -14 -1 -28l-2 -8l-7 -22q-7 -21 -21 -40.5t-30.5 -35.5t-62.5 -46q-110 -65 -262 -77v69q112 56 145.5 87t42.5 56t13 56q5 38 31.5 60t62.5 22q30 -5 48 -18q6 -4 12 -11q5 -4 9 -10q17 -18 20 -44zM923 1268l2 -10
q0 -14 -1 -28l-2 -8l-7 -22q-7 -21 -21 -40.5t-30.5 -35.5t-62.5 -46q-110 -65 -262 -77v69q112 56 145.5 87t42.5 56t13 56q5 38 31.5 60t62.5 22q30 -5 48 -18q6 -4 12 -11q5 -4 9 -10q17 -18 20 -44z" />
    <glyph glyph-name="OE" unicode="&#x152;" horiz-adv-x="2291" 
d="M2175 318l-25 -319h-1206q-97 -16 -180 -16q-339 0 -556 221q-208 212 -208 541q0 330 216 546q214 215 548 215q83 0 180 -18l855 4l157 14h31v-284h-79q-42 111 -125 152q-64 30 -206 30h-386v-608h262q152 0 173 118h79v-321h-79q-27 82 -67 105q-25 14 -106 14h-262
v-627h495q390 0 408 233h81zM379 1240q-135 -167 -153 -431q-2 -47 -2 -139q0 -87 33 -202q56 -182 185 -288q136 -116 322 -116q231 0 231 143v1077q0 91 -64 121q-43 17 -167 17q-239 0 -385 -182z" />
    <glyph glyph-name="oe" unicode="&#x153;" horiz-adv-x="1612" 
d="M911 527q-4 -103 -4 -171q0 -101 58 -181q67 -88 188 -88q163 0 294 147l52 -48q-167 -207 -377 -207q-220 0 -331 141h-2q-123 -141 -331 -141q-212 0 -339 145q-119 134 -119 339q0 217 132 353q122 131 326 131q203 0 329 -137h12q126 137 313 137q174 0 275 -131
q86 -115 86 -267v-22h-562zM1272 611q7 78 -21 144q-41 108 -151 108q-182 0 -191 -252h363zM210 461q0 -177 38 -264q56 -135 210 -135q159 0 214 142q32 84 32 257q0 108 -4 128q-23 274 -242 274q-248 0 -248 -402z" />
    <glyph glyph-name="Racute" unicode="&#x154;" horiz-adv-x="1410" 
d="M567 1466q438 0 550 -214q39 -74 39 -158q0 -308 -302 -384l302 -490q89 -141 189 -145v-80h-278l-424 684h-323v-439q0 -152 126 -166v-79h-446v79q126 14 126 166v981q0 152 -126 169v76h567zM534 767q398 0 398 309q0 191 -140 259q-85 39 -258 39h-214v-607h214z
M782 1840l2 -10q0 -14 -1 -28l-2 -8l-7 -22q-7 -21 -21 -40.5t-30.5 -35.5t-62.5 -46q-110 -65 -262 -77v69q112 56 145.5 87t42.5 56t13 56q5 38 31.5 60t62.5 22q30 -5 48 -18q6 -4 12 -11q5 -4 9 -10q17 -18 20 -44z" />
    <glyph glyph-name="racute" unicode="&#x155;" horiz-adv-x="766" 
d="M292 925v-148h1q109 166 235 166q122 0 122 -109q0 -91 -86 -91q-53 0 -82 34q-18 31 -45 31q-52 0 -96 -84q-49 -92 -49 -222v-260q0 -161 106 -167v-80h-398v79q107 12 107 168v485q0 98 -105 119v79h290zM632 1268l2 -10q0 -14 -1 -28l-2 -8l-7 -22q-7 -21 -21 -40.5
t-30.5 -35.5t-62.5 -46q-110 -65 -262 -77v69q112 56 145.5 87t42.5 56t13 56q5 38 31.5 60t62.5 22q30 -5 48 -18q6 -4 12 -11q5 -4 9 -10q17 -18 20 -44z" />
    <glyph glyph-name="Rcommaaccent" unicode="&#x156;" horiz-adv-x="1432" 
d="M484 -471q127 107 142 191l-1 3q-15 -2 -34 0q-105 10 -105 113v6q8 118 122 118q137 0 137 -155q0 -193 -212 -328zM567 1466q438 0 550 -214q39 -74 39 -158q0 -308 -302 -384l302 -490q89 -141 189 -145v-80h-278l-424 684h-323v-439q0 -152 126 -166v-79h-446v79
q126 14 126 166v981q0 152 -126 169v76h567zM534 767q398 0 398 309q0 191 -140 259q-85 39 -258 39h-214v-607h214z" />
    <glyph glyph-name="rcommaaccent" unicode="&#x157;" horiz-adv-x="766" 
d="M292 925v-148h1q109 168 235 168q122 0 122 -111q0 -91 -86 -91q-53 0 -82 36q-18 29 -45 29q-52 0 -96 -84q-49 -92 -49 -222v-260q0 -159 106 -167v-80h-398v79q107 12 107 168v485q0 98 -105 121v77h290zM145 -530q143 119 161 216l-2 2q-15 -2 -38 0
q-118 12 -118 124v10q10 130 139 130q155 0 155 -173q0 -218 -243 -368z" />
    <glyph glyph-name="Rcaron" unicode="&#x158;" horiz-adv-x="1410" 
d="M567 1466q438 0 550 -214q39 -74 39 -158q0 -308 -302 -384l302 -490q89 -141 189 -145v-80h-278l-424 684h-323v-439q0 -152 126 -166v-79h-446v79q126 14 126 166v981q0 152 -126 169v76h567zM534 767q398 0 398 309q0 191 -140 259q-85 39 -258 39h-214v-607h214z
M580 1833q92 62 244 101l-1 -43q-151 -104 -207 -236q-3 -20 -15 -36q-17 -23 -41 -23q-25 0 -42 23q-8 12 -12 27q-57 135 -209 240l-1 43q152 -39 241 -101q9 -10 20 -21q7 13 23 26z" />
    <glyph glyph-name="rcaron" unicode="&#x159;" horiz-adv-x="766" 
d="M292 925v-148h1q109 166 235 166q122 0 122 -109q0 -91 -86 -91q-53 0 -82 34q-18 31 -45 31q-52 0 -96 -84q-49 -92 -49 -222v-260q0 -161 106 -167v-80h-398v79q107 12 107 168v485q0 98 -105 119v79h290zM357 1223q92 62 244 101l-1 -43q-151 -104 -207 -236
q-3 -20 -15 -36q-17 -23 -41 -23q-25 0 -42 23q-8 12 -12 27q-57 135 -209 240l-1 43q152 -39 241 -101q9 -10 20 -21q7 13 23 26z" />
    <glyph glyph-name="Sacute" unicode="&#x15a;" horiz-adv-x="1148" 
d="M852 1089q-122 323 -374 323q-121 0 -197 -68q-76 -65 -76 -166q0 -183 310 -272q143 -37 224 -73q292 -125 292 -399q0 -186 -138 -318q-139 -137 -329 -137q-128 0 -232 32q-133 37 -160 37q-72 0 -91 -53h-81v467h85q48 -160 182 -270q146 -119 314 -119q116 0 199 80
q84 85 84 203q0 189 -237 285q-49 22 -136 42q-92 23 -131 37q-317 114 -317 398q0 169 132 277q126 107 322 107q139 0 273 -77q41 -21 63 -21q20 0 53 31h62v-346h-96zM782 1840l2 -10q0 -14 -1 -28l-2 -8l-7 -22q-7 -21 -21 -40.5t-30.5 -35.5t-62.5 -46
q-110 -65 -262 -77v69q112 56 145.5 87t42.5 56t13 56q5 38 31.5 60t62.5 22q30 -5 48 -18q6 -4 12 -11q5 -4 9 -10q17 -18 20 -44z" />
    <glyph glyph-name="sacute" unicode="&#x15b;" horiz-adv-x="813" 
d="M563 889q73 -52 73 -127q0 -77 -76 -77q-82 0 -101 106q0 72 -116 72q-173 0 -173 -138q0 -69 54 -107q32 -26 143 -54q145 -41 208 -79q122 -76 122 -213q0 -130 -104 -210q-104 -83 -257 -83q-161 0 -256 74q-80 65 -80 144q0 105 100 105q97 0 97 -83q0 -11 -6 -34
q-4 -21 -4 -33q0 -32 29 -56q41 -34 118 -34q91 0 145 50q43 42 43 103q0 94 -147 147q-193 64 -237 95q-107 75 -107 205q0 128 88 210q85 75 219 75q141 0 225 -58zM575 1268l2 -10q0 -14 -1 -28l-2 -8l-7 -22q-7 -21 -21 -40.5t-30.5 -35.5t-62.5 -46q-110 -65 -262 -77
v69q112 56 145.5 87t42.5 56t13 56q5 38 31.5 60t62.5 22q30 -5 48 -18q6 -4 12 -11q5 -4 9 -10q17 -18 20 -44z" />
    <glyph glyph-name="Scircumflex" unicode="&#x15c;" horiz-adv-x="1177" 
d="M878 1089q-127 323 -387 323q-127 0 -205 -68q-76 -65 -76 -166q0 -183 319 -272q147 -37 230 -73q302 -125 302 -399q0 -186 -143 -318q-142 -137 -339 -137q-129 0 -238 32q-137 37 -163 37q-76 0 -93 -53h-85v467h87q49 -160 190 -270q147 -119 320 -119q120 0 207 80
q85 85 85 203q0 189 -244 285q-51 22 -140 42q-94 23 -133 37q-327 114 -327 398q0 169 134 277q131 107 331 107q143 0 283 -77q41 -21 66 -21q20 0 52 31h64v-346h-97zM530 1713q-11 -11 -20 -21q-89 -62 -241 -101l1 43q152 105 209 240q4 15 12 27q17 23 42 23
q24 0 41 -23q12 -16 15 -36q56 -132 207 -236l1 -43q-152 39 -244 101q-16 13 -23 26z" />
    <glyph glyph-name="scircumflex" unicode="&#x15d;" horiz-adv-x="813" 
d="M564 889q73 -52 73 -127q0 -77 -76 -77q-82 0 -101 106q0 72 -116 72q-173 0 -173 -138q0 -69 54 -107q32 -26 143 -54q145 -41 209 -79q121 -76 121 -213q0 -130 -104 -210q-102 -83 -257 -83q-161 0 -255 74q-81 65 -81 144q0 105 100 105q97 0 97 -83q0 -11 -7 -34
q-3 -21 -3 -33q0 -32 29 -56q43 -34 118 -34q92 0 145 50q43 42 43 103q0 94 -147 147q-193 64 -236 95q-108 75 -108 205q0 128 88 210q85 75 218 75q144 0 226 -58zM399 1132q-11 -11 -20 -21q-89 -62 -241 -101l1 43q152 105 209 240q4 15 12 27q17 23 42 23q24 0 41 -23
q12 -16 15 -36q56 -132 207 -236l1 -43q-152 39 -244 101q-16 13 -23 26z" />
    <glyph glyph-name="Scedilla" unicode="&#x15e;" horiz-adv-x="1177" 
d="M393 28l-114 28q-67 21 -101 21q-76 0 -93 -51h-85v460h87q53 -170 211 -285q137 -102 299 -102q120 0 207 82q85 81 85 198q0 229 -390 327q-454 115 -454 429q0 168 134 276q131 105 331 105q109 0 221 -48q123 -52 128 -52q20 0 52 31h64v-340h-97q-62 145 -139 219
q-103 101 -248 101q-127 0 -205 -67q-76 -65 -76 -166q0 -180 319 -265q237 -67 340 -134q192 -120 192 -334q0 -189 -143 -322q-142 -132 -339 -132q-33 0 -51 2l-74 7l-20 -80v-7q56 24 123 24q77 0 137 -18q50 -34 50 -80q0 -76 -81 -130q-110 -71 -216 -71q-93 0 -93 34
q0 32 57 32q52 0 61 -21q3 -6 15 -6q29 0 69 42q42 45 42 90q0 70 -113 70q-44 0 -71 -15l-56 4z" />
    <glyph glyph-name="scedilla" unicode="&#x15f;" horiz-adv-x="813" 
d="M228 -23q-102 20 -168 80q-60 58 -60 127q0 106 100 106q97 0 97 -81q0 -13 -6 -34q-4 -23 -4 -36q0 -30 29 -55q41 -32 118 -32q92 0 145 48q43 41 43 105q0 81 -54 108q-1 0 -209 75q-228 75 -228 263q0 132 94 209q87 75 227 75q135 0 217 -61q67 -52 67 -122
q0 -77 -76 -77q-82 0 -101 105q0 71 -116 71q-173 0 -173 -138q0 -83 75 -123q26 -10 186 -53q266 -76 266 -275q0 -140 -117 -221q-101 -77 -233 -73l-57 3l-21 -85v-7q56 24 123 24q77 0 137 -18q50 -34 50 -80q0 -76 -81 -130q-110 -71 -216 -71q-93 0 -93 34q0 32 57 32
q52 0 61 -21q3 -6 15 -6q29 0 69 42q42 45 42 90q0 70 -113 70q-44 0 -71 -15l-56 4z" />
    <glyph glyph-name="Scaron" unicode="&#x160;" horiz-adv-x="1138" 
d="M847 1097q-123 323 -375 323q-122 0 -195 -64q-74 -69 -74 -170q0 -185 308 -272q139 -41 220 -74q291 -128 291 -404q0 -186 -138 -320q-136 -137 -324 -137q-128 0 -229 32q-134 37 -161 37q-72 0 -89 -53h-81v469h85q48 -158 181 -272q141 -119 309 -119q115 0 199 84
q84 83 84 199q0 193 -237 289q-49 22 -135 44q-91 21 -128 35q-315 114 -315 400q0 171 130 279q126 111 320 111q138 0 269 -76q41 -24 64 -24q22 0 51 29h61v-346h-91zM534 1833q92 62 244 101l-1 -43q-151 -104 -207 -236q-3 -20 -15 -36q-17 -23 -41 -23q-25 0 -42 23
q-8 12 -12 27q-57 135 -209 240l-1 43q152 -39 241 -101q9 -10 20 -21q7 13 23 26z" />
    <glyph glyph-name="scaron" unicode="&#x161;" horiz-adv-x="813" 
d="M564 889q73 -52 73 -127q0 -77 -76 -77q-82 0 -101 106q0 72 -116 72q-173 0 -173 -138q0 -69 54 -107q32 -26 143 -54q145 -41 209 -79q121 -76 121 -213q0 -130 -104 -210q-102 -83 -257 -83q-161 0 -255 74q-81 65 -81 144q0 105 100 105q97 0 97 -83q0 -11 -7 -34
q-3 -21 -3 -33q0 -32 29 -56q43 -34 118 -34q92 0 145 50q43 42 43 103q0 94 -147 147q-193 64 -236 95q-108 75 -108 205q0 128 88 210q85 75 218 75q144 0 226 -58zM366 1224q92 62 244 101l-1 -43q-151 -104 -207 -236q-3 -20 -15 -36q-17 -23 -41 -23q-25 0 -42 23
q-8 12 -12 27q-57 135 -209 240l-1 43q152 -39 241 -101q9 -10 20 -21q7 13 23 26z" />
    <glyph glyph-name="Tcommaaccent" unicode="&#x162;" horiz-adv-x="1610" 
d="M642 0h-134v77q136 18 136 163v1121h-316q-200 0 -241 -181h-87v287h1495v-287h-88q-2 66 -47 114q-65 67 -195 67h-314v-1121q0 -149 132 -163v-77h-278l-21 -85v-7q56 24 123 24q77 0 137 -18q50 -34 50 -80q0 -76 -81 -130q-110 -71 -216 -71q-93 0 -93 34q0 32 57 32
q52 0 61 -21q3 -6 15 -6q29 0 69 42q42 45 42 90q0 70 -113 70q-44 0 -71 -15l-56 4z" />
    <glyph glyph-name="tcommaaccent" unicode="&#x163;" horiz-adv-x="694" 
d="M203 4q-98 49 -98 227v616h-105v84h105v207l183 100v-307h199v-84h-199v-609q0 -129 110 -129q67 0 131 51l46 -54q-95 -107 -214 -121l-98 1l-19 -75v-7q56 24 123 24q77 0 137 -18q50 -34 50 -80q0 -76 -81 -130q-110 -71 -216 -71q-93 0 -93 34q0 32 57 32
q52 0 61 -21q3 -6 15 -6q29 0 69 42q42 45 42 90q0 70 -113 70q-44 0 -71 -15l-56 4z" />
    <glyph glyph-name="Tcaron" unicode="&#x164;" horiz-adv-x="1490" 
d="M0 1467h1505v-293h-98q-2 70 -46 117q-64 62 -191 62h-309v-1114q0 -147 132 -159v-88h-485v86q136 16 136 161v1114h-311q-196 0 -237 -179h-96v293zM787 1823q92 62 244 101l-1 -43q-151 -104 -207 -236q-3 -20 -15 -36q-17 -23 -41 -23q-25 0 -42 23q-8 12 -12 27
q-57 135 -209 240l-1 43q152 -39 241 -101q9 -10 20 -21q7 13 23 26z" />
    <glyph glyph-name="tcaron" unicode="&#x165;" horiz-adv-x="665" 
d="M105 927v206l183 103v-309h199v-84h-199v-610q0 -128 110 -128q67 0 131 54l46 -57q-109 -123 -255 -123q-215 0 -215 248v616h-105v84h105zM405 976q124 94 140 169l-2 3h-32q-103 11 -103 96v8q7 99 120 99q135 0 135 -132q0 -171 -211 -286z" />
    <glyph glyph-name="Tbar" unicode="&#x166;" horiz-adv-x="1541" 
d="M861 780h321v-110h-321v-431q0 -147 132 -159v-88h-485v86q136 16 136 161v431h-322v110h322v573h-311q-196 0 -237 -179h-96v293h1505v-293h-98q-2 70 -46 117q-64 62 -191 62h-309v-573z" />
    <glyph glyph-name="tbar" unicode="&#x167;" horiz-adv-x="685" 
d="M105 604h-103v82h103v157h-105v84h105v206l183 103v-309h199v-84h-199v-157h201v-82h-201v-371q0 -128 110 -128q67 0 131 54l46 -57q-109 -123 -255 -123q-215 0 -215 248v377z" />
    <glyph glyph-name="Utilde" unicode="&#x168;" horiz-adv-x="1657" 
d="M1144 1867q-61 -264 -220 -264q-51 0 -143 33l-15 11q-75 25 -102 25q-61 0 -108 -69h-62q77 247 217 247q44 0 142 -37q98 -34 125 -34q78 0 101 88h65zM450 1466v-80q-126 -14 -126 -166v-572q0 -379 247 -497q95 -46 242 -46q150 0 276 73q138 81 187 240
q27 89 27 278v541q0 138 -128 148v81h348v-81q-126 -10 -126 -148v-639q0 -619 -620 -619q-352 0 -506 179q-145 162 -145 498v564q0 153 -126 165v81h450z" />
    <glyph glyph-name="utilde" unicode="&#x169;" horiz-adv-x="1075" 
d="M853 246q0 -81 15 -112q18 -44 91 -58v-79h-292v119h-1q-130 -137 -297 -137q-264 0 -264 269v479q0 122 -105 122v78h288v-651q0 -187 137 -187q140 0 242 156v484q0 109 -105 121v77h291v-681zM757 1350q-57 -228 -199 -228q-49 0 -132 32l-15 6q-64 23 -91 23
q-54 0 -97 -61h-55q68 214 195 214q41 0 130 -30q89 -32 113 -32q71 0 92 76h59z" />
    <glyph glyph-name="Umacron" unicode="&#x16a;" horiz-adv-x="1620" 
d="M475 1717h599v-108h-599v108zM450 1466v-80q-126 -14 -126 -166v-572q0 -379 247 -497q95 -46 242 -46q150 0 276 73q138 81 187 240q27 89 27 278v541q0 138 -128 148v81h348v-81q-126 -10 -126 -148v-639q0 -619 -620 -619q-352 0 -506 179q-145 162 -145 498v564
q0 153 -126 165v81h450z" />
    <glyph glyph-name="umacron" unicode="&#x16b;" horiz-adv-x="1075" 
d="M853 246q0 -81 15 -112q18 -44 91 -58v-79h-292v119h-1q-130 -137 -297 -137q-264 0 -264 269v479q0 122 -105 122v78h288v-651q0 -187 137 -187q140 0 242 156v484q0 109 -105 121v77h291v-681zM816 1336v-137h-672v137h672z" />
    <glyph glyph-name="Ubreve" unicode="&#x16c;" horiz-adv-x="1620" 
d="M450 1466v-80q-126 -14 -126 -166v-572q0 -379 247 -497q95 -46 242 -46q150 0 276 73q138 81 187 240q27 89 27 278v541q0 138 -128 148v81h348v-81q-126 -10 -126 -148v-639q0 -619 -620 -619q-352 0 -506 179q-145 162 -145 498v564q0 153 -126 165v81h450zM1072 1887
q-6 -141 -100 -220q-75 -60 -183 -60q-107 0 -185 60q-93 79 -99 220h81q11 -67 63 -111q57 -49 140 -49q84 0 141 49q52 44 65 111h77z" />
    <glyph glyph-name="ubreve" unicode="&#x16d;" horiz-adv-x="1075" 
d="M853 246q0 -81 15 -112q18 -44 91 -58v-79h-292v119h-1q-130 -137 -297 -137q-264 0 -264 269v479q0 122 -105 122v78h288v-651q0 -187 137 -187q140 0 242 156v484q0 109 -105 121v77h291v-681zM744 1296q-6 -141 -100 -220q-75 -60 -183 -60q-107 0 -185 60
q-93 79 -99 220h81q11 -67 63 -111q57 -49 140 -49q84 0 141 49q52 44 65 111h77z" />
    <glyph glyph-name="Uring" unicode="&#x16e;" horiz-adv-x="1608" 
d="M450 1466v-80q-126 -14 -126 -166v-572q0 -379 247 -497q95 -46 242 -46q150 0 276 73q138 81 187 240q27 89 27 278v541q0 138 -128 148v81h348v-81q-126 -10 -126 -148v-639q0 -619 -620 -619q-352 0 -506 179q-145 162 -145 498v564q0 153 -126 165v81h450zM742 1907
q48 42 110 42q58 0 109 -42q53 -50 53 -133q0 -76 -46 -126t-116 -50q-71 0 -117 50q-49 50 -49 126q0 83 56 133zM783 1697q30 -30 69 -30t69 31q30 33 30 76q0 40 -29 74q-29 32 -70 32q-40 0 -71 -31q-29 -31 -29 -75q0 -45 31 -77z" />
    <glyph glyph-name="uring" unicode="&#x16f;" horiz-adv-x="1075" 
d="M853 246q0 -81 15 -112q18 -44 91 -58v-79h-292v119h-1q-130 -137 -297 -137q-264 0 -264 269v479q0 122 -105 122v78h288v-651q0 -187 137 -187q140 0 242 156v484q0 109 -105 121v77h291v-681zM328 1298q48 42 110 42q58 0 109 -42q53 -50 53 -133q0 -76 -46 -126
t-116 -50q-71 0 -117 50q-49 50 -49 126q0 83 56 133zM369 1088q30 -30 69 -30t69 31q30 33 30 76q0 40 -29 74q-29 32 -70 32q-40 0 -71 -31q-29 -31 -29 -75q0 -45 31 -77z" />
    <glyph glyph-name="Uhungarumlaut" unicode="&#x170;" horiz-adv-x="1649" 
d="M450 1466v-80q-126 -14 -126 -166v-572q0 -379 247 -497q95 -46 242 -46q150 0 276 73q138 81 187 240q27 89 27 278v541q0 138 -128 148v81h348v-81q-126 -10 -126 -148v-639q0 -619 -620 -619q-352 0 -506 179q-145 162 -145 498v564q0 153 -126 165v81h450zM894 1849
l2 -10q0 -14 -1 -28l-2 -8l-7 -22q-7 -21 -21 -40.5t-30.5 -35.5t-62.5 -46q-110 -65 -262 -77v69q112 56 145.5 87t42.5 56t13 56q5 38 31.5 60t62.5 22q30 -5 48 -18q6 -4 12 -11q5 -4 9 -10q17 -18 20 -44zM1242 1840l2 -10q0 -14 -1 -28l-2 -8l-7 -22q-7 -21 -21 -40.5
t-30.5 -35.5t-62.5 -46q-110 -65 -262 -77v69q112 56 145.5 87t42.5 56t13 56q5 38 31.5 60t62.5 22q30 -5 48 -18q6 -4 12 -11q5 -4 9 -10q17 -18 20 -44z" />
    <glyph glyph-name="uhungarumlaut" unicode="&#x171;" horiz-adv-x="1097" 
d="M853 246q0 -81 15 -112q20 -44 91 -58v-79h-292v119h1q-132 -137 -299 -137q-264 0 -264 269v479q0 122 -105 122v78h290v-651q0 -187 135 -187q140 0 242 156v484q0 109 -105 121v77h291v-681zM556 1287l2 -10q0 -14 -1 -28l-2 -8l-7 -22q-7 -21 -21 -40.5t-30.5 -35.5
t-62.5 -46q-110 -65 -262 -77v69q112 56 145.5 87t42.5 56t13 56q5 38 31.5 60t62.5 22q30 -5 48 -18q6 -4 12 -11q5 -4 9 -10q17 -18 20 -44zM867 1269l2 -10q0 -14 -1 -28l-2 -8l-7 -22q-7 -21 -21 -40.5t-30.5 -35.5t-62.5 -46q-110 -65 -262 -77v69q112 56 145.5 87
t42.5 56t13 56q5 38 31.5 60t62.5 22q30 -5 48 -18q6 -4 12 -11q5 -4 9 -10q17 -18 20 -44z" />
    <glyph glyph-name="Uogonek" unicode="&#x172;" horiz-adv-x="1640" 
d="M450 1464v-78q-126 -15 -126 -164v-570q0 -382 247 -499q94 -43 242 -43q150 0 276 69q138 82 187 238q27 95 27 282v539q0 136 -128 147v79h348v-79q-126 -11 -126 -147v-638q0 -370 -234 -517q-74 -49 -208 -85q-95 -29 -156 -58q-117 -67 -117 -150q0 -85 109 -85
q86 0 159 67l39 -43q-139 -129 -264 -129q-81 0 -132 43q-52 43 -52 105q0 67 46 125q51 61 187 116v0q-419 -6 -568 253q-80 146 -80 416v564q0 152 -126 163v79h450z" />
    <glyph glyph-name="uogonek" unicode="&#x173;" horiz-adv-x="1181" 
d="M853 244q0 -83 15 -112q18 -44 91 -58v-77q-180 -98 -175 -185q4 -79 97 -79q81 0 162 61l22 -38q-104 -119 -245 -119q-78 0 -122 47q-42 42 -42 103q0 120 185 208h-174v117h-1q-128 -135 -310 -135q-165 0 -220 112q-31 64 -31 194v440q0 122 -105 122v80h288v-651
q0 -187 137 -187q140 0 242 156v484q0 107 -105 119v79h291v-681z" />
    <glyph glyph-name="Wcircumflex" unicode="&#x174;" horiz-adv-x="2037" 
d="M2152 1383q-93 -6 -169 -180l-544 -1227h-73l-268 664l-288 -664h-79l-531 1266q-56 139 -183 141v86h493v-86q-103 0 -103 -75q0 -26 29 -99l391 -934l211 494l-212 494q-47 112 -150 120v86h842v-84q-108 -16 -176 -181l-136 -315l258 -616l389 910q34 78 34 114
q0 46 -33 70q-40 11 -77 14v88h375v-86zM1252 1263q18 40 18 70q0 50 -74 50h-48q-66 0 -91 -8q-28 -12 -28 -50q0 -12 27 -81l93 -220zM1112 1717q-8 -8 -17 -18q-92 -83 -244 -122l1 43q152 105 209 240q4 15 12 27q17 23 42 23q24 0 41 -23q12 -16 15 -36
q56 -132 207 -236l1 -43q-152 39 -244 122z" />
    <glyph glyph-name="wcircumflex" unicode="&#x175;" horiz-adv-x="1502" 
d="M1386 847q-73 -4 -117 -107l-335 -761h-74l-164 391h-5l-181 -391h-70l-327 790q-34 84 -113 78v78h341v-79q-53 6 -53 -27q0 -21 10 -40l228 -561h3l121 253l-128 295q-34 81 -90 81v78h549v-78q-70 -6 -117 -117l-82 -171l149 -351h1l230 532q23 41 23 65q0 48 -76 42
v78h277v-78zM804 804q17 41 17 48q0 11 -16 11h-104q-37 0 -37 -16l16 -45l60 -140h-3zM709 1151q-11 -11 -20 -21q-89 -62 -241 -101l1 43q152 105 209 240q4 15 12 27q17 23 42 23q24 0 41 -23q12 -16 15 -36q56 -132 207 -236l1 -43q-152 39 -244 101q-16 13 -23 26z" />
    <glyph glyph-name="Ycircumflex" unicode="&#x176;" horiz-adv-x="1217" 
d="M492 1469v-81q-74 -15 -74 -60q0 -30 24 -61l346 -473h4l292 454q43 65 43 89q0 49 -78 49v83h377v-83q-139 2 -251 -178l-345 -540v-428q0 -150 122 -164v-84h-445v84q124 16 124 164v439l-394 534q-117 158 -246 175v81h501zM718 1719q-8 -8 -17 -18q-92 -83 -244 -122
l1 43q152 105 209 240q4 15 12 27q17 23 42 23q24 0 41 -23q12 -16 15 -36q56 -132 207 -236l1 -43q-152 39 -244 122z" />
    <glyph glyph-name="ycircumflex" unicode="&#x177;" horiz-adv-x="1136" 
d="M558 1123q-11 -11 -20 -21q-89 -62 -241 -101l1 43q152 105 209 240q4 15 12 27q17 23 42 23q24 0 41 -23q12 -16 15 -36q56 -132 207 -236l1 -43q-152 39 -244 101q-16 13 -23 26zM1020 846q-86 -19 -143 -140l-375 -822q-74 -163 -130 -227q-81 -88 -194 -88
q-170 0 -170 132q0 105 92 105q40 0 79 -27q37 -32 73 -32q79 0 127 113l70 150l-278 696q-61 124 -171 139v80h448v-80h-29q-65 0 -65 -54q0 -24 24 -73l181 -455h3l189 416q29 84 29 99q-32 66 -93 67v80h333v-79z" />
    <glyph glyph-name="Ydieresis" unicode="&#x178;" horiz-adv-x="1529" 
d="M494 1881q32 43 89 43q50 0 83 -36q37 -37 37 -88q0 -58 -41 -94q-39 -32 -79 -32q-47 0 -85 37q-37 40 -37 89q0 45 33 81zM884 1881q32 43 88 43q51 0 84 -36q36 -37 36 -88q0 -58 -41 -94q-39 -32 -79 -32q-47 0 -85 37q-37 40 -37 89q0 45 34 81zM496 1469v-81
q-74 -15 -74 -60q0 -30 24 -61l346 -473h4l292 454q43 65 43 89q0 49 -78 49v83h377v-83q-139 2 -251 -178l-345 -540v-428q0 -150 122 -164v-84h-445v84q124 16 124 164v439l-394 534q-117 158 -246 175v81h501z" />
    <glyph glyph-name="Zacute" unicode="&#x179;" horiz-adv-x="1439" 
d="M75 1469h1260v-78l-1060 -1301h783q218 0 250 181h92v-279h-1405v89l1057 1290h-609q-241 0 -276 -186h-92v284zM998 1849l2 -10q0 -14 -1 -28l-2 -8l-7 -22q-7 -21 -21 -40.5t-30.5 -35.5t-62.5 -46q-110 -65 -262 -77v69q112 56 145.5 87t42.5 56t13 56q5 38 31.5 60
t62.5 22q30 -5 48 -18q6 -4 12 -11q5 -4 9 -10q17 -18 20 -44z" />
    <glyph glyph-name="zacute" unicode="&#x17a;" horiz-adv-x="949" 
d="M45 925h741v-52l-529 -778l3 -10h291q172 -6 205 131h77v-221h-833v72l537 774h-207q-190 0 -207 -123h-78v207zM632 1268l2 -10q0 -14 -1 -28l-2 -8l-7 -22q-7 -21 -21 -40.5t-30.5 -35.5t-62.5 -46q-110 -65 -262 -77v69q112 56 145.5 87t42.5 56t13 56q5 38 31.5 60
t62.5 22q30 -5 48 -18q6 -4 12 -11q5 -4 9 -10q17 -18 20 -44z" />
    <glyph glyph-name="Zdotaccent" unicode="&#x17b;" horiz-adv-x="1402" 
d="M566 1830q40 43 95 43q57 0 99 -43q38 -40 38 -99q0 -62 -38 -104q-42 -45 -99 -45q-55 0 -95 45q-43 42 -43 104q0 59 43 99zM75 1469h1260v-78l-1060 -1301h783q218 0 250 181h92v-279h-1405v89l1057 1290h-609q-241 0 -276 -186h-92v284z" />
    <glyph glyph-name="zdotaccent" unicode="&#x17c;" horiz-adv-x="949" 
d="M365 1306q36 37 86 37t84 -37q35 -34 35 -83q0 -51 -35 -86q-34 -34 -84 -34t-86 35q-32 34 -32 85q0 49 32 83zM45 925h741v-52l-529 -778l3 -10h291q172 -6 205 131h77v-221h-833v72l537 774h-207q-190 0 -207 -123h-78v207z" />
    <glyph glyph-name="Zcaron" unicode="&#x17d;" horiz-adv-x="1410" 
d="M75 1469h1260v-78l-1060 -1301h783q218 0 250 181h92v-279h-1405v89l1057 1290h-609q-241 0 -276 -186h-92v284zM759 1824q92 62 244 101l-1 -43q-151 -104 -207 -236q-3 -20 -15 -36q-17 -23 -41 -23q-25 0 -42 23q-8 12 -12 27q-57 135 -209 240l-1 43
q152 -39 241 -101q9 -10 20 -21q7 13 23 26z" />
    <glyph glyph-name="zcaron" unicode="&#x17e;" horiz-adv-x="949" 
d="M45 925h741v-52l-529 -778l3 -10h291q172 -6 205 131h77v-221h-833v72l537 774h-207q-190 0 -207 -123h-78v207zM478 1242q92 62 244 101l-1 -43q-151 -104 -207 -236q-3 -20 -15 -36q-17 -23 -41 -23q-25 0 -42 23q-8 12 -12 27q-57 135 -209 240l-1 43
q152 -39 241 -101q9 -10 20 -21q7 13 23 26z" />
    <glyph glyph-name="longs" unicode="&#x17f;" horiz-adv-x="712" 
d="M117 967q10 160 100 261q114 127 239 127q62 0 99 -32q36 -30 36 -74q0 -87 -80 -87q-45 0 -81 43q-23 23 -52 23q-82 0 -82 -151l4 -833q0 -181 122 -168v-81h-422v79q78 12 97 56q20 31 20 114v723z" />
    <glyph glyph-name="florin" unicode="&#x192;" horiz-adv-x="1035" 
d="M748 769h-175l-88 -379q-80 -336 -150 -456q-81 -132 -213 -132q-122 0 -122 102q0 91 85 91q79 0 79 -77q0 -11 -2 -15l-2 -7q0 -12 18 -12q51 0 73 109q7 37 14 97l10 87q7 47 79 369l49 223h-201l17 74q139 6 191 44q51 40 92 158l35 127q24 86 48 142q72 153 209 153
q56 0 90 -23q34 -28 34 -62q0 -105 -85 -105q-80 0 -80 69l2 28q0 12 -15 12q-49 0 -73 -140q-39 -248 -72 -403h172z" />
    <glyph glyph-name="Aringacute" unicode="&#x1fa;" horiz-adv-x="1372" 
d="M979 2065l2 -10q0 -14 -1 -28l-2 -8l-7 -22q-7 -21 -21 -40.5t-30.5 -35.5t-62.5 -46q-110 -65 -262 -77v69q112 56 145.5 87t42.5 56t13 56q5 38 31.5 60t62.5 22q30 -5 48 -18q6 -4 12 -11q5 -4 9 -10q17 -18 20 -44zM1428 228q67 -149 164 -151v-82h-436v81
q52 9 67 25q8 13 8 51q0 15 -17 59l-85 185h-755l-86 -176q-23 -53 -23 -70q0 -58 85 -74v-81h-350v82q109 4 173 145l492 1016q18 37 18 48q0 26 -52 26v81q94 18 154 91h51zM771 1175h-18l-332 -687h671zM675 1785q48 42 110 42q58 0 109 -42q53 -50 53 -133
q0 -76 -46 -126t-116 -50q-71 0 -117 50q-49 50 -49 126q0 83 56 133zM716 1575q30 -30 69 -30t69 31q30 33 30 76q0 40 -29 74q-29 32 -70 32q-40 0 -71 -31q-29 -31 -29 -75q0 -45 31 -77z" />
    <glyph glyph-name="aringacute" unicode="&#x1fb;" horiz-adv-x="985" 
d="M613 1652l2 -10q0 -14 -1 -28l-2 -8l-7 -22q-7 -21 -21 -40.5t-30.5 -35.5t-62.5 -46q-110 -65 -262 -77v69q112 56 145.5 87t42.5 56t13 56q5 38 31.5 60t62.5 22q30 -5 48 -18q6 -4 12 -11q5 -4 9 -10q17 -18 20 -44zM541 489q-344 -19 -344 -241q0 -67 47 -109
q44 -38 113 -38q114 0 157 99q27 67 27 212v77zM566 120q-123 -125 -283 -125q-134 0 -209 73q-74 66 -74 176q0 298 541 330q0 136 -31 195q-35 78 -139 78q-86 0 -114 -72q-23 -65 -25 -69q-21 -31 -69 -31q-81 0 -81 73q0 66 80 118q89 63 229 63q215 0 289 -140
q44 -86 44 -261v-288q0 -139 94 -139q15 0 45 15l20 -34q-61 -87 -158 -87q-122 0 -159 125zM272 1307q48 42 110 42q58 0 109 -42q53 -50 53 -133q0 -76 -46 -126t-116 -50q-71 0 -117 50q-49 50 -49 126q0 83 56 133zM313 1097q30 -30 69 -30t69 31q30 33 30 76
q0 40 -29 74q-29 32 -70 32q-40 0 -71 -31q-29 -31 -29 -75q0 -45 31 -77z" />
    <glyph glyph-name="AEacute" unicode="&#x1fc;" horiz-adv-x="2382" 
d="M553 432l-174 -216q-70 -88 -70 -101q0 -32 87 -40v-80h-396v82q137 -2 318 229l697 871q77 95 77 139q0 52 -75 52h-19v98h1053v-287h-79q-32 110 -118 150q-68 29 -209 29h-337v-583h219q67 0 99 16q51 21 68 103h78v-325h-78q-17 83 -59 103q-28 14 -108 14h-219v-599
h446q202 0 290 51q76 49 111 176h79l-22 -319h-1220v80q127 12 127 162v195h-566zM1119 520v621h-5l-487 -614v-7h492zM1710 1859l2 -10q0 -14 -1 -28l-2 -8l-7 -22q-7 -21 -21 -40.5t-30.5 -35.5t-62.5 -46q-110 -65 -262 -77v69q112 56 145.5 87t42.5 56t13 56
q5 38 31.5 60t62.5 22q30 -5 48 -18q6 -4 12 -11q5 -4 9 -10q17 -18 20 -44z" />
    <glyph glyph-name="aeacute" unicode="&#x1fd;" horiz-adv-x="1636" 
d="M820 530v-129q11 -314 247 -314q150 0 292 146l54 -47q-186 -207 -379 -207q-214 0 -325 131h-5q-133 -131 -333 -131q-135 0 -209 84q-65 70 -65 175q0 306 537 340v57q0 228 -166 228q-87 0 -114 -76q-17 -104 -92 -104q-81 0 -81 87q0 75 92 125q85 52 217 52
q169 0 260 -102h2q99 102 272 102q170 0 272 -129q94 -116 92 -288h-568zM634 491q-338 -21 -338 -249q0 -140 134 -155q98 -14 151 59q53 70 53 212v133zM1187 615q3 76 -24 142q-40 106 -148 106q-180 0 -195 -248h367zM1016 1296l2 -10q0 -14 -1 -28l-2 -8l-7 -22
q-7 -21 -21 -40.5t-30.5 -35.5t-62.5 -46q-110 -65 -262 -77v69q112 56 145.5 87t42.5 56t13 56q5 38 31.5 60t62.5 22q30 -5 48 -18q6 -4 12 -11q5 -4 9 -10q17 -18 20 -44z" />
    <glyph glyph-name="Oslashacute" unicode="&#x1fe;" horiz-adv-x="1444" 
d="M1380 1277l171 162l74 -87l-173 -164q130 -204 130 -438q0 -291 -180 -507q-203 -248 -533 -248q-286 0 -489 201l-200 -189l-71 83l200 186q-148 208 -148 474q0 284 183 506q200 246 525 246q322 0 511 -225zM462 1158q-94 -162 -94 -413q0 -185 63 -351l834 783
q-142 233 -394 233q-269 0 -409 -252zM485 293q144 -206 384 -206q267 0 410 250q93 162 93 408q0 190 -53 320zM1148 1868l2 -10q0 -14 -1 -28l-2 -8l-7 -22q-7 -21 -21 -40.5t-30.5 -35.5t-62.5 -46q-110 -65 -262 -77v69q112 56 145.5 87t42.5 56t13 56q5 38 31.5 60
t62.5 22q30 -5 48 -18q6 -4 12 -11q5 -4 9 -10q17 -18 20 -44z" />
    <glyph glyph-name="oslashacute" unicode="&#x1ff;" horiz-adv-x="1123" 
d="M152 63l-45 65l113 83q-61 101 -61 252q0 194 111 328q128 156 347 156q253 0 372 -192l84 59l46 -61l-91 -69q47 -95 47 -221q0 -205 -116 -339q-129 -145 -342 -145q-235 0 -354 166zM849 655q-43 208 -232 208q-249 0 -249 -402q0 -92 6 -141zM394 236
q55 -174 223 -174q104 0 152 47q95 90 95 352q0 39 -4 104zM820 1269l2 -10q0 -14 -1 -28l-2 -8l-7 -22q-7 -21 -21 -40.5t-30.5 -35.5t-62.5 -46q-110 -65 -262 -77v69q112 56 145.5 87t42.5 56t13 56q5 38 31.5 60t62.5 22q30 -5 48 -18q6 -4 12 -11q5 -4 9 -10
q17 -18 20 -44z" />
    <glyph glyph-name="Scommaaccent" unicode="&#x218;" horiz-adv-x="1118" 
d="M828 1089q-120 313 -364 313q-120 0 -194 -60q-71 -66 -71 -168q0 -177 300 -264q138 -39 216 -72q287 -124 287 -394q0 -180 -136 -314q-133 -135 -319 -135q-123 0 -224 33q-130 39 -155 39q-70 0 -89 -54h-79v459h81q50 -156 178 -265q142 -118 305 -118q113 0 193 80
q84 83 84 200q0 183 -233 280q-47 20 -130 40q-91 23 -127 37q-308 114 -308 390q0 167 126 272q123 106 313 106q136 0 266 -75q39 -23 63 -23q19 0 51 28h58v-335h-92zM387 -449q127 104 144 185l-2 4q-12 -1 -35 1q-104 10 -104 109v7q9 113 125 113q139 0 139 -150
q0 -190 -218 -321z" />
    <glyph glyph-name="scommaaccent" unicode="&#x219;" horiz-adv-x="813" 
d="M563 862q73 -50 73 -121q0 -72 -76 -72q-82 0 -101 99q0 71 -116 71q-173 0 -173 -132q0 -65 54 -101q32 -26 143 -52q145 -39 208 -75q122 -75 122 -205q0 -123 -104 -200q-104 -79 -257 -79q-161 0 -256 71q-80 60 -80 137q0 101 100 101q97 0 97 -79q0 -11 -6 -33
q-4 -22 -4 -32q0 -30 29 -54q41 -31 118 -31q92 0 145 48q43 40 43 98q0 88 -147 139q-193 62 -237 91q-107 70 -107 194q0 126 88 203q85 70 219 70q142 0 225 -56zM256 -469q121 104 139 188l-1 3q-16 -2 -35 0q-100 10 -100 108v9q6 113 117 113q131 0 131 -151
q0 -190 -205 -321z" />
    <glyph glyph-name="circumflex" unicode="&#x2c6;" horiz-adv-x="762" 
d="M333 1141q-8 -8 -17 -18q-92 -83 -244 -122l1 43q152 105 209 240q4 15 12 27q17 23 42 23q24 0 41 -23q12 -16 15 -36q56 -132 207 -236l1 -43q-152 39 -244 122z" />
    <glyph glyph-name="caron" unicode="&#x2c7;" horiz-adv-x="762" 
d="M356 1213q92 83 244 121l-1 -42q-151 -104 -207 -236q-3 -21 -15 -36q-17 -24 -41 -24q-25 0 -42 24q-8 12 -12 26q-57 135 -209 240l-1 43q152 -39 244 -121l17 -19q10 11 23 24z" />
    <glyph glyph-name="macron" unicode="&#x2c9;" horiz-adv-x="973" 
d="M778 1236h-574v131h574v-131z" />
    <glyph glyph-name="breve" unicode="&#x2d8;" horiz-adv-x="735" 
d="M199 1280q3 -62 59 -107q58 -45 129 -45q70 0 122 40q59 43 66 112h70q-6 -99 -57 -168q-71 -89 -196 -89q-135 0 -203 92q-54 67 -61 165h71z" />
    <glyph glyph-name="dotaccent" unicode="&#x2d9;" horiz-adv-x="361" 
d="M-5 1128q-8 40 16 76q23 34 66 44q43 8 81 -16q35 -27 44 -71q9 -38 -15 -76q-24 -34 -67 -44q-45 -8 -80 18q-37 25 -45 69z" />
    <glyph glyph-name="ring" unicode="&#x2da;" horiz-adv-x="524" 
d="M68 1403q60 52 137 52q76 0 136 -52q68 -64 68 -162q0 -94 -59 -154q-57 -62 -145 -62q-89 0 -148 63q-57 59 -57 153q0 98 68 162zM119 1147q38 -38 86 -38q49 0 86 38q38 41 38 94q0 49 -35 89q-36 41 -89 41q-50 0 -87 -38q-38 -41 -38 -92q0 -55 39 -94z" />
    <glyph glyph-name="ogonek" unicode="&#x2db;" horiz-adv-x="507" 
d="M303 62q-71 -39 -130 -94q-52 -50 -50 -105q6 -79 92 -79q77 0 151 61l26 -38q-101 -119 -235 -119q-74 0 -116 47q-41 42 -41 103q0 112 209 224h94z" />
    <glyph glyph-name="tilde" unicode="&#x2dc;" horiz-adv-x="853" 
d="M635 1302q-57 -228 -199 -228q-49 0 -132 32l-15 6q-64 23 -91 23q-54 0 -97 -61h-55q68 214 195 214q41 0 130 -30q89 -32 113 -32q71 0 92 76h59z" />
    <glyph glyph-name="hungarumlaut" unicode="&#x2dd;" horiz-adv-x="840" 
d="M426 1142q-124 -81 -329 -119l1 42q206 103 282 235q6 14 17 26q23 23 56 23t56 -23t23 -56q-6 -26 -16.5 -42.5t-26 -33.5t-63.5 -52zM773 1151q-124 -81 -329 -119l1 42q206 103 282 235q6 14 17 26q23 23 56 23t56 -23t23 -56q-6 -26 -16.5 -42.5t-26 -33.5t-63.5 -52
z" />
    <glyph glyph-name="tonos" unicode="&#x384;" horiz-adv-x="591" 
d="M501 1287l2 -10q0 -14 -1 -28l-2 -8l-7 -22q-7 -21 -21 -40.5t-30.5 -35.5t-62.5 -46q-110 -65 -262 -77v69q112 56 145.5 87t42.5 56t13 56q5 38 31.5 60t62.5 22q30 -5 48 -18q6 -4 12 -11q5 -4 9 -10q17 -18 20 -44z" />
    <glyph glyph-name="dieresistonos" unicode="&#x385;" horiz-adv-x="1123" 
d="M262 1395q0 57 28.5 82t68.5 25q19 0 36.5 -6.5t31 -19.5t21 -33t7.5 -48q0 -56 -29.5 -82t-66.5 -26q-41 0 -69 26.5t-28 81.5zM677 1395q0 57 28.5 82t67.5 25q19 0 36.5 -6.5t31 -19.5t21.5 -33t8 -48q0 -56 -29.5 -82t-67.5 -26q-40 0 -68 26.5t-28 81.5zM492 1416
q11 28 23 66t23.5 79.5t20.5 82t13 77.5h185v-25q-6 -26 -27 -67t-49.5 -85.5t-59 -86.5t-57.5 -73h-72v32z" />
    <glyph glyph-name="Alphatonos" unicode="&#x386;" horiz-adv-x="1569" 
d="M267 1039h-80l-55 441h190zM1291 228q59 -147 147 -151v-82h-397v81q47 8 59 27q12 14 12 51q0 17 -17 60l-76 189h-680l-76 -181q-25 -51 -25 -70q0 -58 78 -76v-81h-316v82q97 8 156 147l443 1030q19 41 19 51q0 25 -48 25v81q84 25 144 93h43zM691 1181h-18l-295 -684
h600z" />
    <glyph glyph-name="anoteleia" unicode="&#x387;" horiz-adv-x="371" 
d="M128 843q52 0 89.5 -38.5t37.5 -95.5q0 -58 -36.5 -96t-90.5 -38q-53 0 -90.5 38t-37.5 96q0 57 39.5 95.5t88.5 38.5z" />
    <glyph glyph-name="Epsilontonos" unicode="&#x388;" horiz-adv-x="1579" 
d="M144 1048h-86l-58 440h203zM1432 1476l9 -281h-94q-33 107 -127 147q-73 28 -219 28h-406v-578h274q155 0 179 115h92v-325h-92q-28 83 -68 104q-22 8 -111 8h-274v-595h455q406 0 425 227h98l-25 -325h-1304v84q136 16 136 162v973q0 156 -136 158l2 98h1186z" />
    <glyph glyph-name="Etatonos" unicode="&#x389;" horiz-adv-x="1766" 
d="M660 1432q-119 -13 -119 -170v-442h805v442q0 153 -120 170v80h424v-80q-118 -13 -118 -170v-1006q0 -156 118 -170v-81h-424v81q120 16 120 170v470h-805v-470q0 -156 119 -170v-81h-424v81q120 14 120 170v1006q0 157 -120 170v80h424v-80zM136 1066h-80l-56 444h192z
" />
    <glyph glyph-name="Iotatonos" unicode="&#x38a;" horiz-adv-x="852" 
d="M736 1414q-134 -10 -134 -169v-999q0 -154 134 -170v-81h-474v81q135 16 135 170v999q0 157 -135 169v84h474v-84zM154 1060h-89l-65 444h216z" />
    <glyph glyph-name="Omicrontonos" unicode="&#x38c;" horiz-adv-x="1846" 
d="M144 1031h-86l-58 442h203zM1447 1256q182 -220 182 -506q0 -293 -182 -511q-206 -244 -536 -244q-329 0 -532 244q-184 218 -184 511q0 286 184 506q203 246 532 246q330 0 536 -246zM552 1238q-152 -181 -152 -486q0 -314 152 -493q141 -174 356 -174q216 0 357 174
q151 179 151 493q0 305 -151 486q-141 174 -357 174q-215 0 -356 -174z" />
    <glyph glyph-name="Upsilontonos" unicode="&#x38e;" horiz-adv-x="1816" 
d="M749 1494v-83q-76 -10 -76 -57q0 -32 24 -65l361 -481h5l303 463q41 67 41 89q0 50 -80 50v84h374v-84q-138 2 -256 -178l-349 -547v-431q0 -154 124 -168v-81h-444v81q125 16 125 168v441l-399 543q-122 160 -253 172v84h500zM144 1052h-86l-58 442h203z" />
    <glyph glyph-name="Omegatonos" unicode="&#x38f;" horiz-adv-x="1688" 
d="M152 345h49q4 -78 41 -108.5t115 -30.5h272l-3 62q-158 37 -291 195t-133 399q0 266 186 454t481 188q289 0 471.5 -177.5t182.5 -456.5q0 -224 -112 -382t-306 -220l-7 -62h273q91 0 122 37.5t31 101.5h49v-350h-575l26 335q260 88 260 512q0 278 -127 426t-294 148
q-176 0 -295.5 -157.5t-119.5 -400.5q0 -179 53 -324t203 -204l21 -335h-573v350zM134 1044h-78l-56 446h191z" />
    <glyph glyph-name="iotadieresistonos" unicode="&#x390;" horiz-adv-x="927" 
d="M755 8q-53 -11 -100.5 -22t-122.5 -11q-97 0 -150 53.5t-53 151.5l2 545q0 28 -14 51.5t-38 40.5q-19 9 -56.5 16.5t-72.5 7.5v71l367 21l20 -15v-723q0 -57 37 -88.5t108 -31.5q16 0 32.5 2t40.5 2v-71zM547 1496q-23 -63 -48.5 -149t-57.5 -226h-70q-33 131 -60 227.5
t-49 147.5v25h285v-25zM812 1260q0 -50 -36.5 -85t-91.5 -35t-90 35t-35 85q0 51 35 85t90 34t91.5 -33.5t36.5 -85.5zM253 1260q0 -50 -35.5 -85t-89.5 -35q-53 0 -90.5 34.5t-37.5 85.5q0 52 38 85.5t90 33.5q54 0 89.5 -34t35.5 -85z" />
    <glyph glyph-name="Alpha" unicode="&#x391;" horiz-adv-x="1569" 
d="M1301 228q58 -144 147 -148v-88h-407v86q48 8 59 26q12 14 12 50q0 17 -17 60l-75 186h-672l-75 -179q-25 -50 -25 -69q0 -56 78 -74v-86h-326v88q98 8 156 145l443 1030q19 40 19 50q0 22 -48 22v86q85 25 146 94h50zM692 1178h-10l-293 -678h588z" />
    <glyph glyph-name="Beta" unicode="&#x392;" horiz-adv-x="1377" 
d="M628 1467q445 0 545 -263q22 -56 22 -112q0 -47 -17 -103q-69 -183 -247 -222l-22 -6l30 -12q191 -28 282 -184q50 -85 50 -179q0 -216 -205 -319q-142 -75 -323 -75h-743v87q136 5 136 162v977q0 158 -136 160v89h628zM600 790q274 0 336 187q13 44 13 112q0 44 -19 94
q-68 186 -359 186h-218v-579h247zM648 90q132 0 231 47q144 73 144 249q0 149 -107 229q-103 77 -288 77h-275v-602h295z" />
    <glyph glyph-name="Gamma" unicode="&#x393;" horiz-adv-x="1230" 
d="M452 -8h-452v83q124 14 124 166v976q0 151 -124 164v86h1156v-361h-90q-21 111 -92 183q-84 79 -205 79h-443v-1127q0 -152 126 -166v-83z" />
    <glyph glyph-name="uni0394" unicode="&#x394;" horiz-adv-x="1352" 
d="M0 -8l574 1513h43l636 -1513h-1253zM973 102l-396 1024l-386 -1024h782z" />
    <glyph glyph-name="Epsilon" unicode="&#x395;" horiz-adv-x="1352" 
d="M1188 1467l9 -281h-94q-33 107 -127 147q-73 28 -219 28h-406v-578h274q155 0 179 115h92v-325h-92q-28 83 -68 104q-22 8 -111 8h-274v-595h455q406 0 425 227h98l-25 -325h-1304v84q136 16 136 162v973q0 156 -136 158l2 98h1186z" />
    <glyph glyph-name="Zeta" unicode="&#x396;" horiz-adv-x="1490" 
d="M80 1469h1260v-78l-1060 -1301h783q218 0 250 181h92v-279h-1405v89l1057 1290h-609q-241 0 -276 -186h-92v284z" />
    <glyph glyph-name="Eta" unicode="&#x397;" horiz-adv-x="1526" 
d="M444 1383q-123 -12 -123 -163v-425h819v425q0 149 -121 165v84h447v-86q-126 -12 -126 -163v-981q0 -149 126 -163v-84h-447v84q121 16 121 163v456h-819v-456q0 -149 123 -161v-86h-444v86q124 12 124 161v981q0 151 -124 163v86h444v-86z" />
    <glyph glyph-name="Theta" unicode="&#x398;" horiz-adv-x="1556" 
d="M1272 1255q185 -224 185 -514q0 -295 -185 -518q-208 -247 -542 -247q-336 0 -542 247q-188 223 -188 518q0 290 188 514q206 246 542 246q334 0 542 -246zM373 1233q-153 -185 -153 -492q0 -310 153 -497q142 -168 357 -168q213 0 355 168q153 187 153 497
q0 307 -153 492q-142 172 -355 172q-215 0 -357 -172zM1053 531h-88q-11 33 -20 57t-25 45q-11 14 -57.5 19.5t-138.5 5.5q-97 0 -141 -5.5t-56 -19.5q-15 -25 -24.5 -46t-19.5 -56h-88v392h88q10 -41 19.5 -60t24.5 -40q10 -14 55.5 -19t141.5 -5q88 0 137.5 5t58.5 19
q12 17 21.5 37t23.5 63h88v-392z" />
    <glyph glyph-name="Iota" unicode="&#x399;" horiz-adv-x="589" 
d="M483 1381q-134 -8 -134 -160v-978q0 -147 134 -162v-85h-483v85q134 15 134 162v978q0 150 -134 160v89h483v-89z" />
    <glyph glyph-name="Kappa" unicode="&#x39a;" horiz-adv-x="1541" 
d="M440 1499v-88q-121 -12 -121 -166v-449v0l551 470q66 59 66 98q0 47 -54 47h-24v88h452v-86q-149 -39 -296 -166l-420 -354l596 -662q125 -133 245 -153v-86h-548v88h26q64 0 64 57q0 34 -44 86l-491 542l-123 -105v-416q0 -152 121 -166v-86h-440v86q123 16 123 166
v1001q0 154 -123 166v88h440z" />
    <glyph glyph-name="Lambda" unicode="&#x39b;" 
d="M1366 229q64 -147 156 -149v-88h-427v86q54 10 65 24q11 13 11 50q0 15 -433 997l-4 1q-432 -946 -441 -997q-29 -59 50 -75v-86h-343v88q107 4 163 143l468 1016q19 36 19 47q0 23 -51 23v86q91 18 151 92h55z" />
    <glyph glyph-name="Mu" unicode="&#x39c;" horiz-adv-x="1914" 
d="M899 283h-7l510 1186h406v-86q-128 -12 -128 -161v-984q0 -150 128 -158v-88h-464v88q129 8 129 158v1143h13l-605 -1405h-86l-575 1405h14v-1144q0 -149 128 -157v-88h-362v88q130 12 130 157v1027q0 115 -130 119v86h412z" />
    <glyph glyph-name="Nu" unicode="&#x39d;" horiz-adv-x="1549" 
d="M0 77q61 12 97 44q27 43 27 101v992q0 165 -124 169v86h312l857 -1089l19 -23v867q0 145 -122 161v84h347v-84q-76 -18 -102 -56q-21 -32 -21 -105v-1232h-77l-992 1260h5v-1030q0 -144 123 -144v-86h-349v85z" />
    <glyph glyph-name="Xi" unicode="&#x39e;" horiz-adv-x="1330" 
d="M1195 1110h-85q-17 29 -32 73t-30 75q-24 30 -51 50.5t-79 20.5q-99 2 -171 3t-138 1q-94 0 -166.5 -2t-135.5 -2q-35 0 -66.5 -16t-57.5 -55q-19 -33 -34.5 -74.5l-26.5 -73.5h-91l27 389h1110zM944 543h-87q-10 34 -20.5 60t-24.5 42q-11 15 -58.5 20t-140.5 5
q-96 0 -141 -5t-57 -20q-16 -22 -25.5 -44t-17.5 -58h-90v397h90q8 -42 17.5 -61t25.5 -41q10 -15 57.5 -20t140.5 -5q91 0 141 5t58 20q12 16 23 38t22 64h87v-397zM1228 409l-50 -423h-1127l-51 423h90q16 -46 31.5 -80t42.5 -77q23 -35 57 -58.5t75 -23.5q78 0 155 -2
t158 -2q78 0 151 1t169 3q45 0 78 21.5t60 60.5q28 43 44 82.5t26 74.5h91z" />
    <glyph glyph-name="Omicron" unicode="&#x39f;" 
d="M1328 1243q194 -217 194 -503q0 -289 -194 -505q-218 -243 -567 -243t-565 243q-196 216 -196 505q0 286 196 503q216 245 565 245t567 -245zM389 1215q-159 -180 -159 -481q0 -308 159 -485q148 -169 372 -169t372 169q159 177 159 485q0 301 -159 481
q-148 170 -372 170t-372 -170z" />
    <glyph glyph-name="Pi" unicode="&#x3a0;" horiz-adv-x="1548" 
d="M1444 1467v-81q-122 -15 -122 -166v-981q0 -149 122 -163v-84h-442v84q125 14 125 163v1105h-807v-1107q-3 -147 118 -161v-84h-438v84q121 14 121 163v981q0 151 -121 166v81h1444z" />
    <glyph glyph-name="Rho" unicode="&#x3a1;" horiz-adv-x="1363" 
d="M0 79q132 8 132 175v773q0 269 233 388q146 70 339 70q188 0 346 -106q208 -142 208 -416q0 -203 -146 -351q-165 -168 -448 -168q-198 0 -326 116l1 -11v-289q0 -97 27 -137q28 -44 113 -44v-87h-479v87zM339 696q114 -157 323 -157q219 0 301 143q54 93 54 281
q0 180 -50 270q-81 157 -303 157q-143 0 -235 -81q-90 -78 -90 -193v-420z" />
    <glyph glyph-name="Sigma" unicode="&#x3a3;" horiz-adv-x="1348" 
d="M1242 475l-51 -483h-1191v50l591 667l-576 752v46h1134v-413h-94q-28 108 -90.5 200t-126.5 103q-30 4 -86.5 9t-91.5 5h-359l481 -657l-532 -609h711q55 43 70.5 73t42.5 73q21 41 39.5 87.5t36.5 96.5h92z" />
    <glyph glyph-name="Tau" unicode="&#x3a4;" horiz-adv-x="1644" 
d="M0 1467h1505v-293h-98q-2 70 -46 117q-64 62 -191 62h-309v-1114q0 -147 132 -159v-88h-485v86q136 16 136 161v1114h-311q-196 0 -237 -179h-96v293z" />
    <glyph glyph-name="Upsilon" unicode="&#x3a5;" horiz-adv-x="1511" 
d="M489 1509v-85q-72 -13 -72 -58q0 -34 24 -66l341 -487h1l286 469q43 65 43 90q0 50 -76 50v87h369v-87q-137 0 -243 -185l-340 -554v-441q0 -152 120 -168v-86h-437v86q121 16 121 168v453l-388 550q-111 162 -238 179v85h489z" />
    <glyph glyph-name="Phi" unicode="&#x3a6;" horiz-adv-x="1943" 
d="M1154 1467v-86q-130 -12 -130 -163v-94h-13q121 194 353 194q207 0 344 -184q129 -177 129 -428q0 -264 -154 -420q-138 -145 -329 -145q-209 0 -345 209h15v-111q0 -149 130 -161v-86h-471v86q132 12 132 161v111h13q-134 -209 -343 -209q-192 0 -331 145
q-154 156 -154 420q0 251 131 428q134 184 342 184q235 0 342 -174v-17v91q0 151 -132 163v86h471zM1024 700q0 -272 120 -384q69 -62 171 -62q110 0 184 83q105 119 105 378q0 490 -296 490q-108 0 -188 -81q-96 -102 -96 -304v-120zM815 820q0 199 -94 302q-80 83 -191 83
q-294 0 -294 -490q0 -261 104 -378q74 -83 184 -83q117 0 197 90q94 117 94 356v120z" />
    <glyph glyph-name="Chi" unicode="&#x3a7;" horiz-adv-x="1556" 
d="M1401 1383q-118 -12 -216 -137l-368 -451l373 -538q111 -157 254 -181v-84h-473v86h27q35 0 35 39q0 33 -35 84l-311 442l-357 -452q-32 -39 -32 -71q0 -42 48 -42h25v-86h-371v86q116 12 201 121l429 529l-314 450q-140 205 -226 205h-36v86h458v-86q-50 0 -50 -27
q0 -53 18 -75l279 -405l302 386q34 45 34 73q0 48 -58 48v86h364v-86z" />
    <glyph glyph-name="Psi" unicode="&#x3a8;" horiz-adv-x="1634" 
d="M870 719q129 0 197.5 47t94 117.5t32.5 234.5q5 190 80 282t254 92v-58q-63 -4 -83 -43t-20 -182q0 -209 -42 -323.5t-169.5 -186t-343.5 -79.5v-334q0 -126 12.5 -160t56.5 -56t143 -22v-56h-640v56q99 2 142 22.5t57.5 54t14.5 161.5v334q-216 8 -341 78.5t-168 185
t-43 327.5q0 137 -19 177t-85 46v58q119 -2 184 -36t105.5 -118t44.5 -220q5 -164 29.5 -234.5t96.5 -117.5t196 -47v461q0 128 -13.5 163t-56.5 55t-144 22v56h640v-56q-101 -2 -144 -22t-55.5 -55t-12.5 -163v-461z" />
    <glyph glyph-name="uni03A9" unicode="&#x3a9;" horiz-adv-x="1661" 
d="M0 342h61q4 -78 41 -106.5t126 -28.5h290l-2 57q-171 35 -316.5 192t-145.5 398q0 269 202 457t528 188q317 0 518 -178t201 -455q0 -226 -124 -383t-332 -219l-10 -57h294q100 0 130 37.5t33 97.5h61v-350h-633l27 338q282 86 282 508q0 275 -136 419t-318 144
q-190 0 -317.5 -154t-127.5 -393q0 -179 56 -322t224 -202l21 -338h-633v350z" />
    <glyph glyph-name="Iotadieresis" unicode="&#x3aa;" horiz-adv-x="750" 
d="M77 1810q32 41 89 41q51 0 83 -35q36 -38 36 -89q0 -58 -41 -94q-38 -32 -78 -32q-47 0 -84 37q-38 40 -38 89q0 45 33 83zM466 1810q33 41 89 41q50 0 84 -36q36 -37 36 -88q0 -58 -41 -94q-39 -32 -79 -32q-47 0 -85 37q-37 40 -37 89q0 45 33 83zM581 1374
q-134 -12 -134 -163v-981q0 -147 134 -163v-84h-483v84q134 16 134 163v981q0 151 -134 163v86h483v-86z" />
    <glyph glyph-name="Upsilondieresis" unicode="&#x3ab;" horiz-adv-x="1696" 
d="M1053 1517h537v-59h-37q-26 0 -78.5 -24.5t-97.5 -70.5t-108 -155l-362 -570v-378q0 -136 29 -168q39 -43 127 -43h56v-57h-652v57h63q90 0 125 55q24 34 24 156v355l-407 632q-74 111 -98.5 138.5t-103.5 65.5q-19 7 -70 7v59h658v-59h-45q-48 0 -88 -21.5t-40 -66.5
q0 -38 67 -141l303 -475l280 454q68 102 68 152q0 30 -14.5 52t-41.5 34t-94 12v59zM1027 1863q52 0 90.5 -39.5t38.5 -87.5q0 -54 -38.5 -92.5t-90.5 -38.5q-55 0 -93 38.5t-38 92.5q0 48 38 87.5t93 39.5zM637 1863q57 0 94 -39.5t37 -87.5q0 -54 -37 -92.5t-94 -38.5
q-51 0 -88.5 38.5t-37.5 92.5q0 48 36.5 87.5t89.5 39.5z" />
    <glyph glyph-name="alphatonos" unicode="&#x3ac;" horiz-adv-x="1064" 
d="M762 942l51 -19q-29 -118 -29 -251v-461q0 -132 97 -132h67v-84h-302l-20 174q-96 -188 -274 -188q-145 0 -248.5 133t-103.5 351q0 215 112 345.5t259 130.5q180 0 273 -183zM391 851q-202 0 -202 -359q0 -235 57.5 -323t144.5 -88q104 0 169.5 105.5t65.5 290.5
q0 165 -64.5 269.5t-170.5 104.5zM606 1494q-26 -61 -51 -147t-58 -228h-69q-33 131 -60.5 228.5t-48.5 146.5v27h287v-27z" />
    <glyph glyph-name="epsilontonos" unicode="&#x3ad;" horiz-adv-x="844" 
d="M218 470q-201 36 -201 204q0 120 98 187.5t256 67.5q159 0 248 -75t89 -166q0 -53 -30.5 -90.5t-74.5 -37.5q-45 0 -77 30.5t-32 75.5q0 36 27 68q21 29 21 40q0 34 -49 55.5t-107 21.5q-93 0 -144 -48.5t-51 -126.5q0 -64 40.5 -111.5t179.5 -47.5v-82q-230 0 -230 -193
q0 -85 62.5 -127t158.5 -42q169 0 268 165l60 -29q-105 -218 -365 -218q-165 0 -265 63.5t-100 183.5q0 178 218 232zM528 1492q-26 -61 -51 -147t-58 -226h-67l-62.5 226.5t-46.5 146.5v26h285v-26z" />
    <glyph glyph-name="etatonos" unicode="&#x3ae;" horiz-adv-x="1146" 
d="M0 966l287 12q18 -80 23 -180q104 186 304 186q134 0 201 -91t67 -234v-815q0 -54 21.5 -71.5t61.5 -17.5h64v-82h-451v82h45q101 0 101 79v762q0 271 -182 271q-97 0 -164 -86t-67 -228v-338q0 -54 24 -69.5t63 -15.5h65v-82h-455v82h64q82 0 82 63v587q0 104 -106 104
h-48v82zM666 1555q-25 -61 -50 -147t-58 -227h-69l-61 227t-47 147v25h285v-25z" />
    <glyph glyph-name="iotatonos" unicode="&#x3af;" horiz-adv-x="751" 
d="M0 841v84l346 12v-673q0 -177 97 -177q112 0 119 266h72q-2 -118 -29 -201t-73 -127t-134 -44t-135 33.5t-63.5 87t-16.5 166.5v467q0 106 -110 106h-73zM438 1494q-23 -61 -48.5 -147t-57.5 -228h-71q-31 131 -58.5 228.5t-48.5 146.5v27h284v-27z" />
    <glyph glyph-name="upsilondieresistonos" unicode="&#x3b0;" horiz-adv-x="1025" 
d="M0 833v81l313 13v-556q0 -200 66.5 -250t152.5 -50q111 0 163 65t52 247v365q0 44 -33.5 63.5t-123.5 21.5v81l319 13v-567q0 -203 -97.5 -286t-273.5 -83q-204 0 -294 87.5t-90 281.5v388q0 44 -32.5 63.5t-121.5 21.5zM376 1223q0 -39 -31.5 -71.5t-68.5 -32.5
q-41 0 -70 32.5t-29 71.5q0 43 29 72t70 29q36 0 68 -28.5t32 -72.5zM864 1223q0 -39 -30.5 -71.5t-69.5 -32.5q-41 0 -70 32.5t-29 71.5q0 43 30 72t69 29t69.5 -29t30.5 -72zM667 1490q-24 -61 -49 -146t-58 -225h-69q-32 129 -59 225.5t-49 145.5v26h284v-26z" />
    <glyph glyph-name="alpha" unicode="&#x3b1;" horiz-adv-x="1036" 
d="M738 929l48 -21q-23 -117 -23 -249v-454q0 -128 96 -128h61v-82h-291l-18 172q-95 -186 -268 -186q-143 0 -243 132t-100 346q0 209 109.5 338.5t249.5 129.5q176 0 268 -182zM382 837q-199 0 -199 -352q0 -234 57 -320t142 -86q100 0 164.5 104.5t64.5 287.5
q0 159 -62.5 262.5t-166.5 103.5z" />
    <glyph glyph-name="beta" unicode="&#x3b2;" horiz-adv-x="955" 
d="M46 -18l-46 16q28 133 28 264v959q0 203 95.5 330t274.5 127q182 0 278.5 -110t96.5 -253q0 -110 -55 -200.5t-136 -127.5q108 -35 182 -161.5t74 -301.5q0 -256 -120 -404t-279 -148q-200 0 -283 194q-25 -91 -110 -184zM199 883q39 61 87.5 88t153.5 40q95 10 128 77.5
t33 175.5q0 292 -199 292q-203 0 -203 -321v-352zM429 62q223 0 223 470q0 385 -223 385q-117 0 -177.5 -109t-60.5 -290q0 -191 59.5 -323.5t178.5 -132.5z" />
    <glyph glyph-name="gamma" unicode="&#x3b3;" horiz-adv-x="1066" 
d="M582 144v-380q0 -54 20.5 -71.5t59.5 -17.5h66v-90h-450v90h50q99 0 99 81v335l-267 664q-28 67 -54.5 95t-105.5 28v90h275q8 -80 38 -168l225 -568l162 469q22 64 22 96q0 38 -24 58.5t-100 22.5v90h352v-90q-58 0 -89.5 -29t-62.5 -125z" />
    <glyph glyph-name="delta" unicode="&#x3b4;" horiz-adv-x="914" 
d="M305 920q-242 84 -242 274q0 128 105 209t271 81q138 0 230 -53.5t92 -152.5q0 -120 -93 -120q-47 0 -71.5 28.5t-24.5 66.5q0 34 19 65q10 12 10 21q0 34 -46 53.5t-110 19.5q-113 0 -172 -63t-59 -155q0 -85 49.5 -128.5t211.5 -108.5q119 -46 186 -100.5t102 -154
t35 -229.5q0 -225 -121 -351.5t-284 -126.5q-166 0 -279.5 133.5t-113.5 346.5q0 344 305 445zM622 479q0 204 -58.5 297t-161.5 93q-104 0 -159.5 -104t-55.5 -294q0 -206 58 -306.5t157 -100.5q220 0 220 415z" />
    <glyph glyph-name="epsilon" unicode="&#x3b5;" horiz-adv-x="846" 
d="M221 472q-199 32 -199 202q0 117 96 185t253 68q162 0 250.5 -74t88.5 -165q0 -53 -31.5 -91.5t-75.5 -38.5q-43 0 -76 31.5t-33 74.5q0 40 27 72q21 29 21 38q0 32 -49.5 55.5t-106.5 23.5q-91 0 -143 -48.5t-52 -130.5q0 -60 40.5 -108.5t185.5 -48.5v-80
q-236 0 -236 -189q0 -89 62.5 -131t158.5 -42q171 0 271 173l58 -39q-106 -214 -366 -214q-165 0 -265 64.5t-100 182.5q0 176 221 230z" />
    <glyph glyph-name="zeta" unicode="&#x3b6;" horiz-adv-x="877" 
d="M67 1233l17 166q128 -20 197 -20h449v-49q-26 -37 -152 -182q-222 -264 -313.5 -439t-91.5 -308q0 -83 51.5 -126.5t180.5 -93.5q172 -61 230 -88.5t92 -78t34 -123.5q0 -120 -84.5 -207.5t-253.5 -87.5q-183 0 -269 62.5t-86 157.5q0 54 29.5 93t82.5 39q92 0 92 -83
q0 -35 -28 -65q-16 -17 -16 -31q0 -32 48.5 -68t137.5 -36q103 0 150 59t47 135q0 58 -39.5 87.5t-188.5 81.5q-249 85 -316 171.5t-67 177.5q0 120 59 235.5t204.5 286.5t326.5 347h-295q-123 0 -228 -13z" />
    <glyph glyph-name="eta" unicode="&#x3b7;" horiz-adv-x="1213" 
d="M0 916l306 11q21 -82 26 -179q111 185 323 185q144 0 214.5 -91t70.5 -232v-813q0 -50 23 -67.5t67 -17.5h68v-82h-481v82h51q106 0 106 79v758q0 267 -195 267q-105 0 -175.5 -86.5t-70.5 -223.5v-336q0 -54 25.5 -69.5t66.5 -15.5h66v-84h-483v84h69q90 0 90 62v584
q0 104 -114 104h-53v81z" />
    <glyph glyph-name="theta" unicode="&#x3b8;" horiz-adv-x="1027" 
d="M447 1502q140 0 249.5 -95t162 -265t52.5 -407q0 -361 -129 -565t-324 -204q-123 0 -227.5 84t-167.5 259t-63 424q0 255 66 434t163.5 257t217.5 78zM197 820h521q-7 322 -74.5 459t-189.5 137q-114 0 -182.5 -117.5t-74.5 -478.5zM718 712h-521q2 -392 71 -526
t183 -134q136 0 201.5 151.5t65.5 508.5z" />
    <glyph glyph-name="iota" unicode="&#x3b9;" horiz-adv-x="807" 
d="M0 833v81l380 13v-653q0 -173 102 -173q121 0 133 258h76q-2 -114 -32.5 -196t-80.5 -125t-145 -43q-94 0 -145.5 32.5t-68.5 84t-17 164.5v457q0 100 -119 100h-83z" />
    <glyph glyph-name="kappa" unicode="&#x3ba;" horiz-adv-x="1172" 
d="M0 918l341 11v-456l276 250q39 37 39 63q0 47 -140 51v81h474v-81q-142 -6 -213 -71l-196 -182l323 -466q27 -39 98 -39h55v-84h-487v84h50q86 0 86 30q0 9 -9 21l-232 342l-124 -110v-229q0 -54 84 -54h64v-84h-478v84h83q87 0 87 68v576q0 114 -111 114h-70v81z" />
    <glyph glyph-name="lambda" unicode="&#x3bb;" horiz-adv-x="1188" 
d="M453 834l-126 330q-51 125 -77 154t-91 29h-70v79l314 19l533 -1300q28 -66 136 -68v-82h-471v82q84 2 112 12.5t28 37.5q0 11 -9 38l-225 557l-213 -483q-33 -66 -33 -94q0 -53 144 -69v-81h-405v82q69 4 107 30.5t74 115.5z" />
    <glyph glyph-name="uni03BC" unicode="&#x3bc;" horiz-adv-x="1257" 
d="M0 810v86l339 16v-617q0 -117 58.5 -173t138.5 -56q113 0 188.5 91t75.5 218v344q0 91 -167 91v86l335 16v-732q0 -73 22.5 -103.5t88.5 -30.5h62v-84h-324l-16 175q-75 -94 -168 -140.5t-163 -46.5q-75 0 -133 44v-236q0 -54 24 -71.5t68 -17.5h71v-84h-498v84h51
q110 0 110 77v948q0 69 -31 91.5t-132 24.5z" />
    <glyph glyph-name="nu" unicode="&#x3bd;" horiz-adv-x="1091" 
d="M0 925h267q8 -78 42 -166l223 -515l203 496q6 15 6 24q0 65 -132 79v82h366v-82q-105 -8 -137 -86l-316 -762h-55l-341 780q-15 39 -42 53.5t-84 14.5v82z" />
    <glyph glyph-name="xi" unicode="&#x3be;" horiz-adv-x="940" 
d="M625 908v-93q-72 11 -112 11q-142 0 -237 -97.5t-95 -226.5q0 -73 35 -127t107 -90.5t257 -107.5q139 -54 191 -110.5t52 -148.5q0 -140 -99.5 -231t-286.5 -91q-191 0 -288 64.5t-97 173.5q0 58 31 99t93 41q96 0 96 -89q0 -41 -36 -81q-16 -16 -16 -23q0 -38 60 -73
t153 -35q129 0 176.5 63.5t47.5 136.5q0 53 -32 85t-131 68q-294 99 -394 187.5t-100 232.5q0 150 101.5 271t304.5 170q-244 76 -244 239q0 74 61.5 141.5t228.5 111.5h-223q-94 0 -189 -11l28 176q128 -17 213 -17h451v-143q-395 -39 -395 -251q0 -92 72.5 -152.5
t215.5 -72.5z" />
    <glyph glyph-name="omicron" unicode="&#x3bf;" horiz-adv-x="1031" 
d="M899 585q15 -60 15 -136q0 -48 -15 -112q-52 -202 -227 -286q-101 -50 -214 -50q-115 0 -212 50q-178 84 -231 286q-15 64 -15 112q0 76 15 136q91 340 443 340q353 0 441 -340zM285 773q-75 -87 -75 -312q0 -153 32 -231q53 -149 216 -149q248 0 248 380q0 225 -75 312
q-56 72 -173 72q-115 0 -173 -72z" />
    <glyph glyph-name="pi" unicode="&#x3c0;" horiz-adv-x="1112" 
d="M996 846q-71 -14 -89 -56q-19 -31 -19 -114v-434q0 -154 108 -168v-79h-397v80q107 6 107 167v599h-418v-599q0 -161 108 -167v-80h-396v79q105 12 105 168v434q0 83 -14 114q-21 42 -91 56v79h996v-79z" />
    <glyph glyph-name="rho" unicode="&#x3c1;" horiz-adv-x="1165" 
d="M0 -302v80h73q90 0 90 62v594q0 192 42.5 298.5t152.5 181t246 74.5q179 0 312 -127.5t133 -350.5q0 -215 -125 -343.5t-304 -128.5q-190 0 -279 126v-307q0 -79 91 -79h70v-80h-502zM597 913q-117 0 -182 -106t-65 -287q0 -197 63 -304t184 -107q257 0 257 413
q0 391 -257 391z" />
    <glyph glyph-name="sigma1" unicode="&#x3c2;" horiz-adv-x="940" 
d="M823 -174q0 -131 -92.5 -217.5t-279.5 -86.5q-175 0 -275 65.5t-100 172.5q0 66 32.5 105.5t87.5 39.5q96 0 96 -89q0 -43 -39 -89q-11 -14 -11 -26q0 -38 58 -70t143 -32q109 0 166.5 60t57.5 140q0 43 -30 72t-132 73q-199 79 -296.5 137t-153 147.5t-55.5 205.5
q0 211 129 355t329 144q149 0 233 -84.5t84 -172.5q0 -56 -32 -97t-82 -41q-47 0 -79.5 32t-32.5 79q0 46 33 89q17 21 17 32q0 26 -38 51.5t-101 25.5q-126 0 -202.5 -120t-76.5 -266q0 -119 78 -195t315 -169q167 -68 208 -130t41 -141z" />
    <glyph glyph-name="sigma" unicode="&#x3c3;" horiz-adv-x="1093" 
d="M587 904h390v-100h-244q153 -129 153 -358q0 -232 -137.5 -356t-309.5 -124q-185 0 -312 131.5t-127 348.5q0 211 126 347t306 136q78 0 155 -25zM439 853q-107 0 -176.5 -96t-69.5 -300q0 -216 69.5 -313.5t178.5 -97.5q255 0 255 417q0 390 -257 390z" />
    <glyph glyph-name="tau" unicode="&#x3c4;" horiz-adv-x="988" 
d="M0 618l22 309h818v-101h-336v-586q0 -80 39 -116.5t88 -36.5q68 0 114.5 63.5t50.5 202.5h76q-4 -189 -86 -280.5t-207 -91.5q-106 0 -177 58t-71 174v613q-140 -2 -185 -37.5t-60 -170.5h-86z" />
    <glyph glyph-name="upsilon" unicode="&#x3c5;" horiz-adv-x="1058" 
d="M0 833v77l329 13v-550q0 -202 68 -253.5t152 -51.5q119 0 172 65.5t53 249.5v360q0 49 -35.5 67.5t-125.5 22.5v77l329 13v-565q0 -203 -99.5 -285t-280.5 -82q-212 0 -307 87t-95 280v385q0 49 -34 67.5t-126 22.5z" />
    <glyph glyph-name="phi" unicode="&#x3c6;" horiz-adv-x="1254" 
d="M467 91v423q0 283 93 374.5t221 91.5q166 0 262 -117.5t96 -334.5q0 -183 -66 -300t-166 -167t-260 -52v-344h-180v344q-240 11 -353.5 145.5t-113.5 339.5q0 200 117.5 343t319.5 143v-80q-244 -2 -244 -396q0 -239 65.5 -325t208.5 -88zM647 91q170 0 232 111.5
t62 301.5q0 212 -47 304t-120 92q-56 0 -91.5 -56.5t-35.5 -296.5v-456z" />
    <glyph glyph-name="chi" unicode="&#x3c7;" horiz-adv-x="1222" 
d="M592 489l130 221q58 98 58 126q0 52 -140 56v90h391v-90q-55 0 -87 -20.5t-104 -145.5l-193 -337l295 -574q32 -68 57.5 -91.5t105.5 -23.5v-90h-453v90q84 0 107 11t23 45q0 20 -19 59l-217 433l-233 -396q-45 -72 -45 -94q0 -54 130 -58v-90h-398v90q79 2 117 47
t84 115l290 476l-205 380q-60 115 -104.5 144.5t-120.5 29.5h-46v90l312 12z" />
    <glyph glyph-name="psi" unicode="&#x3c8;" horiz-adv-x="1647" 
d="M853 998v-936h41q173 0 234.5 59t61.5 235v630h342v-86h-29q-139 0 -139 -97v-424q0 -209 -92 -304.5t-378 -95.5h-41v-194q0 -89 92 -89h71v-86h-500v86h51q112 0 112 89v194h-45q-151 0 -254 34t-145 89t-57 100t-15 177v424q0 97 -136 97h-27v86l339 12v-642
q0 -206 92 -250t203 -44h45v741q0 95 -163 97v86z" />
    <glyph glyph-name="omega" unicode="&#x3c9;" horiz-adv-x="1270" 
d="M463 927v-78q-159 0 -214.5 -112.5t-55.5 -285.5q0 -178 43 -282.5t127 -104.5q67 0 96 69t29 275v93h178v-93q0 -231 33.5 -287.5t97.5 -56.5q81 0 123.5 104.5t42.5 282.5q0 154 -37 246.5t-90 121t-142 30.5v78q217 0 338.5 -133t121.5 -368q0 -219 -98 -328
t-243 -109q-156 0 -234 123q-89 -123 -238 -123q-147 0 -244 111t-97 320q0 187 66 297t160 158t237 52z" />
    <glyph glyph-name="iotadieresis" unicode="&#x3ca;" horiz-adv-x="807" 
d="M0 853v84l380 10v-677q0 -181 102 -181q121 0 133 270h76q-2 -118 -32.5 -204t-80.5 -130t-145 -44q-94 0 -145.5 33.5t-68.5 88t-17 169.5v473q0 108 -119 108h-83zM118 1365q47 0 78.5 -30t31.5 -75q0 -43 -33.5 -75.5t-76.5 -32.5q-39 0 -72 32.5t-33 77.5
q0 44 33.5 73.5t71.5 29.5zM499 1363q45 0 77.5 -30t32.5 -76q0 -45 -33.5 -78t-76.5 -33t-74.5 33t-31.5 74q0 45 31.5 77.5t74.5 32.5z" />
    <glyph glyph-name="upsilondieresis" unicode="&#x3cb;" horiz-adv-x="1089" 
d="M0 833v81l339 13v-569q0 -208 70 -260t158 -52q121 0 177 67t56 258v370q0 49 -36.5 69.5t-130.5 22.5v81l340 13v-581q0 -210 -103 -295t-291 -85q-218 0 -317 92t-99 288v395q0 49 -34.5 69.5t-128.5 22.5zM376 1336q45 0 77 -30t32 -73t-32 -74t-77 -31
q-42 0 -72.5 31t-30.5 76q0 43 30.5 72t72.5 29zM758 1334q45 0 76.5 -30t31.5 -73q0 -45 -31.5 -76.5t-76.5 -31.5q-44 0 -75 31.5t-31 74.5q0 45 31 75t75 30z" />
    <glyph glyph-name="omicrontonos" unicode="&#x3cc;" horiz-adv-x="1031" 
d="M613 1496q-25 -61 -49.5 -147t-58.5 -226h-68q-32 129 -59 226.5t-49 146.5v27h284v-27zM899 585q15 -60 15 -136q0 -48 -15 -112q-52 -202 -227 -286q-101 -50 -214 -50q-115 0 -212 50q-178 84 -231 286q-15 64 -15 112q0 76 15 136q91 340 443 340q353 0 441 -340z
M285 773q-75 -87 -75 -312q0 -153 32 -231q53 -149 216 -149q248 0 248 380q0 225 -75 312q-56 72 -173 72q-115 0 -173 -72z" />
    <glyph glyph-name="upsilontonos" unicode="&#x3cd;" horiz-adv-x="1089" 
d="M0 837v81l339 11v-550q0 -200 70 -251t158 -51q121 0 177 65t56 249v359q0 46 -36.5 66.5t-130.5 20.5v81l340 11v-564q0 -204 -103 -285t-291 -81q-217 0 -316.5 88t-99.5 278v385q0 46 -34.5 66.5t-128.5 20.5zM697 1482q-24 -62 -49 -148t-58 -227h-69
q-33 131 -60 228.5t-49 146.5v24h285v-24z" />
    <glyph glyph-name="omegatonos" unicode="&#x3ce;" horiz-adv-x="1270" 
d="M463 947v-82q-159 0 -214.5 -117.5t-55.5 -298.5q0 -186 43 -294.5t127 -108.5q67 0 96 71.5t29 285.5v100h178v-100q0 -242 33.5 -299.5t97.5 -57.5q81 0 123.5 108.5t42.5 291.5q0 165 -37.5 260.5t-90 125t-141.5 33.5v82q217 0 338.5 -137.5t121.5 -387.5
q0 -225 -98 -340.5t-243 -115.5q-156 0 -234 129q-89 -129 -238 -129q-147 0 -244 117.5t-97 334.5q0 195 66 309.5t160 165t237 54.5zM742 1508q-26 -61 -51 -147t-58 -227h-70q-32 131 -59 228t-49 146v27h287v-27z" />
    <glyph glyph-name="afii10023" unicode="&#x401;" horiz-adv-x="1435" 
d="M1188 1467l9 -281h-94q-33 107 -127 147q-73 28 -219 28h-406v-578h274q155 0 179 115h92v-325h-92q-28 83 -68 104q-22 8 -111 8h-274v-595h455q406 0 425 227h98l-25 -325h-1304v84q136 16 136 162v973q0 156 -136 158l2 98h1186zM401 1793q33 43 89 43q52 0 83 -35
q37 -38 37 -89q0 -58 -41 -94q-39 -32 -79 -32q-46 0 -84 37q-36 40 -36 89q0 45 31 81zM791 1793q33 43 89 43q50 0 84 -36q36 -37 36 -88q0 -58 -41 -94q-39 -32 -79 -32q-47 0 -85 37q-37 40 -37 89q0 45 33 81z" />
    <glyph glyph-name="afii10051" unicode="&#x402;" horiz-adv-x="1667" 
d="M1353 1174h-92q-37 181 -228 181h-295v-561q159 72 303 72q231 0 371 -111q149 -112 149 -316q0 -200 -122 -329q-124 -134 -314 -134q-155 0 -233 56q-59 40 -59 100q0 124 117 124q111 0 111 -82q0 -16 -2 -33q-3 -15 -3 -25q0 -42 71 -42q198 0 198 352
q0 327 -292 327q-120 0 -295 -63v-698h-337v88q130 14 130 157v1118h-211q-195 0 -230 -181h-90v295h1353v-295z" />
    <glyph glyph-name="afii10052" unicode="&#x403;" horiz-adv-x="1275" 
d="M452 -8h-452v83q124 14 124 166v976q0 151 -124 164v86h1156v-361h-90q-21 111 -92 183q-84 79 -205 79h-443v-1127q0 -152 126 -166v-83zM858 1850l2 -10q0 -14 -1 -28l-2 -8l-7 -22q-7 -21 -21 -40.5t-30.5 -35.5t-62.5 -46q-110 -65 -262 -77v69q112 56 145.5 87
t42.5 56t13 56q5 38 31.5 60t62.5 22q30 -5 48 -18q6 -4 12 -11q5 -4 9 -10q17 -18 20 -44z" />
    <glyph glyph-name="afii10053" unicode="&#x404;" horiz-adv-x="1410" 
d="M1308 256q-238 -280 -590 -280q-299 0 -478 160q-240 219 -240 590q0 334 198 551q198 218 506 218q127 0 283 -35q152 -41 159 -41q17 0 46 27h46v-340h-79q-111 293 -436 293q-319 0 -446 -362q-43 -122 -49 -254h-5q118 147 252 147q16 0 53 -4q83 -11 219 -87
q102 -60 145 -60q58 0 128 86l71 -46q-125 -205 -307 -205q-44 0 -105 22q-48 21 -106 51q-60 29 -101 45q-55 21 -106 21q-55 0 -94 -43q-36 -44 -36 -102q0 -214 154 -384q135 -148 333 -148q331 0 516 230z" />
    <glyph glyph-name="afii10054" unicode="&#x405;" horiz-adv-x="1177" 
d="M879 1074q-127 317 -383 317q-125 0 -201 -64q-75 -61 -75 -165q0 -177 316 -262q147 -40 231 -72q304 -129 304 -400q0 -185 -144 -317q-143 -135 -343 -135q-130 0 -240 31q-136 38 -161 38q-72 0 -89 -53h-94v467h96q50 -162 190 -269q145 -115 316 -115q118 0 203 77
q84 83 84 197q0 185 -242 282q-50 22 -139 40q-94 24 -133 39q-330 112 -330 393q0 172 135 279q133 106 335 106q145 0 286 -78q40 -22 63 -22q17 0 49 30h72v-344h-106z" />
    <glyph glyph-name="afii10055" unicode="&#x406;" horiz-adv-x="589" 
d="M483 1381q-134 -8 -134 -160v-978q0 -147 134 -162v-85h-483v85q134 15 134 162v978q0 150 -134 160v89h483v-89z" />
    <glyph glyph-name="afii10056" unicode="&#x407;" horiz-adv-x="750" 
d="M77 1810q32 41 89 41q51 0 83 -35q36 -38 36 -89q0 -58 -41 -94q-38 -32 -78 -32q-47 0 -84 37q-38 40 -38 89q0 45 33 83zM466 1810q33 41 89 41q50 0 84 -36q36 -37 36 -88q0 -58 -41 -94q-39 -32 -79 -32q-47 0 -85 37q-37 40 -37 89q0 45 33 83zM581 1374
q-134 -12 -134 -163v-981q0 -147 134 -163v-84h-483v84q134 16 134 163v981q0 151 -134 163v86h483v-86z" />
    <glyph glyph-name="afii10057" unicode="&#x408;" horiz-adv-x="695" 
d="M561 1467v-81q-144 -17 -144 -156v-979q0 -255 -149 -397q-125 -116 -293 -116q-98 0 -161 44q-59 42 -59 96q0 41 32 74q33 25 79 25q111 0 111 -77q0 -15 -2 -26q-5 -6 -5 -10q0 -28 57 -28q162 0 162 335v1059q0 143 -144 154v83h516z" />
    <glyph glyph-name="afii10058" unicode="&#x409;" horiz-adv-x="2035" 
d="M917 1467l202 -622q133 17 263 17h21q270 0 402 -131q124 -115 124 -303q0 -164 -79 -275q-121 -161 -392 -161h-279l-407 1283h13q-12 -41 -18 -75l-27 -113q-119 -486 -210 -731q-139 -380 -372 -380q-158 0 -158 120q0 124 119 124q37 0 89 -22q36 -14 45 -14
q77 0 161 201q39 95 119 353q134 454 134 558q0 72 -126 84v87h376zM1423 101q136 0 214 79q75 86 75 238q0 209 -142 290q-83 48 -200 48q-132 0 -215 -16l209 -639h59z" />
    <glyph glyph-name="afii10059" unicode="&#x40a;" horiz-adv-x="2311" 
d="M1507 1467v-88q-128 -10 -128 -160v-365h263q563 0 563 -428q0 -274 -202 -374q-117 -60 -349 -60h-605v84q124 18 124 164v455h-839v-455q0 -150 124 -162v-86h-458v86q130 14 130 162v979q0 148 -130 160v88h458v-88q-124 -10 -124 -160v-428h839v428q0 146 -124 162
v86h458zM1607 90q157 0 227 32q139 71 139 290q0 160 -65 239q-89 97 -320 97h-209v-658h228z" />
    <glyph glyph-name="afii10060" unicode="&#x40b;" horiz-adv-x="1696" 
d="M1370 1172h-92q-38 181 -231 181h-301v-524h-6q154 142 365 142q388 0 388 -327v-407q0 -79 16 -105q18 -40 81 -56v-84h-402v86q64 2 82 43q14 35 14 116v431q0 106 -41 151q-48 48 -165 48q-196 0 -332 -165v-465q0 -145 130 -159v-86h-467v84q128 18 128 161v1116
h-213q-197 0 -228 -181h-96v297h1370v-297z" />
    <glyph glyph-name="afii10061" unicode="&#x40c;" horiz-adv-x="1511" 
d="M454 1466v-82q-124 -14 -124 -161v-312q5 -1 34 -1q159 0 254 88q55 54 106 165q65 148 122 211q95 110 226 110q74 0 138 -28v-335h-91q-14 122 -99 122q-60 0 -174 -156q-133 -173 -267 -209v-2q305 -37 447 -383q86 -216 114 -263q101 -154 265 -134v-108
q-62 -14 -138 -12q-215 10 -323 144q-60 77 -193 399q-76 194 -195 258q-71 39 -202 39h-24v-577q0 -151 124 -161v-86h-454v86q124 12 124 161v984q0 147 -124 161v82h454zM904 1859l2 -10q0 -14 -1 -28l-2 -8l-7 -22q-7 -21 -21 -40.5t-30.5 -35.5t-62.5 -46
q-110 -65 -262 -77v69q112 56 145.5 87t42.5 56t13 56q5 38 31.5 60t62.5 22q30 -5 48 -18q6 -4 12 -11q5 -4 9 -10q17 -18 20 -44z" />
    <glyph glyph-name="afii10062" unicode="&#x40e;" horiz-adv-x="1461" 
d="M1355 1384q-139 -22 -204 -178l-303 -689q-135 -309 -185 -379q-117 -162 -306 -162q-122 0 -202 53q-75 52 -75 133q0 56 36 89q35 30 75 30q48 0 84 -33q35 -33 37 -80v-49q9 -56 81 -56q154 0 272 292l-502 871q-84 151 -163 156v87h452v-87q-88 -3 -88 -58
q0 -36 51 -119l353 -622h-2l275 629q25 58 25 86q0 41 -28 66q-32 24 -80 16v89h397v-85zM951 1738q0 12 -16 19h-46q-67 6 -67 67q0 80 98 80q67 0 109 -46q37 -37 37 -91q0 -82 -71 -144q-97 -90 -299 -90q-204 0 -301 90q-71 64 -71 144q0 54 40 94q43 43 107 43
q99 0 99 -80q0 -61 -67 -67h-44q-19 -7 -19 -19q0 -68 256 -68q255 0 255 68z" />
    <glyph glyph-name="afii10145" unicode="&#x40f;" horiz-adv-x="1608" 
d="M1503 1530v-90q-129 -12 -129 -166v-1004q0 -156 129 -168v-85h-392q-274 0 -315 -555h-90q-47 555 -313 555h-393v85q126 10 126 168v1004q0 156 -126 166v90h456v-90q-124 -10 -124 -166v-1162h839v1162q0 154 -124 168v88h456z" />
    <glyph glyph-name="afii10017" unicode="&#x410;" horiz-adv-x="1523" 
d="M1301 228q58 -144 147 -148v-88h-407v86q48 8 59 26q12 14 12 50q0 17 -17 60l-75 186h-672l-75 -179q-25 -50 -25 -69q0 -56 78 -74v-86h-326v88q98 8 156 145l443 1030q19 40 19 50q0 22 -48 22v86q85 25 146 94h50zM692 1178h-10l-293 -678h588z" />
    <glyph glyph-name="afii10018" unicode="&#x411;" horiz-adv-x="1285" 
d="M1094 1467v-320h-99q-41 142 -154 192q-74 30 -217 30h-272v-500h303q350 0 501 -172q90 -106 90 -253q0 -179 -126 -301q-139 -151 -383 -151h-737v84q138 18 138 165v980q0 146 -138 162v84h1094zM581 90q415 0 415 352q0 329 -358 329h-286v-681h229z" />
    <glyph glyph-name="afii10019" unicode="&#x412;" horiz-adv-x="1377" 
d="M628 1467q445 0 545 -263q22 -56 22 -112q0 -47 -17 -103q-69 -183 -247 -222l-22 -6l30 -12q191 -28 282 -184q50 -85 50 -179q0 -216 -205 -319q-142 -75 -323 -75h-743v87q136 5 136 162v977q0 158 -136 160v89h628zM600 790q274 0 336 187q13 44 13 112q0 44 -19 94
q-68 186 -359 186h-218v-579h247zM648 90q132 0 231 47q144 73 144 249q0 149 -107 229q-103 77 -288 77h-275v-602h295z" />
    <glyph glyph-name="afii10020" unicode="&#x413;" horiz-adv-x="1230" 
d="M452 -8h-452v83q124 14 124 166v976q0 151 -124 164v86h1156v-361h-90q-21 111 -92 183q-84 79 -205 79h-443v-1127q0 -152 126 -166v-83z" />
    <glyph glyph-name="afii10021" unicode="&#x414;" horiz-adv-x="1573" 
d="M1387 1467v-86q-73 -10 -93 -56q-17 -30 -17 -107v-1027q0 -99 91 -99l76 2q83 0 83 -76q0 -94 -157 -262q-105 -118 -144 -118q-58 0 -58 35q0 26 53 98q50 66 50 134q0 81 -131 81h-776q-56 0 -81 -12q-46 -23 -46 -99q0 -28 31 -79l54 -107q0 -49 -41 -49
q-59 0 -169 142q-112 146 -112 219q0 77 55 91l130 20q86 38 232 309q352 653 352 845q0 113 -137 113h-37v88h792zM1068 1376h-32q-83 0 -127 -98q-18 -32 -40 -101q-35 -100 -43 -126q-111 -307 -241 -557l-195 -397l678 -2v1281z" />
    <glyph glyph-name="afii10022" unicode="&#x415;" horiz-adv-x="1352" 
d="M1188 1467l9 -281h-94q-33 107 -127 147q-73 28 -219 28h-406v-578h274q155 0 179 115h92v-325h-92q-28 83 -68 104q-22 8 -111 8h-274v-595h455q406 0 425 227h98l-25 -325h-1304v84q136 16 136 162v973q0 156 -136 158l2 98h1186z" />
    <glyph glyph-name="afii10024" unicode="&#x416;" horiz-adv-x="1946" 
d="M1154 1483v-90q-122 -2 -122 -162v-211q29 -4 42 -4q149 0 241 172q18 33 59 119q33 67 53 98q63 94 169 94q61 0 115 -33v-305h-88q-26 115 -64 115q-10 0 -31 -8q-11 -8 -135 -172q-67 -90 -135 -125v-2q196 -64 333 -265q118 -179 150 -394q20 -147 26 -154
q18 -66 98 -78v-86h-460v88q106 2 106 172q0 273 -129 467q-122 199 -308 199q-15 0 -42 -2v-674q0 -83 23 -119q23 -35 99 -45v-86h-443v86q75 10 99 45q23 36 23 119v674q-27 2 -43 2q-185 0 -308 -199q-129 -194 -129 -467q0 -170 107 -172v-88h-460v86q80 12 99 78
q5 7 24 154q33 217 151 394q136 201 333 265v2q-69 35 -135 125q-125 164 -136 172q-9 4 -31 4h-15q-21 0 -31 -30q-1 -4 -17 -81h-88v305q54 33 114 33q107 0 169 -94q21 -31 54 -98q41 -86 58 -119q92 -172 241 -172q14 0 43 4v211q0 160 -122 162v90h443z" />
    <glyph glyph-name="afii10025" unicode="&#x417;" horiz-adv-x="1492" 
d="M238 1472h90q23 -47 69 -47q40 0 125 29q159 59 291 59q244 0 382 -123q126 -106 126 -274q0 -159 -156 -295v-2q222 -127 222 -383q0 -202 -181 -338q-166 -122 -399 -122q-276 0 -486 137q-107 69 -156 69q-35 0 -107 -97l-58 67q150 212 267 212q92 0 255 -129
q206 -159 334 -159q115 0 206 94q95 103 95 258q0 180 -125 283q-182 -107 -375 -107q-112 0 -174 49q-48 43 -48 97q0 104 135 151q72 22 206 22q115 0 231 -43q101 94 101 234q0 148 -104 228q-83 71 -193 71q-364 0 -495 -303h-78v362zM704 832q-163 0 -163 -82
q0 -60 120 -60q164 0 259 93q-90 49 -216 49z" />
    <glyph glyph-name="afii10026" unicode="&#x418;" horiz-adv-x="1556" 
d="M440 1467v-84q-123 -14 -123 -165v-791l808 771v62q0 47 -35 85q-31 30 -88 38v84h440v-84q-119 -14 -119 -165v-979q0 -147 119 -163v-84h-440v86q123 12 123 161v823l-808 -770v-53q0 -149 123 -163v-84h-440v84q121 14 121 163v979q0 151 -121 165v84h440z" />
    <glyph glyph-name="afii10027" unicode="&#x419;" horiz-adv-x="1556" 
d="M951 1738q0 12 -16 19h-46q-67 6 -67 67q0 80 98 80q67 0 109 -46q37 -37 37 -91q0 -82 -71 -144q-97 -90 -299 -90q-204 0 -301 90q-71 64 -71 144q0 54 40 94q43 43 107 43q99 0 99 -80q0 -61 -67 -67h-44q-19 -7 -19 -19q0 -68 256 -68q255 0 255 68zM440 1467v-84
q-123 -14 -123 -165v-791l808 771v62q0 47 -35 85q-31 30 -88 38v84h440v-84q-119 -14 -119 -165v-979q0 -147 119 -163v-84h-440v86q123 12 123 161v823l-808 -770v-53q0 -149 123 -163v-84h-440v84q121 14 121 163v979q0 151 -121 165v84h440z" />
    <glyph glyph-name="afii10028" unicode="&#x41a;" horiz-adv-x="1511" 
d="M454 1466v-82q-124 -14 -124 -161v-312q5 -1 34 -1q159 0 254 88q55 54 106 165q65 148 122 211q95 110 226 110q74 0 138 -28v-335h-91q-14 122 -99 122q-60 0 -174 -156q-133 -173 -267 -209v-2q305 -37 447 -383q86 -216 114 -263q77 -133 265 -134v-100
q-62 -8 -155 -16q-198 6 -306 140q-60 77 -193 399q-76 194 -195 258q-71 39 -202 39h-24v-577q0 -151 124 -161v-86h-454v86q124 12 124 161v984q0 147 -124 161v82h454z" />
    <glyph glyph-name="afii10029" unicode="&#x41b;" horiz-adv-x="1640" 
d="M935 1467l408 -1225q29 -84 50 -112q57 -39 140 -40v-88h-330l-417 1260q-11 -81 -58 -277q-38 -175 -116 -405q-96 -297 -160 -402q-120 -192 -290 -192q-162 0 -162 121q0 117 121 117q43 0 89 -18q38 -14 47 -14q78 0 167 198q39 89 118 347q137 446 137 548
q0 90 -128 96v86h384z" />
    <glyph glyph-name="afii10030" unicode="&#x41c;" horiz-adv-x="1914" 
d="M899 283l503 1186h406v-86q-128 -12 -128 -161v-984q0 -150 128 -158v-88h-464v88q129 8 129 158v1143l-592 -1405h-86l-561 1405v-1144q0 -149 128 -157v-88h-362v88q130 12 130 157v1027q0 115 -130 119v86h412z" />
    <glyph glyph-name="afii10031" unicode="&#x41d;" horiz-adv-x="1526" 
d="M444 1381q-123 -12 -123 -163v-424h819v424q0 149 -121 165v84h447v-86q-126 -12 -126 -163v-979q0 -149 126 -163v-84h-447v84q121 16 121 163v455h-819v-455q0 -149 123 -161v-86h-444v86q124 12 124 161v979q0 151 -124 163v86h444v-86z" />
    <glyph glyph-name="afii10032" unicode="&#x41e;" 
d="M1328 1243q194 -217 194 -503q0 -289 -194 -505q-218 -243 -567 -243t-565 243q-196 216 -196 505q0 286 196 503q216 245 565 245t567 -245zM389 1215q-159 -180 -159 -481q0 -308 159 -485q148 -169 372 -169t372 169q159 177 159 485q0 301 -159 481
q-148 170 -372 170t-372 -170z" />
    <glyph glyph-name="afii10033" unicode="&#x41f;" horiz-adv-x="1548" 
d="M1444 1467v-81q-122 -15 -122 -166v-981q0 -149 122 -163v-84h-442v84q125 14 125 163v1105h-807v-1107q-3 -147 118 -161v-84h-438v84q121 14 121 163v981q0 151 -121 166v81h1444z" />
    <glyph glyph-name="afii10034" unicode="&#x420;" horiz-adv-x="1363" 
d="M0 79q132 8 132 175v773q0 269 233 388q146 70 339 70q188 0 346 -106q208 -142 208 -416q0 -203 -146 -351q-165 -168 -448 -168q-198 0 -326 116l1 -11v-289q0 -97 27 -137q28 -44 113 -44v-87h-479v87zM339 696q114 -157 323 -157q219 0 301 143q54 93 54 281
q0 180 -50 270q-81 157 -303 157q-143 0 -235 -81q-90 -78 -90 -193v-420z" />
    <glyph glyph-name="afii10035" unicode="&#x421;" horiz-adv-x="1422" 
d="M1171 1112q-63 152 -193 230q-112 65 -246 65q-195 0 -338 -162q-160 -191 -160 -516q0 -312 151 -487q146 -166 388 -166q281 0 488 232l58 -60q-244 -272 -587 -272q-320 0 -523 202q-209 208 -209 555q0 333 200 551q202 221 516 221q141 0 301 -47q104 -31 149 -31
q20 0 47 27h47v-342h-89z" />
    <glyph glyph-name="afii10036" unicode="&#x422;" horiz-adv-x="1556" 
d="M0 1467h1505v-293h-98q-2 70 -46 117q-64 62 -191 62h-309v-1114q0 -147 132 -159v-88h-485v86q136 16 136 161v1114h-311q-196 0 -237 -179h-96v293z" />
    <glyph glyph-name="afii10037" unicode="&#x423;" horiz-adv-x="1439" 
d="M1333 1383q-135 -28 -196 -179l-300 -692q-132 -300 -185 -375q-115 -161 -300 -161q-99 0 -172 40q-100 50 -100 148q0 116 109 116q45 0 85 -32q36 -37 36 -80l-2 -48q0 -59 79 -59q161 0 269 292l-493 871q-84 153 -163 157v86h447v-86q-85 -2 -85 -58q0 -35 49 -118
l347 -623h-4l273 629q24 47 24 86q0 40 -29 64q-26 26 -79 18v88h390v-84z" />
    <glyph glyph-name="afii10038" unicode="&#x424;" horiz-adv-x="1935" 
d="M1149 1467v-86q-132 -12 -132 -163v-88h-6q113 188 347 188q206 0 340 -184q132 -177 132 -428q0 -264 -153 -421q-138 -144 -330 -144q-210 0 -340 206v0l10 -108q0 -149 132 -161v-86h-468v86q132 12 132 161v108v-16q-121 -190 -330 -190q-192 0 -330 144
q-153 157 -153 421q0 251 131 428q134 184 340 184q235 0 348 -188h-6v88q0 151 -132 163v86h468zM1017 700q0 -272 119 -384q71 -61 172 -61q110 0 184 82q101 119 101 378q0 489 -291 489q-110 0 -186 -80q-99 -102 -99 -304v-120zM813 820q0 199 -98 302q-77 82 -187 82
q-292 0 -292 -489q0 -261 100 -378q78 -82 184 -82q118 0 195 89q98 118 98 356v120z" />
    <glyph glyph-name="afii10039" unicode="&#x425;" horiz-adv-x="1556" 
d="M1401 1383q-118 -12 -216 -137l-368 -451l373 -538q111 -157 254 -181v-84h-473v86h27q35 0 35 39q0 33 -35 84l-311 442l-357 -452q-32 -39 -32 -71q0 -42 48 -42h25v-86h-371v86q116 12 201 121l429 529l-314 450q-140 205 -226 205h-36v86h458v-86q-50 0 -50 -27
q0 -53 18 -75l279 -405l302 386q34 45 34 73q0 48 -58 48v86h364v-86z" />
    <glyph glyph-name="afii10040" unicode="&#x426;" horiz-adv-x="1582" 
d="M432 1467v-87q-118 -15 -118 -163v-1136h795v1136q0 146 -121 163v87h433v-89q-118 -12 -118 -161v-1027q0 -94 58 -155q105 -95 105 -214q0 -101 -73 -175q-90 -92 -260 -92q-108 0 -312 50q-488 151 -514 151q-104 0 -113 -45h3q81 0 81 -84q0 -80 -81 -80
q-92 0 -92 118q0 93 83 154q92 62 240 62q100 0 238 -35q84 -23 322 -108q166 -59 244 -59q74 0 110 49q36 41 36 93q0 165 -180 165h-1198v86q121 10 121 160v986q0 151 -121 161v89h432z" />
    <glyph glyph-name="afii10041" unicode="&#x427;" horiz-adv-x="1461" 
d="M452 1467v-84q-126 -14 -126 -165v-281q0 -268 313 -268q184 0 386 96v453q0 151 -124 165v84h454v-84q-127 -14 -127 -165v-979q0 -149 127 -161v-86h-454v84q124 16 124 163v411q-221 -87 -428 -87q-286 0 -394 135q-79 87 -79 256v264q0 151 -124 165v84h452z" />
    <glyph glyph-name="afii10042" unicode="&#x428;" horiz-adv-x="2099" 
d="M0 76q113 14 113 163v979q0 151 -113 165v84h413v-84q-113 -14 -113 -165v-1128h591v1128q0 151 -117 163v86h417v-84q-115 -16 -115 -165v-1128h591v1128q0 151 -117 163v86h418v-84q-115 -14 -115 -165v-979q0 -149 115 -163v-84h-1968v84z" />
    <glyph glyph-name="afii10043" unicode="&#x429;" horiz-adv-x="2139" 
d="M1964 1382q-115 -15 -115 -165v-997q0 -105 9 -119q1 -4 89 -97q83 -77 83 -183q0 -117 -99 -188q-112 -83 -334 -83q-249 0 -610 121q-247 79 -344 79q-102 0 -110 -43q22 7 48 -18q29 -25 29 -67q0 -81 -77 -81q-89 0 -89 117q0 125 125 183q89 39 202 37
q192 0 508 -105q322 -101 463 -101q204 0 204 144q0 167 -241 167h-1705v84q113 12 113 162v988q0 150 -113 165v85h413v-85q-113 -15 -113 -165v-1140h589v1140q0 151 -117 165v85h417v-85q-114 -15 -114 -165v-1140h587v1140q0 151 -115 165v85h417v-85z" />
    <glyph glyph-name="afii10044" unicode="&#x42a;" horiz-adv-x="1657" 
d="M841 1467v-86q-127 -12 -127 -163v-365h267q570 0 570 -428q0 -433 -559 -433h-611v84q127 14 127 163v1130h-147q-170 0 -265 -264h-96v362h841zM948 90q161 0 240 40q129 75 129 289q0 146 -53 218q-88 118 -337 118h-213v-665h234z" />
    <glyph glyph-name="afii10045" unicode="&#x42b;" horiz-adv-x="1700" 
d="M1641 1383q-121 -16 -121 -165v-979q0 -149 121 -161v-86h-442v86q122 12 122 161v979q0 151 -122 163v86h442v-84zM448 1467v-86q-125 -12 -125 -163v-365h257q547 0 547 -428q0 -274 -195 -373q-114 -60 -344 -60h-588v84q124 18 124 163v979q0 149 -124 165v84h448z
M545 90q154 0 221 32q133 73 133 293q0 150 -52 224q-83 116 -319 116h-205v-665h222z" />
    <glyph glyph-name="afii10046" unicode="&#x42c;" horiz-adv-x="1233" 
d="M448 1467v-86q-125 -12 -125 -163v-365h257q547 0 547 -428q0 -274 -195 -373q-114 -60 -344 -60h-588v84q124 18 124 163v979q0 149 -124 165v84h448zM545 90q154 0 221 32q133 73 133 293q0 150 -52 224q-83 116 -319 116h-205v-665h222z" />
    <glyph glyph-name="afii10047" unicode="&#x42d;" horiz-adv-x="1451" 
d="M192 1466q31 -43 76 -43q22 0 71 17q74 24 107 30q111 25 227 25q268 0 459 -191q213 -205 213 -541q0 -334 -213 -557q-218 -230 -576 -230q-250 0 -409 118q-147 104 -147 243q0 61 38 101q37 47 95 47q61 0 102 -39q43 -38 43 -95q0 -36 -15 -83q-15 -41 -15 -50
q0 -70 101 -110q90 -32 196 -32q266 0 415 191q139 172 147 435v39q-93 -131 -249 -131q-95 0 -186 40q-244 111 -267 111q-48 0 -118 -86l-74 46q146 207 311 207q78 0 240 -75q137 -68 209 -68q67 0 101 58q33 47 33 114q0 153 -109 287q-139 155 -373 155
q-309 0 -443 -309h-91v376h101z" />
    <glyph glyph-name="afii10048" unicode="&#x42e;" horiz-adv-x="2139" 
d="M932 1222q-151 -179 -151 -479q0 -309 151 -486q139 -170 352 -170t353 170q151 177 151 486q0 300 -151 479q-140 170 -353 170t-352 -170zM562 724h-232v-485q0 -148 128 -158v-89h-458v89q126 12 126 158v979q0 142 -126 164v85h458v-85q-128 -20 -128 -162v-403h236
q19 236 182 425q204 245 536 245q333 0 539 -245q183 -217 183 -501q0 -291 -183 -506q-206 -243 -539 -243q-332 0 -536 243q-184 214 -186 489z" />
    <glyph glyph-name="afii10049" unicode="&#x42f;" horiz-adv-x="1461" 
d="M1355 1469v-81q-126 -17 -126 -167v-981q0 -150 126 -164v-84h-456v84q126 14 126 164v436h-315l-424 -684h-286v86q102 4 189 143l301 487q-301 76 -301 386q0 84 39 159q113 216 555 216h572zM1025 770v601h-209q-172 0 -255 -38q-138 -67 -138 -257q0 -306 393 -306
h209z" />
    <glyph glyph-name="afii10065" unicode="&#x430;" horiz-adv-x="998" 
d="M541 489q-344 -19 -344 -241q0 -67 47 -109q44 -38 113 -38q114 0 157 99q27 67 27 212v77zM566 120q-123 -125 -283 -125q-134 0 -209 73q-74 66 -74 176q0 298 541 330q0 136 -31 195q-35 78 -139 78q-86 0 -114 -72q-23 -65 -25 -69q-21 -31 -69 -31q-81 0 -81 73
q0 66 80 118q89 63 229 63q215 0 289 -140q44 -86 44 -261v-288q0 -139 94 -139q15 0 45 15l20 -34q-61 -87 -158 -87q-122 0 -159 125z" />
    <glyph glyph-name="afii10066" unicode="&#x431;" horiz-adv-x="1072" 
d="M849 1441q-12 -247 -276 -256l-113 4q-126 0 -182 -76q-66 -84 -68 -289h3q117 123 300 123q174 0 301 -114q141 -133 141 -362q0 -203 -124 -343q-128 -149 -343 -149q-281 0 -410 221q-78 139 -78 306q0 197 48 345q159 506 652 532q80 8 111 58h38zM210 461
q0 -234 104 -333q70 -66 166 -66q267 0 267 399q0 208 -81 312q-71 90 -184 90q-272 0 -272 -402z" />
    <glyph glyph-name="afii10067" unicode="&#x432;" horiz-adv-x="1014" 
d="M480 925q131 0 232 -29q135 -50 135 -196q0 -174 -182 -209l-9 -1q241 -20 241 -238q0 -257 -372 -257h-525v80q107 6 107 167v434q0 79 -16 112q-21 46 -91 58v79h480zM292 523h149q205 0 205 163q0 155 -205 155h-149v-318zM292 87h155q238 0 238 179q0 173 -256 173
h-137v-352z" />
    <glyph glyph-name="afii10068" unicode="&#x433;" horiz-adv-x="854" 
d="M738 925v-303h-78q-34 127 -80 167q-60 52 -187 52h-101v-599q5 -165 115 -167v-80h-407v79q107 14 107 168v434q0 83 -16 114q-21 42 -91 56v79h738z" />
    <glyph glyph-name="afii10069" unicode="&#x434;" horiz-adv-x="1207" 
d="M968 847q-69 -4 -86 -39q-16 -27 -16 -110v-476q0 -73 16 -99q20 -33 78 -37q11 -2 45 -2q28 0 43 -6q44 -7 44 -58q0 -54 -52 -136q-90 -139 -140 -139q-33 0 -33 32q0 11 9 40q25 53 25 101q0 75 -102 75h-504q-88 0 -88 -75q0 -19 19 -64q16 -50 16 -73q0 -36 -29 -36
q-52 0 -134 115q-79 104 -79 165q0 42 40 44h23q95 11 158 150q207 454 207 541t-104 87h-34v78h678v-78zM651 822q-75 0 -106 -77l-60 -174q-43 -125 -109 -276q-78 -169 -78 -182q0 -44 84 -44h299v753h-30z" />
    <glyph glyph-name="afii10070" unicode="&#x435;" horiz-adv-x="922" 
d="M808 192q-168 -201 -376 -201q-157 0 -276 84q-156 114 -156 356q0 224 123 365q116 140 302 140q172 0 271 -126q86 -111 86 -258v-25h-570q-2 -25 -2 -92q0 -339 254 -339q152 0 294 145zM583 627q0 210 -169 210q-188 0 -198 -225h367v15z" />
    <glyph glyph-name="afii10072" unicode="&#x436;" horiz-adv-x="1663" 
d="M970 925v-79q-65 -14 -88 -56q-16 -31 -16 -114v-87h11q118 0 187 73q15 15 101 154q83 131 225 131l50 -4v-264h-77q-23 74 -68 74q-16 0 -158 -141q-49 -43 -78 -58v-1l81 -28q203 -85 269 -305q33 -104 36 -108q25 -46 102 -36v-81h-430v80q99 -2 99 81q0 54 -39 138
q-85 209 -311 209v-261q0 -156 104 -168v-79h-394v79q105 12 105 168v261q-225 0 -311 -208q-37 -85 -37 -139q0 -83 97 -81v-80h-430v81q79 -10 100 36q5 4 38 108q66 220 267 305l83 28v1q-27 15 -49 34q-30 31 -110 122q-42 43 -77 43q-46 0 -66 -74h-79v264l50 4
q140 0 224 -131q89 -139 102 -154q68 -73 187 -73h11v87q0 83 -16 114q-23 42 -89 56v79h394z" />
    <glyph glyph-name="afii10073" unicode="&#x437;" horiz-adv-x="1021" 
d="M137 924h54q25 -26 63 -26q10 0 117 22q63 17 134 17q172 0 267 -78q80 -64 80 -158q0 -128 -97 -188l4 -6q159 -47 159 -203q0 -145 -117 -227q-109 -82 -292 -82q-51 0 -117 12q-59 11 -202 59q-29 10 -48 10q-43 0 -105 -45l-37 32q102 160 206 160q57 0 162 -80
q87 -67 168 -67q182 0 182 192q0 91 -71 154q-100 -76 -235 -76q-159 0 -159 116q0 125 183 125q97 0 193 -38q36 57 36 133q0 174 -190 174q-186 0 -260 -204h-78v272zM422 521q-84 0 -84 -59q0 -50 74 -50q105 0 168 70q-71 39 -158 39z" />
    <glyph glyph-name="afii10074" unicode="&#x438;" horiz-adv-x="1097" 
d="M396 925v-79q-71 -14 -91 -56q-13 -31 -13 -114l1 -337l401 381q-8 102 -104 126v79h391v-79q-65 -14 -86 -54q-18 -33 -18 -116v-434q0 -156 104 -168v-79h-396v79q109 12 109 168v347l-402 -375q1 -130 104 -140v-79h-396v80q107 10 107 167v434q0 161 -107 169v80h396
z" />
    <glyph glyph-name="afii10075" unicode="&#x439;" horiz-adv-x="1097" 
d="M241 1076q-83 67 -85 154q-2 72 54 120q49 51 126 51q102 0 102 -87q0 -77 -79 -77q-15 0 -59 19q-17 10 -37 10q-29 0 -29 -36q0 -44 69 -74q77 -36 192 -36q119 0 195 36q71 30 71 74q0 36 -34 36q-16 0 -35 -10q-42 -19 -61 -19q-74 0 -74 77q0 87 102 87
q74 0 125 -52q54 -48 53 -119q-2 -87 -86 -154q-97 -77 -256 -77q-157 0 -254 77zM396 925v-79q-71 -14 -91 -56q-13 -31 -13 -114l1 -337l401 381q-8 102 -104 126v79h391v-79q-65 -14 -86 -54q-18 -33 -18 -116v-434q0 -156 104 -168v-79h-396v79q109 12 109 168v347
l-402 -375q1 -130 104 -140v-79h-396v80q107 10 107 167v434q0 161 -107 169v80h396z" />
    <glyph glyph-name="afii10076" unicode="&#x43a;" horiz-adv-x="1093" 
d="M308 546q109 0 163 56q18 22 73 137q104 211 270 211q34 0 54 -3v-264h-77q-34 73 -78 73q-41 0 -92 -87q-69 -109 -121 -140v1q124 -21 204 -121q55 -62 127 -230q33 -69 40 -81q25 -23 106 -48v-56q-47 -15 -94 -15q-141 0 -215 77q-50 48 -111 210q-43 102 -74 137
q-52 59 -136 59h-59v-217q0 -157 105 -167v-81h-393v81q105 10 105 167v433q0 84 -14 116q-21 43 -91 56v77h393v-77q-70 -13 -91 -56q-14 -32 -14 -116v-132h20z" />
    <glyph glyph-name="afii10077" unicode="&#x43b;" horiz-adv-x="1130" 
d="M663 925l203 -695q48 -134 148 -154v-79h-278l-203 715l-4 -2q-107 -359 -118 -387q-120 -344 -283 -344q-47 0 -69 11q-59 27 -59 102q0 79 98 79q19 0 47 -11q24 -12 37 -12q22 0 31 6q63 22 129 234q100 315 100 386q-20 70 -106 73v78h327z" />
    <glyph glyph-name="afii10078" unicode="&#x43c;" horiz-adv-x="1302" 
d="M586 269h-1l300 656h300v-79q-72 -14 -89 -56q-18 -33 -18 -112v-436q0 -159 107 -165v-78h-396v78q108 0 108 165v488h-5l-343 -753h-42l-305 784h-13v-568q0 -116 105 -116v-78h-294v77q105 14 105 117v550q0 102 -105 102v80h335z" />
    <glyph glyph-name="afii10079" unicode="&#x43d;" horiz-adv-x="1112" 
d="M0 74q105 12 105 168v434q0 83 -14 114q-21 42 -91 56v79h396v-79q-69 -14 -89 -54q-19 -31 -19 -116v-173h418v173q0 81 -19 112q-18 46 -88 58v79h397v-79q-71 -14 -89 -56q-19 -31 -19 -114v-434q0 -154 108 -168v-79h-397v80q107 6 107 167v175h-418v-175
q0 -161 108 -167v-80h-396v79z" />
    <glyph glyph-name="afii10080" unicode="&#x43e;" horiz-adv-x="1031" 
d="M902 590q15 -62 15 -140q0 -50 -15 -116q-52 -208 -227 -296q-101 -52 -214 -52q-115 0 -212 52q-178 88 -231 296q-15 66 -15 116q0 78 15 140q91 352 443 352q353 0 441 -352zM285 774q-75 -89 -75 -317q0 -156 32 -235q53 -152 216 -152q248 0 248 387q0 228 -76 317
q-55 73 -172 73q-115 0 -173 -73z" />
    <glyph glyph-name="afii10081" unicode="&#x43f;" horiz-adv-x="1112" 
d="M996 846q-71 -14 -89 -56q-19 -31 -19 -114v-434q0 -154 108 -168v-79h-397v80q107 6 107 167v581h-418v-581q0 -161 108 -167v-80h-396v79q105 12 105 168v434q0 83 -14 114q-21 42 -91 56v79h996v-79z" />
    <glyph glyph-name="afii10082" unicode="&#x440;" horiz-adv-x="1118" 
d="M7 -326q105 10 105 161v660q0 154 29 217q102 224 406 224q179 0 309 -108q153 -128 153 -357q0 -226 -157 -367q-119 -103 -289 -103q-174 0 -267 96h-1v-260q0 -163 121 -163v-78h-409v78zM295 344q0 -246 250 -246q254 0 254 373q0 371 -252 371q-126 0 -198 -93
q-54 -69 -54 -146v-259z" />
    <glyph glyph-name="afii10083" unicode="&#x441;" horiz-adv-x="949" 
d="M835 183q-169 -188 -388 -188q-182 0 -308 116q-139 126 -139 338q0 210 132 348q127 142 328 142q145 0 227 -58q76 -51 76 -120q0 -86 -93 -86q-96 0 -100 95v4q-8 82 -104 82q-108 0 -173 -90q-83 -104 -83 -317q0 -194 115 -278q74 -58 174 -58q178 0 288 118z" />
    <glyph glyph-name="afii10084" unicode="&#x442;" horiz-adv-x="999" 
d="M884 925v-303h-78q-18 219 -239 219h-34v-599q0 -157 110 -167v-80h-400v79q71 11 88 48q20 35 20 120v599h-31q-213 0 -242 -219h-78v303h884z" />
    <glyph glyph-name="afii10085" unicode="&#x443;" horiz-adv-x="1136" 
d="M1020 846q-86 -19 -143 -140l-375 -822q-74 -163 -130 -227q-81 -88 -194 -88q-170 0 -170 132q0 105 92 105q40 0 79 -27q37 -32 73 -32q79 0 127 113l70 150l-278 696q-61 124 -171 139v80h448v-80h-29q-65 0 -65 -54q0 -24 24 -73l181 -455h3l189 416q29 84 29 99
q-32 66 -93 67v80h333v-79z" />
    <glyph glyph-name="afii10086" unicode="&#x444;" horiz-adv-x="1393" 
d="M833 1057q-103 -12 -103 -119l-4 -75q74 66 182 66q150 0 253 -115q115 -124 115 -337q0 -227 -112 -361q-104 -125 -256 -125q-98 0 -178 67v-232q0 -157 107 -163v-78h-399v77q106 14 106 164v232h-1q-74 -67 -174 -67q-162 0 -269 147q-100 142 -100 339q0 177 92 306
q102 146 277 146q106 0 175 -66v75q0 107 -104 119v76h393v-76zM544 621q0 220 -156 220q-117 0 -157 -113q-21 -67 -21 -239q0 -220 19 -295q37 -136 157 -136q158 0 158 186v377zM730 244q0 -186 160 -186q119 0 157 136q17 74 17 295q0 172 -19 239q-40 113 -156 113
q-159 0 -159 -220v-377z" />
    <glyph glyph-name="afii10087" unicode="&#x445;" horiz-adv-x="1070" 
d="M897 845q-88 0 -195 -139l-140 -184l227 -318q90 -128 164 -129v-80h-426v80h27q59 0 59 52q0 37 -35 71l-135 171l-98 -143q-34 -53 -44 -85l-6 -24q4 -25 15.5 -31.5t63.5 -10.5v-80h-374v80h33q77 0 204 170l153 204l-170 234q-113 158 -194 162v80h412v-80
q-76 -4 -76 -26q0 -23 65 -109l80 -110l92 132q39 57 39 81q-21 27 -60 32v80h319v-80z" />
    <glyph glyph-name="afii10088" unicode="&#x446;" horiz-adv-x="1233" 
d="M1000 845q-106 -8 -106 -165v-525q0 -45 54 -80q169 -116 169 -220q0 -109 -78 -184q-87 -84 -226 -84q-98 0 -249 52q-245 86 -310 86q-57 0 -57 -49q0 -11 12 -11q21 0 23 6q8 10 22 10q59 0 59 -62q0 -75 -76 -75q-103 0 -103 106q0 74 63 131q82 70 228 70
q77 0 214 -47q236 -75 270 -75q130 0 130 128q0 65 -58 103q-56 34 -133 34h-848v80q107 8 107 167v439q0 163 -107 165v80h398v-80q-67 -2 -91 -49q-15 -31 -15 -116v-600h416v600q0 85 -15 116q-24 47 -92 49v80h399v-80z" />
    <glyph glyph-name="afii10089" unicode="&#x447;" horiz-adv-x="1064" 
d="M391 925v-80q-103 -6 -103 -118v-84q0 -95 39 -131q31 -28 100 -28q128 0 229 40v152q0 83 -18 114q-19 42 -89 56v79h399v-79q-73 -14 -92 -56q-18 -31 -18 -114v-434q0 -154 110 -168v-79h-415v80q82 4 105 47q18 33 18 120v195q-169 -59 -300 -59q-251 0 -251 206v145
q0 103 -105 117v79h391z" />
    <glyph glyph-name="afii10090" unicode="&#x448;" horiz-adv-x="1597" 
d="M1481 925v-79q-70 -14 -90 -54q-17 -31 -17 -116v-434q0 -161 107 -167v-80h-1481v79q70 10 91 56q16 31 16 112v434q0 156 -107 170v79h398v-79q-106 -21 -106 -170v-597h358v597q0 83 -19 114q-18 42 -90 56v79h399v-79q-72 -9 -93 -54q-16 -31 -16 -116v-597h357v597
q0 81 -15 112q-22 46 -91 58v79h399z" />
    <glyph glyph-name="afii10091" unicode="&#x449;" horiz-adv-x="1604" 
d="M1481 924v-78q-70 -15 -90 -54q-17 -32 -17 -117v-485q0 -67 23 -95l39 -32q31 -27 49 -50q53 -64 54 -164q-16 -125 -105 -197q-95 -71 -235 -71t-285 52q-264 89 -341 89q-73 0 -73 -52q0 -11 14 -11l21 6q26 10 38 10q63 0 63 -58q0 -79 -96 -79q-108 0 -108 106
q0 79 80 138q92 64 246 64q96 0 243 -47q254 -76 296 -76q74 0 118 41q33 38 33 87q0 69 -68 110q-57 30 -135 30h-1245v78q70 11 91 57q16 33 16 112v437q0 156 -107 171v78h398v-78q-106 -23 -106 -171v-598h358v598q0 81 -19 114q-18 42 -90 57v78h399v-78
q-72 -11 -93 -54q-16 -32 -16 -117v-598h357v598q0 154 -102 171v78h395z" />
    <glyph glyph-name="afii10092" unicode="&#x44a;" horiz-adv-x="1222" 
d="M609 925v-79q-72 -12 -91 -58q-18 -31 -18 -112v-62q125 63 260 63q164 0 258 -101q87 -95 87 -246q0 -129 -71 -218q-95 -117 -288 -117h-538v79q109 14 109 168v599q-119 2 -175 -53q-54 -58 -64 -195h-78v332h609zM636 79q261 0 261 261q0 220 -209 220
q-80 0 -188 -51v-430h136z" />
    <glyph glyph-name="afii10093" unicode="&#x44b;" horiz-adv-x="1456" 
d="M398 925v-79q-71 -12 -91 -58q-15 -31 -15 -112v-62q123 63 257 63q166 0 261 -101q87 -95 87 -246q0 -129 -74 -218q-94 -117 -287 -117h-536v79q107 14 107 168v434q0 83 -16 114q-21 42 -91 56v79h398zM427 79q258 0 258 261q0 220 -205 220q-82 0 -188 -51v-430h135z
M945 925h396v-79q-74 -14 -91 -56q-14 -31 -14 -114v-483q0 -107 105 -119v-79h-396v79q106 14 106 119v483q0 83 -14 114q-21 42 -92 56v79z" />
    <glyph glyph-name="afii10094" unicode="&#x44c;" horiz-adv-x="1014" 
d="M398 925v-79q-71 -12 -91 -58q-15 -31 -15 -112v-62q123 63 257 63q166 0 261 -101q87 -95 87 -246q0 -129 -74 -218q-94 -117 -287 -117h-536v79q107 14 107 168v434q0 83 -16 114q-21 42 -91 56v79h398zM427 79q258 0 258 261q0 220 -205 220q-82 0 -188 -51v-430h135z
" />
    <glyph glyph-name="afii10095" unicode="&#x44d;" horiz-adv-x="953" 
d="M72 925q32 -18 65 -18q17 0 108 16q56 13 124 13q223 0 353 -150q115 -129 115 -324q0 -172 -107 -299q-76 -94 -175 -133q-88 -35 -198 -35q-161 0 -263 70q-94 58 -94 142q0 105 109 105q94 0 94 -88l-2 -46q0 -100 155 -100q151 0 222 132q48 88 48 205q0 49 -2 69h1
q-60 -112 -178 -112q-33 0 -96 19l-174 55q-39 0 -91 -24l-22 44q116 107 206 107q28 0 80 -18q137 -48 175 -48q97 0 97 114q0 75 -63 153q-73 79 -194 79q-182 0 -260 -191h-76v263h43z" />
    <glyph glyph-name="afii10096" unicode="&#x44e;" horiz-adv-x="1541" 
d="M508 504q15 239 181 358q123 85 276 85q186 0 313 -119q147 -135 147 -364q0 -185 -112 -324q-129 -161 -348 -161q-207 0 -332 138q-113 123 -125 304h-216v-177q0 -156 104 -168v-79h-396v80q107 8 107 167v434q0 84 -16 118q-23 38 -91 54v76h396v-76q-71 -16 -91 -56
q-13 -34 -13 -116v-174h216zM718 462q0 -163 31 -245q54 -155 216 -155q247 0 247 400q0 401 -247 401t-247 -401z" />
    <glyph glyph-name="afii10097" unicode="&#x44f;" horiz-adv-x="1058" 
d="M940 848q-107 -21 -107 -121v-483q0 -159 109 -167v-80h-400v79q110 14 110 168v179h-23q-72 0 -107 -26q-63 -42 -105 -165q-49 -126 -97 -176q-81 -77 -250 -77h-70v77q113 6 187 185q62 164 204 205v-2q-47 4 -109 26q-171 74 -171 212q0 243 375 243h454v-77z
M532 829q-208 0 -208 -165q0 -159 183 -159h145v324h-120z" />
    <glyph glyph-name="afii10071" unicode="&#x451;" horiz-adv-x="922" 
d="M808 190q-168 -199 -376 -199q-157 0 -276 83q-156 113 -156 352q0 221 123 361q116 138 302 138q172 0 271 -125q86 -108 86 -255v-24h-570q-2 -25 -2 -91q0 -335 254 -335q152 0 294 143zM583 621q0 222 -169 222q-188 0 -198 -238h367v16zM135 1313q31 41 89 41
q50 0 82 -35q38 -36 38 -85q0 -56 -41 -90q-39 -32 -79 -32q-47 0 -85 37q-37 38 -37 85q0 43 33 79zM524 1313q32 41 88 41q52 0 83 -35q37 -36 37 -85q0 -56 -41 -90q-39 -32 -79 -32q-47 0 -85 37q-37 38 -37 85q0 43 34 79z" />
    <glyph glyph-name="afii10099" unicode="&#x452;" horiz-adv-x="1216" 
d="M533 345v-103q0 -157 110 -167v-78h-400v77q71 10 88 50q20 33 20 118v601h-31q-213 0 -242 -221h-78v305h884v-305h-78q-18 221 -239 221h-34v-401q120 57 227 57q179 0 268 -131q72 -107 72 -278q0 -260 -132 -404q-114 -129 -289 -129q-120 0 -183 56q-47 40 -47 100
q0 108 97 108q108 0 108 -93l-6 -47q0 -13 5 -18q12 -23 45 -23q197 0 197 372q0 382 -213 382q-95 0 -149 -49z" />
    <glyph glyph-name="afii10100" unicode="&#x453;" horiz-adv-x="854" 
d="M738 925v-303h-78q-34 127 -80 167q-60 52 -187 52h-101v-599q0 -171 115 -167v-80h-407v79q107 14 107 168v434q0 83 -16 114q-21 42 -91 56v79h738zM632 1268l2 -10q0 -14 -1 -28l-2 -8l-7 -22q-7 -21 -21 -40.5t-30.5 -35.5t-62.5 -46q-110 -65 -262 -77v69
q112 56 145.5 87t42.5 56t13 56q5 38 31.5 60t62.5 22q30 -5 48 -18q6 -4 12 -11q5 -4 9 -10q17 -18 20 -44z" />
    <glyph glyph-name="afii10101" unicode="&#x454;" horiz-adv-x="960" 
d="M812 662h-65q-75 191 -261 191q-287 0 -279 -357v0q95 98 220 98q32 0 140 -42q79 -31 95 -31q41 0 86 28l24 -46q-120 -106 -197 -106q-30 0 -79 17q-121 47 -149 47q-135 0 -135 -86q0 -120 86 -201q82 -76 184 -76q193 0 319 133l46 -49q-170 -187 -400 -187
q-169 0 -301 123q-146 132 -146 344q0 191 111 320q128 154 367 154q55 0 174 -25l49 -4q35 0 65 18h46v-263z" />
    <glyph glyph-name="afii10102" unicode="&#x455;" horiz-adv-x="813" 
d="M563 872q73 -52 73 -124q0 -77 -76 -77q-82 0 -101 103q0 73 -116 73q-173 0 -173 -136q0 -67 54 -105q32 -26 143 -52q145 -41 208 -79q122 -75 122 -209q0 -128 -104 -207q-104 -80 -257 -80q-161 0 -256 72q-80 65 -80 142q0 103 100 103q97 0 97 -81q0 -11 -6 -34
q-4 -21 -4 -34q0 -29 29 -53q41 -34 118 -34q91 0 145 50q43 40 43 101q0 92 -147 142q-193 65 -237 96q-107 72 -107 200q0 125 88 207q85 73 219 73q142 0 225 -57z" />
    <glyph glyph-name="afii10103" unicode="&#x456;" horiz-adv-x="511" 
d="M288 925v-683q0 -161 108 -167v-80h-396v79q105 12 105 168v434q0 83 -14 114q-21 42 -91 56v79h288zM84 1306q32 41 88 41q51 0 83 -34q37 -36 37 -85q0 -57 -41 -90q-39 -32 -79 -32q-46 0 -85 37q-37 38 -37 85q0 43 34 78z" />
    <glyph glyph-name="afii10104" unicode="&#x457;" horiz-adv-x="600" 
d="M405 925v-683q0 -161 109 -167v-80h-397v79q104 12 104 168v434q0 83 -15 114q-17 42 -89 56v79h288zM40 1304q31 41 89 41q50 0 82 -35q38 -36 38 -85q0 -56 -41 -90q-39 -32 -79 -32q-47 0 -85 37q-37 38 -37 85q0 43 33 79zM354 1304q32 41 88 41q52 0 83 -35
q37 -36 37 -85q0 -56 -41 -90q-39 -32 -79 -32q-47 0 -85 37q-37 38 -37 85q0 43 34 79z" />
    <glyph glyph-name="afii10105" unicode="&#x458;" horiz-adv-x="469" 
d="M374 927v-872q0 -234 -70 -355q-84 -147 -254 -147q-65 0 -108 33q-41 36 -41 80q0 79 87 79q41 0 71 -39q42 -45 79 -45q51 0 51 67v948q0 169 -125 169h-42v82h352zM150 1306q32 41 88 41q51 0 83 -34q37 -36 37 -85q0 -57 -41 -90q-39 -32 -79 -32q-46 0 -85 37
q-37 38 -37 85q0 43 34 78z" />
    <glyph glyph-name="afii10106" unicode="&#x459;" horiz-adv-x="1506" 
d="M663 943l97 -330q148 62 262 62q163 0 267 -91q100 -95 100 -252q0 -147 -98 -238q-106 -93 -282 -93h-273l-208 729h1q-107 -373 -118 -401q-120 -346 -283 -346q-84 0 -116 47q-12 22 -12 48q0 35 26 62q25 33 68 33q19 0 38 -6q71 -19 105.5 20t85.5 154
q119 326 119 456q0 74 -77 74h-29v72h327zM913 97h46q117 0 176 74q52 64 52 171q0 96 -55 157q-65 65 -182 65q-60 0 -163 -41z" />
    <glyph glyph-name="afii10107" unicode="&#x45a;" horiz-adv-x="1610" 
d="M396 925v-79q-69 -14 -89 -54q-19 -31 -19 -116v-173h420v173q0 81 -15 112q-21 46 -92 58v79h399v-79q-73 -14 -91 -56q-15 -31 -15 -114v-62q130 63 255 63q117 0 211 -65q135 -89 135 -282q0 -118 -68 -208q-95 -127 -291 -127h-535v80q107 6 107 167v175h-420v-175
q0 -161 108 -167v-80h-396v79q105 12 105 168v434q0 83 -14 114q-21 42 -91 56v79h396zM894 79h136q253 0 253 261q0 220 -202 220q-88 0 -187 -51v-430z" />
    <glyph glyph-name="afii10108" unicode="&#x45b;" horiz-adv-x="1300" 
d="M533 492q167 58 295 58q250 -2 250 -208v-145q19 -105 105 -119v-81h-401l10 84q103 8 105 120v84q0 95 -39 129q-31 27 -100 27q-126 0 -225 -37v-162q0 -157 110 -167v-80h-400v79q71 11 88 48q20 35 20 120v599h-31q-213 0 -242 -219h-78v303h884v-303h-78
q-18 219 -239 219h-34v-349z" />
    <glyph glyph-name="afii10109" unicode="&#x45c;" horiz-adv-x="1093" 
d="M308 546q109 0 163 56q18 22 73 137q104 211 270 211q34 0 54 -3v-264h-77q-34 73 -78 73q-41 0 -92 -87q-69 -109 -121 -140v1q124 -21 204 -121q55 -62 127 -230q33 -69 40 -81q25 -23 106 -48v-56q-47 -15 -94 -15q-141 0 -215 77q-50 48 -111 210q-43 102 -74 137
q-52 59 -136 59h-59v-217q0 -157 105 -167v-81h-393v81q105 10 105 167v433q0 84 -14 116q-21 43 -91 56v77h393v-77q-70 -13 -91 -56q-14 -32 -14 -116v-132h20zM717 1268l2 -10q0 -14 -1 -28l-2 -8l-7 -22q-7 -21 -21 -40.5t-30.5 -35.5t-62.5 -46q-110 -65 -262 -77v69
q112 56 145.5 87t42.5 56t13 56q5 38 31.5 60t62.5 22q30 -5 48 -18q6 -4 12 -11q5 -4 9 -10q17 -18 20 -44z" />
    </font>
</defs>
</svg>
