<?xml version="1.0" standalone="no"?>
<!DOCTYPE svg PUBLIC "-//W3C//DTD SVG 1.1//EN" "http://www.w3.org/Graphics/SVG/1.1/DTD/svg11.dtd" >
<svg>
<metadata>
Created by FontForge 20090622 at Tue Sep 15 13:40:19 2020
 By deploy user
Copyright 2002 Adobe Systems Incorporated. All rights reserved.
</metadata>
<defs>
<font id="BodoniC-Bold" horiz-adv-x="386" >
  <font-face 
    font-family="BodoniC"
    font-weight="700"
    font-stretch="normal"
    units-per-em="1000"
    panose-1="4 0 8 0 0 0 0 0 0 0"
    ascent="768"
    descent="-232"
    x-height="437"
    cap-height="655"
    bbox="-199 -232 1119 844"
    underline-thickness="50"
    underline-position="-50"
    unicode-range="U+0020-U+2122"
  />
<missing-glyph horiz-adv-x="233" 
 />
    <glyph glyph-name=".notdef" horiz-adv-x="233" 
 />
    <glyph glyph-name=".null" horiz-adv-x="0" 
 />
    <glyph glyph-name="nonmarkingreturn" horiz-adv-x="233" 
 />
    <glyph glyph-name="space" unicode=" " horiz-adv-x="233" 
 />
    <glyph glyph-name="space" unicode="&#xa0;" horiz-adv-x="233" 
 />
    <glyph glyph-name="numbersign" unicode="#" horiz-adv-x="896" 
d="M472 -59l34 178h-187l-34 -178h-88l34 178h-175l17 90h175l36 190h-174l17 90h174l35 177h88l-34 -177h187l34 177h88l-34 -177h175l-17 -90h-175l-36 -190h175l-18 -90h-175l-34 -178h-88zM560 399h-187l-37 -190h188z" />
    <glyph glyph-name="dollar" unicode="$" horiz-adv-x="576" 
d="M42 233h26q8 -32 24.5 -66t42 -63.5t59.5 -51.5t77 -30v243l-72 28q-21 8 -45.5 22t-45.5 35.5t-34.5 53t-13.5 75.5q0 36 12 70t36 61t61 43t87 16h15v69h34v-74q14 -2 24 -4.5t24 -7.5q17 -7 26.5 -10t17.5 -5q8 -1 17 0q8 2 17.5 7.5t14.5 10.5h36v-186h-24
q-14 38 -28 62t-31.5 41.5t-40 30.5t-53.5 29v-204l85 -33q45 -17 73 -41t43.5 -50t21.5 -52.5t6 -49.5q0 -25 -9 -62t-33.5 -71t-68 -58.5t-112.5 -24.5h-6v-86h-34v88q-25 4 -41 8t-35 10l-37 13t-26 5h-10t-10 -1q-22 -4 -31 -23h-35zM308 18q42 0 67.5 11t40 27t19 34
t4.5 32q0 29 -10.5 48.5t-28 33t-39 23.5l-42.5 19l-14 6v-234h3zM259 638q-14 0 -33.5 -1.5t-36.5 -8t-29 -21t-12 -40.5q0 -29 8.5 -47.5t22.5 -31.5t32 -21.5t36 -15.5l24 -10v197h-12z" />
    <glyph glyph-name="percent" unicode="%" horiz-adv-x="895" 
d="M811 146q0 -38 -13.5 -67.5t-36 -49.5t-52.5 -31t-62 -11q-39 0 -69.5 14.5t-50.5 37t-30.5 51t-10.5 56.5t10.5 56.5t30.5 51t50.5 37t69.5 14.5q35 0 65 -12t52 -33t34.5 -50t12.5 -64zM699 223q0 8 -1 19.5t-5.5 22t-15 17.5t-28.5 7q-28 0 -39.5 -17t-11.5 -49v-155
q0 -9 1.5 -20.5t6.5 -21t15 -16.5t28 -7q16 0 26 6.5t15 16t7 21t2 21.5v155zM451 510q0 -35 -12.5 -64t-34.5 -50t-52 -33t-65 -12q-30 0 -58.5 10.5t-51.5 31t-37 50t-14 67.5q0 31 11.5 59.5t32.5 51t50.5 36t66.5 13.5q34 0 64 -12t52.5 -33.5t35 -51t12.5 -63.5z
M339 588q0 40 -16 53t-35 13q-18 0 -34 -13t-16 -53v-155q0 -9 1.5 -20.5t6.5 -21.5t15 -17t27 -7q19 0 35 12.5t16 53.5v155zM216 -67l477 803l26 -15l-476 -803z" />
    <glyph glyph-name="ampersand" unicode="&#x26;" horiz-adv-x="773" 
d="M594 335q15 0 38.5 0.5t46 4t38.5 12t16 23.5q0 14 -5 14q-7 0 -14 -3t-13 -5t-12 -2q-23 0 -41.5 12.5t-18.5 42.5q0 26 17.5 42.5t42.5 16.5q13 0 25.5 -5t22.5 -16.5t16 -29.5t6 -44q0 -32 -13 -62t-37 -53t-59 -37.5t-80 -14.5h-11v-68q0 -29 -11.5 -60.5t-36 -57.5
t-62.5 -42.5t-91 -16.5q-28 0 -62.5 3t-69.5 10t-68 20.5t-59 34.5t-41.5 50.5t-15.5 70.5q0 48 20.5 82t55 56.5t80.5 36t98 19.5v5q-43 6 -78.5 17.5t-61 29t-40 42.5t-14.5 58q0 29 13.5 55.5t42 47t74 33t110.5 12.5q49 0 84.5 -10.5t58 -27.5t33.5 -39t11 -45
q0 -19 -6 -32.5t-15 -22.5t-20.5 -13t-22.5 -4q-27 0 -46 18.5t-19 41.5q0 20 11 29.5l23 20.5l10 10t5 11q0 15 -25 28t-71 13q-36 0 -56 -11t-29.5 -26.5t-11.5 -32t-2 -26.5v-66q0 -35 9.5 -55t23 -30.5t28.5 -14t27 -4.5q8 -1 15.5 -1.5t15.5 -0.5h36v-22h-68
q-18 0 -40 -3.5t-40.5 -19.5t-31 -49t-12.5 -91q0 -59 15 -95t37.5 -56.5t49 -27.5t48.5 -7q18 0 45.5 5.5t54 22t45.5 46t19 78.5v35.5t-3 35.5l-56 1q-44 1 -71.5 -3.5t-42.5 -11t-20 -14t-5 -11.5q0 -14 6 -14q9 0 14 2l12 4t12 2q19 0 37 -14t18 -44q0 -22 -16.5 -35.5
t-38.5 -13.5q-25 0 -45.5 20.5t-20.5 69.5q0 39 15 70t40.5 52.5t59 33t70.5 11.5l98 -1v0z" />
    <glyph glyph-name="quotesingle" unicode="'" horiz-adv-x="233" 
d="M199 658l-56 -263h-53l-56 263h165z" />
    <glyph glyph-name="parenleft" unicode="(" horiz-adv-x="541" 
d="M401 -222q-19 0 -45.5 5t-55.5 20t-58 43.5t-51.5 75.5t-36.5 116t-14 166q0 39 2 87.5t10.5 99.5t25 99.5t45.5 87t72.5 63.5t105.5 28v-24q-45 -5 -68.5 -33t-34.5 -69t-13 -91.5l-4 -100.5q-2 -70 -2 -139.5t2 -139.5q1 -38 3 -84t13 -86.5t35 -68.5t69 -31v-24z" />
    <glyph glyph-name="parenright" unicode=")" horiz-adv-x="541" 
d="M140 -198q41 3 64 25.5t34.5 59.5t15 84.5t6.5 100.5q4 70 3.5 139.5t-3.5 139.5l-4 100.5t-13 91.5t-34.5 69t-68.5 33v24q56 -3 97 -23t70 -53.5t47 -77.5t28.5 -95t14.5 -106t4 -110q0 -128 -25 -210t-63.5 -130t-84.5 -67t-88 -19v24z" />
    <glyph glyph-name="asterisk" unicode="*" horiz-adv-x="510" 
d="M221 443q-22 -24 -36 -41t-24.5 -28.5t-19.5 -16.5t-20 -5q-21 0 -36 12t-15 32q0 21 12 33t31 19t43.5 10.5t50.5 8.5v23q-24 5 -48.5 8.5t-44 10t-32 18.5t-12.5 34q0 20 15.5 32t35.5 12q10 0 19 -5t19.5 -15.5t24.5 -28t36 -42.5l21 12l-17.5 54t-10.5 31t-5 15.5
t-1 8.5q0 17 12.5 33.5t35.5 16.5t35 -16.5t12 -33.5q0 -6 -4.5 -22.5t-10.5 -34l-11.5 -33t-7.5 -19.5l21 -12q22 24 36 41t24 28t19 16.5t21 5.5q23 0 37 -13.5t14 -30.5q0 -22 -13 -34t-33.5 -19t-44.5 -10.5t-46 -7.5v-24q22 -4 46.5 -7t44.5 -10t33 -19t13 -34
q0 -17 -14 -30.5t-37 -13.5q-11 0 -20 5t-19.5 16.5l-25 28.5l-35.5 41l-21 -12q2 -5 7.5 -20l11.5 -32.5t10.5 -34t4.5 -22.5q0 -17 -12 -33.5t-35 -16.5t-35.5 16.5t-12.5 33.5q0 4 1 8.5t5 15.5t10.5 31l17.5 54z" />
    <glyph glyph-name="plus" unicode="+" horiz-adv-x="698" 
d="M377 616v-272h272v-56h-272v-271h-56v271h-272v56h272v272h56z" />
    <glyph glyph-name="comma" unicode="," 
d="M134 -156q58 41 81 71.5t23 49.5q0 13 0.5 21.5t-15.5 8.5q-5 0 -9 -1.5l-9 -3.5q-11 -4 -25 -4q-22 0 -37.5 9t-25.5 22.5t-14.5 30t-4.5 31.5q0 18 8.5 32t22 23t29 13.5t29.5 4.5q18 0 36 -7t32.5 -20.5t23.5 -34.5t9 -48q0 -20 -4.5 -45.5t-19.5 -54.5t-42 -60
t-72 -61z" />
    <glyph glyph-name="period" unicode="." horiz-adv-x="364" 
d="M98 70q0 35 24.5 59.5t59.5 24.5t59.5 -24.5t24.5 -59.5t-24.5 -59.5t-59.5 -24.5t-59.5 24.5t-24.5 59.5z" />
    <glyph glyph-name="slash" unicode="/" horiz-adv-x="488" 
d="M28 -231l375 886h57l-376 -886h-56z" />
    <glyph glyph-name="zero" unicode="0" horiz-adv-x="568" 
d="M42 332q0 56 12 116t39.5 109t71.5 80.5t109 31.5q55 0 101.5 -22t80 -64.5t52 -106t18.5 -147.5q0 -66 -13 -128t-41.5 -109.5t-73.5 -76.5t-109 -29q-66 0 -113 30.5t-77 80t-43.5 111.5t-13.5 124zM217 148q0 -26 0.5 -51.5t6.5 -45t19 -31.5t37 -12q27 0 41.5 12.5
t21 33t7.5 45.5t1 49v371q0 22 -1.5 45t-9 41.5t-22 30t-41.5 11.5q-22 0 -34 -10.5t-18 -28t-7 -40t-1 -45.5v-375z" />
    <glyph glyph-name="one" unicode="1" horiz-adv-x="527" 
d="M194 611q0 17 -19 17h-54h-20v25h72q38 0 87 4.5t91 11.5q-1 -28 -1.5 -45.5t-1 -27.5t-0.5 -14.5v-6.5v-553h84v-22h-322v22h84v589z" />
    <glyph glyph-name="two" unicode="2" horiz-adv-x="594" 
d="M222 225q33 32 59 61t44 60t28 67.5t10 83.5q0 29 -6.5 55.5t-19.5 46.5t-34 32t-49 12q-24 0 -41 -6.5t-27.5 -16t-15.5 -19.5t-5 -17q0 -9 6 -15.5t15.5 -13.5l20 -15.5t19.5 -19.5q18 -24 18 -49q0 -20 -7.5 -34t-19.5 -24t-27 -14.5t-30 -4.5q-42 0 -66 29t-24 72
q0 28 14 59t42 56.5t70 42t99 16.5q60 0 103.5 -16t72.5 -42t43 -58.5t14 -65.5q0 -42 -17 -72.5t-46.5 -58t-70 -55l-87.5 -61.5l-141 -103h271q18 0 30 4t20.5 13t14 23t10.5 33h23l-9 -210h-470v63z" />
    <glyph glyph-name="three" unicode="3" horiz-adv-x="561" 
d="M311 548q0 46 -14 73t-52 27q-33 0 -53.5 -10.5t-20.5 -24.5q0 -6 7 -14t15 -18.5t15 -23.5t7 -30q0 -29 -18.5 -48t-55.5 -19q-20 0 -33.5 8t-22 20.5t-12.5 28.5t-4 31q0 26 13.5 48t37.5 38.5t57.5 25.5t74.5 9q37 0 76 -8.5t71 -27.5t52.5 -48.5t20.5 -71.5
q0 -35 -13.5 -58.5t-36 -39.5t-51.5 -27t-60 -20q25 -11 39 -15t23.5 -7t19 -6.5t24.5 -12.5q29 -17 46.5 -37.5t26.5 -42.5t12 -43.5t3 -38.5q0 -39 -20.5 -71.5t-55 -56.5t-79.5 -37.5t-95 -13.5q-41 0 -79 9.5t-67 28.5t-46.5 47t-17.5 65q0 45 24.5 69.5t61.5 24.5
q38 0 58.5 -24t20.5 -52q0 -25 -11.5 -36t-25 -18t-24.5 -15t-11 -27q0 -7 5.5 -16t17.5 -16.5t31 -12.5t46 -5q51 0 71.5 32.5t20.5 88.5v118q0 51 -18 76.5t-45 25.5q-9 0 -16.5 -1.5t-16 -3t-20.5 -3t-30 -1.5q-21 0 -28.5 7.5t-7.5 17.5q0 5 5.5 14t31.5 9q5 0 11 -1
t11 -2q8 -2 16.5 -3t16.5 -1q10 0 22.5 2t23.5 12t18 29.5t7 54.5v69z" />
    <glyph glyph-name="four" unicode="4" horiz-adv-x="583" 
d="M289 168h-236v93l271 408h119v-408h80v-93h-80v-146h84v-22h-322v22h84v146zM289 569l-203 -308h203v308z" />
    <glyph glyph-name="five" unicode="5" horiz-adv-x="599" 
d="M141 366q31 36 73 49.5t93 13.5q64 0 107.5 -21.5t69.5 -54.5t37 -73.5t11 -77.5q0 -42 -17 -81t-50.5 -69t-85 -48t-120.5 -18q-49 0 -86 13t-61.5 34t-37 47.5t-12.5 52.5q0 18 6 35.5t17.5 31.5t28.5 23t40 9q36 0 59 -21.5t23 -52.5q0 -15 -4.5 -32.5t-23.5 -32.5
q-16 -13 -31.5 -21t-15.5 -20q0 -5 3.5 -12.5t13 -14.5t25.5 -12t41 -5q61 0 87 38.5t26 111.5v77q0 29 -3.5 57.5t-14 51t-30 36.5t-51.5 14q-16 0 -33 -4.5t-32.5 -12.5t-28.5 -19t-20 -24l-28 7l12 320q46 -18 89.5 -24t91.5 -6q46 0 76.5 4.5t50 11t29.5 13t14 9.5h24
q-8 -21 -25 -46.5t-46.5 -48.5t-72.5 -38.5t-103 -15.5q-24 0 -50 2t-59 4z" />
    <glyph glyph-name="six" unicode="6" horiz-adv-x="576" 
d="M226 382q26 26 53 32t49 6q56 0 95 -18.5t63 -47t34.5 -64.5t10.5 -70q0 -15 -3 -38.5t-11.5 -49.5t-24 -52t-41 -47t-61.5 -34t-86 -13q-63 0 -109.5 26.5t-77.5 71t-46 101.5t-15 119q0 72 14.5 138t45 116.5t78.5 80.5t116 30q41 0 76 -8.5t61 -23.5t40.5 -35
t14.5 -43q0 -34 -21 -58t-58 -24q-19 0 -33.5 7t-24 18t-14.5 24.5t-5 27.5q0 19 6 29.5t13.5 17.5l13.5 12.5t6 16.5q0 5 -8 8.5t-19 5.5t-22.5 3t-18.5 1q-20 0 -36.5 -3.5t-28.5 -20t-19 -51t-7 -97.5v-94zM226 130q0 -24 1.5 -46t8.5 -39t22 -27t41 -10q22 0 33.5 9.5
t16.5 23.5t6 30t1 29v193q0 13 -1.5 30t-7.5 32t-19 25.5t-36 10.5q-27 0 -40.5 -13.5t-19.5 -31.5t-6 -37.5v-31.5v-147z" />
    <glyph glyph-name="seven" unicode="7" horiz-adv-x="545" 
d="M63 419l23 236h386q8 0 9 -2t1 -10q0 -24 -9.5 -58t-23.5 -73.5l-29 -82t-27 -82.5q-23 -80 -40 -172t-20 -175h-195q5 52 19.5 94.5t32 75.5t36 57.5l31.5 40.5l52 62.5t44 56.5t37 59t31 71h-260q-18 0 -30 -9t-19.5 -23t-12.5 -31.5l-10 -34.5h-26z" />
    <glyph glyph-name="eight" unicode="8" horiz-adv-x="568" 
d="M140 374q-34 21 -50 53t-16 80q0 33 13.5 62t41 51.5t68.5 35.5t97 13q58 0 97 -14t62 -35t33 -45.5t10 -45.5q0 -51 -32 -83.5t-83 -59.5l67 -48q30 -22 51 -58.5t21 -95.5q0 -20 -8 -53.5t-33 -65.5t-70 -55.5t-120 -23.5q-23 0 -63.5 6.5t-80 26t-68.5 56t-29 95.5
q0 19 6 40.5t22 44t44 44.5t72 43zM343 411q30 19 47.5 48.5t17.5 66.5q0 31 -10 54t-26.5 38t-38.5 22t-47 7q-29 0 -49 -9t-32 -24t-17 -34t-5 -38q0 -17 12 -27.5t21 -16.5zM230 317q-28 -21 -45.5 -41t-27.5 -39t-13.5 -37.5t-3.5 -37.5q0 -40 13 -69t34.5 -48t49 -28
t55.5 -9q36 0 61 12.5t41 30.5t23.5 38.5t7.5 37.5q0 21 -8 38.5t-18.5 30.5t-21.5 22t-17 13z" />
    <glyph glyph-name="nine" unicode="9" horiz-adv-x="573" 
d="M353 273q-26 -26 -53 -32t-49 -6q-56 0 -95 18.5t-63 47t-34.5 64t-10.5 70.5q0 15 3 38.5t11.5 49.5t24 52t41 47t61.5 34t86 13q64 0 110.5 -26.5t77 -71t45.5 -101.5t15 -118q0 -89 -18.5 -157.5t-52 -115t-80 -70t-103.5 -23.5q-41 0 -76 8.5t-60.5 23.5t-40.5 35
t-15 43q0 32 19 57t60 25q37 0 57 -23.5t20 -53.5q0 -19 -6 -30t-13.5 -18l-13.5 -13t-6 -15q0 -5 8 -8.5t19 -5.5t22.5 -3t18.5 -1q27 0 45 8.5t28 28.5t14 53t4 82v94zM353 526q0 24 -1.5 45.5t-8.5 38.5t-22 27t-41 10q-22 0 -33.5 -9.5t-17 -23.5t-6 -30t-0.5 -29v-193
q0 -14 1.5 -31t7.5 -32t19 -25t36 -10q27 0 40.5 13.5t19.5 31.5t6 37.5v31.5v148z" />
    <glyph glyph-name="colon" unicode=":" horiz-adv-x="365" 
d="M99 367q0 21 8 36.5t20.5 26t27 16t28.5 5.5q34 0 59 -25t25 -59q0 -14 -5.5 -28.5t-16 -27t-26 -20.5t-36.5 -8q-35 0 -59.5 24.5t-24.5 59.5zM98 70q0 35 24.5 59.5t59.5 24.5t59.5 -24.5t24.5 -59.5t-24.5 -59.5t-59.5 -24.5t-59.5 24.5t-24.5 59.5z" />
    <glyph glyph-name="semicolon" unicode=";" 
d="M134 -156q58 41 81 71.5t23 49.5q0 13 0.5 21.5t-15.5 8.5q-9 0 -13 -1.5t-7.5 -3t-8 -3t-14.5 -1.5q-22 0 -37.5 9t-25.5 22.5t-14.5 30t-4.5 31.5q0 16 7.5 29t19.5 22.5t28 15t34 5.5q22 0 40.5 -8.5t32 -23.5t21 -35t7.5 -42q0 -20 -4.5 -45.5t-19.5 -54.5t-42 -60
t-72 -61zM107 364q0 13 5.5 28t16 27.5t26 20.5t36.5 8q35 0 59.5 -24.5t24.5 -59.5t-24.5 -59.5t-59.5 -24.5q-21 0 -36.5 8t-26 20.5t-16 27t-5.5 28.5z" />
    <glyph glyph-name="less" unicode="&#x3c;" horiz-adv-x="532" 
d="M475 595l29 -54l-367 -212l367 -212l-29 -54l-461 266z" />
    <glyph glyph-name="equal" unicode="=" horiz-adv-x="698" 
d="M649 414v-56h-600v56h600zM649 246v-56h-600v56h600z" />
    <glyph glyph-name="greater" unicode="&#x3e;" horiz-adv-x="532" 
d="M57 63l-29 54l367 212l-367 212l29 54l461 -266z" />
    <glyph glyph-name="question" unicode="?" horiz-adv-x="616" 
d="M261 212q-3 32 1.5 56.5t18.5 52.5q8 17 19 35.5t20.5 41t16 49.5t6.5 60q0 21 -5.5 44.5t-17.5 42.5t-31.5 31.5t-47.5 12.5q-16 0 -33 -5t-30.5 -13.5t-22.5 -20.5t-9 -26t3 -21.5t18 -7.5q5 0 9 1t9 1q15 0 30 -4t27 -13t19.5 -23t7.5 -34q0 -11 -4 -24t-14 -24.5
t-27 -19.5t-42 -8q-24 0 -40 10t-26 25t-14 32.5t-4 32.5q0 16 5 45t24 57.5t57 49.5t104 21q71 0 116 -19t70.5 -46.5t34.5 -57.5t9 -52q0 -12 -3.5 -31.5t-14 -41t-31.5 -42.5t-55 -35l-42.5 -19t-38 -23t-27 -31t-10.5 -45v-14h-35zM209 70q0 35 24.5 59.5t59.5 24.5
q21 0 36.5 -8t26 -20.5t16 -27.5t5.5 -28q0 -14 -5.5 -28.5t-16 -27t-26 -20.5t-36.5 -8q-35 0 -59.5 24.5t-24.5 59.5z" />
    <glyph glyph-name="at" unicode="@" horiz-adv-x="737" 
d="M517 308q-7 -23 -9.5 -36.5t-2.5 -24.5q0 -18 4.5 -28t12 -15.5t16 -7t16.5 -1.5q33 0 54 18t34 44t18 53.5t5 47.5q0 49 -18 97.5t-54 87t-91 62t-129 23.5q-65 0 -119.5 -22t-93.5 -61.5t-60.5 -94t-21.5 -119.5q0 -75 25 -131t66.5 -93.5t94 -56.5t106.5 -19
q35 0 79.5 11t92.5 48l27 -35q-11 -9 -29.5 -20.5t-43 -22.5t-56.5 -18.5t-70 -7.5q-62 0 -123 22t-110 65t-79 106t-30 145q0 63 22.5 125t66 110.5t108 79t148.5 30.5t147 -28t105 -72.5t63 -100.5t21 -112q0 -29 -7 -65t-26 -67.5t-52.5 -52.5t-85.5 -21q-12 0 -26 2
t-28.5 8t-27.5 18t-23 32q-10 -9 -23 -19.5t-29 -19.5t-34 -15t-38 -6q-23 0 -47.5 8t-44.5 25t-33 44.5t-13 65.5q0 45 15 85t40.5 69.5t58.5 47t70 17.5q29 0 62 -15t50 -49l15 37h87zM450 400q-8 36 -26 44.5t-32 8.5q-26 0 -49 -13.5t-39.5 -36.5t-26 -53t-9.5 -63
q0 -31 8.5 -48.5t19.5 -26t21.5 -10.5t15.5 -2q29 0 48 18t28 34z" />
    <glyph glyph-name="A" unicode="A" horiz-adv-x="653" 
d="M367 191h-209l-15 -43q-1 -3 -3.5 -9.5t-4.5 -14l-4 -15t-2 -11.5q0 -20 3 -33.5t12.5 -22t27.5 -13t48 -7.5v-22h-220v22q27 1 44.5 9.5t29 23t19.5 34.5t17 45l195 535h54l233 -647h61v-22h-303v22h80zM263 485l-99 -271h199z" />
    <glyph glyph-name="B" unicode="B" horiz-adv-x="716" 
d="M361 655q47 0 96.5 -4.5t90.5 -19t67.5 -41.5t26.5 -73q0 -41 -22.5 -68t-55.5 -44.5t-69.5 -26t-63.5 -12.5l1 -6q66 -13 110.5 -32.5t71.5 -43.5t38 -52t11 -57q0 -42 -15 -71.5t-38.5 -49t-54 -30.5t-61 -16.5t-58.5 -6.5t-48 -1h-346v22h84v611h-84v22h319zM344 22
q35 0 62 6t45 20t27.5 38.5t9.5 62.5v70q0 19 -3.5 42.5t-16.5 44.5t-39 35t-72 14h-77v-333h64zM351 377q23 0 45 5.5t39 17t27 30t10 45.5v66q0 33 -13.5 51.5t-32 27.5t-39.5 11t-36 2h-71v-256h71z" />
    <glyph glyph-name="C" unicode="C" horiz-adv-x="637" 
d="M609 232l-8 -232h-28q-6 21 -25 26q-5 2 -10.5 1.5t-10.5 -1.5q-18 -4 -33.5 -10.5t-35 -13t-44.5 -11.5t-61 -5q-66 0 -121 29.5t-94.5 78.5t-62 111t-22.5 127q0 74 28 136t73.5 106.5t103 69.5t116.5 25q33 0 55 -5t38.5 -11.5t30.5 -11.5t32 -5q3 0 8.5 1t10.5 4.5
t9.5 10t5.5 17.5h28l2 -225h-21q-8 39 -25 76t-42 65t-57.5 45t-71.5 17q-50 0 -79.5 -20.5t-45 -54.5t-20 -77t-4.5 -88v-138q0 -135 40 -198.5t108 -63.5q19 0 49 8t61 32t57.5 68t37.5 117h28z" />
    <glyph glyph-name="D" unicode="D" horiz-adv-x="740" 
d="M399 655q72 0 127.5 -27t94 -73t58 -106t19.5 -126q0 -64 -20.5 -122.5t-60.5 -103t-98.5 -71t-134.5 -26.5h-342v22h84v611h-84v22h357zM280 22q13 -1 25.5 -0.5t25.5 0.5q19 0 41 0.5t43.5 6t41 19.5t34 40.5t23.5 69t9 105.5v161q0 43 -4 83t-27 69t-72 45t-140 12
v-611z" />
    <glyph glyph-name="E" unicode="E" horiz-adv-x="662" 
d="M126 633h-84v22h563l8 -210h-27q-9 60 -32 97t-53 57t-63.5 27t-62.5 7h-95v-262h66q24 0 43 10t32.5 26.5t21 38t7.5 44.5h26v-262h-26q-2 63 -29.5 92t-74.5 29h-66v-327h94q47 0 86.5 17t69.5 44.5t49 62.5t24 71h28l-11 -217h-578v22h84v611z" />
    <glyph glyph-name="F" unicode="F" horiz-adv-x="627" 
d="M126 633h-84v22h563l8 -210h-27q-9 60 -32 97t-53 57t-63.5 27t-62.5 7h-95v-262h66q24 0 43 10t32.5 26.5t21 38t7.5 44.5h26v-262h-26q-2 63 -29.5 92t-74.5 29h-66v-327h84v-22h-322v22h84v611z" />
    <glyph glyph-name="G" unicode="G" horiz-adv-x="729" 
d="M701 272v-22h-70v-39q0 -46 -14.5 -81t-37.5 -60t-53 -41t-61 -25.5t-60.5 -13.5t-51.5 -4q-60 0 -114 28.5t-95.5 76t-66 110t-24.5 131.5q0 74 28 136t73.5 106.5t103.5 69.5t117 25q32 0 54 -5t39 -11.5t31.5 -11.5t31.5 -5q3 0 8 1t10 4.5t9.5 10t5.5 17.5h28l2 -225
h-21q-8 39 -24.5 76t-41.5 65t-57.5 45t-71.5 17q-50 0 -79.5 -20.5t-45 -54.5t-20.5 -77t-5 -88v-138q0 -48 5.5 -95t19.5 -84t39.5 -59.5t64.5 -22.5q14 0 34 3.5t38 16.5t30.5 38.5t12.5 70.5v113h-84v22h313z" />
    <glyph glyph-name="H" unicode="H" horiz-adv-x="792" 
d="M280 22h70v-22h-308v22h84v611h-84v22h308v-22h-70v-276h232v276h-70v22h308v-22h-84v-611h84v-22h-308v22h70v313h-232v-313z" />
    <glyph glyph-name="I" unicode="I" horiz-adv-x="406" 
d="M42 633v22h322v-22h-84v-611h84v-22h-322v22h84v611h-84z" />
    <glyph glyph-name="J" unicode="J" horiz-adv-x="501" 
d="M137 633v22h322v-22h-84v-380q0 -66 -7.5 -116t-28.5 -83.5t-59 -50.5t-99 -17q-42 0 -73 12t-52 31t-31.5 42.5t-10.5 47.5q0 42 24.5 66t56.5 24q35 0 56.5 -25t21.5 -62q0 -26 -18.5 -45t-37.5 -21q-8 -2 -19 -3t-11 -11t20.5 -19.5t44.5 -9.5q30 0 49.5 17.5
t19.5 43.5v559h-84z" />
    <glyph glyph-name="K" unicode="K" horiz-adv-x="721" 
d="M364 22v-22h-322v22h84v611h-84v22h322v-22h-84v-321l166 156q38 35 61 63t23 51q0 18 -7.5 28t-18 15.5t-22.5 6.5t-20 1v22h245v-22q-23 -4 -43.5 -13.5t-43 -26.5t-50 -42.5l-64.5 -61.5l-61 -59l228 -408h34v-22h-295v22h82l-167 298l-47 -43v-255h84z" />
    <glyph glyph-name="L" unicode="L" horiz-adv-x="624" 
d="M126 633h-84v22h322v-22h-84v-611h73q47 0 86.5 17t69.5 44.5t49 62.5t24 71h28l-11 -217h-557v22h84v611z" />
    <glyph glyph-name="M" unicode="M" horiz-adv-x="892" 
d="M604 655h246v-22h-83v-611h83v-22h-321v22h84v580l-219 -602h-20l-221 602v-452q0 -24 2.5 -47.5t10.5 -41.5t23.5 -28.5t42.5 -10.5v-22h-190v22q27 2 44 13t26.5 28.5t12.5 41t3 49.5v406q0 40 -18 55t-63 18v22h243l159 -422z" />
    <glyph glyph-name="N" unicode="N" horiz-adv-x="748" 
d="M602 237v265q0 26 -3 49t-12.5 40.5t-26.5 28.5t-44 13v22h190v-22q-26 1 -41.5 -10t-24 -29.5t-11 -41.5t-2.5 -46v-520h-34l-440 566v-402q0 -24 2.5 -47.5t11 -41.5t24 -29t41.5 -10v-22h-190v22q27 2 44 13t26.5 28.5t12.5 41t3 49.5v406q0 41 -17 55.5t-63 17.5v22
h230z" />
    <glyph glyph-name="O" unicode="O" horiz-adv-x="762" 
d="M50 327q0 80 30 143.5t78 107.5t106.5 67.5t115.5 23.5q58 0 117 -23.5t107 -67.5t78 -107.5t30 -143.5q0 -73 -27.5 -135.5t-73 -108t-105.5 -71.5t-126 -26q-58 0 -116.5 23t-106 67t-77.5 107t-30 144zM227 434q-2 -27 -2 -54v-54t0.5 -53.5t1.5 -53.5q1 -33 6.5 -70
t21 -68.5t45 -52t80.5 -20.5t81 19.5t46 50t21 68t7 73.5q1 27 1.5 53.5t0.5 53.5v54t-2 54q-3 43 -10.5 81.5t-24.5 68t-46 46.5t-74 17q-44 0 -72.5 -17t-45.5 -46t-24.5 -67.5t-10.5 -82.5z" />
    <glyph glyph-name="P" unicode="P" horiz-adv-x="696" 
d="M126 633h-84v22h316q20 0 50 -1t64 -6.5t67.5 -16.5t60.5 -31t44 -50.5t17 -74.5q0 -45 -15 -81.5t-49 -61.5t-89.5 -38.5t-135.5 -13.5h-92v-258h84v-22h-322v22h84v611zM330 302q58 0 90 11.5t46.5 31.5t17 46.5t2.5 55.5v71q0 26 -4 47.5t-19 36.5t-44 23t-79 8h-60
v-331h50z" />
    <glyph glyph-name="Q" unicode="Q" horiz-adv-x="768" 
d="M213 -69q26 29 52 42.5t50 18.5q-72 19 -122 57t-81 84.5t-45 97t-14 96.5q0 80 30 143.5t78 107.5t106.5 67.5t115.5 23.5q58 0 117 -23.5t107 -67.5t78 -107.5t30 -143.5q0 -60 -20.5 -116.5t-57 -102t-88 -76.5t-114.5 -40q31 -15 50.5 -36.5t34 -41.5t26.5 -34
t27 -14q14 0 23.5 7t9.5 19q0 5 -6 11q-6 8 -14 17t-8 23q0 26 18 44t41 18q13 0 24 -6t18.5 -15.5t11.5 -20.5t4 -20q0 -24 -20.5 -47t-52 -41t-68 -29t-69.5 -11q-32 0 -51 13.5t-39 33.5q-18 18 -31 32.5t-23 24t-18 14.5t-17 5q-10 0 -21 -3.5t-21 -8t-18 -9t-12 -7.5z
M230 434q-2 -27 -2 -54v-54v-53.5t2 -53.5q1 -33 6 -70t21 -68.5t45.5 -52t80.5 -20.5q45 0 73.5 15.5t46 43.5t25 66.5t10.5 85.5q2 27 2 53.5v53.5v54t-2 54q-3 43 -10.5 81.5t-24.5 68t-46 46.5t-74 17q-44 0 -72 -17t-45 -46t-25 -67.5t-11 -82.5z" />
    <glyph glyph-name="R" unicode="R" horiz-adv-x="747" 
d="M364 22v-22h-322v22h84v611h-84v22h344q35 0 82.5 -3t90.5 -18t73 -45.5t30 -85.5q0 -41 -18 -69t-47.5 -46t-68 -28t-80.5 -14v-9q71 -8 115 -28.5t64 -62.5q11 -23 13.5 -60t6.5 -72t15 -60t38 -25q8 0 15.5 2.5t12.5 5.5l11 -20q-23 -16 -53 -23.5t-56 -7.5
q-42 0 -68 9.5t-41.5 30.5t-23 53.5t-12.5 79.5q-5 41 -8.5 73t-14 54t-32 33.5t-62.5 11.5h-88v-309h84zM349 353q19 0 43 2t44.5 13t34.5 33.5t14 64.5v58q0 17 -3.5 36.5t-17 35.5t-39.5 26.5t-72 10.5h-73v-280h69z" />
    <glyph glyph-name="S" unicode="S" horiz-adv-x="576" 
d="M42 233h26q12 -50 35 -90t53 -68t65.5 -42.5t72.5 -14.5q48 0 77 12t44 28.5t20 34t5 29.5q0 28 -11 48t-28.5 34t-39 24t-42.5 18l-119 47q-20 8 -44.5 21.5t-45.5 35.5t-35.5 53.5t-14.5 75.5q0 35 12.5 69t38.5 61t65.5 43.5t93.5 16.5q27 0 45.5 -4t33 -9.5t26 -11
t23.5 -7.5q8 -2 16 0t17.5 7.5t14.5 10.5h36v-186h-23q-20 59 -47 92.5t-54 50.5t-50 21.5t-35 4.5q-63 0 -94 -19.5t-31 -51.5q0 -28 9 -47t23.5 -32t32.5 -21.5t35 -15.5l142 -56q45 -18 73 -41.5t43.5 -49.5t21.5 -52.5t6 -49.5q0 -41 -15 -80t-44.5 -69t-74 -48.5
t-102.5 -18.5q-42 0 -58 6t-26 13t-25.5 13t-55.5 6q-11 0 -26.5 -3.5t-25.5 -20.5h-35z" />
    <glyph glyph-name="T" unicode="T" horiz-adv-x="651" 
d="M164 0v22h84v611q-7 1 -13 1h-13q-40 0 -70.5 -18t-52 -45.5t-34 -61.5t-15.5 -66h-28l6 212h595l6 -212h-28q-10 50 -26 83.5t-35.5 55t-40.5 32.5t-39.5 15.5t-34 4.5t-23.5 -1v-611h84v-22h-322z" />
    <glyph glyph-name="U" unicode="U" horiz-adv-x="735" 
d="M280 140q0 -16 5 -36t20 -37.5t42.5 -29.5t72.5 -12q61 0 95 22t50.5 52.5t20.5 62t4 50.5v290q0 26 -3 49t-12.5 41t-26.5 28.5t-45 12.5v22h190v-22q-25 1 -40.5 -10t-23.5 -27t-11 -34.5t-3 -31.5v-329q0 -51 -14 -87t-36 -60t-48.5 -37.5t-52.5 -20.5t-47.5 -8.5
t-32.5 -1.5q-61 0 -104.5 11t-72 29t-45 41.5t-24.5 49t-10 51.5t-2 48v417h-84v22h322v-22h-84v-493z" />
    <glyph glyph-name="V" unicode="V" horiz-adv-x="675" 
d="M532 514q6 19 7 35.5t1 30.5q0 21 -10.5 32t-24 16t-28 5.5t-21.5 -0.5v22h205v-22q-25 -1 -41.5 -12t-27.5 -28t-18.5 -38.5t-14.5 -44.5l-170 -510h-64l-237 633h-74v22h311v-22h-77l173 -463z" />
    <glyph glyph-name="W" unicode="W" horiz-adv-x="1047" 
d="M14 655h306v-22h-75l155 -450l102 283l-53 167h-60v22h312v-22h-80l155 -450l97 271q11 31 17.5 52.5t9.5 35t3.5 21t0.5 10.5q0 20 -7.5 31.5t-20 17.5t-29.5 8t-36 3v22h222v-22q-26 -8 -43.5 -22.5t-29.5 -33t-20 -39.5l-16 -43l-181 -495h-79l-144 414l-152 -414h-79
l-218 633h-57v22z" />
    <glyph glyph-name="X" unicode="X" horiz-adv-x="743" 
d="M461 507q3 4 8 12t10 17.5t8.5 19.5t3.5 19q0 7 -2 17.5t-9 19.5t-21 15t-38 6v22h235v-22q-27 1 -49.5 -7.5t-41.5 -24.5t-36 -38t-34 -48l-81 -122l242 -371h65v-22h-307v22h60l-163 246l-85 -121l-9.5 -14t-10 -16.5t-7.5 -16t-3 -12.5q0 -40 19.5 -53t66.5 -13v-22
h-251v22q27 1 47 8t37.5 20t33.5 33t35 47l112 160l-228 343h-46v22h308v-22h-74l143 -217z" />
    <glyph glyph-name="Y" unicode="Y" horiz-adv-x="681" 
d="M69 633h-55v22h314v-22h-78l170 -277l76 130q9 15 21 32.5t12 38.5q0 28 -7.5 43.5t-18.5 23t-22.5 8.5t-20.5 1v22h207v-22q-16 -6 -34.5 -18.5t-45.5 -45.5t-65.5 -94.5t-95.5 -164.5v-288h84v-22h-322v22h84v280z" />
    <glyph glyph-name="Z" unicode="Z" horiz-adv-x="668" 
d="M602 0h-560l385 633h-94q-44 0 -79.5 -17t-62.5 -45t-45 -65t-27 -76h-29l12 225h524l-384 -633h70q32 0 73.5 10.5t82 36t75 67.5t52.5 105h28z" />
    <glyph glyph-name="bracketleft" unicode="[" horiz-adv-x="440" 
d="M370 -203v-28h-202v886h202v-28h-78v-830h78z" />
    <glyph glyph-name="backslash" unicode="\" horiz-adv-x="488" 
d="M28 655h57l375 -886h-56z" />
    <glyph glyph-name="bracketright" unicode="]" horiz-adv-x="440" 
d="M148 627h-78v28h202v-886h-202v28h78v830z" />
    <glyph glyph-name="asciicircum" unicode="^" horiz-adv-x="364" 
d="M101 493h-84l165 165l165 -165h-84l-81 81z" />
    <glyph glyph-name="underscore" unicode="_" horiz-adv-x="532" 
d="M0 -140h532v-56h-532v56z" />
    <glyph glyph-name="grave" unicode="`" horiz-adv-x="300" 
d="M266 501h-27l-205 157h171z" />
    <glyph glyph-name="a" unicode="a" horiz-adv-x="525" 
d="M525 45q-17 -21 -34 -32.5t-33 -17.5t-30 -7.5t-25 -1.5q-26 0 -54 20t-38 52q-30 -37 -70 -54.5t-80 -17.5q-32 0 -57 9.5t-42.5 26t-27 38.5t-9.5 46q0 46 25.5 73t66.5 41t92 19t102 7v116q0 7 -1.5 18.5t-8.5 23t-21 19.5t-39 8q-45 0 -63 -11.5t-18 -21.5
q0 -11 7.5 -19l15.5 -16q7 -8 11.5 -18t4.5 -22q0 -27 -19 -44.5t-45 -17.5q-32 0 -51 20t-19 48q0 19 11 40.5t36 39.5t65 30t98 12q63 0 98 -10t52.5 -24t21.5 -29.5t4 -26.5v-274q0 -5 -0.5 -13.5t0.5 -16.5t3 -13.5t8 -5.5q11 0 24.5 3t24.5 17zM311 229
q-48 -2 -74.5 -13.5t-39 -28t-15.5 -35.5t-3 -37q0 -12 1 -26t6 -25.5t16 -19t31 -7.5t38.5 10t39.5 30v152z" />
    <glyph glyph-name="b" unicode="b" horiz-adv-x="553" 
d="M208 0h-189v20h49v604h-51v20h107q30 0 49 4t35 10v-282q4 16 15.5 30t27 24t34 15.5t38.5 5.5q38 0 75 -16.5t66.5 -47t48 -73.5t18.5 -95q0 -45 -13 -87t-38 -74.5t-61.5 -52t-83.5 -19.5q-15 0 -32.5 2t-35 10t-33 24.5t-26.5 45.5v-68zM377 281q0 41 -6.5 68
t-17.5 43t-24.5 22.5t-28.5 6.5q-11 0 -26 -4t-29.5 -19t-24.5 -44.5t-10 -79.5v-58q0 -31 3 -67t12.5 -67t27.5 -51.5t48 -20.5q27 0 42 16t22.5 40t9.5 52.5t2 53.5v109z" />
    <glyph glyph-name="c" unicode="c" horiz-adv-x="460" 
d="M438 127q-17 -48 -39.5 -76t-47 -42.5t-48.5 -18.5t-44 -4q-55 0 -99 19.5t-74.5 51t-47 72t-16.5 81.5q0 48 18 91.5t50 77t75.5 53t94.5 19.5q30 0 58 -10.5t50.5 -28.5t36 -42t13.5 -51q0 -35 -20 -56t-51 -21q-30 0 -46.5 22.5t-16.5 53.5q0 19 10.5 28t18.5 22
q2 4 4 7.5t2 8.5q0 21 -16.5 36.5t-50.5 15.5q-25 0 -40 -10.5t-23 -27.5t-10.5 -39.5t-2.5 -47.5v-157q0 -26 2.5 -52t11.5 -48t27 -35.5t49 -13.5q20 0 40.5 5t40 19.5t38 39.5t35.5 65z" />
    <glyph glyph-name="d" unicode="d" horiz-adv-x="551" 
d="M294 624v20h107q30 0 49 4t35 10v-638h49v-20h-189v68q-12 -29 -27.5 -45.5t-32.5 -24.5t-34 -10t-33 -2q-41 0 -76.5 17.5t-62 48t-42 73.5t-15.5 94q0 53 17.5 96t46.5 73t66 46.5t76 16.5q34 0 68.5 -18.5t48.5 -56.5v248h-51zM176 151q0 -45 7.5 -72.5t19 -42.5
t24.5 -20.5t24 -5.5q19 0 35.5 9.5t29 33.5t20 63.5t7.5 99.5v58q0 50 -10.5 79t-25 44t-30 19.5t-25.5 4.5q-11 0 -24.5 -6t-25 -19.5t-19 -37t-7.5 -57.5v-150z" />
    <glyph glyph-name="e" unicode="e" horiz-adv-x="470" 
d="M440 102q-14 -23 -31 -43.5t-38.5 -37t-47.5 -26t-57 -9.5q-49 0 -93.5 18t-78 49.5t-53 74t-19.5 92.5q0 47 17.5 89t47 73.5t68 50t79.5 18.5q45 0 84 -16.5t67.5 -45t45 -68.5t17.5 -86h-272v-91q0 -76 23.5 -107t69.5 -31q26 0 48.5 8.5t42 23.5t35.5 34.5t29 40.5z
M309 254v47q0 25 -2.5 48.5t-9.5 41.5t-20.5 29t-35.5 11t-35 -8t-19.5 -23t-8.5 -35.5t-2 -45.5v-65h133z" />
    <glyph glyph-name="f" unicode="f" horiz-adv-x="330" 
d="M20 398v19h61v24q0 65 13.5 107t36.5 66.5t52 34t61 9.5q45 0 72.5 -9.5t43 -24t21 -30.5t5.5 -29q0 -17 -16 -35t-48 -18q-26 0 -41.5 17.5t-15.5 39.5q0 17 7.5 26l16.5 20q6 8 6 13q0 6 -13.5 8t-24.5 2q-7 0 -15.5 -2.5t-16 -9.5t-12.5 -18.5t-5 -30.5q0 -17 3 -35
q2 -10 3.5 -16.5t3 -15.5t2.5 -22.5t1 -38.5v-32h89v-19h-89v-378h49v-20h-238v20h49v378h-61z" />
    <glyph glyph-name="g" unicode="g" horiz-adv-x="475" 
d="M162 -34q-17 0 -42 2t-48 13t-39 33.5t-16 61.5q0 37 20 68t52 49q-29 22 -43.5 48t-14.5 63q0 68 52 107.5t145 39.5q25 0 47.5 -2t47.5 -8q14 29 35.5 51t56.5 22q26 0 43 -15.5t17 -43.5q0 -2 -1 -8.5t-5.5 -13.5t-13 -12.5t-23.5 -5.5q-18 0 -24.5 6t-9.5 12.5
t-7.5 12.5t-19.5 6q-5 0 -10.5 -6t-9.5 -14q40 -18 64 -44t24 -68q0 -32 -10.5 -61t-34 -51.5t-61.5 -35.5t-93 -13q-31 0 -60 3t-67 17q-11 -8 -19.5 -20t-8.5 -23q0 -13 13 -27t51 -13l150 4h44t58 -9t50.5 -31.5t21.5 -65.5q0 -38 -16.5 -75t-49.5 -66t-82 -47t-113 -18
q-58 0 -94.5 9.5t-56.5 24.5t-27.5 33.5t-7.5 36.5q0 16 6.5 27.5t15.5 18.5t19.5 10.5t19.5 3.5q11 0 25 -4t28 -18q-14 -11 -20 -26t-6 -29q0 -5 3 -15t14 -19.5t31 -17t55 -7.5q18 0 47.5 4t57.5 15t48 29.5t20 47.5q0 25 -16 41.5t-43 15.5zM190 262q0 -26 3.5 -41
t9.5 -23.5t14.5 -11t19.5 -2.5q4 0 11 1t14.5 7.5t13 19.5t5.5 37v108q0 10 -1.5 22t-7 22.5t-14.5 17.5t-24 7t-24 -5.5t-13.5 -14.5t-5.5 -19.5t-1 -20.5v-104z" />
    <glyph glyph-name="h" unicode="h" horiz-adv-x="551" 
d="M208 366q28 42 69 63.5t81 21.5q45 0 70.5 -13.5t38 -33.5t15.5 -42t3 -39v-303h49v-20h-231v20h42v271q0 56 -10 78.5t-41 22.5q-19 0 -34.5 -8.5t-27 -22t-18 -30.5t-6.5 -33v-278h42v-20h-231v20h49v604h-51v20h107q30 0 49 4t35 10v-292z" />
    <glyph glyph-name="i" unicode="i" horiz-adv-x="276" 
d="M20 417v20h106q27 0 46.5 3t37.5 11v-431h49v-20h-238v20h49v397h-50zM66 588q0 29 20.5 49.5t49.5 20.5t49.5 -20.5t20.5 -49.5t-20.5 -49.5t-49.5 -20.5t-49.5 20.5t-20.5 49.5z" />
    <glyph glyph-name="j" unicode="j" horiz-adv-x="317" 
d="M42 417v20h121q30 0 49 4t35 10v-405q0 -117 -42 -182t-130 -65q-23 0 -46 4.5t-42 15t-31 28t-12 43.5q0 37 19.5 55t44.5 18q26 0 43.5 -18t17.5 -40q0 -9 -3 -16q-4 -12 -9 -16t-9 -6.5t-7 -6.5t-3 -15q0 -6 3 -14t18 -10q6 -2 13 0q16 2 27.5 16t13.5 41
q1 8 0.5 15.5t-0.5 15.5q-1 18 -2 30.5t-2 23t-1.5 21t-0.5 24.5v409h-65zM95 588q0 10 4.5 22.5t13 23t21.5 17.5t31 7q29 0 49.5 -20t20.5 -50t-20.5 -50t-49.5 -20q-18 0 -31 7t-21.5 17.5t-13 22.5t-4.5 23z" />
    <glyph glyph-name="k" unicode="k" horiz-adv-x="538" 
d="M17 624v20h107q30 0 49 4t35 10v-444l95 96q12 12 23.5 27.5t11.5 35.5q0 13 -8 22t-19.5 14t-25 6.5t-24.5 1.5v20h235v-20h-14q-26 0 -48.5 -17.5t-40.5 -34.5l-61 -57l180 -288h19v-20h-209v20h19l-112 179l-21 -20v-159h42v-20h-231v20h49v604h-51z" />
    <glyph glyph-name="l" unicode="l" horiz-adv-x="274" 
d="M17 624v20h107q30 0 49 4t35 10v-638h49v-20h-238v20h49v604h-51z" />
    <glyph glyph-name="m" unicode="m" horiz-adv-x="830" 
d="M210 366q24 35 62 60t88 25q22 0 42.5 -4.5t37.5 -15t28.5 -27.5t16.5 -42q7 11 20.5 26.5t33 29.5t44 23.5t54.5 9.5q46 0 71.5 -13.5t38 -33.5t15 -42t2.5 -39v-303h49v-20h-231v20h42v271q0 57 -10 79t-40 22q-19 0 -35 -8.5t-27.5 -22t-18 -30.5t-6.5 -33v-278h42
v-20h-224v20h42v271q0 57 -10 79t-40 22q-19 0 -35 -8.5t-27.5 -22t-18 -30.5t-6.5 -33v-278h42v-20h-231v20h49v397h-50v20h106q27 0 46.5 3t37.5 11v-85z" />
    <glyph glyph-name="n" unicode="n" horiz-adv-x="554" 
d="M211 366q26 38 65.5 61.5t84.5 23.5q46 0 71.5 -13.5t38 -33.5t15 -42t2.5 -39v-303h49v-20h-231v20h42v271q0 57 -10 79t-40 22q-19 0 -35 -9t-27.5 -22.5t-18 -30t-6.5 -32.5v-278h43v-20h-234v20h51v397h-51v20h108q30 0 49 4t34 10v-85z" />
    <glyph glyph-name="o" unicode="o" horiz-adv-x="499" 
d="M22 218q0 55 21 98t54 73t73.5 46t78.5 16q37 0 77.5 -16t74 -46t55 -73.5t21.5 -97.5t-21.5 -97t-54.5 -73t-73.5 -46t-78.5 -16q-37 0 -77 16t-73.5 46t-55 73t-21.5 97zM176 126q0 -23 2 -44.5t9.5 -38.5t22 -27t39.5 -10t40 10.5t22.5 27t9.5 38t2 44.5v184
q0 23 -2 45t-9.5 39t-22.5 27t-40 10t-39.5 -10t-22 -27t-9.5 -38.5t-2 -45.5v-184z" />
    <glyph glyph-name="p" unicode="p" horiz-adv-x="552" 
d="M18 -209v20h49v606h-50v20h106q27 0 46.5 3t37.5 11v-83q12 35 43.5 59t83.5 24q49 0 86 -21t61.5 -54.5t36.5 -75t12 -82.5q0 -62 -21.5 -106t-53 -72t-67.5 -41t-64 -13q-35 0 -67.5 16.5t-49.5 57.5v-249h49v-20h-238zM376 286q0 44 -7.5 71.5t-19 42.5t-24.5 20.5
t-24 5.5q-19 0 -35.5 -9.5t-29 -33t-20 -63t-7.5 -99.5v-58q0 -50 10 -79t24.5 -44t30 -19.5t26.5 -4.5q24 0 39 12.5t23.5 33t11 45.5t2.5 49v130z" />
    <glyph glyph-name="q" unicode="q" horiz-adv-x="552" 
d="M345 451q18 -8 37.5 -11t46.5 -3h106v-20h-50v-605h49v-19h-238v19h49v248q-13 -32 -43 -53t-74 -21q-28 0 -64 13t-67.5 41t-53 72t-21.5 106q0 41 12 82.5t36.5 75t61.5 54.5t86 21q8 0 24.5 -1t35 -8.5t37 -24.5t30.5 -49v83zM176 136q0 -35 7.5 -58t19 -37t25 -19.5
t24.5 -5.5q10 0 25.5 4.5t30 19.5t25 44t10.5 79v58q0 60 -7.5 99.5t-20 63t-29 33t-35.5 9.5q-11 0 -24 -5.5t-24.5 -20.5t-19 -42.5t-7.5 -71.5v-150z" />
    <glyph glyph-name="r" unicode="r" horiz-adv-x="431" 
d="M20 417v20h107q30 0 49 4t35 10v-57h1q17 28 47.5 42.5t66.5 14.5q40 0 63 -12t33.5 -28t13 -31t2.5 -21q0 -36 -21.5 -57.5t-54.5 -21.5q-10 0 -21.5 3t-21 10.5t-16 19.5t-6.5 30q0 8 1 20t8 25q4 8 8.5 15.5t4.5 14.5q0 8 -8 9t-14 1q-22 0 -38.5 -12.5t-27 -32.5
t-15.5 -47t-5 -55v-261h49v-20h-238v20h49v397h-51z" />
    <glyph glyph-name="s" unicode="s" horiz-adv-x="403" 
d="M22 165h25q5 -32 19 -60t35.5 -49t49 -33t58.5 -12q28 0 46 6t28.5 15.5t14.5 21t4 21.5q0 20 -8.5 33.5t-21 22.5t-28.5 14.5t-31 9.5l-91 26q-10 3 -26 10.5t-31 23.5t-25.5 41.5t-10.5 63.5q0 41 17.5 66.5t42.5 40t53.5 19.5t49.5 5q24 0 35.5 -4.5t20 -10t19.5 -10
t34 -4.5q16 0 23.5 7t9.5 15h20v-135h-19q-10 35 -27.5 58.5t-38 37.5t-41.5 19.5t-37 5.5q-45 0 -66.5 -17t-21.5 -36t7.5 -31.5t19 -21t25 -13.5t24.5 -8l95 -26q12 -3 30.5 -10.5t35.5 -23t29 -40.5t12 -64q0 -43 -16.5 -72.5t-42.5 -47.5t-58 -25.5t-63 -7.5
q-25 0 -42.5 5t-30.5 11q-18 8 -29.5 15t-23.5 7q-14 0 -21 -9.5t-7 -21.5h-25v172z" />
    <glyph glyph-name="t" unicode="t" horiz-adv-x="314" 
d="M211 610v-173h83v-20h-83v-319q0 -8 0.5 -17.5t4 -18.5t11.5 -15t24 -6q2 0 11.5 1t20.5 7l11 -19q-35 -29 -66.5 -36.5t-51.5 -7.5q-39 0 -60 12t-31 28.5t-12 33.5t-2 27v330h-51v20h51v136z" />
    <glyph glyph-name="u" unicode="u" horiz-adv-x="557" 
d="M351 417h-51v20h107q30 0 49 4t35 10v-431h49v-20h-189v74q-20 -29 -44.5 -46.5t-48 -26.5t-44 -12t-32.5 -3h-22q-40 2 -66 25.5t-26 65.5v340h-51v20h107q30 0 49 4t35 10v-358q0 -29 15 -42.5t35 -13.5q15 0 31.5 7t30 19.5t22.5 29t9 34.5v290z" />
    <glyph glyph-name="v" unicode="v" horiz-adv-x="484" 
d="M251 437v-20h-53l109 -268l65 171q4 10 7 19.5t5 18.5q2 11 0 22q-1 5 -3.5 11t-8.5 12t-16.5 10t-27.5 4v20h156v-20q-19 -3 -31 -10.5t-21 -20t-16 -29t-15 -37.5l-125 -320h-58l-168 417h-50v20h251z" />
    <glyph glyph-name="w" unicode="w" horiz-adv-x="748" 
d="M241 437v-20h-48l125 -271l56 136l-56 135h-35v20h228v-20h-51l110 -271l60 140q12 28 15.5 45.5t3.5 28.5q0 27 -18 43t-45 14v20h162v-20q-33 -19 -49 -43t-32 -62l-130 -312h-42l-111 252l-101 -252h-42l-193 417h-48v20h241z" />
    <glyph glyph-name="x" unicode="x" horiz-adv-x="527" 
d="M51 417h-43v20h254v-20h-48l91 -144l51 69q9 13 13 20.5t6 12.5q2 6 2 12.5t-2 11.5q-6 14 -19.5 16t-24.5 2h-11v20h172v-20q-35 0 -53 -14t-37 -39l-82 -108l149 -236h50v-20h-273v20h57l-90 145l-75 -96q-11 -14 -9.5 -23.5t9.5 -15t20 -8t22 -2.5h15v-20h-187v20h15
q24 0 46.5 13t36.5 30l94 117z" />
    <glyph glyph-name="y" unicode="y" horiz-adv-x="495" 
d="M40 417h-40v20h243v-20h-53l135 -289l67 203q9 27 6.5 43.5t-12.5 26t-24 13t-28 3.5h-15v20h204v-20h-13q-23 0 -39 -7.5t-26.5 -19.5t-17.5 -27t-12 -30l-113 -345q-20 -62 -42 -100.5t-44.5 -59.5t-45.5 -28.5t-46 -7.5q-24 0 -44.5 8.5t-35 22t-23 31t-8.5 36.5t7 33
t18.5 23t25 13.5t26.5 4.5q23 0 41.5 -15t18.5 -44q0 -18 -6 -29l-11 -20q-5 -12 -5 -21q0 -5 4.5 -11t16.5 -6q10 0 22 4t26 17t29.5 36.5t32.5 61.5z" />
    <glyph glyph-name="z" unicode="z" horiz-adv-x="441" 
d="M43 437h371l-227 -417h40q40 0 69.5 12.5t50.5 34t34.5 51t21.5 63.5h21l-9 -181h-401l226 417q-75 5 -122.5 -33t-64.5 -127h-20z" />
    <glyph glyph-name="braceleft" unicode="{" horiz-adv-x="381" 
d="M328 694q-12 -2 -26 -8t-25 -17t-18.5 -28t-7.5 -42q0 -22 1.5 -44.5l3.5 -54.5q1 -27 0 -54q-4 -68 -31 -111t-90 -75q63 -30 90 -74t31 -111q1 -27 0 -54l-3.5 -54.5t-1.5 -44.5q0 -33 20 -61.5t57 -33.5l-5 -34q-23 -2 -53.5 4.5t-58 27.5t-46.5 61t-19 107
q0 18 1.5 36t1.5 37q0 59 -11 93.5t-26.5 52t-31 22.5t-24.5 6v41q13 1 29 8t30.5 25.5t24 52t9.5 88.5q0 19 -1.5 37t-1.5 36q0 67 19 107t46.5 61t58 27t53.5 5z" />
    <glyph glyph-name="bar" unicode="|" horiz-adv-x="518" 
d="M231 829h56v-1053h-56v1053z" />
    <glyph glyph-name="braceright" unicode="}" horiz-adv-x="381" 
d="M56 -173q12 2 26 8t25 17t18.5 28t7.5 42q0 22 -1.5 44.5l-3.5 54.5q-2 27 0 54q4 68 31 111t90 75q-63 30 -90 74t-31 111q-2 27 0 54l3.5 54.5t1.5 44.5q0 33 -20 61.5t-57 33.5l5 34q23 1 53.5 -5t58 -27t46.5 -61t19 -107q0 -18 -1.5 -36t-1.5 -37q0 -59 11 -93.5
t26.5 -52t31 -22.5t24.5 -6v-41q-13 -1 -29 -8t-30.5 -25.5t-24 -52t-9.5 -88.5q0 -19 1.5 -37t1.5 -36q0 -67 -19 -107t-46.5 -61t-58 -27.5t-53.5 -4.5z" />
    <glyph glyph-name="asciitilde" unicode="~" horiz-adv-x="527" 
d="M485 384q-13 -37 -30 -59.5t-34 -34.5t-34 -15.5t-30 -3.5q-29 0 -55.5 4.5t-52.5 10.5l-22.5 5l-28 6t-29 5t-24.5 2q-7 0 -14.5 -0.5t-16 -4t-17.5 -11.5t-18 -23h-23q13 39 27.5 62.5t29 35.5t28.5 16t27 4q9 0 41 -2t100 -16q32 -7 56.5 -11t44.5 -4q10 0 24 5.5
t28 28.5h23z" />
    <glyph glyph-name="afii10051" unicode="&#x402;" horiz-adv-x="882" 
d="M262 633q-11 1 -20.5 1h-20.5q-44 0 -75 -18.5t-51 -46t-31 -59.5t-14 -59h-28l6 204h623l6 -204h-28q-12 60 -34.5 97t-51.5 57t-62 25.5t-65 2.5v-292l23.5 11.5t38 14.5t51 12t63.5 5q80 0 132 -21t82 -51.5t42 -66t12 -64.5q0 -42 -19.5 -78t-50 -62t-68 -40.5
t-74.5 -14.5q-45 0 -73.5 14.5t-45.5 35.5t-23.5 44t-6.5 41q0 10 3 22.5t10.5 23t20 17.5t30.5 7q27 0 47 -14.5t20 -40.5q0 -30 -15 -46.5t-37 -18.5q-5 -1 -13.5 -1.5t-11.5 -5.5q-2 -3 0 -10q3 -11 14.5 -20.5t33.5 -11.5q11 -2 22 0q24 4 37 25.5t18.5 46.5t6 47
t0.5 28q0 30 -4.5 63t-18.5 60t-41 44.5t-73 17.5q-26 0 -63 -7.5t-69 -33.5v-291h70v-22h-308v22h84v611z" />
    <glyph glyph-name="afii10052" unicode="&#x403;" horiz-adv-x="581" 
d="M546 445q-11 45 -24 80t-33.5 59t-50.5 36.5t-74 12.5h-84v-611h84v-22h-322v22h84v611h-84v22h527l5 -210h-28zM481 844l-205 -157h-27l61 157h171z" />
    <glyph glyph-name="quotesinglbase" unicode="&#x201a;" 
d="M134 -156q58 41 81 71.5t23 49.5q0 13 0.5 21.5t-15.5 8.5q-5 0 -9 -1.5l-9 -3.5q-11 -4 -25 -4q-22 0 -37.5 9t-25.5 22.5t-14.5 30t-4.5 31.5q0 18 8.5 32t22 23t29 13.5t29.5 4.5q18 0 36 -7t32.5 -20.5t23.5 -34.5t9 -48q0 -20 -4.5 -45.5t-19.5 -54.5t-42 -60
t-72 -61z" />
    <glyph glyph-name="afii10100" unicode="&#x453;" horiz-adv-x="418" 
d="M69 417h-49v20h383l7 -170h-25q-5 27 -16 54t-28 48t-41.5 34.5t-56.5 13.5h-34v-397h49v-20h-238v20h49v397zM368 658l-205 -157h-27l61 157h171z" />
    <glyph glyph-name="quotedblbase" unicode="&#x201e;" horiz-adv-x="650" 
d="M397 -156l36.5 26t33.5 27.5t24.5 31t9.5 36.5q0 14 0.5 22t-14.5 8q-9 0 -13 -1.5t-7.5 -3t-8.5 -3t-15 -1.5q-34 0 -57.5 24.5t-23.5 67.5q0 18 8.5 32t21 23.5t28.5 14t31 4.5q13 0 30.5 -5t33 -18t26.5 -34t11 -53q0 -25 -7 -53t-23 -57t-42.5 -57.5t-66.5 -53.5z
M134 -156q58 41 81 71.5t23 49.5q0 13 0.5 21.5t-15.5 8.5q-9 0 -13 -1.5t-7.5 -3t-8 -3t-14.5 -1.5q-22 0 -37.5 9t-25.5 22.5t-14.5 30t-4.5 31.5q0 18 8.5 32t22 23t29 13.5t29.5 4.5t31.5 -5t33 -18t26 -34t10.5 -53q0 -20 -4.5 -45.5t-19.5 -54.5t-42 -60t-72 -61z" />
    <glyph glyph-name="ellipsis" unicode="&#x2026;" horiz-adv-x="1092" 
d="M98 70q0 35 24.5 59.5t59.5 24.5t59.5 -24.5t24.5 -59.5t-24.5 -59.5t-59.5 -24.5t-59.5 24.5t-24.5 59.5zM462 70q0 35 24.5 59.5t59.5 24.5t59.5 -24.5t24.5 -59.5t-24.5 -59.5t-59.5 -24.5t-59.5 24.5t-24.5 59.5zM826 70q0 35 24.5 59.5t59.5 24.5t59.5 -24.5
t24.5 -59.5t-24.5 -59.5t-59.5 -24.5t-59.5 24.5t-24.5 59.5z" />
    <glyph glyph-name="dagger" unicode="&#x2020;" horiz-adv-x="611" 
d="M302 672q12 0 26 -4.5t25 -14.5t18.5 -25t7.5 -36q0 -29 -8 -48.5t-18.5 -39.5t-20.5 -45.5t-14 -66.5q28 2 45 7.5t27.5 13t18.5 16t18 15t26 11t43 4.5q15 0 28.5 -7t23.5 -19t15.5 -27.5t5.5 -33.5q0 -16 -6.5 -29.5t-17 -23t-24 -15t-26.5 -5.5q-20 0 -39.5 10
t-42.5 23q-22 13 -42.5 21t-52.5 8v-28.5t3 -53t9.5 -82t18.5 -114.5q4 -23 10.5 -53t12.5 -60.5t10.5 -60t4.5 -50.5q0 -42 -24.5 -64t-56.5 -22q-13 0 -27 4.5t-26 15t-19.5 27.5t-7.5 41q0 34 10 87.5l25 135.5q9 47 14.5 86.5t9 74t5 64t1.5 57.5q-32 -5 -56.5 -16.5
t-44.5 -23l-37 -20.5t-35 -9q-20 0 -34.5 7.5t-23.5 19t-13.5 25t-4.5 25.5q0 35 23 58t55 23q20 0 39.5 -10.5t37.5 -21.5q22 -13 43.5 -21t50.5 -10q-2 35 -11 61t-19 47q-14 29 -23.5 50.5t-9.5 39.5q0 13 4.5 27.5t13.5 26.5t23 20t33 8z" />
    <glyph glyph-name="circumflex" unicode="&#x2c6;" horiz-adv-x="322" 
d="M44 510h-43l120 162h80l120 -162h-42l-118 89z" />
    <glyph glyph-name="perthousand" unicode="&#x2030;" horiz-adv-x="1181" 
d="M325 510q0 -35 -12.5 -64t-34.5 -50t-52 -33t-65 -12q-30 0 -58.5 10.5t-51.5 31t-37 50t-14 67.5q0 31 11.5 59.5t32.5 51t50.5 36t66.5 13.5q34 0 64 -12t52.5 -33.5t35 -51t12.5 -63.5zM213 588q0 40 -16 53t-35 13q-18 0 -34 -13t-16 -53v-155q0 -9 1.5 -20.5
t6.5 -21.5t15 -17t27 -7q19 0 35 12.5t16 53.5v155zM90 -67l477 803l26 -15l-476 -803zM685 146q0 -38 -13.5 -67.5t-36 -49.5t-52.5 -31t-62 -11q-39 0 -69.5 14.5t-50.5 37t-30.5 51t-10.5 56.5t10.5 56.5t30.5 51t50.5 37t69.5 14.5q35 0 65 -12t52 -33t34.5 -50
t12.5 -64zM573 223q0 8 -1 19.5t-5.5 22t-15 17.5t-28.5 7q-28 0 -39.5 -17t-11.5 -49v-155q0 -9 1.5 -20.5t6.5 -21t15 -16.5t28 -7q16 0 26 6.5t15 16t7 21t2 21.5v155zM1097 146q0 -38 -14 -67.5t-37 -49.5t-53 -31t-63 -11q-39 0 -69.5 14t-50.5 37t-30.5 51t-10.5 57
q0 28 10.5 56.5t30.5 51t50.5 37t69.5 14.5q35 0 65.5 -12t53 -33t35.5 -50t13 -64zM985 222q0 31 -13.5 49t-39.5 18q-28 0 -39.5 -17.5t-11.5 -49.5v-155q0 -9 1.5 -20t6.5 -20.5t15 -16.5t28 -7q25 0 39 19t14 45v155z" />
    <glyph glyph-name="afii10058" unicode="&#x409;" horiz-adv-x="986" 
d="M124 655h582v-22h-84v-259h42q51 0 103.5 -9t95 -31t69 -58.5t26.5 -91.5q0 -62 -28 -98.5t-69.5 -55.5t-90 -24.5t-89.5 -5.5h-297v22h84v611h-92q-51 0 -74.5 -15.5t-31 -47.5t-6 -80.5t-0.5 -114.5q-2 -46 -1 -92.5t-0.5 -90t-7 -81t-19.5 -65.5t-38.5 -44t-64.5 -16
q-31 0 -53 11t-36 28t-20.5 37.5t-6.5 40.5q0 32 22.5 55t61.5 23q33 0 53.5 -21t20.5 -53q0 -20 -5 -31t-10 -18l-12.5 -14t-5.5 -12q0 -5 2.5 -10t7.5 -5q7 0 18 -0.5t22.5 8t22 29.5t15.5 65q2 14 3.5 44t3 68.5t2.5 81.5t1.5 82.5t1 72t0.5 49.5q0 39 -7 62t-19.5 35
t-30 15.5t-39.5 3.5h-22v22zM658 22q46 0 71.5 12t37.5 30.5t14 40.5t2 43v78q0 38 -7.5 62.5t-22.5 38.5t-37.5 19.5t-51.5 5.5h-42v-330h36z" />
    <glyph glyph-name="afii10059" unicode="&#x40a;" horiz-adv-x="1030" 
d="M280 22h70v-22h-308v22h84v611h-84v22h308v-22h-70v-276h232v276h-70v22h308v-22h-84v-259h42q51 0 103.5 -9t95 -31t69 -58.5t26.5 -91.5q0 -62 -28 -98.5t-69.5 -55.5t-90 -24.5t-89.5 -5.5h-283v22h70v313h-232v-313zM702 22q46 0 71.5 12t37.5 30.5t14 40.5t2 43v78
q0 46 -11 71.5t-28.5 37.5t-38.5 14.5t-41 2.5h-42v-330h36z" />
    <glyph glyph-name="afii10061" unicode="&#x40c;" horiz-adv-x="724" 
d="M341 354q29 0 47.5 4t30 19.5t17.5 46.5t10 85t17 85.5t31.5 48t41 21.5t45.5 5q24 0 43 -8t32 -20.5t20 -29t7 -33.5q0 -35 -21.5 -58.5t-57.5 -23.5q-21 0 -35 7t-22.5 18t-12 25.5t-3.5 28.5q0 7 1.5 13t1.5 14q0 5 -1 10t-5 5q-11 0 -23.5 -3t-20.5 -29t-11 -53
t-5 -62q-1 -18 -2.5 -35t-6.5 -32.5t-15 -28.5t-28 -21l2 -4q70 -1 111 -22.5t62 -48.5t27 -53t7 -35q3 -29 3 -58t2.5 -51.5t11 -36.5t29.5 -14q8 0 15.5 2t15.5 7l11 -17q-24 -17 -53 -26.5t-55 -9.5q-48 0 -75 14t-41 39.5t-19 62l-11 81.5l-8 55.5t-15 47t-33 33
t-61 12.5h-62v-309h84v-22h-322v22h84v611h-84v22h322v-22h-84v-279h61zM532 844l-205 -157h-27l61 157h171z" />
    <glyph glyph-name="afii10060" unicode="&#x40b;" horiz-adv-x="870" 
d="M179 0v22h84v611q-11 1 -20.5 1h-20.5q-26 0 -51.5 -7.5t-49 -28t-42 -56t-29.5 -90.5h-28l7 203h622l7 -203h-28q-12 60 -34.5 97t-51 57t-61.5 25t-66 2v-288q53 27 103 38t85 11q48 0 80.5 -11t51.5 -34.5t27 -60.5t8 -89v-177h84v-22h-308v22h70v215q0 21 -1 42.5
t-8.5 38.5t-23.5 27.5t-47 10.5q-14 0 -30 -3t-32.5 -8t-31.5 -10.5t-27 -11.5v-301h70v-22h-308z" />
    <glyph glyph-name="afii10145" unicode="&#x40f;" horiz-adv-x="792" 
d="M512 633h-70v22h308v-22h-84v-611h84v-22h-269q-37 -48 -53 -101.5t-17 -104.5h-30q-1 51 -17 104.5t-53 101.5h-269v22h84v611h-84v22h308v-22h-70v-611h232v611z" />
    <glyph glyph-name="afii10099" unicode="&#x452;" horiz-adv-x="488" 
d="M226 20v-20h-231v20h49v478h-50v20h50v106h-50v20h106q27 0 46.5 3t37.5 11v-140h189v-20h-189v-132q30 44 58.5 64.5t69.5 20.5q43 0 72.5 -20.5t47.5 -53t26 -72t8 -78.5q0 -50 -11.5 -98t-40 -98t-76 -104.5t-118.5 -116.5l-14 11q28 35 48.5 71t33.5 76t19 84.5
t6 96.5v172q0 5 -1 16.5t-5.5 23.5t-13.5 21.5t-25 9.5q-14 0 -29 -6.5t-27 -18.5t-20 -29.5t-8 -39.5v-278h42z" />
    <glyph glyph-name="quoteleft" unicode="&#x2018;" 
d="M253 699l-36.5 -26t-33.5 -27.5t-24.5 -31t-9.5 -36.5q0 -14 -0.5 -22t14.5 -8q5 0 9 1.5l9 3.5q11 4 25 4q35 0 58.5 -25t23.5 -67q0 -18 -8.5 -32t-21 -23t-28.5 -14t-31 -5q-13 0 -30.5 5.5t-33 18.5t-26.5 34t-11 52q0 25 7 53t23 57t42.5 57t66.5 54z" />
    <glyph glyph-name="quoteright" unicode="&#x2019;" 
d="M133 358q58 41 81 71.5t23 50.5q0 14 0.5 21.5t-14.5 7.5q-5 0 -9 -1.5l-9 -3.5q-11 -4 -26 -4q-35 0 -58 25.5t-23 67.5q0 18 8.5 32t21 23t28.5 13.5t31 4.5q16 0 34 -7t33 -20.5t24.5 -34t9.5 -47.5q0 -17 -4 -42.5t-18.5 -55t-42 -62t-74.5 -62.5z" />
    <glyph glyph-name="quotedblleft" unicode="&#x201c;" horiz-adv-x="650" 
d="M253 698l-36.5 -26t-33.5 -27.5t-24.5 -31t-9.5 -36.5q0 -14 -0.5 -22t14.5 -8q10 0 14 1.5t7 3t7.5 3t15.5 1.5q22 0 37.5 -8.5t25.5 -22t14.5 -30t4.5 -31.5q0 -17 -8.5 -31t-21 -23.5t-28.5 -14.5t-31 -5q-11 0 -28 4.5t-33.5 16.5t-28.5 33.5t-12 55.5q0 24 7.5 52.5
t24 57.5t43 58t64.5 53zM517 698q-58 -41 -81 -71.5t-23 -49.5q0 -14 -0.5 -22t14.5 -8q9 0 13 1.5t7.5 3t8 3t15.5 1.5q35 0 58 -25.5t23 -67.5q0 -18 -8.5 -32t-21 -23t-28.5 -13.5t-31 -4.5q-17 0 -35 7t-32.5 20.5t-24 34t-9.5 48.5q0 16 4 41.5t18.5 55t42 62
t74.5 62.5z" />
    <glyph glyph-name="quotedblright" unicode="&#x201d;" horiz-adv-x="650" 
d="M398 357q15 11 33.5 23t34 27t26 32.5t10.5 38.5q0 13 0.5 21.5t-15.5 8.5q-9 0 -13 -1.5t-7.5 -3t-8 -3t-14.5 -1.5q-38 0 -60 26.5t-22 65.5q0 18 8.5 32t21.5 23t28.5 14t30.5 5q13 0 30 -5t33 -18t27 -34t11 -53q0 -26 -7 -54t-23 -56.5t-42.5 -57t-66.5 -53.5z
M134 357q58 41 81 71.5t23 50.5q0 14 0.5 21.5t-15.5 7.5q-11 0 -18.5 -4.5t-24.5 -4.5q-22 0 -37.5 9t-25.5 22.5t-14.5 30t-4.5 31.5q0 28 25.5 50.5t63.5 22.5q13 0 30.5 -5t33.5 -18t27 -34t11 -52q0 -24 -7 -52.5t-23.5 -58t-43 -58t-65.5 -53.5z" />
    <glyph glyph-name="bullet" unicode="&#x2022;" horiz-adv-x="686" 
d="M245 344q0 41 28.5 69.5t69.5 28.5t69.5 -28.5t28.5 -69.5t-28.5 -69.5t-69.5 -28.5t-69.5 28.5t-28.5 69.5z" />
    <glyph glyph-name="endash" unicode="&#x2013;" horiz-adv-x="698" 
d="M649 344v-56h-600v56h600z" />
    <glyph glyph-name="emdash" unicode="&#x2014;" horiz-adv-x="1093" 
d="M1037 220h-981v55h981v-55z" />
    <glyph glyph-name="tilde" unicode="&#x2dc;" horiz-adv-x="-1" 
d="M-199 533q36 54 66.5 82t67.5 28q12 0 24 -2t23 -5q32 -9 61 -23t54 -14q19 0 39 11t37 41h25q-16 -44 -35.5 -68.5t-37 -36t-30 -13.5t-14.5 -2q-26 0 -45.5 6.5t-42.5 16.5q-34 14 -58.5 18t-43.5 4q-20 0 -35 -15.5t-25 -27.5h-30z" />
    <glyph glyph-name="trademark" unicode="&#x2122;" horiz-adv-x="570" 
d="M73 422v8h29v217q-3 1 -9 1t-15 -2.5t-18 -10t-16.5 -20.5t-11.5 -35h-10l2 75h212l2 -75h-10q-5 32 -25 52t-46 15v-217h30v-8h-114zM461 655h87v-8h-29v-217h29v-8h-114v8h30v206l-78 -214h-7l-79 214v-161q0 -20 5 -33t23 -12v-8h-67v8q11 0 17 5t9 12.5t3.5 15.5
t0.5 14v144q0 17 -6.5 20.5t-22.5 5.5v8h87l56 -150z" />
    <glyph glyph-name="afii10106" unicode="&#x459;" horiz-adv-x="741" 
d="M496 268q70 0 115 -12t70.5 -30t35.5 -39t10 -39q0 -22 -7.5 -47.5t-27 -48t-53.5 -37.5t-86 -15h-277v20h49v397h-85q-15 0 -22.5 -6.5t-11 -15.5t-4 -19.5t-0.5 -19.5v-166q0 -42 -2.5 -79t-13 -65t-32 -44t-60.5 -16q-38 0 -64.5 22t-26.5 52q0 12 3 24t10.5 22
t19.5 16.5t30 6.5q28 0 39 -14t15.5 -31t9.5 -31t21 -14q14 0 20.5 15.5t9 38t2.5 48v44.5v170q0 25 -5.5 38t-14.5 18t-19.5 5.5t-20.5 0.5h-19v20h410v-20h-49v-149h31zM493 20q16 0 31 0.5t25.5 8t17 26.5t6.5 56v49q0 31 -8 49t-20 27t-26 11t-26 2h-28v-229h28z" />
    <glyph glyph-name="afii10107" unicode="&#x45a;" horiz-adv-x="765" 
d="M209 20h42v-20h-231v20h49v397h-49v20h231v-20h-42v-175h139v175h-42v20h231v-20h-49v-149h32q70 0 115 -12t70.5 -30.5t35.5 -39.5t10 -39q0 -21 -7.5 -47t-27 -48t-53 -37t-86.5 -15h-271v20h42v203h-139v-203zM517 20q18 0 32.5 1t25 9t16.5 26.5t6 54.5v49
q0 28 -6 45.5t-17 27t-25.5 13t-31.5 3.5h-29v-229h29z" />
    <glyph glyph-name="afii10109" unicode="&#x45c;" horiz-adv-x="547" 
d="M228 240q23 0 38.5 -1t27.5 8t22 34.5t21 78.5q4 18 9.5 34.5t16 29t27 20t41.5 7.5q35 0 57 -21t22 -51q0 -32 -16.5 -51.5t-42.5 -19.5q-21 0 -31 6.5t-13.5 16t-3.5 21t-0.5 21t-4.5 16t-16 6.5q-16 0 -21.5 -21.5t-10.5 -49t-15 -54t-34 -35.5l1 -3q43 -1 70.5 -11
t44.5 -25t25 -32.5t12 -34.5q4 -19 6 -37t5 -31.5t8 -22t16 -8.5q10 0 19.5 7.5t14.5 15.5l13 -11q-18 -28 -45.5 -42t-58.5 -14q-32 0 -50.5 7t-29.5 22t-17 37t-12 52t-11.5 52t-15.5 36.5t-26.5 21.5t-44.5 7h-16v-201h49v-20h-238v20h49v397h-49v20h238v-20h-49v-177h19
zM409 658l-205 -157h-27l61 157h171z" />
    <glyph glyph-name="afii10108" unicode="&#x45b;" horiz-adv-x="528" 
d="M-6 498v20h51v106h-51v20h107q30 0 49 4t35 10v-140h189v-20h-189v-130q21 27 42 43.5t40.5 25.5t36.5 11.5t31 2.5q45 0 70.5 -14t38 -33.5t15.5 -42t3 -38.5v-303h49v-20h-231v20h42v271q0 56 -10 78.5t-41 22.5q-19 0 -34.5 -8.5t-27 -22t-18 -30.5t-6.5 -33v-278h42
v-20h-231v20h49v478h-51z" />
    <glyph glyph-name="afii10193" unicode="&#x45f;" horiz-adv-x="553" 
d="M344 417h-44v20h233v-20h-49v-397h49v-20h-192q-23 -35 -36 -74t-18 -88h-21q-5 47 -18 85.5t-36 76.5h-192v20h49v397h-49v20h231v-20h-42v-397h135v397z" />
    <glyph glyph-name="afii10062" unicode="&#x40e;" horiz-adv-x="642" 
d="M523 512q9 23 11 44.5t-5 38.5t-23.5 27.5t-44.5 10.5h-13v22h222v-22q-30 -1 -48 -8t-28.5 -17t-15.5 -22.5l-10 -24.5l-89 -224q-37 -93 -66.5 -159t-58.5 -109t-61 -63t-73 -20q-33 0 -60 11t-47 29.5t-31 43t-11 51.5q0 32 22 56.5t62 24.5q35 0 55 -22.5t20 -50.5
q0 -18 -9 -33q-9 -16 -22.5 -23t-25.5 -11t-21 -7.5t-9 -11.5q0 -10 17.5 -22.5t59.5 -12.5q10 0 23.5 1.5t29 10t31.5 25t31 46.5l-272 542h-63v22h310v-22h-76l188 -377zM361 703q11 0 25 0.5t26 2.5t20.5 7.5t8.5 16.5q0 6 -5 11.5l-10 11.5q-10 13 -10 26q0 22 15 37
t40 15t41.5 -14.5t16.5 -40.5q0 -42 -44.5 -66t-123.5 -24q-45 0 -77 7.5t-52 20.5t-29.5 29t-9.5 33q0 20 14.5 37.5t44.5 17.5q29 0 41.5 -17.5t12.5 -34.5q0 -13 -10 -26l-10 -11.5t-5 -11.5q0 -11 8.5 -16.5t21 -7.5t26 -2.5t24.5 -0.5z" />
    <glyph glyph-name="afii10110" unicode="&#x45e;" horiz-adv-x="495" 
d="M243 417h-53l135 -289l67 203q9 27 6.5 43.5t-12.5 26t-24 13t-28 3.5h-15v20h204v-20h-13q-23 0 -39 -7.5t-26.5 -19.5t-17.5 -27t-12 -30l-113 -345q-20 -62 -42 -100.5t-44.5 -59.5t-45.5 -28.5t-46 -7.5q-24 0 -44.5 8.5t-35 22t-23 31t-8.5 36.5t7 33t18.5 23
t25 13.5t26.5 4.5q23 0 41.5 -15t18.5 -44q0 -15 -6 -28q-5 -12 -10.5 -21.5t-5.5 -20.5q0 -5 4.5 -11t16.5 -6q10 0 22 4t26 17t29.5 36.5t32.5 61.5l-219 480h-40v20h243v-20zM277 508q-34 0 -65 7t-55 21.5t-38.5 36t-14.5 50.5q0 17 5.5 28.5t14.5 18.5t19.5 10t20.5 3
q20 0 38 -16t18 -42q0 -12 -6 -21q-6 -10 -17 -19.5t-11 -18.5q0 -5 4 -11.5t14 -12.5t28 -10.5t45 -4.5q28 0 45.5 4.5t27.5 10.5t14 12.5t4 11.5q0 6 -4.5 10.5l-7.5 7.5q-5 5 -9 9.5t-7 10.5l-4 10.5t-2 10.5q0 26 18 42t38 16q24 0 42.5 -16t18.5 -44q0 -21 -10.5 -41.5
t-32 -37t-54 -26.5t-77.5 -10z" />
    <glyph glyph-name="afii10057" unicode="&#x408;" horiz-adv-x="501" 
d="M137 633v22h322v-22h-84v-380q0 -66 -7.5 -116t-28.5 -83.5t-59 -50.5t-99 -17q-42 0 -73 12t-52 31t-31.5 42.5t-10.5 47.5q0 42 24.5 66t56.5 24q35 0 56.5 -25t21.5 -62q0 -26 -18.5 -45t-37.5 -21q-8 -2 -19 -3t-11 -11t20.5 -19.5t44.5 -9.5q30 0 49.5 17.5
t19.5 43.5v559h-84z" />
    <glyph glyph-name="currency" unicode="&#xa4;" horiz-adv-x="875" 
d="M617 104q-8 -6 -23 -16t-37.5 -20t-52.5 -17t-67 -7q-38 0 -68 7t-52.5 17t-37.5 20t-22 16l-117 -118l-70 70l118 118q-31 43 -43.5 88.5t-12.5 87.5t12.5 87.5t43.5 88.5l-118 118l70 70l117 -118q7 6 22 16t37.5 20t52.5 17t68 7q37 0 67 -7t52.5 -17t37.5 -20t23 -16
l118 118l70 -70l-118 -118q31 -43 43.5 -88.5t12.5 -87.5t-12.5 -87.5t-43.5 -88.5l118 -118l-70 -70zM437 123q46 0 87.5 18t72.5 49t49 72t18 88q0 46 -18 87.5t-49 72.5t-72.5 49t-87.5 18q-47 0 -88 -18t-72 -49t-48.5 -72.5t-17.5 -87.5q0 -47 17.5 -88t48.5 -72
t72 -49t88 -18z" />
    <glyph glyph-name="afii10050" unicode="&#x490;" horiz-adv-x="565" 
d="M514 583q-5 20 -16 30.5t-24 15t-26 4.5h-22h-146v-611h84v-22h-322v22h84v611h-84v22h327q14 0 31 1.5t35.5 13t37.5 37.5t39 75h23l5 -199h-26z" />
    <glyph glyph-name="section" unicode="&#xa7;" horiz-adv-x="593" 
d="M177 390q-36 26 -56 59.5t-20 68.5q0 30 12 61t37.5 57t63.5 42.5t91 16.5q30 0 63.5 -6.5t61.5 -22.5t46.5 -41.5t18.5 -62.5q0 -5 -2 -17t-9 -24.5t-21.5 -22.5t-38.5 -10q-21 0 -36 6.5t-25 17t-15 23t-5 25.5q0 27 13.5 42t20.5 20q5 4 7.5 9t2.5 14t-9 15t-22 10
t-26 5.5t-20 1.5q-24 0 -46 -6.5t-38.5 -18.5t-26.5 -28.5t-10 -37.5q0 -29 14.5 -48.5t38.5 -34.5t55.5 -28l66.5 -28q36 -16 67.5 -33.5t55 -40t37 -51t13.5 -67.5q0 -26 -8 -50.5t-24 -44t-40 -32t-57 -12.5q11 -6 28 -18t33.5 -32t28 -48.5t11.5 -66.5q0 -32 -13 -62.5
t-39 -55t-64 -39.5t-89 -15q-41 0 -78 9.5t-65 26t-44.5 39.5t-16.5 51q0 33 21 58.5t63 25.5q34 0 51.5 -21.5t17.5 -46.5q0 -27 -7 -35.5t-16 -12.5t-16 -10t-7 -28q0 -9 8.5 -15.5t22 -11t29.5 -7t31 -2.5q59 0 94 26.5t35 64.5q0 44 -27.5 70t-68.5 44t-89.5 33.5
t-89.5 39.5t-68.5 62.5t-27.5 101.5q0 13 3.5 35t15.5 44.5t36 42t66 27.5zM209 345q-24 9 -37 10.5t-21 1.5q-17 0 -32 -12t-15 -28q0 -10 1.5 -22.5t9 -26t23.5 -26.5t46 -24l175 -65q14 -5 34 -10t33 -5q11 0 23 3t21.5 10t15.5 17t6 24q0 18 -8 31t-21 22.5t-30 16.5
l-35 14z" />
    <glyph glyph-name="afii10023" unicode="&#x401;" horiz-adv-x="659" 
d="M395 766q0 6 2.5 14.5t10.5 17t22.5 14t38.5 5.5t38.5 -6t22.5 -14t10.5 -16.5t2.5 -14.5q0 -3 -1.5 -11.5t-8.5 -17t-22 -15.5t-42 -7q-24 0 -38.5 6t-22.5 14t-10.5 16.5t-2.5 14.5zM159 766q0 8 4 17t12.5 16.5t22.5 12.5t35 5q27 0 42 -7.5t22 -16.5t8.5 -17t1.5 -10
q0 -3 -1.5 -11.5t-8.5 -17t-22 -15.5t-42 -7q-24 0 -38.5 6t-22.5 14t-10.5 16.5t-2.5 14.5zM42 22h84v611h-84v22h564l8 -210h-28q-3 26 -13.5 59t-34.5 61.5t-63.5 48t-99.5 19.5h-95v-262h66q30 0 49.5 12t31.5 30t17.5 39t6.5 38h25v-262h-25q-1 36 -10.5 59.5t-24 37
t-33 19t-37.5 5.5h-66v-327h95q47 0 86.5 17t69.5 44.5t49 62.5t24 71h27l-10 -217h-579v22z" />
    <glyph glyph-name="copyright" unicode="&#xa9;" horiz-adv-x="767" 
d="M42 327q0 72 26.5 134t73 108.5t108.5 73t134 26.5q70 0 132 -26.5t108.5 -72.5t73.5 -108.5t27 -134.5q0 -71 -27 -133t-73 -108.5t-108.5 -73t-132.5 -26.5q-72 0 -134.5 27t-108.5 73t-72.5 108t-26.5 133zM84 327q0 -62 23.5 -116t64 -95t95.5 -64.5t117 -23.5
q61 0 115.5 23.5t95.5 64t64.5 95t23.5 116.5t-24 117t-65 95.5t-95 64t-115 23.5q-62 0 -116.5 -24t-95 -64.5t-64.5 -95.5t-24 -116zM490 407q-3 19 -9.5 39t-19 36.5t-32.5 27.5t-49 11q-30 0 -49 -17.5t-30 -41.5t-15 -49.5t-5 -40.5q-1 -12 -0.5 -24.5t0.5 -24.5
q1 -63 12.5 -100.5t28 -57.5t35 -26t32.5 -6q21 0 40 9.5t35.5 26.5t28 40.5t17.5 50.5h18l-5 -138h-18q1 9 -3.5 14t-7.5 5q-13 0 -18 -4t-12.5 -9t-24 -9t-51.5 -4q-55 0 -92.5 19t-61 48.5t-33.5 65.5t-10 70q0 39 11 78.5t34.5 71.5t59 52t84.5 20q44 0 65 -6.5t30 -6.5
q7 0 11 13h15l6 -133h-17z" />
    <glyph glyph-name="afii10053" unicode="&#x404;" horiz-adv-x="625" 
d="M544 450q-11 42 -26.5 78.5t-39 62.5t-55.5 41t-75 15q-35 0 -58 -14.5t-36.5 -40.5t-19.5 -61.5t-6 -77.5v-96h269v-22h-269v-69q0 -54 5.5 -101.5t21.5 -82t44 -54.5t72 -20q29 0 48 5.5t30.5 14t16.5 19t5 19.5q0 16 -11.5 27.5t-18.5 20.5q-6 8 -10 17.5t-4 19.5
t4.5 22t13.5 22.5t22.5 17t30.5 6.5q14 0 28.5 -4.5t26 -14.5t18.5 -25.5t7 -36.5q0 -33 -17.5 -61t-47 -48.5t-69 -31.5t-83.5 -11q-66 0 -122.5 25.5t-97.5 71t-64.5 109.5t-23.5 142q0 72 20.5 133.5t58 106t90 70t116.5 25.5q32 0 54.5 -4t39.5 -9q23 -7 35.5 -10.5
t25.5 -3.5q20 0 27 9.5t9 17.5h29l14 -219h-28z" />
    <glyph glyph-name="guillemotleft" unicode="&#xab;" horiz-adv-x="388" 
d="M273 0q-57 67 -118 119.5t-127 93.5q66 41 127 93t118 119l12 -11q-49 -108 -116 -201q33 -47 62 -97t54 -105zM345 97q-33 37 -69 65.5t-72 50.5q43 25 78 54.5t63 61.5l15 -5q-11 -32 -26.5 -60t-32.5 -51q20 -28 34.5 -55.5t24.5 -55.5z" />
    <glyph glyph-name="logicalnot" unicode="&#xac;" horiz-adv-x="769" 
d="M713 98h-55v122h-602v55h657v-177z" />
    <glyph glyph-name="hyphen" unicode="-" horiz-adv-x="378" 
d="M308 184h-238v76h238v-76z" />
    <glyph glyph-name="registered" unicode="&#xae;" horiz-adv-x="773" 
d="M374 150v-11h-168v11h44v350h-44v11h163q21 0 49 -1.5t53.5 -9.5t43.5 -24.5t18 -46.5q0 -11 -3.5 -25t-16 -26.5t-35.5 -23.5t-62 -16v-3q30 -7 49 -15.5t30 -18.5t15.5 -21t6.5 -23q3 -15 4 -33.5t3 -34t5.5 -26t11.5 -10.5q6 0 15.5 7.5t14.5 12.5l9 -10
q-20 -21 -34.5 -25.5t-31.5 -4.5q-26 0 -40.5 5t-22 17.5t-10.5 33.5t-6 52t-8.5 49t-13.5 27t-19 11t-26 2h-37v-180h43zM362 341q12 0 26.5 1.5t27 10t20.5 26.5t8 50q0 42 -18 56.5t-60 14.5h-35v-159h31zM45 327q0 71 27 133t73.5 108.5t108.5 73.5t132 27t132.5 -27
t109 -73.5t73.5 -109t27 -132.5q0 -71 -27 -133.5t-73.5 -108.5t-109 -72.5t-132.5 -26.5t-132 26.5t-108.5 72.5t-73.5 108.5t-27 133.5zM87 327q0 -62 23.5 -116.5t64 -95t95 -64t116.5 -23.5t116.5 23.5t95 64.5t64 95t23.5 116q0 61 -23.5 115.5t-64 95.5t-95 64.5
t-116.5 23.5t-116 -23.5t-95 -64.5t-64.5 -95.5t-23.5 -115.5z" />
    <glyph glyph-name="afii10056" unicode="&#x407;" horiz-adv-x="406" 
d="M42 633v22h322v-22h-84v-611h84v-22h-322v22h84v611h-84zM247 766q0 6 2.5 14.5t10.5 17t22.5 14t38.5 5.5t38.5 -6t22.5 -14t10.5 -16.5t2.5 -14.5q0 -7 -2.5 -15.5t-10 -16.5t-22.5 -13.5t-39 -5.5t-38.5 6t-22.5 14t-10.5 16.5t-2.5 14.5zM11 766q0 16 16.5 33.5
t57.5 17.5q43 0 58.5 -16.5t15.5 -34.5q0 -6 -2.5 -15t-10.5 -17t-22.5 -13.5t-38.5 -5.5t-38.5 6t-22.5 14t-10.5 16.5t-2.5 14.5z" />
    <glyph glyph-name="degree" unicode="&#xb0;" horiz-adv-x="300" 
d="M56 595q0 19 7.5 36t20.5 30t30 20.5t36 7.5t36 -7.5t30 -20.5t20.5 -30t7.5 -36t-7.5 -36t-20.5 -30t-30 -20.5t-36 -7.5t-36 7.5t-30 20.5t-20.5 30t-7.5 36zM87 595q0 -26 17.5 -44.5t45.5 -18.5q16 0 27.5 6t19.5 15.5t12 20.5t4 21q0 22 -16.5 42.5t-46.5 20.5
q-27 0 -45 -18t-18 -45z" />
    <glyph glyph-name="plusminus" unicode="&#xb1;" horiz-adv-x="740" 
d="M398 563v-181h272v-56h-272v-151h-56v151h-272v56h272v181h56zM670 44h-600v55h600v-55z" />
    <glyph glyph-name="afii10055" unicode="&#x406;" horiz-adv-x="406" 
d="M42 633v22h322v-22h-84v-611h84v-22h-322v22h84v611h-84z" />
    <glyph glyph-name="afii10103" unicode="&#x456;" horiz-adv-x="276" 
d="M20 417v20h106q27 0 46.5 3t37.5 11v-431h49v-20h-238v20h49v397h-50zM66 588q0 29 20.5 49.5t49.5 20.5t49.5 -20.5t20.5 -49.5t-20.5 -49.5t-49.5 -20.5t-49.5 20.5t-20.5 49.5z" />
    <glyph glyph-name="afii10098" unicode="&#x491;" horiz-adv-x="406" 
d="M69 417h-49v20h209q32 0 56.5 13.5t41.5 34.5t28 48t16 54h27v-294h-21q-8 27 -21.5 50.5t-34 40.5t-48 26t-64.5 7v-397h49v-20h-238v20h49v397z" />
    <glyph glyph-name="mu" unicode="&#xb5;" horiz-adv-x="557" 
d="M351 437h140v-417h49v-20h-189v64q-20 -38 -50 -59.5t-73 -21.5q-38 0 -66.5 20t-36.5 58h-6q1 -22 3.5 -43.5t7.5 -44.5q7 -35 16 -63t9 -54q0 -25 -5.5 -41.5t-14.5 -27t-20.5 -15t-22.5 -4.5t-23 5t-22.5 15.5t-17 28t-6.5 42.5q0 31 8.5 62l16.5 63t14 66t6 82v305
h140v-310q0 -14 2 -29t8.5 -28.5t19.5 -22t35 -8.5t37 9.5t24 23t13 29t4 26.5v310z" />
    <glyph glyph-name="paragraph" unicode="&#xb6;" horiz-adv-x="489" 
d="M209 318q-43 1 -75.5 16.5t-54.5 40t-33.5 54t-11.5 57.5t11.5 58t33.5 54.5t54.5 40t75.5 16.5h70v-864h-70v527zM349 655h70v-864h-70v864z" />
    <glyph glyph-name="periodcentered" unicode="&#xb7;" horiz-adv-x="224" 
d="M42 369q0 10 4.5 22.5t13 23t21.5 17.5t31 7q29 0 49.5 -20t20.5 -50t-20.5 -50t-49.5 -20q-18 0 -31 7t-21.5 17.5t-13 22.5t-4.5 23z" />
    <glyph glyph-name="afii10071" unicode="&#x451;" horiz-adv-x="470" 
d="M440 102q-14 -23 -31 -43.5t-38.5 -37t-47.5 -26t-57 -9.5q-49 0 -93.5 18t-78 49.5t-53 74t-19.5 92.5q0 47 17.5 89t47 73.5t68 50t79.5 18.5q45 0 84 -16.5t67.5 -45t45 -68.5t17.5 -86h-272v-91q0 -76 23.5 -107t69.5 -31q26 0 48.5 8.5t42 23.5t35.5 34.5t29 40.5z
M309 254v47q0 25 -2.5 48.5t-9.5 41.5t-20.5 29t-35.5 11t-35 -8t-19.5 -23t-8.5 -35.5t-2 -45.5v-65h133zM58 588q0 30 20.5 50t49.5 20q18 0 31 -7t21.5 -17.5t13 -23t4.5 -22.5q0 -11 -4.5 -23t-13 -22.5t-21.5 -17.5t-31 -7q-29 0 -49.5 20t-20.5 50zM273 588
q0 10 4.5 22.5t13 23t21.5 17.5t31 7q29 0 49.5 -20t20.5 -50t-20.5 -50t-49.5 -20q-18 0 -31 7t-21.5 17.5t-13 22.5t-4.5 23z" />
    <glyph glyph-name="afii10101" unicode="&#x454;" horiz-adv-x="438" 
d="M381 279q-8 49 -22.5 78.5t-31 46t-33 22t-28.5 5.5q-31 0 -49 -11.5t-27 -30.5t-11.5 -45t-2.5 -54v-51h146v-19h-146v-89q0 -26 4 -49t13 -40t24.5 -26.5t39.5 -9.5q23 0 37 4.5t21.5 10.5t10 13.5t2.5 13.5q0 9 -12.5 16.5t-20.5 18.5q-10 15 -10 31q0 24 17.5 43
t45.5 19q29 0 51 -19.5t22 -51.5q0 -24 -11.5 -45.5t-33.5 -38t-52.5 -26t-67.5 -9.5q-48 0 -90.5 19t-74.5 51t-50.5 75t-18.5 91q0 51 18 93.5t49 72.5t72 46.5t86 16.5q42 0 72.5 -8t44.5 -8q4 0 5.5 5.5t2.5 10.5h23l7 -172h-21z" />
    <glyph glyph-name="guillemotright" unicode="&#xbb;" horiz-adv-x="388" 
d="M115 425q57 -67 118 -119t127 -93q-66 -41 -127 -93.5t-118 -119.5l-12 11q25 55 54 105t61 97q-32 46 -61 96t-54 105zM43 329q29 -32 63.5 -61.5t76.5 -54.5q-42 -26 -76.5 -55t-63.5 -61l-15 5q10 28 24.5 55.5t34.5 55.5q-17 23 -32.5 51t-26.5 60z" />
    <glyph glyph-name="afii10105" unicode="&#x458;" horiz-adv-x="317" 
d="M42 417v20h121q30 0 49 4t35 10v-405q0 -117 -42 -182t-130 -65q-23 0 -46 4.5t-42 15t-31 28t-12 43.5q0 37 19.5 55t44.5 18q26 0 43.5 -18t17.5 -40q0 -9 -3 -16q-4 -12 -9 -16t-9 -6.5t-7 -6.5t-3 -15q0 -6 3 -14t18 -10q6 -2 13 0q16 2 27.5 16t13.5 41
q1 8 0.5 15.5t-0.5 15.5q-1 18 -2 30.5t-2 23t-1.5 21t-0.5 24.5v409h-65zM95 588q0 10 4.5 22.5t13 23t21.5 17.5t31 7q29 0 49.5 -20t20.5 -50t-20.5 -50t-49.5 -20q-18 0 -31 7t-21.5 17.5t-13 22.5t-4.5 23z" />
    <glyph glyph-name="afii10054" unicode="&#x405;" horiz-adv-x="576" 
d="M42 233h26q12 -50 35 -90t53 -68t65.5 -42.5t72.5 -14.5q48 0 77 12t44 28.5t20 34t5 29.5q0 28 -11 48t-28.5 34t-39 24t-42.5 18l-119 47q-20 8 -44.5 21.5t-45.5 35.5t-35.5 53.5t-14.5 75.5q0 35 12.5 69t38.5 61t65.5 43.5t93.5 16.5q27 0 45.5 -4t33 -9.5t26 -11
t23.5 -7.5q8 -2 16 0t17.5 7.5t14.5 10.5h36v-186h-23q-20 59 -47 92.5t-54 50.5t-50 21.5t-35 4.5q-63 0 -94 -19.5t-31 -51.5q0 -28 9 -47t23.5 -32t32.5 -21.5t35 -15.5l142 -56q45 -18 73 -41.5t43.5 -49.5t21.5 -52.5t6 -49.5q0 -41 -15 -80t-44.5 -69t-74 -48.5
t-102.5 -18.5q-42 0 -58 6t-26 13t-25.5 13t-55.5 6q-11 0 -26.5 -3.5t-25.5 -20.5h-35z" />
    <glyph glyph-name="afii10102" unicode="&#x455;" horiz-adv-x="403" 
d="M22 165h25q5 -32 19 -60t35.5 -49t49 -33t58.5 -12q28 0 46 6t28.5 15.5t14.5 21t4 21.5q0 20 -8.5 33.5t-21 22.5t-28.5 14.5t-31 9.5l-91 26q-10 3 -26 10.5t-31 23.5t-25.5 41.5t-10.5 63.5q0 41 17.5 66.5t42.5 40t53.5 19.5t49.5 5q24 0 35.5 -4.5t20 -10t19.5 -10
t34 -4.5q16 0 23.5 7t9.5 15h20v-135h-19q-10 35 -27.5 58.5t-38 37.5t-41.5 19.5t-37 5.5q-45 0 -66.5 -17t-21.5 -36t7.5 -31.5t19 -21t25 -13.5t24.5 -8l95 -26q12 -3 30.5 -10.5t35.5 -23t29 -40.5t12 -64q0 -43 -16.5 -72.5t-42.5 -47.5t-58 -25.5t-63 -7.5
q-25 0 -42.5 5t-30.5 11q-18 8 -29.5 15t-23.5 7q-14 0 -21 -9.5t-7 -21.5h-25v172z" />
    <glyph glyph-name="afii10104" unicode="&#x457;" horiz-adv-x="275" 
d="M19 417v20h106q27 0 46.5 3t37.5 11v-431h49v-20h-238v20h49v397h-50zM-40 588q0 18 6.5 31.5t16.5 22t22.5 12.5t23.5 4q31 0 50.5 -20.5t19.5 -49.5t-19.5 -49.5t-50.5 -20.5q-11 0 -23.5 4t-22.5 12.5t-16.5 22t-6.5 31.5zM174 588q0 29 21 49.5t50 20.5t49.5 -20
t20.5 -50t-20.5 -50t-49.5 -20t-50 20.5t-21 49.5z" />
    <glyph glyph-name="afii10017" unicode="&#x410;" horiz-adv-x="653" 
d="M367 191h-209l-15 -43q-1 -3 -3.5 -9.5t-4.5 -14l-4 -15t-2 -11.5q0 -20 3 -33.5t12.5 -22t27.5 -13t48 -7.5v-22h-220v22q27 1 44.5 9.5t29 23t19.5 34.5t17 45l195 535h54l233 -647h61v-22h-303v22h80zM263 485l-99 -271h199z" />
    <glyph glyph-name="afii10018" unicode="&#x411;" horiz-adv-x="686" 
d="M126 633h-84v22h533l8 -198h-28q-7 49 -19 83t-32 54.5t-50 29.5t-72 9h-102v-253l72 -1q65 -1 111 -13t77 -30t49.5 -40t28 -43.5t12.5 -40.5t3 -31q0 -57 -23.5 -92.5t-60.5 -55t-84 -26.5t-93 -7h-330v22h84v611zM336 22q42 0 66.5 12t36.5 31t15 41.5t4 43.5
q2 42 0 85q-2 45 -15 69.5t-31.5 36t-40 14t-40.5 2.5h-51v-335h56z" />
    <glyph glyph-name="afii10019" unicode="&#x412;" horiz-adv-x="716" 
d="M361 655q47 0 96.5 -4.5t90.5 -19t67.5 -41.5t26.5 -73q0 -41 -22.5 -68t-55.5 -44.5t-69.5 -26t-63.5 -12.5l1 -6q66 -13 110.5 -32.5t71.5 -43.5t38 -52t11 -57q0 -42 -15 -71.5t-38.5 -49t-54 -30.5t-61 -16.5t-58.5 -6.5t-48 -1h-346v22h84v611h-84v22h319zM344 22
q35 0 62 6t45 20t27.5 38.5t9.5 62.5v70q0 19 -3.5 42.5t-16.5 44.5t-39 35t-72 14h-77v-333h64zM351 377q23 0 45 5.5t39 17t27 30t10 45.5v66q0 33 -13.5 51.5t-32 27.5t-39.5 11t-36 2h-71v-256h71z" />
    <glyph glyph-name="afii10020" unicode="&#x413;" horiz-adv-x="581" 
d="M546 445q-11 45 -24 80t-33.5 59t-50.5 36.5t-74 12.5h-84v-611h84v-22h-322v22h84v611h-84v22h527l5 -210h-28z" />
    <glyph glyph-name="afii10021" unicode="&#x414;" horiz-adv-x="696" 
d="M648 -189q-12 67 -40.5 105t-62.5 56.5t-66 23t-51 4.5h-197q-16 0 -43 -1.5t-55 -18.5t-53.5 -56t-38.5 -113h-33l12 211h78q22 26 42 71t24 120l13 260q1 32 3.5 62.5t-5 53.5t-29.5 35.5t-69 8.5v22h574v-22h-84v-611h99l10 -211h-28zM413 633h-108q-27 0 -44.5 -1
t-29 -11t-17 -34.5t-8.5 -70.5l-17 -303q-4 -71 -19 -114.5t-40 -76.5h283v611z" />
    <glyph glyph-name="afii10022" unicode="&#x415;" horiz-adv-x="662" 
d="M126 633h-84v22h563l8 -210h-27q-9 60 -32 97t-53 57t-63.5 27t-62.5 7h-95v-262h66q24 0 43 10t32.5 26.5t21 38t7.5 44.5h26v-262h-26q-2 63 -29.5 92t-74.5 29h-66v-327h94q47 0 86.5 17t69.5 44.5t49 62.5t24 71h28l-11 -217h-578v22h84v611z" />
    <glyph glyph-name="afii10024" unicode="&#x416;" horiz-adv-x="1071" 
d="M459 633h-84v22h322v-22h-84v-279h47q29 0 47.5 4t30 19.5t17.5 46.5t10 85t17 85.5t31.5 48t41 21.5t45.5 5q24 0 43 -8t32 -20.5t20 -29t7 -33.5q0 -35 -21.5 -58.5t-57.5 -23.5q-21 0 -35 7t-22.5 18t-12 25.5t-3.5 28.5q0 7 1.5 13t1.5 14q0 5 -1 10t-5 5
q-11 0 -20.5 -1.5t-17 -15t-13.5 -43.5t-9 -87q-3 -52 -10 -73t-22 -31q-6 -4 -12 -7t-6 -5t8 -3t17 -2q64 -6 100 -29t54 -52t23 -57.5t7 -45.5q3 -26 3 -50.5t2.5 -43.5t11 -30t27.5 -11q8 0 15.5 2t15.5 7l11 -17q-24 -17 -53 -26.5t-55 -9.5q-48 0 -75 14t-41 39.5
t-19 62l-11 81.5l-8 55.5t-15 47t-33 33t-61 12.5h-48v-309h84v-22h-322v22h84v309h-48q-41 0 -63.5 -13.5t-33.5 -34.5t-14.5 -47.5t-5.5 -52.5q-5 -45 -10.5 -81.5t-20 -62t-41.5 -39.5t-75 -14q-20 0 -49.5 8t-58.5 28l11 17q8 -5 15.5 -7t15.5 -2q19 0 27.5 11.5
t11.5 30.5t3 44t2 52q1 15 7 43t24.5 57t54.5 52t98 29l17.5 2t8.5 3t-6.5 5t-12.5 7q-7 5 -12 12t-8.5 19t-6 29.5t-4.5 43.5q-2 33 -4.5 60t-11.5 55q-8 26 -21.5 29t-23.5 3q-4 0 -4.5 -5t-0.5 -10q0 -8 1.5 -14t1.5 -13q0 -14 -3.5 -28t-12 -25.5t-23 -18.5t-35.5 -7
q-39 0 -58.5 24.5t-19.5 57.5q0 16 6.5 32.5t19.5 29.5t32 21t43 8q39 0 64.5 -13t40.5 -35t21.5 -51t9.5 -61q4 -54 10 -85t17 -46.5t29.5 -19.5t48.5 -4h47v279z" />
    <glyph glyph-name="afii10025" unicode="&#x417;" horiz-adv-x="625" 
d="M83 460l16 209h21q0 -11 5.5 -19.5t28.5 -8.5q16 0 28.5 4.5t37.5 12.5q22 6 42.5 8.5t50.5 2.5q54 0 98.5 -10.5t76.5 -30t49.5 -46t17.5 -59.5q0 -38 -14.5 -63.5t-41 -42.5t-62 -28.5t-77.5 -20.5v-9q43 -11 81.5 -26t67.5 -36t46 -49t17 -67q0 -30 -13 -64t-46 -63.5
t-90.5 -48.5t-146.5 -19q-60 0 -103.5 15.5t-72 39.5t-42 54t-13.5 59q0 38 24 63t61 25q38 0 56.5 -24t18.5 -51q0 -14 -6 -24t-14 -18t-18 -13.5t-17 -10.5q-5 -3 -13 -9t-8 -16q0 -9 8 -21t26 -22.5t46 -17.5t67 -7q43 0 67 15t36 37.5t15 48t3 46.5v61q0 12 -1.5 35
t-13 46t-37 40t-72.5 17h-80v22h90q51 0 76.5 28t25.5 76v57q0 31 -7.5 52.5t-20.5 34t-30 18t-35 5.5q-69 0 -117 -43t-71 -144h-21z" />
    <glyph glyph-name="afii10026" unicode="&#x418;" horiz-adv-x="792" 
d="M42 22h84v611h-84v22h308v-22h-70v-503l232 451v52h-70v22h308v-22h-84v-611h84v-22h-308v22h70v501l-232 -455v-46h70v-22h-308v22z" />
    <glyph glyph-name="afii10027" unicode="&#x419;" horiz-adv-x="792" 
d="M397 703q11 0 25 0.5t26 2.5t20.5 7.5t8.5 16.5q0 19 -4 23t-8.5 4.5t-8.5 3t-4 18.5q0 22 15 37t40 15t41.5 -14.5t16.5 -40.5q0 -42 -44.5 -66t-123.5 -24q-45 0 -77 7.5t-52 20.5t-29.5 29t-9.5 33q0 20 14.5 37.5t44.5 17.5q29 0 41.5 -17.5t12.5 -34.5
q0 -16 -4 -18.5t-8.5 -3t-8.5 -4.5t-4 -23q0 -11 8.5 -16.5t21 -7.5t26 -2.5t24.5 -0.5zM42 22h84v611h-84v22h308v-22h-70v-503l232 451v52h-70v22h308v-22h-84v-611h84v-22h-308v22h70v501l-232 -455v-46h70v-22h-308v22z" />
    <glyph glyph-name="afii10028" unicode="&#x41a;" horiz-adv-x="724" 
d="M341 354q29 0 47.5 4t30 19.5t17.5 46.5t10 85t17 85.5t31.5 48t41 21.5t45.5 5q24 0 43 -8t32 -20.5t20 -29t7 -33.5q0 -35 -21.5 -58.5t-57.5 -23.5q-21 0 -35 7t-22.5 18t-12 25.5t-3.5 28.5q0 7 1.5 13t1.5 14q0 5 -1 10t-5 5q-11 0 -23.5 -3t-20.5 -29t-11 -53
t-5 -62q-1 -18 -2.5 -35t-6.5 -32.5t-15 -28.5t-28 -21l2 -4q70 -1 111 -22.5t62 -48.5t27 -53t7 -35q3 -29 3 -58t2.5 -51.5t11 -36.5t29.5 -14q8 0 15.5 2t15.5 7l11 -17q-24 -17 -53 -26.5t-55 -9.5q-48 0 -75 14t-41 39.5t-19 62l-11 81.5l-8 55.5t-15 47t-33 33
t-61 12.5h-62v-309h84v-22h-322v22h84v611h-84v22h322v-22h-84v-279h61z" />
    <glyph glyph-name="afii10029" unicode="&#x41b;" horiz-adv-x="748" 
d="M124 655h582v-22h-84v-611h84v-22h-322v22h84v611h-92q-51 0 -74.5 -15.5t-31 -47.5t-6 -80.5t-0.5 -114.5q-2 -46 -1 -92.5t-0.5 -90t-7 -81t-19.5 -65.5t-38.5 -44t-64.5 -16q-31 0 -53 11t-36 28t-20.5 37.5t-6.5 40.5q0 32 22.5 55t61.5 23q33 0 53.5 -21t20.5 -53
q0 -20 -5 -31t-10 -18l-12.5 -14t-5.5 -12q0 -5 2.5 -10t7.5 -5q7 0 18 -0.5t22.5 8t22 29.5t15.5 65q2 14 3.5 44t3 68.5t2.5 81.5t1.5 82.5t1 72t0.5 49.5q0 39 -7 62t-19.5 35t-30 15.5t-39.5 3.5h-22v22z" />
    <glyph glyph-name="afii10030" unicode="&#x41c;" horiz-adv-x="892" 
d="M604 655h246v-22h-83v-611h83v-22h-321v22h84v580l-219 -602h-20l-221 602v-452q0 -24 2.5 -47.5t10.5 -41.5t23.5 -28.5t42.5 -10.5v-22h-190v22q27 2 44 13t26.5 28.5t12.5 41t3 49.5v406q0 40 -18 55t-63 18v22h243l159 -422z" />
    <glyph glyph-name="afii10031" unicode="&#x41d;" horiz-adv-x="792" 
d="M280 22h70v-22h-308v22h84v611h-84v22h308v-22h-70v-276h232v276h-70v22h308v-22h-84v-611h84v-22h-308v22h70v313h-232v-313z" />
    <glyph glyph-name="afii10032" unicode="&#x41e;" horiz-adv-x="762" 
d="M50 327q0 80 30 143.5t78 107.5t106.5 67.5t115.5 23.5q58 0 117 -23.5t107 -67.5t78 -107.5t30 -143.5q0 -73 -27.5 -135.5t-73 -108t-105.5 -71.5t-126 -26q-58 0 -116.5 23t-106 67t-77.5 107t-30 144zM227 434q-2 -27 -2 -54v-54t0.5 -53.5t1.5 -53.5q1 -33 6.5 -70
t21 -68.5t45 -52t80.5 -20.5t81 19.5t46 50t21 68t7 73.5q1 27 1.5 53.5t0.5 53.5v54t-2 54q-3 43 -10.5 81.5t-24.5 68t-46 46.5t-74 17q-44 0 -72.5 -17t-45.5 -46t-24.5 -67.5t-10.5 -82.5z" />
    <glyph glyph-name="afii10033" unicode="&#x41f;" horiz-adv-x="794" 
d="M280 22h70v-22h-308v22h84v611h-84v22h710v-22h-84v-611h84v-22h-308v22h70v611h-234v-611z" />
    <glyph glyph-name="afii10034" unicode="&#x420;" horiz-adv-x="696" 
d="M126 633h-84v22h316q20 0 50 -1t64 -6.5t67.5 -16.5t60.5 -31t44 -50.5t17 -74.5q0 -45 -15 -81.5t-49 -61.5t-89.5 -38.5t-135.5 -13.5h-92v-258h84v-22h-322v22h84v611zM330 302q58 0 90 11.5t46.5 31.5t17 46.5t2.5 55.5v71q0 26 -4 47.5t-19 36.5t-44 23t-79 8h-60
v-331h50z" />
    <glyph glyph-name="afii10035" unicode="&#x421;" horiz-adv-x="637" 
d="M609 232l-8 -232h-28q-6 21 -25 26q-5 2 -10.5 1.5t-10.5 -1.5q-18 -4 -33.5 -10.5t-35 -13t-44.5 -11.5t-61 -5q-66 0 -121 29.5t-94.5 78.5t-62 111t-22.5 127q0 74 28 136t73.5 106.5t103 69.5t116.5 25q33 0 55 -5t38.5 -11.5t30.5 -11.5t32 -5q3 0 8.5 1t10.5 4.5
t9.5 10t5.5 17.5h28l2 -225h-21q-8 39 -25 76t-42 65t-57.5 45t-71.5 17q-50 0 -79.5 -20.5t-45 -54.5t-20 -77t-4.5 -88v-138q0 -135 40 -198.5t108 -63.5q19 0 49 8t61 32t57.5 68t37.5 117h28z" />
    <glyph glyph-name="afii10036" unicode="&#x422;" horiz-adv-x="651" 
d="M164 0v22h84v611q-7 1 -13 1h-13q-40 0 -70.5 -18t-52 -45.5t-34 -61.5t-15.5 -66h-28l6 212h595l6 -212h-28q-10 50 -26 83.5t-35.5 55t-40.5 32.5t-39.5 15.5t-34 4.5t-23.5 -1v-611h84v-22h-322z" />
    <glyph glyph-name="afii10037" unicode="&#x423;" horiz-adv-x="642" 
d="M523 512q9 23 11 44.5t-5 38.5t-23.5 27.5t-44.5 10.5h-13v22h222v-22q-30 -1 -48 -8t-28.5 -17t-15.5 -22.5l-10 -24.5l-89 -224q-37 -93 -66.5 -159t-58.5 -109t-61 -63t-73 -20q-33 0 -60 11t-47 29.5t-31 43t-11 51.5q0 32 22 56.5t62 24.5q35 0 55 -22.5t20 -50.5
q0 -15 -10.5 -35.5t-45.5 -32.5q-3 -1 -8 -2.5t-10 -3.5t-9 -5t-4 -7q0 -10 17.5 -22.5t59.5 -12.5q10 0 23.5 1.5t29 10t31.5 25t31 46.5l-272 542h-63v22h310v-22h-76l188 -377z" />
    <glyph glyph-name="afii10038" unicode="&#x424;" horiz-adv-x="896" 
d="M609 669v-22h-84v-58q79 3 134.5 -11t92 -37t57 -52.5t30.5 -58.5t12.5 -54t2.5 -40q0 -61 -17 -104.5t-44.5 -72.5t-63 -45.5t-72 -24t-71.5 -9t-61 0.5v-59h84v-22h-322v22h84v59q-59 -4 -118 4.5t-106 36t-76 79.5t-29 135q0 57 15.5 98t41 69.5t59 45.5t70 26.5
t73.5 12t70 1.5v58h-84v22h322zM525 104h45q16 0 35 4.5t35.5 17.5t27.5 37t11 62v230q0 40 -16 62.5t-37 33.5t-42 13t-31 2h-28v-462zM371 567q-32 0 -60 -4.5t-49 -16.5t-33 -34t-12 -57v-230q0 -38 11 -62t27.5 -37t36 -17.5t35.5 -4.5h44v463z" />
    <glyph glyph-name="afii10039" unicode="&#x425;" horiz-adv-x="743" 
d="M461 507q3 4 8 12t10 17.5t8.5 19.5t3.5 19q0 7 -2 17.5t-9 19.5t-21 15t-38 6v22h235v-22q-27 1 -49.5 -7.5t-41.5 -24.5t-36 -38t-34 -48l-81 -122l242 -371h65v-22h-307v22h60l-163 246l-85 -121l-9.5 -14t-10 -16.5t-7.5 -16t-3 -12.5q0 -40 19.5 -53t66.5 -13v-22
h-251v22q27 1 47 8t37.5 20t33.5 33t35 47l112 160l-228 343h-46v22h308v-22h-74l143 -217z" />
    <glyph glyph-name="afii10040" unicode="&#x426;" horiz-adv-x="806" 
d="M514 633h-70v22h308v-22h-84v-611h103l13 -212h-28q-21 64 -47.5 102t-55 57.5t-56.5 25t-52 5.5h-503v22h84v611h-84v22h308v-22h-70v-611h234v611z" />
    <glyph glyph-name="afii10041" unicode="&#x427;" horiz-adv-x="732" 
d="M452 633h-70v22h308v-22h-84v-611h84v-22h-322v22h84v274q-32 -17 -79 -32.5t-104 -15.5q-60 0 -94 15.5t-51 40t-21.5 54.5t-4.5 59v216h-84v22h308v-22h-70v-229q0 -26 1.5 -48t8 -37.5t20 -24t37.5 -8.5h18t27 3t37.5 9.5t50.5 19.5v315z" />
    <glyph glyph-name="afii10042" unicode="&#x428;" horiz-adv-x="1130" 
d="M1088 22v-22h-1046v22h84v611h-84v22h308v-22h-70v-611h208v611h-70v22h294v-22h-70v-611h208v611h-70v22h308v-22h-84v-611h84z" />
    <glyph glyph-name="afii10043" unicode="&#x429;" horiz-adv-x="1141" 
d="M42 22h84v611h-84v22h308v-22h-70v-611h208v611h-70v22h294v-22h-70v-611h208v611h-70v22h308v-22h-84v-611h102l13 -212h-28q-19 57 -42.5 94t-50.5 58t-57 29.5t-61 8.5h-838v22z" />
    <glyph glyph-name="afii10044" unicode="&#x42a;" horiz-adv-x="761" 
d="M14 432l7 223h460v-22h-84v-259h42q9 0 34.5 -1t58 -6.5t68 -17.5t65.5 -33t49 -53t19 -79q0 -62 -28 -98.5t-69.5 -55.5t-90 -24.5t-89.5 -5.5h-297v22h84v611q-56 8 -94 -10.5t-61 -50t-33.5 -70t-12.5 -70.5h-28zM433 22q46 0 71 12t37 30.5t14.5 40.5t2.5 43v78
q0 45 -10.5 70.5t-28 37.5t-38.5 15t-42 3h-42v-330h36z" />
    <glyph glyph-name="afii10045" unicode="&#x42b;" horiz-adv-x="991" 
d="M711 633h-84v22h322v-22h-84v-611h84v-22h-322v22h84v611zM322 374q51 0 103.5 -9t95 -31t69 -58.5t26.5 -91.5q0 -62 -28 -98.5t-70 -55.5t-90.5 -24.5t-89.5 -5.5h-296v22h84v611h-84v22h322v-22h-84v-259h42zM316 22q46 0 71 12t37 30.5t14.5 40.5t2.5 43v78
q0 25 -3.5 48t-15.5 40.5t-36 27.5t-64 10h-42v-330h36z" />
    <glyph glyph-name="afii10046" unicode="&#x42c;" horiz-adv-x="644" 
d="M322 374q51 0 103.5 -9t95 -31t69 -58.5t26.5 -91.5q0 -62 -28 -98.5t-69.5 -55.5t-90 -24.5t-89.5 -5.5h-297v22h84v611h-84v22h322v-22h-84v-259h42zM316 22q46 0 71.5 12t37.5 30.5t14 40.5t2 43v78q0 25 -3.5 48t-15.5 40.5t-36 27.5t-64 10h-42v-330h36z" />
    <glyph glyph-name="afii10047" unicode="&#x42d;" horiz-adv-x="595" 
d="M42 450l13 219h22q2 -9 9 -18t27 -9q13 0 26 3.5t36 10.5q16 5 38.5 9t54.5 4q64 0 117 -25t90 -70t57.5 -106.5t20.5 -133.5q0 -78 -23.5 -142t-64.5 -110t-97 -71t-122 -25q-44 0 -83.5 11.5t-69.5 31.5t-47.5 48t-17.5 61q0 21 7.5 36.5t19 25.5t25.5 14.5t28 4.5
q30 0 50.5 -20.5t20.5 -47.5q0 -17 -9 -29.5t-14 -18.5q-5 -5 -13 -15t-8 -22q0 -9 5 -19t17 -19t31 -14.5t47 -5.5q44 0 72 20t43.5 54.5t21.5 82t6 101.5v69h-255v22h255v96q0 58 -9.5 96t-26 59.5t-38 30t-45.5 8.5q-44 0 -77.5 -17.5t-57 -46t-37.5 -63.5t-18 -70h-27z
" />
    <glyph glyph-name="afii10048" unicode="&#x42e;" horiz-adv-x="1065" 
d="M280 22h84v-22h-322v22h84v611h-84v22h322v-22h-84v-287h109q1 71 25.5 130.5t65.5 102t95.5 66.5t116.5 24t119.5 -23t102 -65t71.5 -101.5t27 -132.5q0 -79 -24 -145t-65.5 -114t-98 -75t-121.5 -27q-75 0 -133 28t-98 75t-61 108t-22 127h-109v-302zM564 235
q0 -44 4 -85t18 -73t40.5 -51t71.5 -19t72.5 19.5t42 51.5t19.5 73t5 84v167q0 44 -4 87.5t-18.5 78.5t-42.5 57t-75 22q-48 0 -74.5 -21t-39.5 -55.5t-16 -78.5t-3 -89v-168z" />
    <glyph glyph-name="afii10049" unicode="&#x42f;" horiz-adv-x="754" 
d="M474 331h-88q-42 0 -63.5 -11.5t-32 -33.5t-14 -54t-8.5 -73q-5 -42 -11.5 -74.5t-21 -54.5t-40.5 -33t-71 -11q-8 0 -20.5 1t-28 5t-33 10.5t-34.5 18.5l11 20q7 -5 16.5 -8.5t18.5 -3.5q28 0 38.5 25t14.5 60t6 72t13 60q20 43 65.5 62.5t119.5 30.5v7q-72 6 -115 23
t-66 39.5t-30.5 47.5t-7.5 47q0 55 29.5 85.5t72.5 45.5t90 18t83 3h345v-22h-84v-611h84v-22h-322v22h84v309zM474 633h-73q-51 0 -78 -13t-39 -31t-14 -36.5t-2 -28.5v-58q0 -42 14 -64.5t34.5 -33.5t44 -13t43.5 -2h70v280z" />
    <glyph glyph-name="afii10065" unicode="&#x430;" horiz-adv-x="525" 
d="M525 45q-17 -21 -34 -32.5t-33 -17.5t-30 -7.5t-25 -1.5q-26 0 -54 20t-38 52q-30 -37 -70 -54.5t-80 -17.5q-32 0 -57 9.5t-42.5 26t-27 38.5t-9.5 46q0 46 25.5 73t66.5 41t92 19t102 7v116q0 7 -1.5 18.5t-8.5 23t-21 19.5t-39 8q-45 0 -63 -11.5t-18 -21.5
q0 -11 7.5 -19l15.5 -16q7 -8 11.5 -18t4.5 -22q0 -27 -19 -44.5t-45 -17.5q-32 0 -51 20t-19 48q0 19 11 40.5t36 39.5t65 30t98 12q63 0 98 -10t52.5 -24t21.5 -29.5t4 -26.5v-274q0 -5 -0.5 -13.5t0.5 -16.5t3 -13.5t8 -5.5q11 0 24.5 3t24.5 17zM311 229
q-48 -2 -74.5 -13.5t-39 -28t-15.5 -35.5t-3 -37q0 -12 1 -26t6 -25.5t16 -19t31 -7.5t38.5 10t39.5 30v152z" />
    <glyph glyph-name="afii10066" unicode="&#x431;" horiz-adv-x="500" 
d="M60 309q10 35 31.5 61.5t47.5 44.5t55 27t56 9q39 0 79.5 -15.5t73.5 -45t54 -73t21 -99.5q0 -54 -21 -97t-54 -73t-73.5 -46t-79.5 -16q-23 0 -61 8t-75.5 37.5t-64.5 87.5t-27 157t21.5 166t54 110.5t70.5 66.5t72 34q52 17 89.5 21.5l63 7.5t39.5 10t19 29h17
q3 -48 -17 -80.5t-49.5 -53.5t-62.5 -32.5t-57 -17.5l-81 -21t-78 -34t-56.5 -63.5t-17.5 -109.5h11zM177 126q0 -23 2 -44.5t9.5 -38.5t22 -27t39.5 -10t40 10.5t22.5 27t9.5 38t2 44.5v184q0 23 -2 45t-9.5 39t-22.5 27t-40 10t-39.5 -10t-22 -27t-9.5 -38.5t-2 -45.5
v-184z" />
    <glyph glyph-name="afii10067" unicode="&#x432;" horiz-adv-x="519" 
d="M233 437q38 0 79 -1.5t75.5 -10t56.5 -28t22 -55.5q0 -24 -12 -41t-32 -29t-46.5 -19t-55.5 -12v-3q30 -5 60.5 -13t55 -21t40 -33t15.5 -48q0 -15 -5.5 -36t-25 -40.5t-57 -33t-101.5 -13.5h-282v20h49v397h-49v20h213zM251 250q27 0 41.5 6.5t21.5 17t8.5 23t1.5 24.5
v44q0 19 -8 30t-19.5 15.5t-24.5 5.5t-23 1h-40v-167h42zM277 20q25 0 42.5 17.5t17.5 64.5v39q0 13 -2 28.5t-9.5 29t-22.5 23t-42 9.5h-52v-211h68z" />
    <glyph glyph-name="afii10068" unicode="&#x433;" horiz-adv-x="418" 
d="M69 417h-49v20h383l7 -170h-25q-5 27 -16 54t-28 48t-41.5 34.5t-56.5 13.5h-34v-397h49v-20h-238v20h49v397z" />
    <glyph glyph-name="afii10069" unicode="&#x434;" horiz-adv-x="507" 
d="M6 -158l8 178q41 -4 64 18.5t34 62t13 91.5t2 107v61q0 9 -1 19.5t-5.5 18.5t-15 13.5t-29.5 5.5h-20v20h416v-20h-49v-397h69l7 -178h-25q-10 56 -31 87.5t-44.5 47.5t-46.5 19.5t-38 3.5h-134q-17 0 -38 -4.5t-42 -20.5t-39.5 -47.5t-28.5 -85.5h-26zM283 417h-92
q-12 0 -20 -2t-13.5 -13t-8 -35t-2.5 -68q0 -77 -4.5 -126t-12.5 -79t-19.5 -46.5t-24.5 -27.5h197v397z" />
    <glyph glyph-name="afii10070" unicode="&#x435;" horiz-adv-x="470" 
d="M440 102q-14 -23 -31 -43.5t-38.5 -37t-47.5 -26t-57 -9.5q-49 0 -93.5 18t-78 49.5t-53 74t-19.5 92.5q0 47 17.5 89t47 73.5t68 50t79.5 18.5q45 0 84 -16.5t67.5 -45t45 -68.5t17.5 -86h-272v-91q0 -76 23.5 -107t69.5 -31q26 0 48.5 8.5t42 23.5t35.5 34.5t29 40.5z
M309 254v47q0 25 -2.5 48.5t-9.5 41.5t-20.5 29t-35.5 11t-35 -8t-19.5 -23t-8.5 -35.5t-2 -45.5v-65h133z" />
    <glyph glyph-name="afii10072" unicode="&#x436;" horiz-adv-x="817" 
d="M515 240q18 0 30.5 -0.5t22.5 9.5t19 35t20 76q4 18 9.5 34.5t16 29t27 20t41.5 7.5q35 0 57 -21t22 -51q0 -32 -16.5 -51.5t-42.5 -19.5q-10 0 -20 2.5t-18 9.5t-14 18.5t-7 29.5q-1 8 -3 17.5t-7 9.5q-17 0 -23.5 -21.5t-11 -48.5t-12.5 -52.5t-29 -34.5
q31 -8 53.5 -15t38.5 -16t26 -20.5t17 -27.5q8 -20 10.5 -42.5t5.5 -41.5t8.5 -32t20.5 -13q11 0 21.5 7.5t15.5 15.5l13 -11q-16 -23 -40 -39.5t-57 -16.5q-25 0 -42 6t-29 20t-20.5 36t-16.5 55l-11 46.5t-14.5 37.5t-26.5 25t-47 9h-23v-201h49v-20h-238v20h49v201h-24
q-29 0 -45.5 -7t-25.5 -22t-14.5 -37l-12.5 -52q-9 -33 -17.5 -55t-20.5 -36t-29 -20t-42 -6q-5 0 -16 2t-25.5 8t-29 17t-26.5 29l13 11q5 -8 15.5 -15.5t21.5 -7.5q15 0 20.5 13t8.5 32t5.5 41.5t10.5 42.5q6 14 14.5 25t23.5 20t38.5 17.5t59.5 16.5q-17 8 -26.5 22.5
t-14 32t-6 35.5t-4.5 33t-8 24.5t-17 9.5q-8 0 -9 -11t-1 -16q0 -8 -3 -18.5t-10 -19.5t-18 -15.5t-29 -6.5q-26 0 -42.5 19.5t-16.5 51.5q0 30 23.5 51t55.5 21q29 0 46.5 -10.5t28 -25t14.5 -30t6 -26.5q8 -46 16 -70t18.5 -35t24.5 -12.5t32 -1.5h37v177h-49v20h238v-20
h-49v-177h36z" />
    <glyph glyph-name="afii10073" unicode="&#x437;" horiz-adv-x="415" 
d="M126 230v20h19q28 0 45 4.5t26.5 12.5t12.5 19t3 25v33q0 28 -4 45t-11.5 26.5t-18.5 12.5t-24 3q-5 0 -20 -3t-33 -18t-36.5 -46.5t-29.5 -88.5h-14v174h22q3 -7 7.5 -10t8.5 -5q5 -2 9.5 -1.5t9.5 1.5q9 1 18 4t20.5 6t25.5 5t33 2q52 0 86.5 -10t55.5 -25t30 -33.5
t9 -34.5q0 -24 -12.5 -41.5t-33.5 -29.5t-49 -20t-58 -14v-5q46 -5 78 -17t52 -28.5t29 -34.5t9 -35q0 -18 -8 -41.5t-30.5 -44.5t-62.5 -36t-105 -15q-45 0 -77.5 10t-54.5 26t-32.5 36.5t-10.5 41.5q0 31 18 53t46 22q23 0 44.5 -14t21.5 -44q0 -16 -5 -26
q-4 -8 -10.5 -14l-12.5 -12t-10.5 -13t-4.5 -17q0 -14 21.5 -22t47.5 -8q25 0 39 8.5t21 24t9 36.5t2 46q0 34 -3.5 55.5t-14 33.5t-29.5 16.5t-49 4.5h-15z" />
    <glyph glyph-name="afii10074" unicode="&#x438;" horiz-adv-x="557" 
d="M348 403v14h-42v20h231v-20h-49v-397h49v-20h-231v20h42v334l-139 -314v-20h42v-20h-231v20h49v397h-49v20h231v-20h-42v-326z" />
    <glyph glyph-name="afii10075" unicode="&#x439;" horiz-adv-x="558" 
d="M349 403v14h-42v20h231v-20h-49v-397h49v-20h-231v20h42v334l-140 -314v-20h42v-20h-231v20h49v397h-49v20h231v-20h-42v-326zM279 508q-41 0 -73.5 9t-55 25t-34 36.5t-11.5 44.5q0 28 18.5 44t42.5 16q20 0 38 -16t18 -42q0 -12 -6 -21q-6 -10 -17 -19.5t-11 -18.5
q0 -5 4 -11.5t14 -12.5t28 -10.5t45 -4.5t44.5 4.5t28 10.5t14.5 12.5t4 11.5q0 11 -10 16.5t-18 21.5l-4 10.5t-2 10.5q0 26 18 42t38 16q24 0 42.5 -16t18.5 -44q0 -21 -10.5 -41.5t-32 -37t-54 -26.5t-77.5 -10z" />
    <glyph glyph-name="afii10076" unicode="&#x43a;" horiz-adv-x="547" 
d="M228 240q23 0 38.5 -1t27.5 8t22 34.5t21 78.5q4 18 9.5 34.5t16 29t27 20t41.5 7.5q35 0 57 -21t22 -51q0 -32 -16.5 -51.5t-42.5 -19.5q-21 0 -31 6.5t-13.5 16t-3.5 21t-0.5 21t-4.5 16t-16 6.5q-16 0 -21.5 -21.5t-10.5 -49t-15 -54t-34 -35.5l1 -3q43 -1 70.5 -11
t44.5 -25t25 -32.5t12 -34.5q4 -19 6 -37t5 -31.5t8 -22t16 -8.5q10 0 19.5 7.5t14.5 15.5l13 -11q-18 -28 -45.5 -42t-58.5 -14q-32 0 -50.5 7t-29.5 22t-17 37t-12 52t-11.5 52t-15.5 36.5t-26.5 21.5t-44.5 7h-16v-201h49v-20h-238v20h49v397h-49v20h238v-20h-49v-177h19
z" />
    <glyph glyph-name="afii10077" unicode="&#x43b;" horiz-adv-x="534" 
d="M240 417q-24 0 -31 -16t-7 -45v-166q0 -42 -2.5 -79t-13 -65t-32 -44t-60.5 -16q-38 0 -64.5 22t-26.5 52q0 12 3 24t10.5 22t19.5 16.5t30 6.5q28 0 39 -14t15.5 -31t9.5 -31t21 -14q14 0 21 17t9.5 41t2 48.5t-0.5 39.5v170q0 25 -5.5 38t-14.5 18t-19.5 5.5t-20.5 0.5
h-19v20h410v-20h-49v-398h49v-19h-238v19h49v398h-85z" />
    <glyph glyph-name="afii10078" unicode="&#x43c;" horiz-adv-x="643" 
d="M23 437h194l113 -268l108 268h185v-20h-49v-397h49v-20h-238v20h49v355l-149 -375h-16l-160 378v-310q0 -28 11.5 -38t40.5 -10h13v-20h-154v20h13q34 0 45 11t11 37v286q0 33 -9 48t-46 15h-11v20z" />
    <glyph glyph-name="afii10079" unicode="&#x43d;" horiz-adv-x="557" 
d="M209 20h42v-20h-231v20h49v397h-49v20h231v-20h-42v-175h139v175h-42v20h231v-20h-49v-397h49v-20h-231v20h42v203h-139v-203z" />
    <glyph glyph-name="afii10080" unicode="&#x43e;" horiz-adv-x="499" 
d="M22 218q0 55 21 98t54 73t73.5 46t78.5 16q37 0 77.5 -16t74 -46t55 -73.5t21.5 -97.5t-21.5 -97t-54.5 -73t-73.5 -46t-78.5 -16q-37 0 -77 16t-73.5 46t-55 73t-21.5 97zM176 126q0 -23 2 -44.5t9.5 -38.5t22 -27t39.5 -10t40 10.5t22.5 27t9.5 38t2 44.5v184
q0 23 -2 45t-9.5 39t-22.5 27t-40 10t-39.5 -10t-22 -27t-9.5 -38.5t-2 -45.5v-184z" />
    <glyph glyph-name="afii10081" unicode="&#x43f;" horiz-adv-x="557" 
d="M209 20h44v-20h-233v20h49v397h-49v20h517v-20h-49v-397h49v-20h-231v20h42v397h-139v-397z" />
    <glyph glyph-name="afii10082" unicode="&#x440;" horiz-adv-x="552" 
d="M18 -209v20h49v606h-50v20h106q27 0 46.5 3t37.5 11v-83q12 35 43.5 59t83.5 24q49 0 86 -21t61.5 -54.5t36.5 -75t12 -82.5q0 -62 -21.5 -106t-53 -72t-67.5 -41t-64 -13q-35 0 -67.5 16.5t-49.5 57.5v-249h49v-20h-238zM376 286q0 44 -7.5 71.5t-19 42.5t-24.5 20.5
t-24 5.5q-19 0 -35.5 -9.5t-29 -33t-20 -63t-7.5 -99.5v-58q0 -50 10 -79t24.5 -44t30 -19.5t26.5 -4.5q24 0 39 12.5t23.5 33t11 45.5t2.5 49v130z" />
    <glyph glyph-name="afii10083" unicode="&#x441;" horiz-adv-x="460" 
d="M438 127q-17 -48 -39.5 -76t-47 -42.5t-48.5 -18.5t-44 -4q-55 0 -99 19.5t-74.5 51t-47 72t-16.5 81.5q0 48 18 91.5t50 77t75.5 53t94.5 19.5q30 0 58 -10.5t50.5 -28.5t36 -42t13.5 -51q0 -35 -20 -56t-51 -21q-30 0 -46.5 22.5t-16.5 53.5q0 19 10.5 28t18.5 22
q2 4 4 7.5t2 8.5q0 21 -16.5 36.5t-50.5 15.5q-25 0 -40 -10.5t-23 -27.5t-10.5 -39.5t-2.5 -47.5v-157q0 -26 2.5 -52t11.5 -48t27 -35.5t49 -13.5q20 0 40.5 5t40 19.5t38 39.5t35.5 65z" />
    <glyph glyph-name="afii10084" unicode="&#x442;" horiz-adv-x="476" 
d="M458 437l10 -178h-24q-5 38 -17.5 67.5t-29 49.5t-34 30.5t-32.5 10.5h-23v-397h49v-20h-238v20h49v397h-23q-12 0 -29 -8t-34 -26.5t-30.5 -49t-19.5 -74.5h-24l10 178h440z" />
    <glyph glyph-name="afii10085" unicode="&#x443;" horiz-adv-x="495" 
d="M40 417h-40v20h243v-20h-53l135 -289l67 203q9 27 6.5 43.5t-12.5 26t-24 13t-28 3.5h-15v20h204v-20h-13q-23 0 -39 -7.5t-26.5 -19.5t-17.5 -27t-12 -30l-113 -345q-20 -62 -42 -100.5t-44.5 -59.5t-45.5 -28.5t-46 -7.5q-24 0 -44.5 8.5t-35 22t-23 31t-8.5 36.5t7 33
t18.5 23t25 13.5t26.5 4.5q23 0 41.5 -15t18.5 -44q0 -18 -6 -29l-11 -20q-5 -12 -5 -21q0 -5 4.5 -11t16.5 -6q10 0 22 4t26 17t29.5 36.5t32.5 61.5z" />
    <glyph glyph-name="afii10086" unicode="&#x444;" horiz-adv-x="782" 
d="M461 397q13 20 36 37t60 17q34 0 70 -14.5t65.5 -43.5t48.5 -72.5t19 -102.5q0 -44 -15 -85.5t-41 -74t-61.5 -52.5t-76.5 -20q-6 0 -19 1t-28 5.5t-30.5 14.5t-27.5 28v-237h49v-19h-238v19h49v237q-20 -26 -45.5 -37.5t-59.5 -11.5q-42 0 -78 20t-61.5 52.5t-40 74
t-14.5 85.5q0 58 19 102t48.5 73t65.5 43.5t70 14.5q30 0 55.5 -14t40.5 -40v227h-51v20h107q31 0 50 3.5t34 10.5v-261zM461 142q0 -70 20 -103t61 -33q22 0 34.5 11t19 27.5t8.5 36t2 37.5v207q0 27 -6.5 45.5t-16.5 30.5t-23 17.5t-26 5.5q-12 0 -24.5 -6t-23.5 -19
t-18 -33t-7 -47v-177zM176 118q0 -23 2.5 -43.5t9.5 -35.5t19 -24t32 -9q30 0 46.5 16t24.5 38t9.5 45t1.5 37v177q0 32 -8 52.5t-19.5 32t-24 16t-21.5 4.5q-13 0 -26 -5.5t-23 -17.5t-16.5 -30.5t-6.5 -45.5v-207z" />
    <glyph glyph-name="afii10087" unicode="&#x445;" horiz-adv-x="527" 
d="M51 417h-43v20h254v-20h-48l91 -144l51 69q9 13 13 20.5t6 12.5q2 6 2 12.5t-2 11.5q-6 14 -19.5 16t-24.5 2h-11v20h172v-20q-35 0 -53 -14t-37 -39l-82 -108l149 -236h50v-20h-273v20h57l-90 145l-75 -96q-11 -14 -9.5 -23.5t9.5 -15t20 -8t22 -2.5h15v-20h-187v20h15
q24 0 46.5 13t36.5 30l94 117z" />
    <glyph glyph-name="afii10088" unicode="&#x446;" horiz-adv-x="564" 
d="M348 417h-44v20h233v-20h-49v-397h69l7 -182h-24q-8 58 -26.5 90.5t-42 48.5t-49.5 19.5t-50 3.5h-352v20h49v397h-49v20h231v-20h-42v-397h139v397z" />
    <glyph glyph-name="afii10089" unicode="&#x447;" horiz-adv-x="518" 
d="M309 205q-29 -14 -71 -26t-79 -12q-22 0 -42 6.5t-35 17.5t-24 27t-9 36v163h-49v20h231v-20h-42v-176q0 -19 14 -28t31 -9q14 0 37.5 7t37.5 14v192h-42v20h231v-20h-49v-397h49v-20h-238v20h49v185z" />
    <glyph glyph-name="afii10090" unicode="&#x448;" horiz-adv-x="804" 
d="M784 20v-20h-764v20h49v397h-49v20h231v-20h-42v-397h123v397h-42v20h224v-20h-42v-397h123v397h-42v20h231v-20h-49v-397h49z" />
    <glyph glyph-name="afii10091" unicode="&#x449;" horiz-adv-x="811" 
d="M20 20h49v397h-49v20h231v-20h-42v-397h123v397h-42v20h224v-20h-42v-397h123v397h-42v20h231v-20h-49v-397h69l7 -182h-24q-8 58 -26.5 90.5t-42 48.5t-49.5 19.5t-50 3.5h-599v20z" />
    <glyph glyph-name="afii10092" unicode="&#x44a;" horiz-adv-x="593" 
d="M348 268q74 0 119.5 -13t70 -32.5t33 -42.5t8.5 -42q0 -24 -9.5 -48.5t-30.5 -44.5t-54 -32.5t-80 -12.5h-277v20h49v397h-34q-9 0 -26.5 -3.5t-35.5 -20t-33.5 -49.5t-22.5 -91h-25l5 184h361v-20h-49v-149h31zM345 20q15 0 29.5 0.5t25.5 8t18 26.5t7 56v49
q0 28 -6 45.5t-17 27t-25.5 13t-31.5 3.5h-28v-229h28z" />
    <glyph glyph-name="afii10093" unicode="&#x44b;" horiz-adv-x="723" 
d="M240 268q66 0 110 -10.5t71 -28.5t38.5 -41t11.5 -48q0 -24 -9.5 -49t-30.5 -45.5t-54 -33t-80 -12.5h-277v20h49v397h-49v20h238v-20h-49v-149h31zM237 20q14 0 28.5 0.5t26 7t18.5 23t7 49.5v60q0 12 -1.5 27.5t-9 29t-24 23t-45.5 9.5h-28v-229h28zM703 20v-20h-231
v20h49v397h-49v20h231v-20h-42v-397h42z" />
    <glyph glyph-name="afii10094" unicode="&#x44c;" horiz-adv-x="485" 
d="M240 268q66 0 110 -10.5t71 -28.5t38.5 -41t11.5 -48q0 -24 -9.5 -49t-30.5 -45.5t-54 -33t-80 -12.5h-277v20h49v397h-49v20h238v-20h-49v-149h31zM237 20q14 0 28.5 0.5t26 7t18.5 23.5t7 50v59q0 12 -1.5 27.5t-9 29t-24 23t-45.5 9.5h-28v-229h28z" />
    <glyph glyph-name="afii10095" unicode="&#x44d;" horiz-adv-x="438" 
d="M37 279l6 172h24q0 -5 2 -10.5t5 -5.5q14 0 44 8t74 8q45 0 85.5 -16.5t71.5 -46.5t49 -72.5t18 -93.5q0 -48 -18.5 -91t-50.5 -75.5t-74.5 -51t-90.5 -18.5q-37 0 -67.5 9.5t-52 26t-33.5 38t-12 45.5q0 32 22 51.5t51 19.5q32 0 47.5 -19.5t15.5 -42.5q0 -18 -9 -31
q-4 -6 -9.5 -10.5t-11 -8.5t-9 -7.5t-3.5 -8.5q0 -6 2.5 -13.5t10 -14t21 -10.5t36.5 -4q24 0 39.5 9.5t24.5 26.5t13 40t4 49v89h-146v19h146v51q0 28 -2.5 54t-11.5 45t-26.5 30.5t-48.5 11.5q-28 0 -47 -12t-32 -32.5t-21.5 -48t-15.5 -59.5h-20z" />
    <glyph glyph-name="afii10096" unicode="&#x44e;" horiz-adv-x="756" 
d="M277 233q3 60 28.5 101.5t60.5 67.5t73 37.5t66 11.5q37 0 77.5 -15t74.5 -44t55.5 -72.5t21.5 -101.5q0 -57 -21.5 -100.5t-55 -73t-74 -44t-78.5 -14.5q-37 0 -77 14.5t-73.5 43t-55.5 71t-22 98.5h-68v-193h49v-20h-238v20h49v397h-49v20h238v-20h-49v-184h68z
M432 126q0 -23 2 -44.5t9.5 -38.5t22 -27t39.5 -10t40 10.5t22.5 27t9.5 38t2 44.5v184q0 23 -2 45t-9.5 39t-22.5 27t-40 10t-39.5 -10t-22 -27t-9.5 -38.5t-2 -45.5v-184z" />
    <glyph glyph-name="afii10097" unicode="&#x44f;" horiz-adv-x="551" 
d="M325 216q-30 0 -48.5 -12.5t-30 -31.5t-17.5 -41.5t-12 -42.5q-10 -35 -21 -55.5t-23.5 -31t-27 -13t-32.5 -2.5q-14 0 -27.5 2t-26.5 8t-27 17.5t-29 31.5l13 12q2 -5 6.5 -10.5t10.5 -5.5q18 0 25.5 10.5t12.5 28l11 39t21 44.5q9 13 21.5 23t30.5 16.5t43 11.5t61 10
v3q-35 0 -69 4t-61.5 15t-44.5 32.5t-17 57.5q0 39 21 59.5t53.5 30t72 10.5t76.5 1h241v-20h-49v-397h49v-20h-238v20h49v196h-17zM342 417h-43q-11 0 -24.5 -1.5t-25.5 -9.5t-20 -25.5t-8 -49.5q0 -20 2 -37t12.5 -30.5t31.5 -21t59 -7.5h16v182z" />
    <glyph glyph-name="Euro" unicode="&#x20ac;" horiz-adv-x="568" 
d="M497 525q-8 48 -36.5 69.5t-71.5 21.5q-65 0 -95.5 -58t-37.5 -158h215l-21 -49h-196v-30v-29h170l-20 -49h-149q6 -100 40.5 -152t94.5 -52q39 0 69 20.5t38 67.5h26l-7 -93q-21 -20 -58 -33.5t-108 -13.5q-124 0 -186.5 66t-76.5 190h-70l21 49h42q-1 8 -1 16.5v15.5
v27h-62l21 49h45q8 64 26.5 114t50.5 84.5t78.5 52.5t111.5 18q37 0 64.5 -4t47 -10.5t32.5 -14.5t22 -17l7 -98h-26z" />
    <glyph glyph-name="afii61352" unicode="&#x2116;" horiz-adv-x="1134" 
d="M653 -14l-368 592v-446q0 -32 -6 -59t-20 -46.5t-37.5 -30t-58.5 -10.5q-17 0 -38 5.5t-39.5 17.5t-31 31.5t-12.5 48.5q0 39 20.5 60.5t49.5 21.5q26 0 45.5 -18t19.5 -50q0 -8 -2.5 -15t-6.5 -14q-6 -11 -13 -19.5t-7 -17.5q0 -11 10 -18.5t35 -7.5q20 0 32.5 9.5
t19.5 26t9.5 38t2.5 44.5v431q0 15 -2 28t-9.5 22t-21.5 14.5t-38 5.5h-18v25h238l267 -417v312q0 17 5.5 38t19.5 39t39 30t63 12q28 0 49.5 -10t35.5 -26t21.5 -36t7.5 -39q0 -38 -23 -55.5t-52 -17.5t-46.5 19t-17.5 47q0 22 14 41l9.5 11.5t4.5 12.5q0 2 -1 6.5t-4 8.5
t-9.5 7t-17.5 3q-19 0 -33 -9t-23 -22.5t-13.5 -30t-4.5 -31.5v-562h-44zM919 68q-37 0 -68.5 15.5t-54 41t-35 59.5t-12.5 71t14 69.5t37.5 57t54 38.5t63.5 14q34 0 65 -13t54.5 -36t37.5 -54.5t14 -68.5q0 -40 -13.5 -75t-36.5 -61.5t-54 -42t-66 -15.5zM871 143
q0 -6 1 -15.5t6 -18.5t14.5 -15t27.5 -6q17 0 26.5 5.5t14 13.5t5.5 18t1 18v218q0 33 -15.5 43.5t-32.5 10.5q-18 0 -27.5 -6t-14 -14t-5.5 -18t-1 -17v-217zM1092 0h-342v35h342v-35z" />
    <glyph glyph-name="guilsinglright" unicode="&#x203a;" horiz-adv-x="313" 
d="M40 425q57 -67 118 -119t127 -93q-66 -41 -127 -93.5t-118 -119.5l-12 11q25 55 54 105t61 97q-32 46 -61 96t-54 105z" />
    <glyph glyph-name="guilsinglleft" unicode="&#x2039;" horiz-adv-x="313" 
d="M273 0q-57 67 -118 119.5t-127 93.5q66 41 127 93t118 119l12 -11q-49 -108 -116 -201q33 -47 62 -97t54 -105z" />
    <glyph glyph-name="uni00AD" unicode="&#xad;" horiz-adv-x="378" 
d="M308 184h-238v76h238v-76z" />
    <glyph glyph-name="quotedbl" unicode="&#x22;" horiz-adv-x="465" 
d="M199 658l-56 -263h-53l-56 263h165zM431 658l-56 -263h-53l-56 263h165z" />
    <glyph glyph-name="exclam" unicode="!" horiz-adv-x="355" 
d="M229 397q-7 -21 -14 -45.5t-12.5 -49.5t-10 -49t-6.5 -43h-17q-1 22 -6 47.5t-12.5 52t-16 52l-16.5 47.5q-13 35 -23.5 68.5t-10.5 74.5q0 30 8 52.5t20.5 36.5t29 21t34.5 7t35.5 -7t30.5 -20.5t21 -34t8 -47.5q0 -49 -14.5 -88zM94 70q0 35 24.5 59.5t59.5 24.5
q21 0 36.5 -8t26 -20.5t16 -27.5t5.5 -28q0 -14 -5.5 -28.5t-16 -27t-26 -20.5t-36.5 -8q-35 0 -59.5 24.5t-24.5 59.5z" />
  </font>
</defs>
</svg>
